<?xml version="1.0" encoding="utf-8"?>
<!-- Generator: Adobe Illustrator 21.0.0, SVG Export Plug-In . SVG Version: 6.00 Build 0)  -->
<svg version="1.1" id="图层_1" xmlns="http://www.w3.org/2000/svg" xmlns:xlink="http://www.w3.org/1999/xlink" x="0px" y="0px"
	 viewBox="0 0 200 200" style="enable-background:new 0 0 200 200;" xml:space="preserve">
<path d="M91.5,91.5V66c0-4.7,3.8-8.5,8.5-8.5h0c4.7,0,8.5,3.8,8.5,8.5v25.5H134c4.7,0,8.5,3.8,8.5,8.5v0c0,4.7-3.8,8.5-8.5,8.5
	h-25.5V134c0,4.7-3.8,8.5-8.5,8.5h0c-4.7,0-8.5-3.8-8.5-8.5v-25.5H66c-4.7,0-8.5-3.8-8.5-8.5v0c0-4.7,3.8-8.5,8.5-8.5H91.5z"/>
<path d="M100,15c-46.9,0-85,38.1-85,85c0,46.9,38.1,85,85,85s85-38.1,85-85C185,53.1,146.9,15,100,15z M100,168
	c-37.6,0-68-30.4-68-68s30.4-68,68-68c37.6,0,68,30.4,68,68C168,137.6,137.6,168,100,168z"/>
</svg>
