<?xml version="1.0" encoding="utf-8"?>
<!-- Generator: Adobe Illustrator 21.0.0, SVG Export Plug-In . SVG Version: 6.00 Build 0)  -->
<svg version="1.1" id="图层_1" xmlns="http://www.w3.org/2000/svg" xmlns:xlink="http://www.w3.org/1999/xlink" x="0px" y="0px"
	 viewBox="0 0 200 200" style="enable-background:new 0 0 200 200;" xml:space="preserve">
<path d="M101.6,185c-48.2,0.9-87.5-38.4-86.6-86.6C15.9,52.9,52.9,15.9,98.4,15c48.2-0.9,87.5,38.4,86.6,86.6
	C184.1,147.1,147.1,184.1,101.6,185z M91.5,91.5H66c-4.7,0-8.5,3.8-8.5,8.5v0c0,4.7,3.8,8.5,8.5,8.5h25.5V134c0,4.7,3.8,8.5,8.5,8.5
	h0c4.7,0,8.5-3.8,8.5-8.5v-25.5H134c4.7,0,8.5-3.8,8.5-8.5v0c0-4.7-3.8-8.5-8.5-8.5h-25.5V66c0-4.7-3.8-8.5-8.5-8.5h0
	c-4.7,0-8.5,3.8-8.5,8.5V91.5z"/>
</svg>
