<?xml version="1.0" encoding="utf-8"?>
<!-- Generator: Adobe Illustrator 21.0.0, SVG Export Plug-In . SVG Version: 6.00 Build 0)  -->
<svg version="1.1" id="图层_1" xmlns="http://www.w3.org/2000/svg" xmlns:xlink="http://www.w3.org/1999/xlink" x="0px" y="0px"
	 viewBox="0 0 200 200" style="enable-background:new 0 0 200 200;" xml:space="preserve">
<path d="M149.7,92.9c3.9,0,7,3.2,7,7v0c0,3.9-3.2,7-7,7h-42.6v42.6c0,3.9-3.2,7-7,7h-0.1c-3.9,0-7-3.2-7-7V107H50.3
	c-3.9,0-7-3.2-7-7v0c0-3.9,3.2-7,7-7h42.6V50.3c0-3.9,3.2-7,7-7h0c3.9,0,7,3.2,7,7v42.6H149.7z"/>
</svg>
