<?xml version="1.0" encoding="utf-8"?>
<!-- Generator: Adobe Illustrator 21.0.0, SVG Export Plug-In . SVG Version: 6.00 Build 0)  -->
<svg version="1.1" id="图层_1" xmlns="http://www.w3.org/2000/svg" xmlns:xlink="http://www.w3.org/1999/xlink" x="0px" y="0px"
	 viewBox="0 0 200 200" style="enable-background:new 0 0 200 200;" xml:space="preserve">
<path d="M181.1,17.9c-5.7-3.8-12.3-3.8-17.9-1.9c-7.5,2.8-15.1,7.5-20.7,13.2L122.6,49L42.4,30.2c-0.9,0-2.8,0-3.8,0.9L23.6,46.2
	c-1.9,1.9-1.9,3.8,0,5.7l0.9,0.9l61.3,34l-31.1,31.1l-23.6-6.6h-0.9c-0.9,0-1.9,0-2.8,0.9L16,123.5c-1.9,1.9-1.9,3.8,0,5.7
	l30.2,22.6L68.9,182c0.9,0.9,1.9,1.9,2.8,1.9c0.9,0,1.9,0,2.8-0.9l11.3-11.3c0.9-0.9,0.9-2.8,0.9-3.8l-6.6-23.6l31.1-31.1l35.8,62.2
	c0.9,0.9,1.9,1.9,2.8,1.9h0.9c0.9,0,1.9,0,1.9-0.9l15.1-11.3c0.9-0.9,1.9-2.8,1.9-3.8L150,77.3l19.8-19.8
	c5.7-5.7,10.4-13.2,13.2-20.7C185.8,30.2,184.9,23.6,181.1,17.9z"/>
</svg>
