<?xml version="1.0" encoding="utf-8"?>
<!-- Generator: Adobe Illustrator 21.0.0, SVG Export Plug-In . SVG Version: 6.00 Build 0)  -->
<svg version="1.1" id="图层_1" xmlns="http://www.w3.org/2000/svg" xmlns:xlink="http://www.w3.org/1999/xlink" x="0px" y="0px"
	 viewBox="0 0 200 200" style="enable-background:new 0 0 200 200;" xml:space="preserve">
<path d="M170.5,21.8c2,0,3.8,0.4,5.5,1.3c1.9,3.6,2.1,7.3,0.5,11l-0.1,0.1l-0.1,0.1c-2.5,6.7-6.7,13.3-11.6,18.2l-19.8,19.8
	l-2.8,2.8l0.9,3.8l19,81.6l-11,8.2l-33.9-59l-4.6-7.9l-6.5,6.5l-31.1,31.1l-2.9,2.9l1.1,3.9l6.1,21.9l-7,7l-20.7-27.5l-0.6-0.8
	l-0.8-0.6l-27-20.2l7.5-7.5l21.9,6.1l3.9,1.1l2.9-2.9l31.1-31.1l6.6-6.6l-8.1-4.5l-58-32.2l11.1-11.1L121,55.8l3.8,0.9l2.8-2.7
	l19.9-19.8l0,0l0,0c4.7-4.8,11.3-9,18.1-11.5C167.2,22,168.9,21.8,170.5,21.8 M170.5,14.8c-2.5,0-5,0.5-7.3,1.2
	c-7.5,2.8-15.1,7.5-20.7,13.2L122.6,49L42.4,30.2c-0.9,0-2.8,0-3.8,0.9l-15,15.1c-1.9,1.9-1.9,3.8,0,5.7l0.9,0.9l61.3,34l-31.1,31.1
	l-23.6-6.6h-0.9c-0.9,0-1.9,0-2.8,0.9L16,123.5c-1.9,1.9-1.9,3.8,0,5.7l30.2,22.6L68.9,182c0.9,0.9,1.9,1.9,2.8,1.9s1.9,0,2.8-0.9
	l11.3-11.3c0.9-0.9,0.9-2.8,0.9-3.8l-6.6-23.6l31.1-31.1l35.8,62.2c0.9,0.9,1.9,1.9,2.8,1.9h0.9c0.9,0,1.9,0,1.9-0.9l15.1-11.3
	c0.9-0.9,1.9-2.8,1.9-3.8l-19.6-84l19.8-19.8c5.7-5.7,10.4-13.2,13.2-20.7c2.8-6.6,1.9-13.2-1.9-18.9
	C177.8,15.7,174.1,14.8,170.5,14.8L170.5,14.8z"/>
</svg>
