<?xml version="1.0" encoding="utf-8"?>
<!-- Generator: Adobe Illustrator 21.0.0, SVG Export Plug-In . SVG Version: 6.00 Build 0)  -->
<svg version="1.1" id="图层_1" xmlns="http://www.w3.org/2000/svg" xmlns:xlink="http://www.w3.org/1999/xlink" x="0px" y="0px"
	 viewBox="0 0 200 200" style="enable-background:new 0 0 200 200;" xml:space="preserve">
<path d="M166.8,81.5l-43,0.2L96.1,34.3c-1.5-2.5-4.2-4.1-7.1-4.1H77.2c-8.7,0-9.5,5.4-7.9,10.7l11.1,40.5l-26.8,0.2L38.8,67.1H23.1
	c-4.6,0-7.9,4.6-6.3,8.9l8.9,24.2l-10.1,22.9c-1.9,4.4,1.3,9.3,6.1,9.3h16.8l14.2-14.6l28.1-0.4l-12.4,41.2
	c-1.6,5.2,2.2,10.5,7.6,10.7l12.6,0.5c3,0.1,5.9-1.4,7.4-4l29.1-48.7l41.4,0.7c10.1,0.2,18.5-8,18.5-18.1
	C185,89.6,176.8,81.5,166.8,81.5z"/>
</svg>
