<?xml version="1.0" encoding="utf-8"?>
<!-- Generator: Adobe Illustrator 21.0.0, SVG Export Plug-In . SVG Version: 6.00 Build 0)  -->
<svg version="1.1" id="图层_1" xmlns="http://www.w3.org/2000/svg" xmlns:xlink="http://www.w3.org/1999/xlink" x="0px" y="0px"
	 viewBox="0 0 200 200" style="enable-background:new 0 0 200 200;" xml:space="preserve">
<g>
	<path d="M176.2,72.8c1.7-1.9,3.2-4.1,4.5-6.4c9.2-16.8,3.1-37.9-13.7-47.2c-14.8-8.1-32.8-4.4-43.3,8
		C147.1,34.2,166.2,51,176.2,72.8z"/>
	<path d="M100,36.9c-39.1,0-70.8,31.8-70.8,70.8c0,39.1,31.8,70.8,70.8,70.8s70.8-31.8,70.8-70.8C170.8,68.6,139.1,36.9,100,36.9z
		 M107.7,107.7c0,2.2-0.8,4.1-2.2,5.5c-1.4,1.5-3.4,2.3-5.5,2.3H73c-4.3,0-7.7-3.5-7.7-7.7c0-4.3,3.5-7.7,7.7-7.7h19.3v-31
		c0-4.3,3.5-7.7,7.7-7.7c4.3,0,7.7,3.5,7.7,7.7V107.7z"/>
	<path d="M32.2,156.9l-14.9,14.9c-2.9,3-2.9,7.7,0,10.7c2.9,3.1,7.8,3.2,10.9,0.2l14.2-14.2C38.6,165,35.2,161.1,32.2,156.9z"/>
	<path d="M182.8,171.8l-15-15c-3,4.2-6.5,8.1-10.2,11.7l14.3,14.2c3,2.9,7.7,2.9,10.7,0C185.7,179.8,185.8,174.9,182.8,171.8z"/>
	<path d="M76.3,27.3c-1.7-2-3.6-3.7-5.6-5.3C55.4,10.4,33.5,13.4,22,28.8c-10.1,13.5-9,32,1.8,44.1C33.8,51,52.9,34.2,76.3,27.3z"/>
</g>
</svg>
