<?xml version="1.0" encoding="utf-8"?>
<!-- Generator: Adobe Illustrator 21.0.0, SVG Export Plug-In . SVG Version: 6.00 Build 0)  -->
<svg version="1.1" id="图层_1" xmlns="http://www.w3.org/2000/svg" xmlns:xlink="http://www.w3.org/1999/xlink" x="0px" y="0px"
	 viewBox="0 0 200 200" style="enable-background:new 0 0 200 200;" xml:space="preserve">
<path d="M105.5,113.2c-1.4,1.5-3.4,2.3-5.5,2.3H73c-4.3,0-7.7-3.5-7.7-7.7c0-4.3,3.5-7.7,7.7-7.7h19.3v-31c0-4.3,3.5-7.7,7.7-7.7
	c4.3,0,7.7,3.5,7.7,7.7v38.6C107.7,109.9,106.9,111.8,105.5,113.2z M28.8,77.5C13.5,66,10.5,44.2,22,28.8S55.4,10.5,70.7,22
	c3.9,3,7.2,6.7,9.5,11c6.4-1.7,13.1-2.6,19.8-2.6c6.8,0,13.4,0.9,19.8,2.6c9.3-16.8,30.4-22.9,47.2-13.7
	c16.8,9.3,22.9,30.4,13.7,47.2c-2.4,4.3-5.6,8-9.5,11c3.9,9.3,6.1,19.5,6.1,30.2c0,16.6-5.2,31.9-14.1,44.5l19.6,19.6
	c3,3.1,2.9,8-0.2,10.9c-3,2.9-7.7,2.9-10.7,0L153,163.9c-14.3,13.5-33.3,21.1-53,21.1s-38.7-7.5-53-21.1l-18.8,18.8
	c-3.1,3-8,2.9-10.9-0.2c-2.9-3-2.9-7.7,0-10.7l19.6-19.6c-9.2-13-14.1-28.6-14.1-44.5C22.7,97,24.9,86.8,28.8,77.5L28.8,77.5z
	 M36.4,63.8c7.4-10.7,17.4-19.4,29.1-25.2c-6.2-8.7-18.3-10.7-26.9-4.5S27.8,52.3,34,61C34.8,62,35.6,62.9,36.4,63.8z M134.5,38.6
	c11.6,5.8,21.6,14.5,29.1,25.2c7.7-7.4,8-19.6,0.7-27.3c-7.4-7.7-19.6-8-27.3-0.7C136,36.6,135.2,37.6,134.5,38.6z M100,169.5
	c34.1,0,61.8-27.7,61.8-61.8S134.1,45.9,100,45.9s-61.8,27.7-61.8,61.8S65.9,169.5,100,169.5z"/>
</svg>
