<?xml version="1.0" encoding="utf-8"?>
<!-- Generator: Adobe Illustrator 21.0.0, SVG Export Plug-In . SVG Version: 6.00 Build 0)  -->
<svg version="1.1" id="图层_1" xmlns="http://www.w3.org/2000/svg" xmlns:xlink="http://www.w3.org/1999/xlink" x="0px" y="0px"
	 viewBox="0 0 200 200" style="enable-background:new 0 0 200 200;" xml:space="preserve">
<path d="M107,29.1l76.9,133.2c2.2,3.9,0.9,8.8-3,11c-1.2,0.7-2.6,1.1-4,1.1H23.1c-4.5,0-8.1-3.6-8.1-8.1c0-1.4,0.4-2.8,1.1-4
	L93,29.1c2.2-3.9,7.2-5.2,11-3C105.3,26.8,106.3,27.9,107,29.1z M37.1,158.3h125.9L100,49.3C100,49.3,37.1,158.3,37.1,158.3z
	 M91.9,134.1h16.2v16.2H91.9V134.1z M91.9,77.5h16.2v40.4H91.9V77.5z"/>
</svg>
