<?xml version="1.0" encoding="utf-8"?>
<!-- Generator: Adobe Illustrator 21.0.0, SVG Export Plug-In . SVG Version: 6.00 Build 0)  -->
<svg version="1.1" id="图层_1" xmlns="http://www.w3.org/2000/svg" xmlns:xlink="http://www.w3.org/1999/xlink" x="0px" y="0px"
	 viewBox="0 0 200 200" style="enable-background:new 0 0 200 200;" xml:space="preserve">
<path d="M116.9,129.6c-6.8,0.3-6.1-3.2-2.1-8.7c9.3-12.4,27.1-29.7,27.7-42c1.1-16-15.2-21.2-31.9-21.1C99,58,86.9,61.2,78.7,64.2
	C50.4,74.1,32.6,90,21.4,107.5c-11.9,17.4-8,34,17.1,34.6c19.2-0.8,31.7-6.1,44.8-12.6c0.1,0-36,10.2-49.3,2.7l0,0
	c-1.4-0.8-2.9-1.8-3.3-4.8c-0.1-6.2,10.3-12.6,16.2-14.7v-10.5c12,4.2,26.1,2.9,38.3-6c0.5,1.2,0.7,2.5,0.6,3.8H88
	c0.5-4.2-2.5-8.3-7.1-8.6c1.3,1.1,2.4,2,2.8,2.8c0,0.1-0.3,0.3-0.3,0.3c-15.7,11-30.8,5.9-32.3,5.5l8.7-8.5l-2.4-6.1
	c17.2-6,31.7-10.6,55.3-14.6l-5.3-4.4l2.8-1.7c14.2,4,23.6,6.9,23.1,14.4c-0.3,1.3-0.7,2.7-1.5,4.3c-4.1,8.1-16.5,21.7-21.5,27.4
	c-3.3,3.8-6.5,7.4-8.8,11c-2.4,3.5-3.8,6.8-3.9,10c0.3,24.6,73.2-11.5,87.3-21.1C164.2,119.4,141.7,128,116.9,129.6z"/>
<path d="M83.3,129.5L83.3,129.5L83.3,129.5z"/>
</svg>
