<?xml version="1.0" encoding="utf-8"?>
<!-- Generator: Adobe Illustrator 21.0.0, SVG Export Plug-In . SVG Version: 6.00 Build 0)  -->
<svg version="1.1" id="图层_1" xmlns="http://www.w3.org/2000/svg" xmlns:xlink="http://www.w3.org/1999/xlink" x="0px" y="0px"
	 viewBox="0 0 200 200" style="enable-background:new 0 0 200 200;" xml:space="preserve">
<path d="M100,15c46.9,0,85,38.1,85,85c0,11.2-2.2,21.9-6.1,31.7l-54.1-18.5c0.2-0.3,3.6-5.4,6.9-15.1c3.7-10,4.2-15.6,4.2-15.6
	l-28-0.2v-9.8l33.9-0.2v-7.1h-33.9V49.4H91.1V65H59v7.1l31.7-0.2v10.5H65.4v5.5h52.3c-0.5,3.4-1.3,6.8-2.4,10
	c-1.3,3.4-2.7,6.8-4.1,10.2l0,0.1c0,0-24.5-8.8-37.6-8.8c-13,0-28.7,5.5-30.2,20.9s7.4,23.9,19.9,26.9c12.3,3.1,23.8,0,33.9-5.1
	c10-5.1,19.9-16.3,19.9-16.3l50.8,25.3C152.4,171.7,127.8,185,100,185c-46.9,0-85-38.1-85-85S53.1,15,100,15z M68.4,106
	c14.9-1,35.3,11,35.3,11l-0.1,0.1c-1.1,1.3-15.5,18.6-32.6,18.6c-17.8,0-21.4-9-21.4-15.3C49.7,114.1,53.5,107.1,68.4,106L68.4,106z
	"/>
</svg>
