<?xml version="1.0" encoding="utf-8"?>
<!-- Generator: Adobe Illustrator 21.0.0, SVG Export Plug-In . SVG Version: 6.00 Build 0)  -->
<svg version="1.1" id="图层_1" xmlns="http://www.w3.org/2000/svg" xmlns:xlink="http://www.w3.org/1999/xlink" x="0px" y="0px"
	 viewBox="0 0 200 200" style="enable-background:new 0 0 200 200;" xml:space="preserve">
<path d="M52.2,31.7C65.8,20.9,82.6,15,100,15c18.1,0,34.7,6.3,47.8,16.7l12.4-12.4l12,12l-12.4,12.4c10.9,13.5,16.8,30.4,16.7,47.8
	v8.5h-153v-8.5c0-18.1,6.3-34.7,16.7-47.8L27.9,31.4l12-12L52.2,31.7L52.2,31.7z M23.5,117h153v59.5c0,4.7-3.8,8.5-8.5,8.5H32
	c-4.7,0-8.5-3.8-8.5-8.5V117z M74.5,74.5c4.7,0,8.5-3.8,8.5-8.5s-3.8-8.5-8.5-8.5c-4.7,0-8.5,3.8-8.5,8.5S69.8,74.5,74.5,74.5z
	 M125.5,74.5c4.7,0,8.5-3.8,8.5-8.5s-3.8-8.5-8.5-8.5c-4.7,0-8.5,3.8-8.5,8.5S120.8,74.5,125.5,74.5z"/>
</svg>
