<?xml version="1.0" encoding="utf-8"?>
<!-- Generator: Adobe Illustrator 21.0.0, SVG Export Plug-In . SVG Version: 6.00 Build 0)  -->
<svg version="1.1" id="图层_1" xmlns="http://www.w3.org/2000/svg" xmlns:xlink="http://www.w3.org/1999/xlink" x="0px" y="0px"
	 viewBox="0 0 200 200" style="enable-background:new 0 0 200 200;" xml:space="preserve">
<path d="M101.1,63.8c-6.7,0-17.1-7.6-28.1-7.4c-14.4,0.2-27.7,8.4-35.1,21.3c-15,26-3.9,64.5,10.8,85.6
	c7.2,10.3,15.6,21.9,26.9,21.5c10.8-0.5,14.8-7,27.9-7c13,0,16.6,7,28.1,6.7c11.6-0.2,18.9-10.5,26-20.9c8.2-12,11.6-23.5,11.8-24.2
	c-0.3-0.1-22.5-8.6-22.8-34.4C146.2,83.7,164,73.4,164.8,73c-10.1-14.8-25.7-16.5-31.1-16.8C119.6,55,107.7,63.8,101.1,63.8z
	 M125,42.1c6-7.2,9.9-17.2,8.8-27.1c-8.6,0.4-18.9,5.7-25,12.9c-5.5,6.3-10.3,16.6-9,26.3C109.3,54.9,119,49.3,125,42.1z"/>
</svg>
