<?xml version="1.0" encoding="utf-8"?>
<!-- Generator: Adobe Illustrator 21.0.0, SVG Export Plug-In . SVG Version: 6.00 Build 0)  -->
<svg version="1.1" id="图层_1" xmlns="http://www.w3.org/2000/svg" xmlns:xlink="http://www.w3.org/1999/xlink" x="0px" y="0px"
	 viewBox="0 0 200 200" style="enable-background:new 0 0 200 200;" xml:space="preserve">
<style type="text/css">
	.st0{fill:#FFFFFF;}
</style>
<path d="M145.3,184.6H51.7c-21.1,0-38.2-17.1-38.2-38.2V52.8c0-21.1,17.1-38.2,38.2-38.2h93.7c21.1,0,38.2,17.1,38.2,38.2v93.7
	C183.5,167.6,166.4,184.6,145.3,184.6z"/>
<path class="st0" d="M73,128.4c-3.4-4.1-7.5-5.5-12.6-4.3l-1.3,0.3l-5,8.6c-2,3.3-1,7.6,2.3,9.6c3.1,1.9,7.2,1.1,9.3-1.8l0.5-0.8
	L73,128.4L73,128.4z"/>
<path class="st0" d="M110.3,71.6c-4.1,3.4-8.3,13.6-2.5,23.7l25.8,44.8c2,3.3,6.3,4.4,9.6,2.5c3-1.8,4.2-5.4,3-8.6l-0.4-0.9
	l-6.8-11.8h10.1c3.8,0,7-3.1,7-7l0,0c0-3.5-2.6-6.5-6.1-6.9l-0.9-0.1h-18.2L112.2,75L110.3,71.6L110.3,71.6z"/>
<path class="st0" d="M112.6,45.7c-3-1.7-6.9-1-9,1.8l-0.5,0.8l-3.1,5.4l-3.1-5.4c-2-3.3-6.3-4.4-9.6-2.5c-3,1.8-4.2,5.4-3,8.6
	l0.4,0.8l7.1,12.4L69,107.2H51.3c-3.8,0-7,3.1-7,7l0,0c0,3.6,2.7,6.5,6.1,6.9l0.9,0.1h63.6c2.9-5.4-0.5-13.2-6.9-13.9l-1-0.1H85.2
	l30-51.9C117.1,51.9,116,47.7,112.6,45.7z"/>
</svg>
