<?xml version="1.0" encoding="utf-8"?>
<!-- Generator: Adobe Illustrator 21.0.0, SVG Export Plug-In . SVG Version: 6.00 Build 0)  -->
<svg version="1.1" id="图层_1" xmlns="http://www.w3.org/2000/svg" xmlns:xlink="http://www.w3.org/1999/xlink" x="0px" y="0px"
	 viewBox="0 0 200 200" style="enable-background:new 0 0 200 200;" xml:space="preserve">
<title>数据资产图标-前台</title>
<g>
	<path d="M66.4,48.4c0-0.1,0-0.1,0-0.2V25.5c0-4.4-3.6-8-8-8H23.1c0,0,0,0,0,0c-4.5,0-8,3.7-8,8.1v22.6c0,0.1,0,0.1,0,0.2
		s0,0.1,0,0.2v64.9c0,0.1,0,0.1,0,0.2s0,0.1,0,0.2v60.7c0,4.4,3.6,8,8,8h35.3c0,0,0,0,0,0c4.5,0,8-3.7,8-8.1v-60.6
		c0-0.1,0-0.1,0-0.2s0-0.1,0-0.2V48.6C66.4,48.5,66.4,48.4,66.4,48.4z M25.1,53.5h31.1v55.1H25.1V53.5z M56.2,27.8v15.5H25.1V27.8
		H56.2z M25.1,172.2v-53.5h31.1v53.5H25.1z"/>
	<path d="M43.6,127.9h-5.7c-2.8,0-5.1,2.3-5.1,5.1c0,2.8,2.3,5.1,5.1,5.1h5.7c2.8,0,5.1-2.3,5.1-5.1
		C48.6,130.2,46.4,127.9,43.6,127.9z"/>
	<path d="M125.7,48.4c0-0.1,0-0.1,0-0.2V25.5c0-4.4-3.6-8-8-8H82.4c0,0,0,0,0,0c-4.5,0-8,3.7-8,8.1v22.6c0,0.1,0,0.1,0,0.2
		s0,0.1,0,0.2v64.9c0,0.1,0,0.1,0,0.2s0,0.1,0,0.2v60.7c0,4.4,3.6,8,8,8h35.3c0,0,0,0,0,0c4.5,0,8-3.7,8-8.1v-60.6
		c0-0.1,0-0.1,0-0.2s0-0.1,0-0.2V48.6C125.7,48.5,125.7,48.4,125.7,48.4z M84.4,53.5h31.1v55.1H84.4V53.5z M115.5,27.8v15.5H84.4
		V27.8H115.5z M84.4,172.2v-53.5h31.1v53.5H84.4z"/>
	<path d="M102.9,127.9h-5.7c-2.8,0-5.1,2.3-5.1,5.1c0,2.8,2.3,5.1,5.1,5.1h5.7h0c2.8,0,5.1-2.3,5.1-5.1
		C108,130.2,105.7,127.9,102.9,127.9z"/>
	<path d="M185,113.4V48.6c0-0.1,0-0.1,0-0.2s0-0.1,0-0.2V25.5c0-4.4-3.6-8-8-8h-35.3c0,0,0,0,0,0c-4.5,0-8,3.7-8,8.1v22.6
		c0,0.1,0,0.1,0,0.2s0,0.1,0,0.2v64.9c0,0.1,0,0.1,0,0.2s0,0.1,0,0.2v60.7c0,4.4,3.6,8,8,8h35.3c0,0,0,0,0,0c4.5,0,8-3.7,8-8.1
		v-60.6c0-0.1,0-0.1,0-0.2S185,113.5,185,113.4z M143.8,53.5h31.1v55.1h-31.1V53.5z M174.9,27.8v15.5h-31.1V27.8H174.9z
		 M143.8,172.2v-53.5h31.1v53.5H143.8z"/>
	<path d="M162.2,127.9h-5.7c-2.8,0-5.1,2.3-5.1,5.1c0,2.8,2.3,5.1,5.1,5.1h5.7c2.8,0,5.1-2.3,5.1-5.1
		C167.3,130.2,165,127.9,162.2,127.9z"/>
</g>
</svg>
