<?xml version="1.0" encoding="utf-8"?>
<!-- Generator: Adobe Illustrator 21.0.0, SVG Export Plug-In . SVG Version: 6.00 Build 0)  -->
<svg version="1.1" id="图层_1" xmlns="http://www.w3.org/2000/svg" xmlns:xlink="http://www.w3.org/1999/xlink" x="0px" y="0px"
	 viewBox="0 0 200 200" style="enable-background:new 0 0 200 200;" xml:space="preserve">
<path d="M45.6,104.6c18.5-4,16-26.1,15.4-30.9c-0.9-7.4-9.7-20.4-21.6-19.4c-15,1.3-17.1,22.9-17.1,22.9
	C20.3,87.2,27.1,108.6,45.6,104.6z M65.2,143c-0.5,1.6-1.7,5.5-0.7,9c2.1,7.8,8.8,8.1,8.8,8.1H83v-23.7H72.6
	C68,137.8,65.7,141.4,65.2,143z M79.9,67.5c10.2,0,18.5-11.8,18.5-26.3c0-14.5-8.2-26.3-18.5-26.3c-10.2,0-18.5,11.7-18.5,26.3
	C61.4,55.8,69.7,67.5,79.9,67.5z M123.9,69.3c13.6,1.8,22.4-12.8,24.2-23.8c1.8-11-7-23.8-16.7-26c-9.7-2.2-21.8,13.3-22.9,23.4
	C107.2,55.2,110.2,67.5,123.9,69.3z M123.9,100.2c-16.7-26-40.4-15.4-48.4-2.2c-7.9,13.2-20.2,21.6-22,23.8
	c-1.8,2.2-25.5,15-20.2,38.4c5.3,23.4,23.8,22.9,23.8,22.9s13.6,1.3,29.4-2.2c15.8-3.5,29.4,0.9,29.4,0.9s37,12.4,47.1-11.5
	c10.1-23.8-5.7-36.2-5.7-36.2S136.2,117.8,123.9,100.2L123.9,100.2z M70,169.6c-10.4-2.1-14.5-9.1-15-10.4
	c-0.5-1.2-3.5-6.9-1.9-16.6c4.5-14.5,17.3-15.5,17.3-15.5h12.8v-15.7l10.9,0.2v58.1H70L70,169.6z M111.2,169.4
	c-10.7-2.8-11.2-10.4-11.2-10.4v-30.6l11.2-0.2v27.5c0.7,2.9,4.3,3.5,4.3,3.5h11.4v-30.8h11.9v41
	C138.8,169.4,111.2,169.4,111.2,169.4z M178,87.8c0-5.3-4.4-21.2-20.7-21.2c-16.3,0-18.5,15-18.5,25.6c0,10.1,0.9,24.3,21.1,23.8
	C180.2,115.6,178,93.1,178,87.8z"/>
</svg>
