<?xml version="1.0" encoding="utf-8"?>
<!-- Generator: Adobe Illustrator 21.0.0, SVG Export Plug-In . SVG Version: 6.00 Build 0)  -->
<svg version="1.1" id="图层_1" xmlns="http://www.w3.org/2000/svg" xmlns:xlink="http://www.w3.org/1999/xlink" x="0px" y="0px"
	 viewBox="0 0 200 200" style="enable-background:new 0 0 200 200;" xml:space="preserve">
<title>GXGDZC</title>
<g>
	<path d="M185,83c0.1-1.2-0.3-2.4-1-3.3c-0.2-0.4-0.5-0.8-0.8-1.1l-74.8-52.1l-6.4-4.6c-1.1-0.8-2.6-0.8-3.7,0l-6.4,4.6L16.9,78.9
		c0,0-0.1,0.1-0.1,0.1c-1.2,0.9-1.9,2.4-1.8,4c-0.2,2.4,1.4,4.5,3.8,4.8h26.7V169H25c-1.8,0.5-3.1,1.8-3.6,3.6
		c-0.7,2.7,0.9,5.4,3.6,6.1H175c1.8-0.5,3.1-1.8,3.6-3.6c0.7-2.7-0.9-5.4-3.6-6.1h-20.4V87.8h26.7C183.6,87.5,185.2,85.4,185,83z
		 M98.4,33.7c1.1-0.8,2.6-0.8,3.7,0l63.6,44.5H34.8L98.4,33.7z M144.9,169H55.1V87.8h89.7V169z"/>
	<path d="M100,74.6c8,0,14.5-6.5,14.6-14.6c0-8-6.5-14.6-14.6-14.6S85.4,52,85.4,60S92,74.6,100,74.6z M100,53c3.9,0,7,3.1,7,7
		s-3.1,7-7,7s-7-3.1-7-7S96.1,53,100,53z"/>
	<path d="M76.3,103.2l18.1,18.2H83.9c-2.3,0-4.1,1.8-4.1,4.1s1.8,4.1,4.1,4.1h12.3v8.2H83.9c-0.2,0-0.5,0-0.7,0
		c-2.3,0.2-3.9,2.2-3.7,4.5s2.2,3.9,4.5,3.7h12.3v8.1c0,1.5,0.8,2.8,2,3.6c1.3,0.7,2.8,0.7,4.1,0c1.3-0.7,2-2.1,2-3.6v-8.2h12.3
		c0.2,0,0.5,0,0.7,0c2.3-0.2,3.9-2.2,3.7-4.5s-2.2-3.9-4.5-3.7h-12.3v-8.2h12.2c2.3,0,4.1-1.8,4.1-4.1c0-2.3-1.8-4.1-4.1-4.1h-10.8
		l17.8-17.8c0.7-0.8,1.2-1.8,1.2-2.8c0-1.1-0.4-2.1-1.2-2.8c0,0-0.1-0.1-0.1-0.1c-1.6-1.5-4-1.5-5.6,0.1l-15.8,15.8
		c-0.6-0.4-1.3-0.6-2-0.6c-0.7,0-1.3,0.2-1.9,0.5L82.1,97.5v-0.1c-1.6-1.6-4.2-1.6-5.8,0C74.7,99,74.7,101.6,76.3,103.2z"/>
</g>
</svg>
