<?xml version="1.0" encoding="utf-8"?>
<!-- Generator: Adobe Illustrator 21.0.0, SVG Export Plug-In . SVG Version: 6.00 Build 0)  -->
<svg version="1.1" id="图层_1" xmlns="http://www.w3.org/2000/svg" xmlns:xlink="http://www.w3.org/1999/xlink" x="0px" y="0px"
	 viewBox="0 0 200 200" style="enable-background:new 0 0 200 200;" xml:space="preserve">
<g>
	<path d="M112.7,37.4c3.5,9.7,5.9,21.3,7.1,33.9c9.6,0.3,19.1,1.5,28.5,3.4c0.3-2.3,0.9-4.5,1.6-6.7c1.9-5.7,5-10.6,8.9-14.2
		c2.5-2.4,5.5-4.2,8.7-5.3c-2.3-3-4.8-5.9-7.5-8.6c-7.7-7.8-16.9-13.9-27-18.2c-10.4-4.4-21.5-6.7-32.8-6.7
		C105.2,20.6,109.4,28.1,112.7,37.4z"/>
	<path d="M173.3,57.9c-5.4,0.4-10.9,6-13.4,13.4c-0.6,2-1.1,4-1.3,6c8.9,2.6,17.5,6.3,25.6,10.9c-1-7.4-3-14.5-5.9-21.4
		c-1.3-3.1-2.8-6.1-4.5-9.1C173.6,57.8,173.5,57.9,173.3,57.9L173.3,57.9z"/>
	<path d="M59.3,50.4c8.1,4.5,13.9,11.6,16.8,20.5c0.3,1,0.6,2,0.8,3c8.6-1.3,17.3-2.1,26-2.5c2.2-0.1,4.3-0.1,6.4-0.2
		c-1.2-11.3-3.4-21.6-6.4-30.3c-4.2-11.8-10-20.2-16.8-24.4c-0.2-0.1-0.3-0.2-0.5-0.4C66,19.6,48.3,29.7,35.4,44.7
		C44.5,44.8,52.5,46.6,59.3,50.4z"/>
	<path d="M184.9,101.1c-8-5.5-16.7-9.6-25.9-12.6c0.4,2.2,1,4.5,1.8,6.9c3.5,10,10.4,19.8,20.5,29.3c2.3-7.6,3.5-15.5,3.6-23.5
		C184.9,101.1,184.9,101.1,184.9,101.1z"/>
	<path d="M110.2,84.1l-0.1-2.4c-10.6,0.1-21.4,1.1-32,2.7c0,2.3-0.2,4.6-0.5,6.8c-1,7.2-3.5,14.4-7.3,21.6c-8,15-21.3,28.1-38.4,38
		c2.5,3.3,5.2,6.4,8.1,9.3c7.7,7.8,16.9,13.9,27,18.2c7.2,3.1,14.9,5.1,22.7,6.1C103.7,156.5,111.4,119,110.2,84.1z"/>
	<path d="M66.5,75.6c-0.1-0.5-0.3-1-0.4-1.5c-4.4-13.8-18-20.5-37.4-18.5c-0.4,0-0.8,0-1.2,0c-6.2,10-10.2,21.3-11.7,33
		C33.4,82.8,50.4,78.5,66.5,75.6z"/>
	<path d="M177,134.8c-12.9-11.4-21.6-23.5-26-36c-1.5-4.3-2.5-8.9-2.9-13.4c-9-2-18.2-3.2-27.5-3.6l0.1,1.8
		c0.6,17.4-0.9,36-4.4,53.7c-3.4,17.4-8.6,33.4-15.3,47.6c22.2-0.2,43.5-9.2,59.2-24.9c7.2-7.2,13.1-15.6,17.3-24.9
		C177.2,135.1,177.1,135,177,134.8L177,134.8z"/>
	<path d="M61,107.8c3.9-7.3,6.1-14.8,6.5-21.7c-18,3.3-35.3,8.1-50.9,13.3c-0.5,0.2-1,0.3-1.6,0.3v0.4c0,14.7,3.8,29.2,11.1,42
		C45.8,130.6,56,117.1,61,107.8z"/>
</g>
</svg>
