<?xml version="1.0" encoding="utf-8"?>
<!-- Generator: Adobe Illustrator 21.0.0, SVG Export Plug-In . SVG Version: 6.00 Build 0)  -->
<svg version="1.1" id="图层_1" xmlns="http://www.w3.org/2000/svg" xmlns:xlink="http://www.w3.org/1999/xlink" x="0px" y="0px"
	 viewBox="0 0 200 200" style="enable-background:new 0 0 200 200;" xml:space="preserve">
<path d="M184.5,100.5c0,47.6-38.2,85-86.7,85C52,185.5,14.3,146.8,14.5,100c0.1-46.8,38.4-84.8,85.2-84.7
	C146.4,15.4,184.5,53.7,184.5,100.5z M42.2,145.7c0.6,0.9,0.8,1.5,1.2,1.9C55.1,161.4,70,169.8,87.8,173c2.7,0.5,3.7-0.8,4.6-3
	c5.7-14.2,9.5-28.8,11.7-43.9c2-14.3,3.2-28.6,2-44c-8.3,1-16.3,2.1-24.3,2.9c-3,0.3-4,1.4-4,4.5c0.1,10.1-2.9,19.5-7.9,28.3
	C63.2,129.5,53.7,138.2,42.2,145.7z M165.4,131.4c-0.4-0.3-1.1-0.6-1.7-1.1c-12.6-11.9-22.6-25.3-25.4-43c-0.1-0.7-0.8-1.9-1.4-2
	c-6.7-1.1-13.4-2.1-20.5-3.2c1.1,32.1-3.3,62.1-14.4,91.2C126.4,174.6,157.3,154.1,165.4,131.4z M48.1,48.2
	C63.1,52,71.6,61.7,76,75.4c9.8-1.1,19.3-2.2,29.4-3.3c-0.7-4.6-1.2-9-2.2-13.4c-2-9.3-4.5-18.4-10.3-26.2c-1.7-2.2-3.2-4.8-6.8-4.1
	C71.7,31.1,59.2,37.6,48.1,48.2z M138.2,74.5c1.7-10.1,6-18.4,14.4-24.4c-14-14.1-30.2-21.7-50-22.7c2.2,4.7,4.7,8.8,5.9,13.1
	c2.5,8.9,4.3,18.1,6.5,27.1c0.4,1.8,1.5,4.6,2.6,4.8C124.3,73.4,131,73.8,138.2,74.5L138.2,74.5z M67.1,88.1
	c-1.1,0.2-1.8,0.3-2.5,0.5c-8.8,2.5-17.6,4.9-26.4,7.5c-13.2,4-13.2,4.1-10.9,17.7c1.4,8.3,4.1,16.1,8.7,23.2
	C54.6,127.9,68.3,106.3,67.1,88.1z M65.3,77.5c-2.5-11.3-12.8-19.7-23.2-19.2c-1.1,0.1-2.7,0.3-3.2,1C32.9,68,28.9,77.5,27.2,88.6
	C40.2,84.8,52.6,81.2,65.3,77.5z M168.7,120.8c0.5,0,1.1-0.1,1.6-0.1c0.8-6,1.6-12,2.3-18c0.1-0.9-0.4-2.3-1-2.7
	c-7.1-4-14.3-7.8-21.4-11.7c-0.3,0.4-0.6,0.9-0.9,1.3C152.4,102.1,159.7,112,168.7,120.8z M159.3,58.5c-7.3,3.9-9.6,10.3-10.8,17.2
	c-0.1,0.7,0.7,2,1.4,2.3c7,3,14,5.8,21.5,8.8C169.4,76.6,165.6,67.3,159.3,58.5L159.3,58.5z"/>
</svg>
