<?xml version="1.0" encoding="utf-8"?>
<!-- Generator: Adobe Illustrator 21.0.0, SVG Export Plug-In . SVG Version: 6.00 Build 0)  -->
<svg version="1.1" id="图层_1" xmlns="http://www.w3.org/2000/svg" xmlns:xlink="http://www.w3.org/1999/xlink" x="0px" y="0px"
	 viewBox="0 0 200 200" style="enable-background:new 0 0 200 200;" xml:space="preserve">
<path d="M65,48.8c4.9,0,9.4,0.4,13.6,1.5c3.8,0.7,7.4,2.1,10.6,4.2c3,1.9,5.3,4.6,6.8,8c1.5,3.4,2.3,7.6,2.3,12.1
	c0,5.3-1.1,9.9-3.8,13.3c-2.3,3.4-6,6.5-10.6,8.7c6.4,1.9,11.3,5.3,14.3,9.9c3,4.6,4.9,10.3,4.9,16.7c0,5.3-1.1,9.9-3,13.7
	c-1.9,3.8-4.9,7.2-8.3,9.5c-3.7,2.4-7.8,4.2-12.1,5.3c-4.5,1.1-9.1,1.9-13.6,1.9H15.5V48.8H65z M62,91.3c4.2,0,7.6-1.1,10.2-3
	c2.6-1.9,3.8-5.3,3.8-9.5c0-2.3-0.4-4.6-1.1-6.1c-0.8-1.5-1.9-2.7-3.4-3.8c-1.5-0.8-3-1.5-4.9-1.9c-1.9-0.4-3.8-0.4-6-0.4H38.6v24.7
	L62,91.3L62,91.3z M63.1,136.1c2.3,0,4.5-0.4,6.4-0.8c1.9-0.4,3.7-1.1,5.3-2.3c1.5-1.1,2.8-2.5,3.8-4.2c0.8-1.9,1.5-4.2,1.5-6.8
	c0-5.3-1.5-9.1-4.5-11.8c-3-2.3-7.2-3.4-12.1-3.4H38.6v29.2L63.1,136.1L63.1,136.1z M135.9,135.7c3,3,7.5,4.6,13.6,4.6
	c4.2,0,7.9-1.1,10.9-3c3-2.3,4.9-4.6,5.7-6.8h18.5c-3,9.1-7.6,15.6-13.6,19.7c-6,3.8-13.2,6.1-21.9,6.1c-5.6,0-11.1-1-16.2-3
	c-4.7-1.7-8.8-4.6-12.1-8.4c-3.5-3.5-6.1-7.8-7.5-12.5c-1.9-4.9-2.6-10.2-2.6-16.3c0-5.7,0.8-11,2.6-15.9c1.8-4.8,4.5-9.1,7.9-12.9
	c3.4-3.4,7.6-6.4,12.1-8.4c5-2,10.4-3.1,15.9-3c6.4,0,12.1,1.1,17,3.8c4.9,2.7,8.7,5.7,11.7,10.3c3.1,4.4,5.4,9.3,6.8,14.4
	c0.8,5.3,1.1,10.6,0.8,16.7h-54.7C130.7,127,132.9,132.7,135.9,135.7L135.9,135.7z M159.7,95.8c-2.6-2.7-6.8-4.2-11.7-4.2
	c-3.4,0-6,0.8-8.3,1.9c-2.3,1.1-3.8,2.7-5.3,4.2c-1.4,1.5-2.3,3.3-2.6,5.3c-0.4,1.9-0.8,3.4-0.8,4.9h34
	C164.2,102.3,162.4,98.5,159.7,95.8z M126.5,56h42.3v10.3h-42.3L126.5,56L126.5,56z"/>
</svg>
