<?xml version="1.0" standalone="no"?><!DOCTYPE svg PUBLIC "-//W3C//DTD SVG 1.1//EN" "http://www.w3.org/Graphics/SVG/1.1/DTD/svg11.dtd"><svg class="icon" width="200px" height="200.00px" viewBox="0 0 1024 1024" version="1.1" xmlns="http://www.w3.org/2000/svg"><path d="M512 102.4c-43.876174 0-79.671652 32.389565-79.671652 72.347826 0 4.118261 0.400696 8.058435 1.113043 11.976348-109.924174 34.816-189.885217 123.904-189.885217 250.434783v139.375304s-10.284522 121.388522-49.129739 122.612869c-23.151304 0-40.826435 16.13913-40.826435 36.129392 0 20.168348 17.808696 36.129391 39.846957 36.129391h637.106086c22.149565 0 39.846957-16.13913 39.846957-36.129391 0-20.079304-17.808696-36.129391-39.846957-36.129392-39.824696 0-49.597217-122.61287-49.597217-122.612869v-139.486609c0-126.619826-74.529391-215.79687-190.374956-250.523826 0.690087-3.82887 1.090783-7.746783 1.090782-11.753739C591.671652 134.90087 555.987478 102.4 512 102.4z m-0.044522 812.365913c-65.847652 0-119.318261-42.607304-119.429565-95.565913h238.948174c-0.111304 52.802783-53.092174 95.565913-119.54087 95.565913z" /></svg>