<?xml version="1.0" encoding="utf-8"?>
<!-- Generator: Adobe Illustrator 21.0.0, SVG Export Plug-In . SVG Version: 6.00 Build 0)  -->
<svg version="1.1" id="图层_1" xmlns="http://www.w3.org/2000/svg" xmlns:xlink="http://www.w3.org/1999/xlink" x="0px" y="0px"
	 viewBox="0 0 200 200" style="enable-background:new 0 0 200 200;" xml:space="preserve">
<path d="M59,23.4L86.5,51h27L141,23.5c3.3-3.3,8.7-3.3,12,0c3.3,3.3,3.3,8.7,0,12L137.5,51h17.7c16.4,0,29.8,13.3,29.8,29.8v68
	c0,16.4-13.3,29.8-29.8,29.8H44.8c-16.4,0-29.8-13.3-29.8-29.8v-68C15,64.3,28.3,51,44.8,51h17.7L46.9,35.5c-3.3-3.3-3.3-8.7,0-12
	C50.3,20.1,55.6,20.1,59,23.4L59,23.4z M155.3,68H44.8c-6.6,0-12.1,5-12.7,11.5L32,80.8v68c0,6.6,5,12.1,11.5,12.7l1.2,0.1h110.5
	c6.6,0,12.1-5,12.7-11.5l0.1-1.2v-68C168,73.7,162.3,68,155.3,68z M66,93.5c4.7,0,8.5,3.8,8.5,8.5v17c0,4.7-3.8,8.5-8.5,8.5
	c-4.7,0-8.5-3.8-8.5-8.5v-17C57.5,97.3,61.3,93.5,66,93.5z M134,93.5c4.7,0,8.5,3.8,8.5,8.5v17c0,4.7-3.8,8.5-8.5,8.5
	c-4.7,0-8.5-3.8-8.5-8.5v-17C125.5,97.3,129.3,93.5,134,93.5z"/>
</svg>
