<?xml version="1.0" encoding="utf-8"?>
<!-- Generator: Adobe Illustrator 21.0.0, SVG Export Plug-In . SVG Version: 6.00 Build 0)  -->
<svg version="1.1" id="图层_1" xmlns="http://www.w3.org/2000/svg" xmlns:xlink="http://www.w3.org/1999/xlink" x="0px" y="0px"
	 viewBox="0 0 200 200" style="enable-background:new 0 0 200 200;" xml:space="preserve">
<title>通知消息</title>
<desc>Created with Sketch.</desc>
<g id="页面-1">
	<g id="首页1" transform="translate(-1171.000000, -197.000000)">
		<g id="通知消息" transform="translate(1171.000000, 197.000000)">
			<path id="形状" d="M161.1,51.2h-33.8l-14-24.6c-2.8-4.9-7.9-7.9-13.6-8h-0.1c-5.7,0-10.7,2.9-13.6,7.8L71.6,51.2H38.2
				c-13,0-23.6,10.6-23.6,23.6v82.9c0,13,10.6,23.6,23.6,23.6H161c13,0,23.6-10.6,23.6-23.6V74.8C184.7,61.8,174.1,51.2,161.1,51.2z
				 M95.9,30c1.7-2.9,5.9-2.9,7.6,0l12.1,21.1h-32L95.9,30L95.9,30z M174.3,159.6c0,5.7-4.7,10.4-10.4,10.4H35.3
				c-5.7,0-10.4-4.7-10.4-10.4V72.9c0-5.7,4.7-10.4,10.4-10.4h128.6c5.7,0,10.4,4.7,10.4,10.4V159.6z"/>
			<path id="形状_1_" d="M139.2,91.4H60c-4.4,0-7.9,3.5-7.9,7.9s3.5,7.9,7.9,7.9h79.2c4.4,0,7.9-3.5,7.9-7.9
				S143.6,91.4,139.2,91.4L139.2,91.4z M109,120.2H60c-4.4,0-7.9,3.5-7.9,7.9c0,4.4,3.5,7.9,7.9,7.9H109c4.4,0,7.9-3.5,7.9-7.9
				C116.9,123.7,113.3,120.2,109,120.2z"/>
		</g>
	</g>
</g>
</svg>
