<?xml version="1.0" encoding="utf-8"?>
<!-- Generator: Adobe Illustrator 21.0.0, SVG Export Plug-In . SVG Version: 6.00 Build 0)  -->
<svg version="1.1" id="图层_1" xmlns="http://www.w3.org/2000/svg" xmlns:xlink="http://www.w3.org/1999/xlink" x="0px" y="0px"
	 viewBox="0 0 200 200" style="enable-background:new 0 0 200 200;" xml:space="preserve">
<title>图书</title>
<desc>Created with Sketch.</desc>
<g id="页面-1">
	<g id="首页1" transform="translate(-698.000000, -834.000000)">
		<g id="图书" transform="translate(698.000000, 834.000000)">
			<path id="形状结合" d="M162.6,15c9.3,0,16.8,7.7,16.8,17.2l0,0v135.6c0,9.5-7.7,17.2-17.2,17.2l0,0H45.1
				c-13.8,0-25-11.2-25-25c0-0.3,0-0.6,0-0.9c0-0.1,0-0.3,0-0.4l0,0V47.8C20.1,29.7,34.5,15,52,15l0,0H162.6z M165.9,148.6H45.1
				c-4.1,0-7.9,2.2-10,5.7c-2.1,3.6-2.1,7.9,0,11.5c2.1,3.6,5.9,5.7,10,5.7l0,0h117.2c2,0,3.6-1.6,3.6-3.6l0,0V148.6z M162.6,28.5
				l-54.7,0l0,42.4v0.2c0.1,2.5-1.2,4.9-3.3,6.1c-2.2,1.3-4.9,1.2-7-0.1l0,0l-13.8-8.6L70,77.1c-2.1,1.3-4.8,1.4-7,0.1
				c-2.2-1.3-3.5-3.6-3.3-6.1l0,0l0-42.6l-7.7,0c-9.9,0-18,8.3-18.4,18.5l0,0.7v90c3.5-1.8,7.5-2.8,11.5-2.8l0,0h120.8V32.2
				C165.9,30.2,164.5,28.5,162.6,28.5L162.6,28.5z M94.4,28.5H73.3l0,30.7l7-4.4l0.1,0c0.1-0.1,0.2-0.1,0.4-0.2
				c0.1,0,0.2-0.1,0.3-0.1c0.1,0,0.2-0.1,0.3-0.1c0.1,0,0.2-0.1,0.3-0.1c0.1,0,0.2-0.1,0.3-0.1c0.1,0,0.3-0.1,0.4-0.1
				c0.1,0,0.2,0,0.2,0c0.1,0,0.3-0.1,0.4-0.1c0.1,0,0.2,0,0.3,0c0.1,0,0.3,0,0.4,0l0,0h0.3c0.1,0,0.2,0,0.3,0c0.1,0,0.2,0,0.4,0
				c0.1,0,0.2,0,0.3,0c0.1,0,0.3,0,0.4,0.1l0,0l0.2,0.1c0.1,0,0.3,0.1,0.4,0.1c0.1,0,0.2,0,0.3,0.1c0.1,0,0.2,0.1,0.3,0.1
				c0.1,0,0.2,0.1,0.3,0.1c0.1,0,0.2,0.1,0.3,0.1c0.1,0.1,0.2,0.1,0.4,0.2l0,0l0.1,0l7,4.4L94.4,28.5z"/>
		</g>
	</g>
</g>
</svg>
