<?xml version="1.0" encoding="utf-8"?>
<!-- Generator: Adobe Illustrator 21.0.0, SVG Export Plug-In . SVG Version: 6.00 Build 0)  -->
<svg version="1.1" id="图层_1" xmlns="http://www.w3.org/2000/svg" xmlns:xlink="http://www.w3.org/1999/xlink" x="0px" y="0px"
	 viewBox="0 0 200 200" style="enable-background:new 0 0 200 200;" xml:space="preserve">
<title>数据资产图标-前台</title>
<g>
	<path d="M100,63.6h36.4c2.9,0,5.2-2.3,5.2-5.2s-2.3-5.2-5.2-5.2H100c-2.9,0-5.2,2.3-5.2,5.2S97.1,63.6,100,63.6z"/>
	<path d="M54.1,94.7h112.7c2.1,0,4.3-0.2,6.4-0.5c4.6-0.7,8.3-4,9.4-8.4c1.1-4.6-0.8-9.4-4.8-12c-5.3-3-8.6-8.5-8.8-14.6
		c0.2-6.4,3.9-12.3,9.6-15.2c4.4-2.1,6.9-6.9,6.1-11.7c-0.8-4.7-4.6-8.4-9.3-9.2c-2.9-0.6-5.8-0.9-8.7-0.9H80.5H58.2h-4
		c-21,0-38.5,16-39.2,36.1c0,0.1,0,0.3,0,0.3C16.3,79.2,33.5,95.1,54.1,94.7z M75.3,32.7v34.7l-3.1-2c-0.9-0.6-1.9-0.9-2.9-0.8h0
		c-1,0-2,0.3-2.9,0.8l-3.1,2V32.7H75.3z M53,32.6v44.5c0,1,0.3,2,0.9,2.9c1.6,2.4,4.8,3,7.2,1.5l8.3-5.5l8.3,5.5
		c0.9,0.6,1.9,0.9,2.9,0.9h0c2.9,0,5.2-2.3,5.2-5.2V32.6h81.1c2.3,0,4.7,0.2,6.9,0.7c0.4,0,0.7,0.3,0.9,0.7c0.1,0.2-0.1,0.5-0.6,0.7
		c-9.2,4.8-15.1,14.1-15.3,24.5c0.2,9.6,5.4,18.5,13.7,23.4c0.2,0.1,0.4,0.4,0.3,0.6c-0.1,0.4-0.5,0.7-0.9,0.7
		c-1.6,0.2-3.3,0.4-4.9,0.4H54.9C39.7,85,26.6,73.6,25.4,58.4C26,44.4,38.1,33.3,53,32.6z"/>
	<path d="M148,136.4H63.6c-2.9,0-5.2,2.3-5.2,5.2s2.3,5.2,5.2,5.2H148c2.9,0,5.2-2.3,5.2-5.2S150.9,136.4,148,136.4z"/>
	<path d="M145.9,105.4H33.2c-2.9,0-5.7,0.3-8.5,0.8c-4.8,0.7-8.6,4.4-9.5,9.2c-0.8,4.8,1.6,9.5,6,11.7c5.7,2.9,9.5,8.6,9.8,15.1
		c-0.2,6.2-3.6,11.9-9.1,15c-3.9,2.6-5.7,7.3-4.6,11.8c1.2,4.5,4.9,7.8,9.5,8.5c2.1,0.3,4.3,0.5,6.4,0.5h112.6c21,0,38.5-16,39.2-36
		c0-0.1,0-0.3,0-0.3C183.7,120.9,166.5,105,145.9,105.4z M145.8,167.4H145l-111.6,0.1c-1.6,0-3.3-0.1-4.9-0.4c-0.4,0-0.8-0.3-1-0.7
		c-0.1-0.1-0.1-0.3,0-0.5c8.5-5,13.7-14,13.9-23.8c-0.4-10.3-6.3-19.6-15.5-24.3c-0.5-0.2-0.6-0.4-0.5-0.7c0.1-0.3,0.4-0.7,1.1-0.7
		c2.2-0.4,4.4-0.7,6.7-0.7h112.6c14.9-0.4,27.6,10.9,28.8,25.8C173.4,156.5,160.7,167.8,145.8,167.4z"/>
</g>
</svg>
