<?xml version="1.0" encoding="utf-8"?>
<!-- Generator: Adobe Illustrator 21.0.0, SVG Export Plug-In . SVG Version: 6.00 Build 0)  -->
<svg version="1.1" id="图层_1" xmlns="http://www.w3.org/2000/svg" xmlns:xlink="http://www.w3.org/1999/xlink" x="0px" y="0px"
	 viewBox="0 0 200 200" style="enable-background:new 0 0 200 200;" xml:space="preserve">
<title>JX</title>
<g>
	<path d="M81.1,83.1l-40-14.6c-2.3-0.6-4.7,0.5-5.7,2.7c-1.1,2.4,0,5.3,2.5,6.3l40,14.7c0.5,0.2,1.1,0.3,1.6,0.3l-0.1-0.1
		c2,0,3.8-1.3,4.5-3.2C84.9,86.8,83.6,84,81.1,83.1z"/>
	<path d="M81.1,117.9l-40-14.6c-2.3-0.6-4.7,0.5-5.7,2.7c-1.1,2.4,0,5.3,2.5,6.3l40,14.6c0.5,0.2,1.1,0.3,1.6,0.3
		c2,0,3.8-1.3,4.5-3.2C84.9,121.6,83.6,118.8,81.1,117.9z"/>
	<path d="M79.5,127.3C79.5,127.3,79.5,127.3,79.5,127.3C79.5,127.3,79.5,127.3,79.5,127.3L79.5,127.3z"/>
	<path d="M180.2,24.5c-3.7-2.4-8.3-2.8-12.3-1.1l-58.6,21.4c-3.8,1.5-7,3.9-9.3,7c-2.4-3.1-5.6-5.6-9.3-7L32,23.3
		c-4-1.6-8.5-1.2-12.2,1.1c-3.2,2.4-5,6.2-4.8,10.2v101.6c0.5,8.5,5.9,16,13.8,19.1l58.6,21.4c1.7,0.6,3.5,1,5.3,1
		c2.4,0,4.8-0.7,6.8-2.1c0.2-0.1,0.3-0.2,0.4-0.4c0.2,0.1,0.3,0.3,0.5,0.4c2,1.4,4.4,2.1,6.9,2.1c1.8,0,3.6-0.3,5.3-1l58.6-21.3
		c7.9-3.1,13.3-10.5,13.8-19.1V34.7C185.2,30.7,183.4,26.9,180.2,24.5z M94.8,165.4c0.1,0.8-0.2,1.7-0.8,2.3c-1,0.5-2.2,0.5-3.2,0
		l-58.6-21.3c-4.1-1.7-7-5.5-7.5-10V34.6c-0.1-0.8,0.2-1.7,0.8-2.3c0.4-0.3,0.9-0.4,1.4-0.4c0.7,0,1.4,0.1,2,0.4l58.5,21.4
		c4.1,1.7,7,5.5,7.5,10V165.4z M175.2,136.3c-0.5,4.5-3.4,8.3-7.5,10l-58.6,21.3c-1,0.5-2.2,0.5-3.2,0c-0.6-0.6-0.9-1.4-0.8-2.3
		V63.7c0.5-4.5,3.4-8.3,7.5-10l58.6-21.3c0.6-0.2,1.3-0.4,2-0.4c0.4,0,0.9,0.1,1.2,0.4c0.6,0.6,0.9,1.4,0.8,2.3V136.3z"/>
	<path d="M158.8,68.7l-40,14.6c-1.9,0.7-3.2,2.5-3.2,4.5c0,2.7,2.1,4.8,4.8,4.8c0.6,0,1.1-0.1,1.6-0.3L162,77.7
		c2.2-1,3.3-3.4,2.7-5.7C164,69.5,161.4,68,158.8,68.7z"/>
	<path d="M158.8,103.2l-40,14.7c-1.9,0.7-3.2,2.5-3.2,4.5c0,2.7,2.1,4.8,4.8,4.8c0.6,0,1.1-0.1,1.6-0.3l39.9-14.7
		c2.2-1,3.3-3.4,2.7-5.7C164,104,161.4,102.5,158.8,103.2z"/>
</g>
</svg>
