<?xml version="1.0" encoding="utf-8"?>
<!-- Generator: Adobe Illustrator 21.0.0, SVG Export Plug-In . SVG Version: 6.00 Build 0)  -->
<svg version="1.1" id="图层_1" xmlns="http://www.w3.org/2000/svg" xmlns:xlink="http://www.w3.org/1999/xlink" x="0px" y="0px"
	 viewBox="0 0 200 200" style="enable-background:new 0 0 200 200;" xml:space="preserve">
<title>编组</title>
<g transform="translate(222.000000, 601.000000)">
	<path id="形状" d="M-158-422.9V-586h-30.3c-6.3,0-11.4,5.1-11.4,11.4v147.2c0,6.3,5.1,11.4,11.4,11.4h30.3v-0.3
		C-158-418.5-158-420.7-158-422.9z M-56.6-586h-12.2v64.6c0,1.2-0.7,2.3-1.7,2.9c-1.1,0.6-2.4,0.5-3.3-0.2l-18.9-13.3l-18.9,13.3
		c-1,0.7-2.3,0.8-3.3,0.2c-1.1-0.6-1.7-1.7-1.7-2.9V-586h-32.1v0.3c0,2.2,0,4.4,0,6.6V-416h92.3c6.3,0,11.4-5.1,11.4-11.4v-147.2
		C-45.2-580.9-50.3-586-56.6-586z"/>
</g>
</svg>
