<?xml version="1.0" encoding="utf-8"?>
<!-- Generator: Adobe Illustrator 21.0.0, SVG Export Plug-In . SVG Version: 6.00 Build 0)  -->
<svg version="1.1" id="图层_1" xmlns="http://www.w3.org/2000/svg" xmlns:xlink="http://www.w3.org/1999/xlink" x="0px" y="0px"
	 viewBox="0 0 200 200" style="enable-background:new 0 0 200 200;" xml:space="preserve">
<title>数据资产图标-前台</title>
<path d="M168.6,49.6H143V34.1c0,0,0,0,0,0c0-6-4.9-10.8-10.9-10.8H69.6c-6,0-10.8,4.8-10.8,10.8v15.4H31.4C22.3,49.6,15,56.9,15,66
	v94.3v0c0,9.1,7.3,16.4,16.4,16.4h137.2c9.1,0,16.4-7.3,16.4-16.4V66C185,56.9,177.7,49.6,168.6,49.6z M69.4,34.1
	c0-0.2,0.2-0.4,0.4-0.4h62.4c0.2,0,0.4,0.2,0.4,0.4v15.4H69.3L69.4,34.1z M31.4,60h27.4H143h25.6c3.3,0,6,2.7,6,6v18.6H25.4V66
	C25.4,62.7,28.1,60,31.4,60z M117.2,95c-1.7,5.4-8.9,9.6-17.2,9.6s-15.5-4.2-17.2-9.6H117.2z M168.6,166.2H31.4c-3.3,0-6-2.7-6-6V95
	h46.8C73.7,106.2,85.6,115,100,115c14.5,0,26.4-8.8,27.8-20.1h46.8v65.3C174.6,163.5,171.9,166.2,168.6,166.2z"/>
</svg>
