<?xml version="1.0" encoding="utf-8"?>
<!-- Generator: Adobe Illustrator 21.0.0, SVG Export Plug-In . SVG Version: 6.00 Build 0)  -->
<svg version="1.1" id="图层_1" xmlns="http://www.w3.org/2000/svg" xmlns:xlink="http://www.w3.org/1999/xlink" x="0px" y="0px"
	 viewBox="0 0 200 200" style="enable-background:new 0 0 200 200;" xml:space="preserve">
<title>形状</title>
<desc>Created with Sketch.</desc>
<path id="形状" d="M162,61.8h-24.9V29.2c0-7.9-6.4-14.2-14.2-14.2H77.7c-7.9,0-14.2,6.4-14.2,14.2v32.6H37.8
	c-12,0-21.7,9.7-21.7,21.7V163c0,12,9.7,21.7,21.7,21.7h59.9c0.7,0.2,1.4,0.3,2.2,0.3s1.5-0.1,2.2-0.3h29.4c0.7,0.2,1.4,0.3,2.2,0.3
	s1.5-0.1,2.2-0.3H162c12,0,21.7-9.7,21.7-21.7V83.5C183.7,71.6,174,61.8,162,61.8z M169.3,163c0,4-3.3,7.3-7.3,7.3h-20.1v-31.8
	c0-4.6-3.7-8.3-8.3-8.3c-4.6,0-8.3,3.7-8.3,8.3v31.8h-17.2v-31.8c0-4.6-3.7-8.3-8.3-8.3s-8.3,3.7-8.3,8.3v31.8H37.8
	c-4,0-7.3-3.3-7.3-7.3v-49.9h138.8V163L169.3,163z M169.3,96.6H30.5v-13c0-4,3.3-7.3,7.3-7.3h31.1c5,0,9-4,9-9V29.4h44.8v37.9
	c0,5,4,9,9,9H162c4,0,7.3,3.3,7.3,7.3L169.3,96.6L169.3,96.6z"/>
</svg>
