<?xml version="1.0" encoding="utf-8"?>
<!-- Generator: Adobe Illustrator 21.0.0, SVG Export Plug-In . SVG Version: 6.00 Build 0)  -->
<svg version="1.1" id="图层_1" xmlns="http://www.w3.org/2000/svg" xmlns:xlink="http://www.w3.org/1999/xlink" x="0px" y="0px"
	 viewBox="0 0 200 200" style="enable-background:new 0 0 200 200;" xml:space="preserve">
<title>数据资产图标-前台</title>
<g>
	<path d="M180.4,147.5h-6c1.4-4.2,2.2-8.7,2.2-13.3c0-17.3-10.4-32.2-25.2-38.8V64.7c0-3.9-3.1-7-7-7h-30.1V34.1
		c0-6-4.9-10.8-10.8-10.8H41.3c-6,0-10.8,4.9-10.8,10.8v113.4H19.6c-2.6,0-4.6,2.1-4.6,4.6c0,2.6,2.1,4.6,4.6,4.6h15.5h62.8
		c7.5,12,20.9,20,36.1,20c15.2,0,28.5-8,36-20h10.3c2.6,0,4.6-2.1,4.6-4.6C185,149.6,182.9,147.5,180.4,147.5z M142.1,67.1v25.3
		c-2.6-0.5-5.4-0.8-8.2-0.8c-7.1,0-13.8,1.8-19.7,4.8V67.1H142.1z M39.9,147.5V34.1c0-0.9,0.7-1.6,1.6-1.6h62c0.9,0,1.6,0.7,1.6,1.6
		V103c-8.4,7.8-13.6,18.9-13.6,31.2c0,4.6,0.8,9.1,2.1,13.3H39.9z M133.9,167.5c-18.4,0-33.3-14.9-33.3-33.4
		c0-18.4,14.9-33.3,33.4-33.3c18.4,0,33.3,14.9,33.3,33.3c0,0,0,0,0,0C167.3,152.6,152.3,167.5,133.9,167.5z"/>
	<path d="M49.2,71.6h46.6c2.6,0,4.6-2.1,4.6-4.6V51.5c0-2.6-2.1-4.6-4.6-4.6H49.2c-2.6,0-4.6,2.1-4.6,4.6V67
		C44.6,69.5,46.7,71.6,49.2,71.6z M53.9,56.1h37.3v6.2H53.8L53.9,56.1z"/>
	<path d="M100.4,102.5V87.1c0-2.6-2.1-4.6-4.6-4.6H49.2c-2.6,0-4.6,2.1-4.6,4.6v15.5c0,2.6,2.1,4.6,4.6,4.6h46.6
		C98.4,107.2,100.4,105.1,100.4,102.5z M91.2,97.9H53.8l0-6.2h37.3V97.9z"/>
	<path d="M160.1,130.6l-17.2-13.8c-2-1.6-4.9-1.3-6.5,0.7c-1.6,2-1.3,4.9,0.7,6.5l6.9,5.6h-33.3c-2.6,0-4.6,2.1-4.6,4.6
		s2.1,4.6,4.6,4.6H144l-6.9,5.5c-1,0.9-1.6,2.1-1.7,3.5c0,2.6,2,4.7,4.6,4.7c1,0,2.1-0.3,2.9-1l17-13.7c0.3-0.2,0.6-0.5,0.9-0.8
		C162.4,135.1,162.1,132.2,160.1,130.6z"/>
</g>
</svg>
