<?xml version="1.0" encoding="utf-8"?>
<!-- Generator: Adobe Illustrator 21.0.0, SVG Export Plug-In . SVG Version: 6.00 Build 0)  -->
<svg version="1.1" id="图层_1" xmlns="http://www.w3.org/2000/svg" xmlns:xlink="http://www.w3.org/1999/xlink" x="0px" y="0px"
	 viewBox="0 0 200 200" style="enable-background:new 0 0 200 200;" xml:space="preserve">
<title>数据资产图标-前台</title>
<g>
	<path d="M44.6,53c3,0,5.4-2.5,5.4-5.5c0-3-2.4-5.5-5.5-5.5h0c-3,0-5.5,2.5-5.4,5.5C39.1,50.6,41.5,53.1,44.6,53z"/>
	<circle cx="67.1" cy="47.6" r="5.5"/>
	<circle cx="136.7" cy="105.5" r="5.5"/>
	<circle cx="159.3" cy="105.5" r="5.5"/>
	<circle cx="136.7" cy="129.3" r="5.5"/>
	<circle cx="159.3" cy="129.3" r="5.5"/>
	<path d="M136.7,147.9C136.7,147.9,136.7,147.9,136.7,147.9c-3.1,0-5.5,2.5-5.5,5.5c0,3,2.5,5.5,5.5,5.4c3,0,5.4-2.5,5.4-5.5
		C142.2,150.3,139.7,147.9,136.7,147.9z"/>
	<circle cx="159.3" cy="153.3" r="5.5"/>
	<circle cx="90.8" cy="47.6" r="5.5"/>
	<path d="M44.5,68.9L44.5,68.9c-3.1,0-5.5,2.4-5.5,5.5c0,3,2.5,5.5,5.5,5.4c3,0,5.4-2.4,5.4-5.4C50,71.4,47.6,68.9,44.5,68.9z"/>
	<path d="M67.1,79.8c3,0,5.5-2.4,5.5-5.5c0,0,0,0,0,0c0-3-2.4-5.5-5.5-5.5c-3,0-5.5,2.4-5.5,5.5C61.6,77.4,64.1,79.8,67.1,79.8z"/>
	<path d="M90.8,79.8c3,0,5.5-2.4,5.5-5.5c0,0,0,0,0,0c0-3-2.4-5.5-5.5-5.5c-3,0-5.5,2.4-5.5,5.5C85.4,77.4,87.8,79.8,90.8,79.8z"/>
	<path d="M44.6,106.5c3,0,5.4-2.5,5.4-5.5c0-3-2.4-5.5-5.5-5.5h0c-3,0-5.5,2.5-5.4,5.5C39.1,104.1,41.5,106.6,44.6,106.5z"/>
	<circle cx="67.1" cy="101.1" r="5.5"/>
	<circle cx="90.8" cy="101.1" r="5.5"/>
	<path d="M176.7,73.7H121V28c0-7.2-5.8-13-13-13H28c-7.2,0-13,5.8-13,13v152c0,2.8,2.2,5,5,5h96c0.5,0,1-0.1,1.4-0.2
		c0.6,0.1,1.3,0.2,1.9,0.2h57.3c4.6,0,8.3-3.7,8.3-8.3V82C185,77.4,181.3,73.7,176.7,73.7z M81.2,131.8v42.9H53.9v-42.9H81.2z
		 M91.2,155.7H111V175H91.2V155.7z M28,25h80c1.7,0,3,1.3,3,3v54v63.7H91.2v-13.9h3c2.8,0,5-2.2,5-5s-2.2-5-5-5h-6.9
		c-0.4-0.1-0.7-0.1-1.1-0.1H48.9c-0.4,0-0.8,0.1-1.1,0.1h-6.9c-2.8,0-5,2.2-5,5s2.2,5,5,5h3v13.9H25V28C25,26.3,26.3,25,28,25z
		 M25,155.7h18.9V175H25V155.7z M175,175h-54V83.7h54V175z"/>
</g>
</svg>
