<?xml version="1.0" encoding="utf-8"?>
<!-- Generator: Adobe Illustrator 21.0.0, SVG Export Plug-In . SVG Version: 6.00 Build 0)  -->
<svg version="1.1" id="图层_1" xmlns="http://www.w3.org/2000/svg" xmlns:xlink="http://www.w3.org/1999/xlink" x="0px" y="0px"
	 viewBox="0 0 200 200" style="enable-background:new 0 0 200 200;" xml:space="preserve">
<title>XX</title>
<g>
	<path d="M180.1,160.7h-21V73.3c0-4.1-3.3-7.4-7.4-7.4H120V40.9c0-6.3-5.1-11.5-11.5-11.5H42.9c0,0,0,0,0,0
		c-6.3,0-11.5,5.1-11.5,11.5v119.8H19.9c-2.7,0-4.9,2.2-4.9,4.9s2.2,4.9,4.9,4.9h16.5h68.9h74.7c2.7,0,4.9-2.2,4.9-4.9
		S182.8,160.7,180.1,160.7z M41.2,160.7l0-119.8c0-0.9,0.7-1.7,1.7-1.7h65.6c0.9,0,1.7,0.7,1.7,1.7v31c-0.1,0.4-0.1,0.9-0.1,1.4
		v87.4h-4.7H41.2z M120,75.8h29.3v84.9H120V75.8z"/>
	<path d="M100.4,54.3H51c-2.7,0-4.9,2.2-4.9,4.9v16.3c0,2.7,2.2,4.9,4.9,4.9h49.3c2.7,0,4.9-2.2,4.9-4.9V59.2
		C105.3,56.5,103.1,54.3,100.4,54.3z M95.5,70.6H56v-6.5h39.4V70.6z"/>
	<path d="M100.4,91.8H51c-2.7,0-4.9,2.2-4.9,4.9v16.5c0,2.7,2.2,4.9,4.9,4.9h49.3c0.1,0,0.1,0,0.2,0c2.7-0.1,4.8-2.4,4.7-5.1V96.7
		C105.3,94,103.1,91.8,100.4,91.8z M95.5,108.4H56v-6.5h39.4V108.4z"/>
</g>
</svg>
