<?xml version="1.0" encoding="utf-8"?>
<!-- Generator: Adobe Illustrator 21.0.0, SVG Export Plug-In . SVG Version: 6.00 Build 0)  -->
<svg version="1.1" id="图层_1" xmlns="http://www.w3.org/2000/svg" xmlns:xlink="http://www.w3.org/1999/xlink" x="0px" y="0px"
	 viewBox="0 0 200 200" style="enable-background:new 0 0 200 200;" xml:space="preserve">
<path d="M161.1,15c3.8,0,6.8,3.3,6.9,7.4v155.3c0,4.1-3.1,7.4-6.9,7.4H38.9c-3.8,0-6.9-3.3-6.9-7.4V22.4c0-4,3.1-7.4,6.9-7.4H161.1z
	 M156,27.1H44v145.7h112L156,27.1L156,27.1z M137.9,136.9c3.4,0,6.1,2.7,6.1,6.1c0,3.4-2.8,6.1-6.1,6.1h-19.7
	c-3.4,0-6.1-2.7-6.1-6.1c0-3.4,2.8-6.1,6.1-6.1H137.9z M74.1,112.6c3.3,0,5.9,2.7,5.9,5.9v6.2h6.1c3.3,0,5.9,2.6,5.9,5.9v0.3
	c0,3.3-2.6,5.9-5.9,5.9l0,0H80v6.2c0,3.3-2.6,5.9-5.9,5.9h-0.2c-3.3,0-5.9-2.6-5.9-5.9v-6.2h-6.1c-3.3,0-5.9-2.7-5.9-5.9v-0.3
	c0-3.3,2.6-5.9,5.9-5.9H68v-6.2c0-3.3,2.7-5.9,5.9-5.9H74.1z M137.9,112.6c3.4,0,6.1,2.7,6.1,6.1c0,3.4-2.8,6.1-6.1,6.1h-19.7
	c-3.4,0-6.1-2.7-6.1-6.1c0-3.4,2.8-6.1,6.1-6.1H137.9z M133.2,43.3c3.7,0,6.8,3.2,6.8,7.2v34.3c0,3.9-3.1,7.1-6.8,7.1H66.8
	c-3.7,0-6.8-3.2-6.8-7.2V50.5c0-3.9,3.1-7.2,6.8-7.2H133.2z M128,55.5H72v24.3h56V55.5z"/>
</svg>
