<?xml version="1.0" encoding="utf-8"?>
<!-- Generator: Adobe Illustrator 21.0.0, SVG Export Plug-In . SVG Version: 6.00 Build 0)  -->
<svg version="1.1" id="图层_1" xmlns="http://www.w3.org/2000/svg" xmlns:xlink="http://www.w3.org/1999/xlink" x="0px" y="0px"
	 viewBox="0 0 200 200" style="enable-background:new 0 0 200 200;" xml:space="preserve">
<path d="M39,180.2c-13.3-0.1-24.1-11-24-24.3V56.5c-0.1-13.3,10.7-24.2,24-24.3h25v-6.9c0-1.5,0.5-2.9,1.5-3.9s2.4-1.6,3.8-1.6
	c1.5,0,2.9,0.5,4,1.6s1.7,2.5,1.7,4.1v6.8h50v-6.9c0-1.5,0.6-2.9,1.7-3.9c1-1,2.4-1.6,3.8-1.6c1.5,0,2.9,0.5,4,1.6
	c1,1.1,1.6,2.5,1.7,4.1v6.8h25c13.3,0.1,24,11,24,24.3v99.4c0.1,13.3-10.7,24.2-24,24.3H39V180.2z M26.1,155.9c0,7.1,5.7,13,12.9,13
	l0,0h122.1c7.1-0.1,12.8-5.9,12.8-13v-75H26.1V155.9z M39,43.5c-7.1,0-12.9,5.8-12.9,12.9v0.1v13h147.3l0.3-0.3V56.5
	c0-7.1-5.7-12.9-12.8-13h-25v6.8c0,3-2.4,5.4-5.4,5.6c-1.5,0-2.9-0.5-4-1.6s-1.7-2.5-1.7-4v-6.8H75v6.8c0,3.1-2.5,5.6-5.6,5.6
	s-5.6-2.5-5.6-5.6l0,0v-6.8H39z"/>
<path d="M129,93.8c2.1,0.3,3.9,1.6,4.6,3.4c0.8,1.8,0.4,3.8-1,5.2l-37.7,40.4c-1.2,1.3-2.9,2-4.7,1.9c-1.8,0-3.5-0.8-4.6-2.1
	l-18.4-21.4c-1.3-1.5-1.6-3.5-0.8-5.3c0.8-1.8,2.6-3,4.7-3.2s4.2,0.5,5.5,2l13.8,16.1l33-35.2C124.8,94.2,126.9,93.5,129,93.8z"/>
</svg>
