<?xml version="1.0" encoding="utf-8"?>
<!-- Generator: Adobe Illustrator 21.0.0, SVG Export Plug-In . SVG Version: 6.00 Build 0)  -->
<svg version="1.1" id="图层_1" xmlns="http://www.w3.org/2000/svg" xmlns:xlink="http://www.w3.org/1999/xlink" x="0px" y="0px"
	 viewBox="0 0 200 200" style="enable-background:new 0 0 200 200;" xml:space="preserve">
<path d="M84.2,173.6H37.8c-3.1,0-5.7-2.5-5.7-5.7V83.1h135.9v5.7c0,3.1,2.5,5.7,5.7,5.7s5.7-2.5,5.7-5.7V54.7c0-9.3-7.6-17-17-17
	H134V20.8c0-3.1-2.5-5.7-5.7-5.7c-3.1,0-5.7,2.5-5.7,5.7v17H77.4v-17c0-3.1-2.5-5.7-5.7-5.7S66,17.6,66,20.8v17H37.8
	c-9.3,0-17,7.6-17,17V168c0,9.3,7.6,17,17,17h46.5c3.1,0,5.7-2.5,5.7-5.7S87.3,173.6,84.2,173.6z M32.1,54.7c0-3.1,2.5-5.7,5.7-5.7
	h124.5c3.1,0,5.7,2.5,5.7,5.7v17H32.1V54.7z"/>
<path d="M86.1,98.5H49.8c-3.1,0-5.7,2.5-5.7,5.7s2.5,5.7,5.7,5.7h36.2c3.1,0,5.7-2.5,5.7-5.7S89.1,98.5,86.1,98.5z"/>
<path d="M177.7,138.6l-21.3-37c-1.3-1.8-3.1-3.1-5.3-3.1h-42.9c-2.2,0-4.3,1.3-5.3,3.1l-21.3,37c-1.3,1.8-1.3,4.3,0,6.2l21.3,37
	c1.3,1.8,3.1,3.1,5.3,3.1h42.9c2.2,0,4.3-1.3,5.3-3.1l21.3-37C178.7,142.9,178.7,140.5,177.7,138.6L177.7,138.6z M147.5,172.6h-35.8
	l-17.9-30.9l17.9-30.9h35.5l17.9,30.9L147.5,172.6z"/>
<path d="M129.6,120.1c-12,0-21.6,9.6-21.6,21.6c0,12,9.6,21.6,21.6,21.6s21.6-9.6,21.6-21.6C151.2,129.6,141.7,120.1,129.6,120.1z
	 M129.6,151c-5.3,0-9.2-4-9.2-9.2c0-5.3,4-9.2,9.2-9.2c5.3,0,9.2,4,9.2,9.2C138.9,146.9,134.9,151,129.6,151z"/>
</svg>
