<?xml version="1.0" encoding="utf-8"?>
<!-- Generator: Adobe Illustrator 21.0.0, SVG Export Plug-In . SVG Version: 6.00 Build 0)  -->
<svg version="1.1" id="图层_1" xmlns="http://www.w3.org/2000/svg" xmlns:xlink="http://www.w3.org/1999/xlink" x="0px" y="0px"
	 viewBox="0 0 200 200" style="enable-background:new 0 0 200 200;" xml:space="preserve">
<title>形状结合</title>
<desc>Created with Sketch.</desc>
<path d="M139,15c3.1,0,5.6,2.5,5.6,5.6l0,0v7.5h16.7c9.2,0,16.7,7.6,16.7,16.8l0,0v123.3c0,9.3-7.5,16.8-16.7,16.8l0,0H38.8
	c-9.2,0-16.7-7.6-16.7-16.8l0,0V44.9c0-9.3,7.5-16.8,16.7-16.8l0,0H61v-7.5c0-3.1,2.5-5.6,5.6-5.6c3.1,0,5.6,2.5,5.6,5.6l0,0v7.5
	h61.2v-7.5C133.4,17.5,135.9,15,139,15z M61,39.3H38.8c-3,0-5.5,2.5-5.5,5.6l0,0v123.3c0,3.1,2.5,5.6,5.5,5.6l0,0h122.5
	c3,0,5.5-2.5,5.5-5.6l0,0V44.9c0-3.1-2.5-5.6-5.5-5.6l0,0h-16.7v1.6c0,3.1-2.5,5.6-5.6,5.6c-3.1,0-5.6-2.5-5.6-5.6l0,0v-1.6H72.2
	v1.6c0,3.1-2.5,5.6-5.6,5.6c-3.1,0-5.6-2.5-5.6-5.6l0,0V39.3z M100,134.6c3.1,0,5.6,2.5,5.6,5.6c0,3.1-2.5,5.6-5.6,5.6l0,0H55.5
	c-3.1,0-5.6-2.5-5.6-5.6c0-3.1,2.5-5.6,5.6-5.6l0,0H100z M144.5,101c3.1,0,5.6,2.5,5.6,5.6c0,3.1-2.5,5.6-5.6,5.6l0,0h-89
	c-3.1,0-5.6-2.5-5.6-5.6c0-3.1,2.5-5.6,5.6-5.6l0,0H144.5z M144.5,67.4c3.1,0,5.6,2.5,5.6,5.6c0,3.1-2.5,5.6-5.6,5.6l0,0h-89
	c-3.1,0-5.6-2.5-5.6-5.6c0-3.1,2.5-5.6,5.6-5.6l0,0H144.5z"/>
</svg>
