<?xml version="1.0" encoding="utf-8"?>
<!-- Generator: Adobe Illustrator 21.0.0, SVG Export Plug-In . SVG Version: 6.00 Build 0)  -->
<svg version="1.1" id="图层_1" xmlns="http://www.w3.org/2000/svg" xmlns:xlink="http://www.w3.org/1999/xlink" x="0px" y="0px"
	 viewBox="0 0 200 200" style="enable-background:new 0 0 200 200;" xml:space="preserve">
<title>一卡通</title>
<desc>Created with Sketch.</desc>
<g>
	<path d="M171.2,34H27.8c-7.3,0-13.3,6-13.3,13.3v105.1c0,7.3,6,13.3,13.3,13.3h143.4c7.3,0,13.3-6,13.3-13.3V47.2
		C184.5,39.9,178.6,34,171.2,34z M27.8,47h143.4c0.1,0,0.2,0.1,0.2,0.2v18.3H27.6V47.2C27.6,47.1,27.7,47,27.8,47z M171.2,152.5
		H27.8c-0.1,0-0.2-0.1-0.2-0.2V78.6h143.9v73.7C171.5,152.4,171.3,152.5,171.2,152.5z"/>
	<path d="M159.6,92.5h-39.4c-3.6,0-6.5,2.9-6.5,6.5c0,3.6,2.9,6.5,6.5,6.5h39.4c3.6,0,6.5-2.9,6.5-6.5
		C166.1,95.4,163.2,92.5,159.6,92.5z"/>
	<path d="M100.2,92.5H40c-3.6,0-6.5,2.9-6.5,6.5c0,3.6,2.9,6.5,6.5,6.5h60.2c3.6,0,6.5-2.9,6.5-6.5
		C106.7,95.4,103.8,92.5,100.2,92.5z"/>
	<path d="M80.8,115.8H40.3c-3.6,0-6.5,2.9-6.5,6.5c0,3.6,2.9,6.5,6.5,6.5h40.4c3.6,0,6.5-2.9,6.5-6.5
		C87.3,118.7,84.4,115.8,80.8,115.8z"/>
</g>
</svg>
