<?xml version="1.0" encoding="utf-8"?>
<!-- Generator: Adobe Illustrator 21.0.0, SVG Export Plug-In . SVG Version: 6.00 Build 0)  -->
<svg version="1.1" id="图层_1" xmlns="http://www.w3.org/2000/svg" xmlns:xlink="http://www.w3.org/1999/xlink" x="0px" y="0px"
	 viewBox="0 0 200 200" style="enable-background:new 0 0 200 200;" xml:space="preserve">
<path d="M178.3,48.2c-1.8-2.1-4.5-3.3-7.2-3.3l-118.2,0c-0.8,0-1.5-0.6-1.6-1.4l-2.4-17.7c-0.7-5.1-5.1-8.9-10.2-9l-18.2-0.1
	c-2.8,0-5.2,2.3-5.2,5.1l0,1.3c0,2.8,2.3,5.2,5.1,5.2l17.1,0.1l13.6,99.2c0.2,8.6,7.3,15.5,15.9,15.5h88.4c8.6,0,15.7-6.9,15.9-15.5
	l9.3-71.8C180.9,53,180.1,50.3,178.3,48.2z M168.2,61.1l-8.5,65.3l0,0.4v0.4c0,2.4-1.9,4.3-4.3,4.3l-88.4,0c-2.4,0-4.3-1.9-4.3-4.3
	v-0.4l-9-65.7c-0.3-2.4,1.6-4.6,4-4.6l106.5,0C166.6,56.5,168.5,58.7,168.2,61.1z"/>
<path d="M73.8,152.7c-9.4,0-17,7.6-17,17s7.6,17,17,17s17-7.6,17-17S83.2,152.7,73.8,152.7z M73.8,175.1c-3,0-5.4-2.4-5.4-5.4
	c0-3,2.4-5.4,5.4-5.4s5.4,2.4,5.4,5.4C79.2,172.7,76.8,175.1,73.8,175.1z"/>
<path d="M150.2,152.7c-9.4,0-17,7.6-17,17s7.6,17,17,17c9.4,0,17-7.6,17-17S159.6,152.7,150.2,152.7z M150.2,175.1
	c-3,0-5.4-2.4-5.4-5.4c0-3,2.4-5.4,5.4-5.4s5.4,2.4,5.4,5.4C155.7,172.7,153.2,175.1,150.2,175.1z"/>
</svg>
