<?xml version="1.0" encoding="utf-8"?>
<!-- Generator: Adobe Illustrator 21.0.0, SVG Export Plug-In . SVG Version: 6.00 Build 0)  -->
<svg version="1.1" id="图层_1" xmlns="http://www.w3.org/2000/svg" xmlns:xlink="http://www.w3.org/1999/xlink" x="0px" y="0px"
	 viewBox="0 0 200 200" style="enable-background:new 0 0 200 200;" xml:space="preserve">
<path d="M99.7,15.1c-46.9,0-85,38.1-85,85c0,46.9,38.1,85,85,85c47,0,85-38.1,85-85C184.7,53.2,146.7,15.1,99.7,15.1z M112.7,163.4
	c-5.2,3.8-11.8,6.9-18.6,4.7c-4.1-1.3-7.7-3.9-11.3-6.5L35.6,123v-11.5l46.7,37.5c4.4,2.8,10.4,4.5,15.8,2.5c5-2,9.3-5.4,13.6-9.1
	l35.2-30.4l-8.1-6.6l-36.8,30.3c-3.7,2.8-8,5.1-12.9,4.1c-4.5-0.9-7.9-4.4-11.8-6.9L43,105.1c-2.6-2-5.2-4-7.6-6.4l-0.1-7.6l41.5,33
	c3.7,2.3,8.8,4.6,13.2,2.1l4.7-3l32.4-26.8c-1.6-1.8-4.5-3.7-6.6-3.4c-1.6,0.2-3.1,0.8-4.6,1.8L92.9,114c-2,1.4-5.4,3-8,2.4
	c-6.3-1.5-10.9-6.9-15.5-10.6L34.5,77.4L83.3,37c12.1-8.8,24.5-7.8,35.6,0.5l45.3,37.3c0,0,0,11.1-0.1,11.1l-35.8-29.2
	c-3.7-3.1-15.2-15.5-25.7-11.4c-5.6,2.2-10.3,6.3-15.1,10L52.6,84.6c0,0,8.6,7.2,8.6,7.2l34.4-28.7c5.9-4.3,14.1-5.9,20.9-2.7
	c0,0,3.4,1.8,4.8,3c1.7,1.5,43.1,35.2,43.1,35.2c-0.1,2.5,0.1,5.7-0.2,8.1l-40.6-32.9c-5.2-3.3-13.1-3.4-18.2,0.2
	C94.1,83,83.7,91.7,72.8,101.2c2,2.7,5.1,3.9,8.6,2.9l2.4-1.3l22.4-19.1c3.1-2,9.6-3,12.9-0.9l3.7,2.4l42,34.2v0.6L112.7,163.4z"/>
</svg>
