<?xml version="1.0" encoding="utf-8"?>
<!-- Generator: Adobe Illustrator 21.0.0, SVG Export Plug-In . SVG Version: 6.00 Build 0)  -->
<svg version="1.1" id="图层_1" xmlns="http://www.w3.org/2000/svg" xmlns:xlink="http://www.w3.org/1999/xlink" x="0px" y="0px"
	 viewBox="0 0 200 200" style="enable-background:new 0 0 200 200;" xml:space="preserve">
<g>
	<path d="M89.9,100c-0.2-0.3-0.4-0.5-0.7-0.7L71.7,81.8C68.8,78.9,65.8,76,63,73c-3.5-3.6-5.3-8-5.8-13c-0.5-5.7,0.9-10.8,4.3-15.3
		c3.6-4.8,8.4-7.7,14.3-8.5c7.4-1.1,13.9,1.2,19.2,6.5c1.4,1.4,2.8,2.8,4.1,4.2c0.3,0.3,0.6,0.5,1,0.9c1.5-1.5,2.9-2.8,4.3-4.3
		c3-3.1,6.3-5.5,10.5-6.6c8.6-2.3,16.2-0.3,22.4,6.2c7,7.3,7.9,19,2.1,27.5c-1.3,1.8-2.9,3.4-4.5,5l-11.9,11.9
		c-2.8,2.8-5.6,5.5-8.4,8.3c-1.4,1.4-2.8,2.8-4.2,4.3c0.1,0.2,0.2,0.3,0.3,0.5c4.5,4.6,9.1,9.1,13.6,13.7c4.3,4.3,8.7,8.5,12.9,12.9
		c4.1,4.3,6,9.4,6,15.3c0,10.3-7.5,19.6-18.2,21.4c-7.4,1.3-13.9-0.8-19.4-6c-1.7-1.6-3.2-3.2-4.8-4.8c-0.2-0.2-0.5-0.4-0.7-0.7
		c-0.3,0.3-0.6,0.5-0.8,0.8c-1.8,1.8-3.5,3.6-5.3,5.3c-4.1,3.8-9,5.8-14.6,5.7c-8.6,0-15-3.9-19.4-11.1c-1.6-2.6-2.5-5.6-2.8-8.8
		c-0.5-6,1-11.4,4.8-16.1c1.4-1.7,3-3.3,4.6-4.8c7.4-7.4,14.9-14.9,22.3-22.3C89.3,100.7,89.6,100.4,89.9,100L89.9,100z M110.4,142
		c0.5,0.6,1,1,1.4,1.5c1.6,1.5,3,3.1,4.7,4.6c2.5,2.1,6.1,2.2,8.9,0.3c2.6-1.7,3.9-5.1,3.1-8.1c-0.4-1.7-1.5-3-2.7-4.3
		c-3.6-3.6-7.2-7.2-10.8-10.8l-14.4-14.4c-0.2-0.2-0.5-0.4-0.7-0.6c-0.3,0.3-0.7,0.6-1,0.9c-2.8,2.9-5.7,5.7-8.6,8.6
		c-3.2,3.3-6.5,6.5-9.6,9.8c-2.4,2.4-4.8,4.8-7.1,7.2c-1.5,1.6-2.4,3.5-2.2,5.8c0.2,3.2,1.8,5.5,4.8,6.7c3,1.2,5.7,0.6,8.1-1.6
		c1.1-1,2.1-2.1,3.1-3.1c0.8-0.8,1.5-1.6,2.3-2.4c-2.7-2.7-5.4-5.4-8-8c3.5-3.5,6.8-6.8,10.2-10.2c2.6,2.6,5.3,5.3,8,8
		c2.8-2.8,5.4-5.4,8-7.9l10.2,10.2C115.8,136.6,113.1,139.3,110.4,142L110.4,142z M110.5,58.1l7.9,7.9c-3.4,3.4-6.8,6.8-10.2,10.2
		c-2.6-2.6-5.3-5.3-8.1-8.1c-1.4,1.5-2.7,2.8-4.1,4.1c-1.3,1.3-2.6,2.6-4,4L81.8,66.1c2.8-2.7,5.5-5.3,8.1-7.9
		c-0.1-0.2-0.2-0.4-0.3-0.5c-1.8-1.8-3.5-3.6-5.4-5.3c-2.3-2.1-5.1-2.5-7.9-1.3c-5,2-6.4,8.4-2.6,12.3c3,3.1,6.1,6.1,9.1,9.2
		c5.4,5.5,10.8,10.9,16.2,16.4c0.3,0.3,0.7,0.7,1.1,1c0.3-0.3,0.6-0.5,0.8-0.7c1.3-1.3,2.5-2.6,3.8-3.9c7.3-7.3,14.7-14.6,22-22
		c3-3,2.8-7.9-0.2-10.8c-2.8-2.6-7.1-2.9-10-0.4c-2.1,1.8-3.9,3.8-5.8,5.7C110.6,57.9,110.6,57.9,110.5,58.1L110.5,58.1z"/>
	<path d="M141.9,110.2c-2.7,2.7-5.4,5.4-8,8c-3.4-3.4-6.8-6.8-10.2-10.2c2.6-2.6,5.3-5.3,8-8c-2.7-2.7-5.4-5.4-8-8
		c3.4-3.4,6.8-6.8,10.2-10.2c2.5,2.5,5.2,5.2,7.9,7.9c0.4-0.4,0.8-0.8,1.2-1.1c2-1.9,3.9-4,6-5.7c3.1-2.7,6.8-4.3,10.9-4.8
		c7-0.8,13.1,1.1,18.2,5.9c3.9,3.7,6.2,8.3,6.7,13.6c0.8,9.5-3,16.8-11.2,21.6c-8.2,4.8-19,3.4-25.9-3.3c-1.5-1.5-3-3-4.6-4.6
		C142.8,111.1,142.4,110.7,141.9,110.2z M152,100.1c0.6,0.5,1.1,0.8,1.5,1.2c1.6,1.5,3,3.1,4.7,4.6c2.4,2.1,6,2.3,8.8,0.6
		c2.8-1.7,4.2-5,3.5-8.2c-1.2-5.4-7.8-7.8-12.1-4.3C156.2,95.8,154.3,97.9,152,100.1z M76.3,92c-2.5,2.5-5.2,5.2-7.9,7.9
		c2.8,2.8,5.5,5.5,8.1,8.1l-10.2,10.2l-8-8c-0.3,0.2-0.5,0.4-0.7,0.6l-4.3,4.3c-3.4,3.5-7.5,5.8-12.3,6.5
		c-7.5,1.2-14.1-0.9-19.5-6.3c-3.2-3.2-5.2-7-6-11.5c-1.2-6.8,0.4-13,4.9-18.3c3.2-3.9,7.4-6.4,12.3-7.3c8-1.5,14.9,0.7,20.6,6.5
		c1.5,1.5,2.9,3,4.4,4.4c0.1,0.1,0.3,0.2,0.6,0.5c2.7-2.6,5.3-5.3,7.9-7.9C69.5,85.2,72.8,88.6,76.3,92L76.3,92z M47.8,100.1
		c-0.1-0.2-0.2-0.3-0.3-0.4c-1.8-1.8-3.5-3.6-5.3-5.3c-2-1.8-4.4-2.4-7-1.7c-3,0.8-5.3,3.5-5.6,6.5c-0.3,3.1,1.2,6.1,4,7.6
		c3.1,1.7,6.6,1.1,9.3-1.5l3-3C46.4,101.5,47.1,100.8,47.8,100.1z"/>
</g>
</svg>
