<?xml version="1.0" encoding="utf-8"?>
<!-- Generator: Adobe Illustrator 21.0.0, SVG Export Plug-In . SVG Version: 6.00 Build 0)  -->
<svg version="1.1" id="图层_1" xmlns="http://www.w3.org/2000/svg" xmlns:xlink="http://www.w3.org/1999/xlink" x="0px" y="0px"
	 viewBox="0 0 200 200" style="enable-background:new 0 0 200 200;" xml:space="preserve">
<path d="M138.1,27.5c11.3,2.5,17.2,7.7,16.8,15.4c-0.6,13.7-27.3,30-57.4,36.2c3-20.3,9.9-35,16.6-36.3c2.4-0.5,5.5-0.4,8.2,3
	c0,0,0.1,0.1,0.1,0.1l6.9-2c-7-15-16.6-24.4-27.3-24.4c-17.9,0-33,26.3-37.2,61.7c-15.1-1.6-25.3-7.3-25.1-16.1
	C40,54.7,53.5,43.3,71.7,35.6l-1.9-6.8C38.4,40.9,15,61.2,15,79.7c0,17,20.3,28,49,29.4c2,40.8,18.3,72.7,38.1,72.7
	c17.9,0,33.1-26.4,37.2-61.8l-11.9,3.1c-2.6,19-8.3,32.2-14.9,32.2c-8.3,0-15.2-21.1-16.3-48.2c1.5-0.3,3.1-0.5,4.6-0.8
	c46.7-9,85-36.2,84.1-59.7c-0.6-16.6-21.6-26.8-49.4-28.4L138.1,27.5L138.1,27.5z"/>
</svg>
