<?xml version="1.0" encoding="utf-8"?>
<!-- Generator: Adobe Illustrator 21.0.0, SVG Export Plug-In . SVG Version: 6.00 Build 0)  -->
<svg version="1.1" id="图层_1" xmlns="http://www.w3.org/2000/svg" xmlns:xlink="http://www.w3.org/1999/xlink" x="0px" y="0px"
	 viewBox="0 0 200 200" style="enable-background:new 0 0 200 200;" xml:space="preserve">
<g>
	<path d="M99.6,63.1c0.7,0,1.5,0,2.2,0.1v0l74.8,0c-20.4-42.3-71.2-60-113.5-39.6C53.7,28,45.1,34.3,38,41.9l26.4,46.2
		C69.6,73.1,83.8,63.1,99.6,63.1z"/>
	<path d="M75.2,100.4c0,13.5,10.9,24.4,24.4,24.4c13.5,0,24.4-10.9,24.4-24.4c0,0,0,0,0,0C124,86.9,113.1,76,99.6,76
		S75.2,86.9,75.2,100.4C75.2,100.4,75.2,100.4,75.2,100.4z"/>
	<path d="M107.1,136.9c-15.1,3.1-30.6-3.5-38.9-16.5l-0.1,0.1L29.4,52.7c-26.1,39.1-15.6,91.9,23.4,118c9.1,6.1,19.3,10.4,30.1,12.6
		l-1.9-1.1L107.1,136.9L107.1,136.9z"/>
	<path d="M181.5,76l-53.7,0c5.7,6.5,9.1,15.1,9.1,24.4c0,7.2-2,14-5.6,19.7l-37.4,64.7c46.8,3.3,87.5-31.9,90.9-78.8
		C185.5,95.9,184.4,85.7,181.5,76L181.5,76z"/>
</g>
</svg>
