<?xml version="1.0" standalone="no"?><!DOCTYPE svg PUBLIC "-//W3C//DTD SVG 1.1//EN" "http://www.w3.org/Graphics/SVG/1.1/DTD/svg11.dtd"><svg class="icon" width="200px" height="200.00px" viewBox="0 0 1024 1024" version="1.1" xmlns="http://www.w3.org/2000/svg"><path d="M888.208696 267.130435c-46.747826-46.747826-111.304348-73.46087-178.086957-73.46087-31.165217 0-64.556522 6.678261-93.495652 17.808696-31.165217 13.356522-57.878261 31.165217-82.365217 53.426087L298.295652 498.643478c-26.713043 26.713043-42.295652 62.330435-42.295652 100.173913 0 37.843478 15.582609 73.46087 42.295652 100.173913 26.713043 26.713043 62.330435 42.295652 102.4 42.295653 37.843478 0 73.46087-15.582609 100.173913-42.295653l204.8-202.573913c6.678261-6.678261 11.130435-15.582609 11.130435-24.486956 0-8.904348-4.452174-17.808696-11.130435-24.486957-6.678261-6.678261-15.582609-11.130435-24.486956-11.130435-8.904348 0-17.808696 4.452174-24.486957 11.130435l-204.8 202.573913c-13.356522 13.356522-31.165217 20.034783-51.2 20.034783-20.034783 0-37.843478-6.678261-51.2-20.034783-13.356522-13.356522-20.034783-31.165217-20.034782-51.2 0-20.034783 6.678261-37.843478 20.034782-48.973913l233.739131-231.513043c33.391304-33.391304 77.913043-51.2 126.886956-51.2s93.495652 17.808696 126.886957 51.2c33.391304 33.391304 53.426087 77.913043 53.426087 124.660869s-17.808696 91.269565-51.2 124.66087l-247.095653 244.869565c-48.973913 48.973913-115.756522 75.686957-186.991304 75.686957s-138.017391-26.713043-186.991304-77.913044-77.913043-115.756522-77.913044-184.765217c0-71.234783 26.713043-135.791304 75.686957-184.765218L534.26087 124.66087c6.678261-6.678261 11.130435-15.582609 11.130434-24.486957 0-8.904348-4.452174-17.808696-11.130434-24.486956-6.678261-6.678261-15.582609-11.130435-24.486957-11.130435s-20.034783 2.226087-26.713043 8.904348L162.504348 391.791304C131.33913 422.956522 106.852174 460.8 89.043478 500.869565c-15.582609 40.069565-24.486957 82.365217-24.486956 124.66087 0 42.295652 8.904348 84.591304 24.486956 124.660869 17.808696 42.295652 42.295652 77.913043 73.46087 111.304348 31.165217 31.165217 69.008696 55.652174 111.304348 73.46087 40.069565 15.582609 82.365217 24.486957 126.886956 24.486956s86.817391-8.904348 126.886957-24.486956c42.295652-15.582609 80.13913-40.069565 111.304348-73.46087l247.095652-244.869565c24.486957-24.486957 42.295652-51.2 55.652174-82.365217 11.130435-28.93913 17.808696-60.104348 17.808695-93.495653 2.226087-64.556522-24.486957-126.886957-71.234782-173.634782z" /></svg>