<?xml version="1.0" encoding="utf-8"?>
<!-- Generator: Adobe Illustrator 21.0.0, SVG Export Plug-In . SVG Version: 6.00 Build 0)  -->
<svg version="1.1" id="图层_1" xmlns="http://www.w3.org/2000/svg" xmlns:xlink="http://www.w3.org/1999/xlink" x="0px" y="0px"
	 viewBox="0 0 200 200" style="enable-background:new 0 0 200 200;" xml:space="preserve">
<path d="M100,185c-46.9,0-85-38.1-85-85s38.1-85,85-85s85,38.1,85,85S146.9,185,100,185z M100,168c37.6,0,68-30.4,68-68
	s-30.4-68-68-68s-68,30.4-68,68S62.4,168,100,168z M100,88l24-24l12,12l-24,24l24,24l-12,12l-24-24l-24,24l-12-12l24-24l-24-24
	l12-12L100,88z"/>
</svg>
