<?xml version="1.0" encoding="utf-8"?>
<!-- Generator: Adobe Illustrator 21.0.0, SVG Export Plug-In . SVG Version: 6.00 Build 0)  -->
<svg version="1.1" id="图层_1" xmlns="http://www.w3.org/2000/svg" xmlns:xlink="http://www.w3.org/1999/xlink" x="0px" y="0px"
	 viewBox="0 0 200 200" style="enable-background:new 0 0 200 200;" xml:space="preserve">
<path d="M100,90l30.1-30.1c2.8-2.8,7.2-2.8,10,0v0c2.8,2.8,2.8,7.2,0,10L110,100l30.1,30.1c2.8,2.8,2.8,7.2,0,10l0,0
	c-2.8,2.8-7.2,2.8-10,0L100,110l-30.1,30.1c-2.8,2.8-7.2,2.8-10,0h0c-2.8-2.8-2.8-7.2,0-10L90,100L59.9,69.9c-2.8-2.8-2.8-7.2,0-10
	l0,0c2.8-2.8,7.2-2.8,10,0L100,90z"/>
</svg>
