<?xml version="1.0" encoding="utf-8"?>
<!-- Generator: Adobe Illustrator 21.0.0, SVG Export Plug-In . SVG Version: 6.00 Build 0)  -->
<svg version="1.1" id="图层_1" xmlns="http://www.w3.org/2000/svg" xmlns:xlink="http://www.w3.org/1999/xlink" x="0px" y="0px"
	 viewBox="0 0 200 200" style="enable-background:new 0 0 200 200;" xml:space="preserve">
<path d="M178.1,94.9c-3.2-4.9-7.4-9.1-12.2-12.5c-0.4-5.3-1.6-10.6-3.7-15.5c-2.7-6-6.5-11.5-11.2-16.1c-4.7-4.9-10.4-8.8-16.7-11.5
	c-6.2-2.5-12.8-3.7-19.5-3.6c-10.1-0.1-20,2.9-28.4,8.5c-4.7,3.1-8.8,7-12.3,11.5c-2.6-0.7-5.3-1-8-1c-8.3-0.1-16.3,3.1-22.2,8.9
	c-6.8,6.6-10.1,16-9.1,25.5c-4,2.4-7.6,5.5-10.6,9.2c-6.1,7.2-9.3,16.4-9.2,25.8c-0.1,10.9,4.3,21.3,12.2,28.8
	c7.8,7.5,18.3,11.6,29.1,11.4h82.9c12,0.1,23.6-4.7,32.1-13.2c4.3-4.1,7.8-9.1,10.2-14.6c2.3-5.5,3.5-11.4,3.5-17.4
	C185.1,110.5,182.7,102.1,178.1,94.9z"/>
</svg>
