<?xml version="1.0" encoding="utf-8"?>
<!-- Generator: Adobe Illustrator 21.0.0, SVG Export Plug-In . SVG Version: 6.00 Build 0)  -->
<svg version="1.1" id="图层_1" xmlns="http://www.w3.org/2000/svg" xmlns:xlink="http://www.w3.org/1999/xlink" x="0px" y="0px"
	 viewBox="0 0 200 200" style="enable-background:new 0 0 200 200;" xml:space="preserve">
<path d="M115.6,47.7c4.9,0,9.7,0.9,14.1,2.7c4.8,2.1,9.1,5,12.6,8.7l0.1,0.1l0.1,0.1c3.5,3.5,6.5,7.7,8.6,12.3
	c1.5,3.5,2.4,7.4,2.7,11.6l0.4,5.6l4.6,3.3c3.7,2.6,6.8,5.7,9.1,9.2c3.3,5.2,5.1,11.3,5,17.5l0,0.1v0.1c0,4.4-0.9,8.6-2.5,12.7
	c-1.7,4-4.3,7.7-7.4,10.6l-0.1,0.1l-0.1,0.1c-6.2,6.2-14.6,9.7-23.2,9.7l-0.3,0l0,0h0H56.3h-0.1l-0.1,0c-0.2,0-0.4,0-0.5,0
	c-7.5,0-14.6-2.9-20-8.1l0,0l0,0c-5.4-5.2-8.5-12.5-8.5-20l0-0.1l0-0.1c-0.1-6.6,2.2-13,6.4-17.9l0.1-0.1l0.1-0.1
	c2.1-2.6,4.6-4.8,7.5-6.5l6.6-3.9l-0.8-7.6c-0.6-5.9,1.4-11.6,5.5-15.6l0,0l0,0c3.6-3.5,8.3-5.5,13.4-5.5l0.2,0l0.1,0h0.1
	c1.8,0,3.4,0.2,4.9,0.6l7.7,2.1l4.9-6.3c2.8-3.6,6-6.6,9.4-8.9l0,0l0,0c6.4-4.2,13.7-6.5,21.3-6.5l0.4,0l0.1,0l0.1,0
	C115.2,47.7,115.4,47.7,115.6,47.7 M115.6,35.7c-0.3,0-0.5,0-0.8,0c-0.2,0-0.3,0-0.5,0c-9.9,0-19.6,3-27.9,8.5
	c-4.7,3.1-8.8,7-12.3,11.5c-2.6-0.7-5.3-1-8-1c-0.1,0-0.3,0-0.4,0c-8.2,0-16,3.2-21.8,8.9c-6.8,6.6-10.1,16-9.1,25.5
	c-4,2.4-7.6,5.5-10.6,9.2c-6.1,7.2-9.3,16.4-9.2,25.8c-0.1,10.9,4.3,21.3,12.2,28.8c7.6,7.3,17.8,11.4,28.3,11.4c0.3,0,0.5,0,0.8,0
	h82.9c0.1,0,0.2,0,0.4,0c11.9,0,23.3-4.8,31.7-13.2c4.3-4.1,7.8-9.1,10.2-14.6c2.3-5.5,3.5-11.4,3.5-17.4c0.1-8.6-2.3-17-6.9-24.2
	c-3.2-4.9-7.4-9.1-12.2-12.5c-0.4-5.3-1.6-10.6-3.7-15.5c-2.7-6-6.5-11.5-11.2-16.1c-4.7-4.9-10.4-8.8-16.7-11.5
	C128.3,36.9,122,35.7,115.6,35.7L115.6,35.7z"/>
</svg>
