<?xml version="1.0" encoding="utf-8"?>
<!-- Generator: Adobe Illustrator 21.0.0, SVG Export Plug-In . SVG Version: 6.00 Build 0)  -->
<svg version="1.1" id="图层_1" xmlns="http://www.w3.org/2000/svg" xmlns:xlink="http://www.w3.org/1999/xlink" x="0px" y="0px"
	 viewBox="0 0 200 200" style="enable-background:new 0 0 200 200;" xml:space="preserve">
<g>
	<path d="M120.4,59.4l6.2-6.2c2.6-2.6,2.6-6.7,0-9.2c-2.6-2.6-6.7-2.6-9.2,0l-6.2,6.2c-2.6,2.6-2.6,6.7,0,9.2
		C113.7,61.9,117.9,61.9,120.4,59.4z"/>
	<path d="M40.3,59.4c2.6,2.6,6.7,2.6,9.2,0s2.6-6.7,0-9.2L43.4,44c-2.6-2.6-6.7-2.6-9.2,0c-2.6,2.6-2.6,6.7,0,9.2L40.3,59.4z"/>
	<path d="M80.4,46.6c3.6,0,6.5-2.9,6.5-6.5v-8.7c0-3.6-2.9-6.5-6.5-6.5c-3.6,0-6.5,2.9-6.5,6.5v8.7C73.8,43.7,76.8,46.6,80.4,46.6z"
		/>
	<path d="M36.8,90.2c0-3.6-2.9-6.5-6.5-6.5h-8.7c-3.6,0-6.5,2.9-6.5,6.5c0,3.6,2.9,6.5,6.5,6.5h8.7C33.9,96.7,36.8,93.8,36.8,90.2z"
		/>
	<path d="M165.7,109.1c-6.2-22.8-26.9-38.5-50.5-38.5c-2,0-3.9,0.1-5.8,0.3c-1-1.5-2.2-3-3.4-4.3c-13.1-14.1-35.1-15-49.3-1.9
		C44.5,75.9,42.2,94,50.3,107.8c-13,5.1-22.2,17.7-22.2,32.5c0,19.3,15.6,34.9,34.9,34.9h87.2c13.2,0,25.3-7.5,31.2-19.3
		C189.9,138.7,182.9,117.7,165.7,109.1z M71.9,70.1c8.3-3.5,17.4-1.4,23.5,4.4C81.9,80,71,91.1,65.9,105.5h-2c0,0,0.5-0.5,0.5-0.5
		c-1.7-1.9-3.1-4-4.1-6.4C55.6,87.5,60.8,74.7,71.9,70.1z M150.1,162.1H62.9c-12,0-21.8-9.8-21.8-21.8s9.8-21.8,21.8-21.8h12.2
		l3.1-8.7c4.3-12.1,14.3-21.4,26.7-24.8c20.9-5.7,42.5,6.6,48.2,27.5l1.5,5.6l5.2,2.6c7.4,3.7,12.1,11.3,12.1,19.5
		C171.9,152.4,162.1,162.1,150.1,162.1z"/>
</g>
</svg>
