<?xml version="1.0" encoding="utf-8"?>
<!-- Generator: Adobe Illustrator 21.0.0, SVG Export Plug-In . SVG Version: 6.00 Build 0)  -->
<svg version="1.1" id="图层_1" xmlns="http://www.w3.org/2000/svg" xmlns:xlink="http://www.w3.org/1999/xlink" x="0px" y="0px"
	 viewBox="0 0 200 200" style="enable-background:new 0 0 200 200;" xml:space="preserve">
<title>数据资产图标-前台</title>
<path d="M170.6,31.2H29.4c-8,0-14.4,6.5-14.4,14.4v83.9c0,8,6.5,14.4,14.4,14.4h40.9v15.2h-7c-2.7,0-4.8,2.2-4.8,4.8
	c0,2.7,2.2,4.8,4.8,4.8h11.8h48.1h9.7c2.7,0,4.8-2.2,4.8-4.8c0-2.7-2.2-4.8-4.8-4.8h-4.8V144h42.5c8,0,14.4-6.5,14.4-14.4V45.7
	C185,37.7,178.5,31.2,170.6,31.2z M29.4,40.9h141.1c2.7,0,4.8,2.2,4.8,4.8v70.1h-20.8c0.8-2.5,2.3-4.8,4.4-6.5
	c3.7-3.2,4.5-8.6,2.1-12.8l-9.4-16c-2.4-4.1-7.4-6-11.9-4.6c-1.6,0.5-3.2,0.8-4.9,0.8c-7.4,0.1-13.8-5-15.5-12.1
	c-1.1-4.6-5.2-7.9-10-8H90.7c-4.8,0-8.9,3.4-10,8c-1.8,7.1-8.2,12.1-15.6,12c-1.7,0-3.3-0.2-4.9-0.7c-4.6-1.4-9.5,0.5-11.9,4.6
	l-9.3,16c-2.5,4.2-1.6,9.6,2.1,12.8c2,1.8,3.5,4,4.4,6.5h-21V45.7C24.6,43,26.8,40.9,29.4,40.9z M130.2,115.8
	c-2.3-14.6-14.9-25.8-30.2-25.8c-15.2,0-27.8,11.2-30.1,25.8H55.4c-1.1-5.2-3.8-10-7.9-13.6c-0.2-0.2-0.2-0.5,0-0.7l9.3-16
	c0.2-0.2,0.5-0.3,0.7-0.3c2.5,0.8,5.1,1.2,7.8,1.2c11.9,0,22.1-8.2,24.9-19.7c0.1-0.3,0.3-0.5,0.6-0.5h18.4c0.3,0,0.5,0.2,0.6,0.4
	c2.8,11.5,13.1,19.6,24.9,19.7c2.6,0,5.3-0.4,7.8-1.2c0.3-0.1,0.6,0,0.7,0.3l9.4,16c0.2,0.2,0.2,0.5,0,0.7
	c-4.1,3.6-6.9,8.5-7.9,13.8H130.2z M120.3,115.8H79.7c2.2-9.2,10.4-16.1,20.3-16.1C109.9,99.7,118.2,106.6,120.3,115.8z
	 M118.5,159.1H80V144h38.5V159.1z M170.6,134.4h-47.3H75.2H29.4c-2.7,0-4.8-2.2-4.8-4.8v-4.1h26.6l-0.1,0.1c0.3,0,0.6,0,1-0.1h123.3
	v4.1C175.4,132.2,173.2,134.4,170.6,134.4z"/>
</svg>
