<?xml version="1.0" encoding="utf-8"?>
<!-- Generator: Adobe Illustrator 21.0.0, SVG Export Plug-In . SVG Version: 6.00 Build 0)  -->
<svg version="1.1" id="图层_1" xmlns="http://www.w3.org/2000/svg" xmlns:xlink="http://www.w3.org/1999/xlink" x="0px" y="0px"
	 viewBox="0 0 200 200" style="enable-background:new 0 0 200 200;" xml:space="preserve">
<title>数据资产图标-前台</title>
<path d="M170.6,31.2H29.4c-8,0-14.4,6.5-14.4,14.4v83.9c0,8,6.5,14.4,14.4,14.4h40.9v15.2h-7c-2.7,0-4.8,2.2-4.8,4.8
	c0,2.7,2.2,4.8,4.8,4.8h11.8h48.1h9.7c2.7,0,4.8-2.2,4.8-4.8c0-2.7-2.2-4.8-4.8-4.8h-4.8V144h42.5c8,0,14.4-6.5,14.4-14.4V45.7
	C185,37.7,178.5,31.2,170.6,31.2z M29.4,40.9h141.1c2.7,0,4.8,2.2,4.8,4.8v70.1l-150.8,0V45.7C24.6,43,26.8,40.9,29.4,40.9z
	 M118.5,159.1H80V144h38.5V159.1z M170.6,134.4h-47.3H75.2H29.4c-2.7,0-4.8-2.2-4.8-4.8v-4.1h150.8v4.1
	C175.4,132.2,173.2,134.4,170.6,134.4z"/>
</svg>
