<?xml version="1.0" encoding="utf-8"?>
<!-- Generator: Adobe Illustrator 21.0.0, SVG Export Plug-In . SVG Version: 6.00 Build 0)  -->
<svg version="1.1" id="图层_1" xmlns="http://www.w3.org/2000/svg" xmlns:xlink="http://www.w3.org/1999/xlink" x="0px" y="0px"
	 viewBox="0 0 200 200" style="enable-background:new 0 0 200 200;" xml:space="preserve">
<path d="M84.3,69.7c1.6,1.9,1.3,4.7-0.6,6.3c0,0-0.1,0.1-0.1,0.1L69.3,87.2l14.4,12.1c1.9,1.6,2.2,4.5,0.5,6.4
	c-1.7,1.9-4.6,2.1-6.6,0.5L61.8,92.9c-3.2-2.6-3.6-7.3-1-10.4c0.4-0.4,0.8-0.8,1.2-1.2L77.7,69C79.7,67.5,82.6,67.8,84.3,69.7
	L84.3,69.7z"/>
<path d="M121.9,68.7l0.4,0.3L138,81.3c3.3,2.5,3.9,7.1,1.4,10.4c-0.2,0.3-0.5,0.6-0.8,0.9l-0.3,0.3l-15.8,13.3
	c-1.9,1.6-4.9,1.4-6.6-0.5c-1.6-1.7-1.5-4.4,0.1-6.1l0.3-0.3l14.4-12.1l-14.2-11.1c-1.9-1.5-2.3-4.3-0.8-6.2c0,0,0.1-0.1,0.1-0.1
	C117.3,67.9,119.9,67.5,121.9,68.7z"/>
<path d="M100,68c2.7,0,4.9,2.4,4.9,5.4v28.5c0,3-2.2,5.4-4.9,5.4c-2.7,0-4.9-2.4-4.9-5.4V73.4C95.1,70.4,97.3,68,100,68z"/>
<path d="M170.6,31.2H29.4c-8,0-14.4,6.5-14.4,14.4v83.9c0,8,6.5,14.4,14.4,14.4h40.9v15.2h-7c-2.7,0-4.8,2.2-4.8,4.8
	c0,2.7,2.2,4.8,4.8,4.8h11.8h48.1h9.7c2.7,0,4.8-2.2,4.8-4.8c0-2.7-2.2-4.8-4.8-4.8h-4.8V144h42.5c8,0,14.4-6.5,14.4-14.4V45.7
	C185,37.7,178.5,31.2,170.6,31.2z M118.5,159.1H80V144h38.5V159.1z M175.4,129.6c0,2.6-2.2,4.8-4.8,4.8h-47.3H75.2H29.4
	c-2.7,0-4.8-2.2-4.8-4.8l-0.1-83.9c0.1-2.7,2.3-4.8,4.9-4.8h141.1c2.7,0,4.8,2.2,4.8,4.8L175.4,129.6z"/>
</svg>
