<?xml version="1.0" encoding="utf-8"?>
<!-- Generator: Adobe Illustrator 21.0.0, SVG Export Plug-In . SVG Version: 6.00 Build 0)  -->
<svg version="1.1" id="图层_1" xmlns="http://www.w3.org/2000/svg" xmlns:xlink="http://www.w3.org/1999/xlink" x="0px" y="0px"
	 viewBox="0 0 200 200" style="enable-background:new 0 0 200 200;" xml:space="preserve">
<path d="M184.5,24.3l-8.8-8.8c-0.7-0.6-1.7-0.6-2.4,0l-15.9,15.9c-6.9-4.7-15-7.2-23.4-7.2c-10.7,0-21.3,4.1-29.5,12.2L83.4,57.7
	c-0.6,0.6-0.6,1.7,0,2.3l56.6,56.6c0.3,0.3,0.7,0.5,1.2,0.5c0.4,0,0.9-0.2,1.2-0.5l21.2-21.2c14.1-14.1,16.2-36.3,5.1-52.8
	l15.9-15.9C185.2,26,185.2,25,184.5,24.3z"/>
<path d="M113.9,107.2c-0.7-0.6-1.7-0.6-2.4,0l-13.9,13.9l-18.8-18.8l13.9-13.9c0.6-0.7,0.6-1.7,0-2.4l-7.6-7.6
	c-0.7-0.6-1.7-0.6-2.4,0L69,92.4l-9-8.9c-0.3-0.3-0.7-0.5-1.2-0.5c-0.4,0-0.9,0.2-1.2,0.5l-21.2,21.2c-14.1,14.1-16.2,36.3-5.1,52.8
	l-15.9,15.9c-0.6,0.6-0.6,1.7,0,2.3l8.8,8.8c0.7,0.6,1.7,0.6,2.4,0l15.9-15.9c6.9,4.7,15,7.2,23.4,7.2c10.7,0,21.3-4.1,29.5-12.2
	l21.2-21.2c0.6-0.6,0.6-1.7,0-2.3l-9-9l13.9-13.9c0.6-0.7,0.6-1.7,0-2.4L113.9,107.2L113.9,107.2z"/>
</svg>
