<?xml version="1.0" encoding="utf-8"?>
<!-- Generator: Adobe Illustrator 21.0.0, SVG Export Plug-In . SVG Version: 6.00 Build 0)  -->
<svg version="1.1" id="图层_1" xmlns="http://www.w3.org/2000/svg" xmlns:xlink="http://www.w3.org/1999/xlink" x="0px" y="0px"
	 viewBox="0 0 200 200" style="enable-background:new 0 0 200 200;" xml:space="preserve">
<title>BGYDA</title>
<path d="M23.4,180.2c-4.6,0-8.4-3.8-8.4-8.4c0,0,0,0,0,0V28.2c0-4.6,3.7-8.4,8.4-8.4h51.8c3.4-0.1,6.5,1.9,7.8,5.1l1.8,4.1h82.9
	c4.6,0,8.4,3.8,8.4,8.4c0,0,0,0,0,0v32h0.7c4.5,0,8.2,3.7,8.3,8.2v94.1c0,4.6-3.7,8.4-8.3,8.4H23.4z M25.7,169.5h148.6V79.9H89.6
	c-0.7,0-1.3-0.1-1.9-0.4l-0.5-0.3c-0.4-0.2-0.7-0.4-1.1-0.7c-0.1-0.1-0.3-0.3-0.4-0.4c-0.3-0.3-0.6-0.7-0.8-1.1l-0.3-0.8v-0.3L76,36
	l-2.3-5.6H25.7V169.5z M93.9,69.4h71.4V39.7H87.7L93.9,69.4z"/>
</svg>
