<?xml version="1.0" encoding="utf-8"?>
<!-- Generator: Adobe Illustrator 21.0.0, SVG Export Plug-In . SVG Version: 6.00 Build 0)  -->
<svg version="1.1" id="图层_1" xmlns="http://www.w3.org/2000/svg" xmlns:xlink="http://www.w3.org/1999/xlink" x="0px" y="0px"
	 viewBox="0 0 200 200" style="enable-background:new 0 0 200 200;" xml:space="preserve">
<title>home-icon-nav-robot@2x</title>
<desc>Created with Sketch.</desc>
<g id="导航">
	<g id="导航栏" transform="translate(-1650.000000, -20.000000)">
		<g id="home-icon-nav-robot" transform="translate(1650.000000, 20.000000)">
			<path id="形状结合" d="M97.6,15c30.5,0,55.1,23.2,58,53.4l3.9,0c14.5,0,25.5,10.8,25.5,25s-11,25-25.5,25l-3.7,0l0,0.5
				c-0.9,25.1-16.9,46.6-39.6,54.3c-2.1,6.8-8.6,11.8-16.2,11.8h-8.5c-9.3,0-17-7.5-17-16.7c0-9.2,7.7-16.7,17-16.7h8.5
				c6.2,0,11.7,3.3,14.6,8.2c17-7.1,28.7-24.2,28.7-43.1V74.4c0-25.4-20.8-46.6-45.8-46.6c-23,0-42.5,18-45.4,40.7l1.1,0v50H40.5
				c-14.5,0-25.5-10.8-25.5-25c0-13.8,10.6-24.5,24.6-25C42.4,38.2,67.1,15,97.6,15z M100,164.2h-8.5c-2.6,0-4.3,1.7-4.3,4.2
				c0,2.5,1.7,4.2,4.3,4.2h8.5c2.6,0,4.3-1.7,4.3-4.2C104.3,165.8,102.6,164.2,100,164.2z M117,109.2c3.4,0.8,5.1,4.2,4.3,7.5
				c-1.7,9.2-11.1,16.7-21.3,16.7s-19.6-6.7-22.9-16.7c-0.9-3.3,0.8-6.7,4.3-7.5c3.4-0.8,6.8,0.8,7.6,4.2c0.9,4.2,5.1,7.5,10.2,7.5
				c5.1,0,9.4-3.3,10.2-7.5C110.2,110.1,113.6,108.4,117,109.2z M159.5,80.9v25c6.8,0,12.8-5.8,12.8-12.5
				C172.3,86.7,167.1,80.9,159.5,80.9z M27.8,93.4c0,6.3,5.3,11.8,11.5,12.4V81C33,81.6,27.8,87.1,27.8,93.4z"/>
		</g>
	</g>
</g>
</svg>
