<?xml version="1.0" encoding="utf-8"?>
<!-- Generator: Adobe Illustrator 21.0.0, SVG Export Plug-In . SVG Version: 6.00 Build 0)  -->
<svg version="1.1" id="图层_1" xmlns="http://www.w3.org/2000/svg" xmlns:xlink="http://www.w3.org/1999/xlink" x="0px" y="0px"
	 viewBox="0 0 200 200" style="enable-background:new 0 0 200 200;" xml:space="preserve">
<title>数据资产图标-前台</title>
<g>
	<path d="M174.2,28.6c-5.9-3.4-12.3-5.8-19-7.4C137.1,17,118.6,15,100,15.3c-18.6-0.2-37.1,1.8-55.2,6c-6.6,1.6-13,4-19,7.4
		C16.9,34.1,15,40.4,15,44.6v110.9c0,0,0,0,0,0.1c0,0,0,0.1,0,0.1c0.1,4.4,2,10.5,10.8,15.8c5.9,3.4,12.3,5.9,19,7.4
		c18.1,4.2,36.6,6.2,55.2,5.9c18.6,0.2,37.1-1.7,55.2-5.9c6.6-1.6,13-4,19-7.4c8.9-5.4,10.8-11.6,10.8-15.9c0,0,0,0,0,0c0,0,0,0,0,0
		V44.6C185,40.2,183.1,34,174.2,28.6z M31.6,38c5-2.8,10.4-4.8,16-6.1c17.2-3.9,34.8-5.8,52.5-5.6c17.7-0.3,35.3,1.6,52.5,5.5
		c5.6,1.3,11,3.3,16,6.1c3.5,2.1,5.5,4.4,5.5,6.5s-1.8,4.3-5.5,6.5c-5,2.8-10.4,4.8-16,6.1c-17.2,3.9-34.8,5.8-52.5,5.6
		c-17.6,0.3-35.2-1.6-52.4-5.5c-5.6-1.3-11-3.3-16-6.1c-3.5-2.1-5.5-4.4-5.5-6.5S28.1,40.1,31.6,38z M168.4,162
		c-5,2.8-10.4,4.8-16,6.1c-17.2,3.9-34.8,5.8-52.5,5.6c-17.6,0.2-35.2-1.7-52.4-5.7c-5.6-1.3-11-3.3-16-6.1
		c-3.5-2.1-5.5-4.5-5.5-6.5v-18.2c5.9,3.3,12.2,5.8,18.8,7.3c4.1,1.1,8.7,2,13.6,2.8h0.9l-0.1,0.1c3.1,0.2,5.7-2,6-5.1
		c0.2-3.1-2-5.7-5.1-6c-4.5-0.8-8.9-1.6-12.6-2.6c-5.6-1.3-11-3.3-16-6.1c-3.5-2.1-5.5-4.5-5.5-6.5V97.6c5.9,3.3,12.2,5.8,18.8,7.3
		c4.1,1.1,8.7,2,13.6,2.8h0.9l-0.1,0.1c3.1,0.2,5.7-2,6-5.1c0.2-3.1-2-5.7-5.1-6c-4.5-0.8-8.9-1.6-12.6-2.6c-5.6-1.3-11-3.3-16-6.1
		c-3.5-2.1-5.5-4.5-5.5-6.5v-21c5.9,3.3,12.2,5.7,18.7,7.2c18.1,4.2,36.6,6.2,55.2,5.9c18.6,0.3,37.1-1.7,55.2-5.8
		c6.5-1.5,12.8-4,18.7-7.2v20.8c0,2-1.8,4.3-5.5,6.5c-5,2.8-10.4,4.8-16,6.1c-3.9,1-8.2,1.9-12.7,2.6c-3.1,0.2-5.3,2.9-5.1,6
		c0.2,3.1,2.9,5.3,6,5.1l0.9-0.1c4.9-0.8,9.5-1.7,13.7-2.8c6.5-1.5,12.8-4,18.7-7.2v23.6c0,2-1.8,4.3-5.5,6.5
		c-5,2.8-10.4,4.8-16,6.1c-3.8,1-8.1,1.9-12.7,2.6c-3.1,0.2-5.3,2.9-5.1,6c0.2,3.1,2.9,5.3,6,5.1l0.9-0.1c4.9-0.8,9.5-1.7,13.7-2.8
		c6.5-1.5,12.8-4,18.7-7.2v18.3c0,0,0,0.1,0,0.1C173.9,157.5,172.1,159.8,168.4,162z"/>
	<path d="M123.5,121.5c3.1,0,5.5-2.5,5.5-5.5c0-3.1-2.5-5.5-5.5-5.5H114l12.2-12.8c2.1-2.2,2-5.7-0.2-7.9s-5.7-2-7.9,0.2L100,109.1
		L81.9,90c-2.1-2.2-5.6-2.3-7.9-0.2c-2.2,2.1-2.3,5.6-0.2,7.9L86,110.4h-9.4c-3.1,0-5.5,2.5-5.5,5.5c0,3.1,2.5,5.5,5.5,5.5h17.9v7.5
		H76.5c-3.1,0-5.5,2.5-5.5,5.5s2.5,5.5,5.5,5.5h17.9v18.1c0,3.1,2.5,5.5,5.5,5.5c3.1,0,5.5-2.5,5.5-5.5v-18.1h18
		c3.1,0,5.5-2.5,5.5-5.5s-2.5-5.5-5.5-5.5h-18v-7.5H123.5z"/>
</g>
</svg>
