<?xml version="1.0" encoding="utf-8"?>
<!-- Generator: Adobe Illustrator 21.0.0, SVG Export Plug-In . SVG Version: 6.00 Build 0)  -->
<svg version="1.1" id="图层_1" xmlns="http://www.w3.org/2000/svg" xmlns:xlink="http://www.w3.org/1999/xlink" x="0px" y="0px"
	 viewBox="0 0 200 200" style="enable-background:new 0 0 200 200;" xml:space="preserve">
<title>ZC</title>
<g>
	<path d="M99.8,105c0-2.9-2.3-5.2-5.2-5.2c-16.5,0.2-33-1.5-49.1-5.2c-5.2-1.2-10.3-3.1-15-5.7c-3.3-2-5.1-4.2-5.1-6.1V63
		c5.5,3.1,11.4,5.4,17.5,6.8c17,3.9,34.3,5.8,51.7,5.5c17.4,0.2,34.8-1.7,51.8-5.6c6.1-1.4,12-3.7,17.5-6.8v30.8
		c0,2.9,2.3,5.2,5.2,5.2s5.2-2.3,5.2-5.2V48.2c0,0,0-0.1,0-0.1c0-0.1,0-0.1,0-0.2c0-4-1.8-9.9-10.1-14.9c-5.6-3.1-11.5-5.5-17.8-6.9
		c-17-3.9-34.3-5.8-51.7-5.5c-17.4-0.2-34.8,1.7-51.8,5.7c-6.2,1.5-12.2,3.8-17.8,6.9C16.7,38.2,14.9,44,14.9,48c0,0,0,0.1,0,0.1
		c0,0,0,0,0,0.1v103.9c0,4,1.8,9.8,10.1,14.9c5.6,3.2,11.6,5.5,17.8,6.9c17,3.9,34.3,5.8,51.7,5.5c2.9,0,5.2-2.3,5.2-5.2
		s-2.3-5.2-5.2-5.2c-16.5,0.2-33-1.5-49.1-5.2c-5.2-1.2-10.3-3.1-15-5.7c-3.3-2-5.1-4.2-5.1-6.1v-17.2c5.5,3.1,11.4,5.4,17.5,6.8
		c17,3.9,34.3,5.8,51.7,5.6c2.9,0,5.2-2.3,5.2-5.2s-2.3-5.2-5.2-5.2c-16.5,0.2-33-1.5-49.1-5.2c-5.2-1.2-10.3-3.1-15-5.7
		c-3.3-2-5.1-4.2-5.1-6.1V97.8c5.5,3.1,11.4,5.4,17.5,6.8c17,3.9,34.3,5.8,51.7,5.5v0.1C97.5,110.2,99.8,107.9,99.8,105z M30.4,41.9
		c4.7-2.6,9.7-4.5,15-5.7C61.5,32.5,78,30.8,94.6,31v-0.1c16.6-0.2,33.1,1.6,49.2,5.4c5.2,1.2,10.3,3.1,15,5.7
		c3.3,2,5.1,4.2,5.1,6.1c0,1.9-1.7,4.1-5.1,6.1c-4.7,2.6-9.7,4.5-15,5.7c-16.1,3.7-32.6,5.5-49.2,5.2c-16.5,0.2-33-1.5-49.1-5.2
		c-5.2-1.2-10.3-3.1-15-5.7c-3.3-2-5.1-4.2-5.1-6.1C25.3,46.1,27.2,43.9,30.4,41.9z"/>
	<path d="M180.9,146.4c-2.3-2.9-1.8-7.1,1.1-9.4c2.9-2.3,3.7-6.3,2-9.6l-4.9-9.3c-1.7-3.2-5.3-4.7-8.8-3.8c-0.7,0.2-1.5,0.3-2.3,0.2
		c-3.4,0-6.3-2.5-6.9-5.8c-0.6-3.5-3.6-6.2-7.2-6.3l-10.4-0.5c-3.6-0.2-6.8,2.2-7.8,5.7c-0.9,3.2-3.9,5.4-7.3,5.1
		c-0.8,0-1.5-0.2-2.2-0.5c-3.4-1.3-7.1,0-9.1,3l-5.7,8.8c-2,3.1-1.5,7.2,1.1,9.7c0.2,0.2,0.5,0.5,0.7,0.7c2.3,2.9,1.8,7.1-1.1,9.4
		c-2.9,2.3-3.7,6.3-2,9.6l4.9,9.3c1.7,3.2,5.3,4.8,8.8,3.8c0.1,0,0.2-0.1,0.3-0.1c3.9-0.9,7.8,1.6,8.7,5.6c0.6,3.5,3.6,6.2,7.2,6.4
		l10.4,0.5h0.3c3.5,0.1,6.6-2.3,7.5-5.7c0.9-3.2,4-5.3,7.3-5.1c0.8,0,1.5,0.2,2.2,0.5c3.4,1.3,7.1,0,9.1-3l5.7-8.8
		c2-3.1,1.5-7.2-1.1-9.7C181.4,146.9,181.1,146.7,180.9,146.4z M174.3,152.7l-4.4,6.9c-8.3-2.4-17,2.1-20,10.1l-8.2-0.4
		c-1.9-6.9-8-11.8-15.1-12.1c-1.3-0.1-2.6,0-3.8,0.3l-3.8-7.2c6.3-5.9,6.8-15.7,1-22.2l4.4-6.9c8.2,2.3,16.8-2,19.9-10l8.2,0.4
		c1.8,6.9,8,11.9,15.1,12.2c1.3,0.1,2.6,0,3.8-0.3l3.8,7.2c-3,2.8-4.8,6.7-5,10.9C170.1,145.7,171.6,149.7,174.3,152.7z"/>
	<path d="M147.1,121.4c-10.6-0.2-19.4,8.1-19.6,18.7s8.1,19.4,18.7,19.6h0.9c10.2-0.2,18.5-8.5,18.7-18.7
		C166,130.4,157.7,121.6,147.1,121.4z M147.1,150.6c-5.5,0-10-4.5-10.1-10c0-5.5,4.5-10,10-10.1h0.5c5.5,0.3,9.8,4.9,9.6,10.4
		C156.9,146.3,152.5,150.5,147.1,150.6z"/>
</g>
</svg>
