<?xml version="1.0" encoding="utf-8"?>
<!-- Generator: Adobe Illustrator 21.0.0, SVG Export Plug-In . SVG Version: 6.00 Build 0)  -->
<svg version="1.1" id="图层_1" xmlns="http://www.w3.org/2000/svg" xmlns:xlink="http://www.w3.org/1999/xlink" x="0px" y="0px"
	 viewBox="0 0 200 200" style="enable-background:new 0 0 200 200;" xml:space="preserve">
<path d="M159.5,24.6C144.6,18.2,123.4,15,100,15s-44.6,3.2-59.5,9.6C23.5,32,15,40.5,15,50.1v98.8c0,9.6,8.5,19.1,25.5,25.5
	C55.4,181.8,76.6,185,100,185s44.6-3.2,59.5-9.6c15.9-6.4,25.5-15.9,25.5-25.5V50.1C185,40.5,176.5,32,159.5,24.6L159.5,24.6z
	 M149.9,68.1c-13.8,5.3-32.9,7.4-49.9,7.4c-18.1,0-36.1-2.1-49.9-7.4c-15.9-4.3-23.4-10.6-23.4-18.1c0-6.4,8.5-12.8,23.4-18.1
	c13.8-4.2,31.9-6.4,49.9-6.4c17,0,36.1,3.2,49.9,7.4c14.9,5.3,23.4,11.7,23.4,18.1S165.9,63.9,149.9,68.1L149.9,68.1z M151,98.9
	c-13.8,4.3-32.9,7.4-51,7.4s-36.1-3.2-51-7.4c-14.9-5.3-23.4-11.7-23.4-18.1V69.2c10.6,4.3,18.1,9.6,29.8,11.7
	c13.8,3.2,28.7,5.3,44.6,5.3s30.8-2.1,44.6-5.3c11.7-2.1,19.1-7.4,29.8-11.7v12.8C174.4,87.3,165.9,93.6,151,98.9L151,98.9z
	 M151,132.9c-13.8,4.3-32.9,7.4-51,7.4s-36.1-3.2-51-7.4s-23.4-10.6-23.4-18.1V98.9c10.6,5.3,18.1,9.6,29.8,12.8
	c13.8,3.2,28.7,5.3,44.6,5.3s30.8-2.1,44.6-5.3c11.7-3.2,19.1-7.4,29.8-12.8v15.9C174.4,122.3,165.9,128.7,151,132.9L151,132.9z
	 M100,174.4c-18.1,0-36.1-3.2-51-7.4s-23.4-10.6-23.4-17V134c10.6,5.3,18.1,9.6,29.8,12.8c12.8,3.2,28.7,5.3,43.6,5.3
	c15.9,0,30.8-2.1,44.6-5.3c12.7-3.2,20.2-7.4,30.8-12.8v15.9c0,6.4-8.5,12.8-23.4,18.1C137.2,172.3,117,174.4,100,174.4L100,174.4z"
	/>
</svg>
