<?xml version="1.0" encoding="utf-8"?>
<!-- Generator: Adobe Illustrator 21.0.0, SVG Export Plug-In . SVG Version: 6.00 Build 0)  -->
<svg version="1.1" id="图层_1" xmlns="http://www.w3.org/2000/svg" xmlns:xlink="http://www.w3.org/1999/xlink" x="0px" y="0px"
	 viewBox="0 0 200 200" style="enable-background:new 0 0 200 200;" xml:space="preserve">
<title>su-icon-department (1)</title>
<desc>Created with Sketch.</desc>
<path id="形状" d="M121.7,15c2.2,0,3.9,2,3.9,4.5v31.3c0,2.5-1.8,4.5-3.9,4.5l-15.8,0v26.8h53.4c7.6,0,13.8,7,13.8,15.7v47h7.9
	c2.2,0,4,2,4,4.5v31.3c0,2.5-1.8,4.5-4,4.5h-27.7c-2.2,0-3.9-2-4-4.5v-31.3c0-2.5,1.8-4.5,4-4.5h7.9l0-47c0-1.2-0.9-2.2-2-2.2h-53.4
	v47.9c0,0.4,0,0.8-0.1,1.3h8c2.2,0,4,2,4,4.5v31.3c0,1.2-0.4,2.3-1.2,3.2c-0.7,0.8-1.7,1.3-2.8,1.3H86.1c-1,0-2-0.4-2.8-1.3
	s-1.2-2-1.2-3.2v-31.3c0-2.5,1.8-4.5,4-4.5l8,0c-0.1-0.4-0.1-0.8-0.1-1.3l0-47.9H40.7c-1.1,0-2,1-2,2.2v47h7.9c2.2,0,4,2,4,4.5v31.3
	c0,1.2-0.4,2.3-1.2,3.2c-0.7,0.8-1.7,1.3-2.8,1.3H18.9c-2.2,0-3.9-2-4-4.5v-31.3c0-2.5,1.8-4.5,4-4.5h7.9v-47
	C26.9,89,33.1,82,40.7,82.1l53.4,0V55.2H78.2c-2.2,0-3.9-2-3.9-4.5V19.5c0-2.5,1.8-4.5,3.9-4.5H121.7L121.7,15z M173.1,158.1h-11.9
	v13.4h11.9V158.1z M105.9,158.1H94v13.4h11.9V158.1z M38.7,158.1H26.8v13.4h11.9V158.1z M113.8,28.4H86.1v13.4h27.7V28.4L113.8,28.4
	z"/>
</svg>
