<?xml version="1.0" encoding="utf-8"?>
<!-- Generator: Adobe Illustrator 21.0.0, SVG Export Plug-In . SVG Version: 6.00 Build 0)  -->
<svg version="1.1" id="图层_1" xmlns="http://www.w3.org/2000/svg" xmlns:xlink="http://www.w3.org/1999/xlink" x="0px" y="0px"
	 viewBox="0 0 200 200" style="enable-background:new 0 0 200 200;" xml:space="preserve">
<path d="M164.5,84l-0.1,0.2c-6,12.7-21.5,37.7-21.5,37.7l-0.1-0.2l-4.5,7.9h21.9l-41.8,55.5l9.5-37.8h-17.2l6-25
	c-4.8,1.2-10.6,2.8-17.3,4.9c0,0-9.2,5.4-26.4-10.3c0,0-11.6-10.2-4.9-12.8c2.9-1.1,13.9-2.5,22.6-3.6c11.8-1.6,19-2.4,19-2.4
	s-36.2,0.5-44.8-0.8C56.3,96,45.4,81.7,43.1,69.1c0,0-3.6-6.9,7.7-3.6c11.3,3.3,58.1,12.8,58.1,12.8S48,59.5,44,54.9
	C39.9,50.4,32,30.1,33.1,17.6c0,0,0.4-3.1,3.6-2.3c0,0,45,20.6,75.8,31.8c30.8,11.3,57.5,17,54.1,31.6C166.3,80,165.6,81.8,164.5,84
	L164.5,84z"/>
</svg>
