<?xml version="1.0" encoding="utf-8"?>
<!-- Generator: Adobe Illustrator 21.0.0, SVG Export Plug-In . SVG Version: 6.00 Build 0)  -->
<svg version="1.1" id="图层_1" xmlns="http://www.w3.org/2000/svg" xmlns:xlink="http://www.w3.org/1999/xlink" x="0px" y="0px"
	 viewBox="0 0 200 200" style="enable-background:new 0 0 200 200;" xml:space="preserve">
<path d="M98.4,15C52.9,15.9,15.9,52.9,15,98.4c-0.9,48.2,38.4,87.5,86.6,86.6c45.5-0.9,82.5-37.9,83.4-83.4
	C185.9,53.4,146.6,14.1,98.4,15z M100,50.5c5.8,0,10.6,4.8,10.6,10.6s-4.7,10.6-10.6,10.6s-10.6-4.8-10.6-10.6S94.2,50.5,100,50.5z
	 M100,149.6c-5.9,0-10.6-4.8-10.6-10.6c0-5.9,4.8-10.6,10.6-10.6s10.6,4.8,10.6,10.6S105.9,149.6,100,149.6z M134,108.5H66
	c-4.7,0-8.5-3.8-8.5-8.5s3.8-8.5,8.5-8.5h68c4.7,0,8.5,3.8,8.5,8.5S138.7,108.5,134,108.5z"/>
</svg>
