<?xml version="1.0" encoding="utf-8"?>
<!-- Generator: Adobe Illustrator 21.0.0, SVG Export Plug-In . SVG Version: 6.00 Build 0)  -->
<svg version="1.1" id="图层_1" xmlns="http://www.w3.org/2000/svg" xmlns:xlink="http://www.w3.org/1999/xlink" x="0px" y="0px"
	 viewBox="0 0 200 200" style="enable-background:new 0 0 200 200;" xml:space="preserve">
<path d="M140.7,167.4h38.4c3.2,0,5.9,2.6,5.9,5.8c0,0,0,0,0,0v5.9c0,3.2-2.6,5.9-5.8,5.9c0,0,0,0,0,0H20.9c-3.2,0-5.9-2.6-5.9-5.9
	l0,0v-5.9c0-3.2,2.6-5.9,5.8-5.9c0,0,0,0,0,0h35.5l-9.1-29.3h20.7c2.5,0,4.8,1.6,5.6,4l8.4,25.3h33.2l11.6-38.1H35.5
	c-3.2,0-5.9-2.6-5.9-5.9V56c0-3.2,2.6-5.9,5.9-5.9h129c3.2,0,5.9,2.6,5.9,5.9v0v67.4c0,3.2-2.6,5.9-5.9,5.9l0,0h-12.2L140.7,167.4z
	 M23.8,15h152.4c3.2,0,5.9,2.6,5.9,5.9c0,0,0,0,0,0v5.9c0,3.2-2.6,5.9-5.8,5.9c0,0,0,0,0,0H23.8c-3.2,0-5.9-2.6-5.9-5.9v-5.9
	C17.9,17.6,20.6,15,23.8,15L23.8,15z M54.6,67.8c-0.8,0-1.5,0.6-1.5,1.5c0,0,0,0,0,0v38.1c0,0.8,0.7,1.5,1.5,1.5h90.9
	c0.8,0,1.5-0.7,1.5-1.5V69.2c0-0.8-0.7-1.5-1.5-1.5c0,0,0,0,0,0L54.6,67.8L54.6,67.8z"/>
</svg>
