<?xml version="1.0" encoding="utf-8"?>
<!-- Generator: Adobe Illustrator 21.0.0, SVG Export Plug-In . SVG Version: 6.00 Build 0)  -->
<svg version="1.1" id="图层_1" xmlns="http://www.w3.org/2000/svg" xmlns:xlink="http://www.w3.org/1999/xlink" x="0px" y="0px"
	 viewBox="0 0 200 200" style="enable-background:new 0 0 200 200;" xml:space="preserve">
<title>su-icon-Import</title>
<desc>Created with Sketch.</desc>
<path id="Shape" d="M104.5,183.1c-1.3,1.3-3,1.9-4.6,1.9c-1.7,0-3.4-0.6-4.6-1.9l-29.6-29.6c-2.6-2.6-2.6-6.7,0-9.3
	c1.2-1.2,2.9-1.9,4.6-1.9c1.7,0,3.4,0.7,4.6,1.9l18.4,18.4V53c0-3.6,2.9-6.6,6.6-6.6c3.6,0,6.6,2.9,6.6,6.6v109.6l18.3-18.4
	c2.6-2.6,6.7-2.6,9.3,0c2.6,2.6,2.6,6.7,0,9.3L104.5,183.1z M21.6,75.6c3.6,0,6.6-2.9,6.6-6.6V32c0-2.1,1.7-3.9,3.9-3.9H168
	c2.1,0,3.9,1.7,3.9,3.9v37.1c0,3.6,2.9,6.6,6.6,6.6s6.5-3,6.5-6.6V26.8c0-6.5-5.3-11.8-11.8-11.8H26.8C20.3,15,15,20.3,15,26.8v42.3
	C15,72.7,17.9,75.6,21.6,75.6z"/>
</svg>
