<?xml version="1.0" encoding="utf-8"?>
<!-- Generator: Adobe Illustrator 21.0.0, SVG Export Plug-In . SVG Version: 6.00 Build 0)  -->
<svg version="1.1" id="图层_1" xmlns="http://www.w3.org/2000/svg" xmlns:xlink="http://www.w3.org/1999/xlink" x="0px" y="0px"
	 viewBox="0 0 200 200" style="enable-background:new 0 0 200 200;" xml:space="preserve">
<path d="M107.1,129.6l33-33c2.8-2.8,7.2-2.8,10,0v0c2.8,2.8,2.8,7.2,0,10L105,151.7c-2.8,2.8-7.2,2.8-10,0l-45.1-45.1
	c-2.8-2.8-2.8-7.2,0-10l0,0c2.8-2.8,7.2-2.8,10,0l33,33V50.4c0-3.9,3.2-7.1,7.1-7.1h0.1c3.9,0,7.1,3.2,7.1,7.1V129.6z"/>
</svg>
