<?xml version="1.0" encoding="utf-8"?>
<!-- Generator: Adobe Illustrator 21.0.0, SVG Export Plug-In . SVG Version: 6.00 Build 0)  -->
<svg version="1.1" id="图层_1" xmlns="http://www.w3.org/2000/svg" xmlns:xlink="http://www.w3.org/1999/xlink" x="0px" y="0px"
	 viewBox="0 0 200 200" style="enable-background:new 0 0 200 200;" xml:space="preserve">
<path d="M162.5,66.6L100,127.5L37.5,66.6c-1.2-1.2-2.5-1.8-4.1-1.8c-1.6,0-2.9,0.6-4.1,1.8c-1.2,1.2-1.8,2.5-1.8,4.1
	s0.5,2.9,1.6,3.9l66.6,64.8c1.2,1.2,2.6,1.8,4.3,1.8s3.1-0.6,4.3-1.8l66.6-64.6c1-1.2,1.6-2.6,1.6-4.2s-0.6-3-1.8-4.1
	c-1.2-1.1-2.5-1.7-4.1-1.7S163.7,65.4,162.5,66.6L162.5,66.6z"/>
</svg>
