<?xml version="1.0" encoding="utf-8"?>
<!-- Generator: Adobe Illustrator 21.0.0, SVG Export Plug-In . SVG Version: 6.00 Build 0)  -->
<svg version="1.1" id="图层_1" xmlns="http://www.w3.org/2000/svg" xmlns:xlink="http://www.w3.org/1999/xlink" x="0px" y="0px"
	 viewBox="0 0 200 200" style="enable-background:new 0 0 200 200;" xml:space="preserve">
<title>su-icon-edit</title>
<desc>Created with Sketch.</desc>
<g>
	<path d="M21.4,183.2h157.4c3.5,0,6.3-2.8,6.3-6.3s-2.8-6.3-6.3-6.3H21.3c-3.5,0-6.3,2.8-6.3,6.3S17.9,183.2,21.4,183.2z"/>
	<path d="M88.5,99.7H72.7c-1.6,0-2.5,1.9-1.5,3.2l27.4,34.6c0.8,1,2.3,1,3.1,0l10.8-13.8l33.6,33.6c2.4,2.4,6.4,2.7,8.9,0.3
		c2.6-2.4,2.6-6.5,0.1-9l-34.8-34.8l8.7-11c1-1.3,0.1-3.2-1.5-3.2h-21.3l-0.6-0.6V23.1c0-3.4-2.8-6.2-6.2-6.2l0,0
		c-3.4,0-6.2,2.8-6.2,6.2v63.5L40.3,33.7c-2.4-2.4-6.4-2.7-8.9-0.3c-2.6,2.4-2.6,6.5-0.1,9L88.5,99.7z"/>
</g>
</svg>
