<?xml version="1.0" encoding="utf-8"?>
<!-- Generator: Adobe Illustrator 21.0.0, SVG Export Plug-In . SVG Version: 6.00 Build 0)  -->
<svg version="1.1" id="图层_1" xmlns="http://www.w3.org/2000/svg" xmlns:xlink="http://www.w3.org/1999/xlink" x="0px" y="0px"
	 viewBox="0 0 200 200" style="enable-background:new 0 0 200 200;" xml:space="preserve">
<path d="M171.6,123.8L171.6,123.8c-5,0-9,4-9,8.9v34.4H37.4v-34.4c0-4.9-4-8.9-8.9-8.9h-0.1c-4.9,0-8.9,4-8.9,8.9V176v0.1
	c0,4.9,4,8.9,8.9,8.9h0.1h143h0.1c4.9,0,8.9-4,8.9-8.9V176v-43.3C180.5,127.7,176.5,123.8,171.6,123.8z"/>
<path d="M109,114.9l48-48c3.5-3.5,9.1-3.5,12.6,0l0,0c3.5,3.5,3.5,9.1,0,12.6l-63.3,63.3c-3.5,3.5-9.1,3.5-12.6,0L30.4,79.5
	c-3.5-3.5-3.5-9.1,0-12.6l0,0c3.5-3.5,9.1-3.5,12.6,0l48,48v-91c0-4.9,4-8.9,8.9-8.9h0.2c4.9,0,8.9,4,8.9,8.9V114.9z"/>
</svg>
