<?xml version="1.0" encoding="utf-8"?>
<!-- Generator: Adobe Illustrator 21.0.0, SVG Export Plug-In . SVG Version: 6.00 Build 0)  -->
<svg version="1.1" id="图层_1" xmlns="http://www.w3.org/2000/svg" xmlns:xlink="http://www.w3.org/1999/xlink" x="0px" y="0px"
	 viewBox="0 0 200 200" style="enable-background:new 0 0 200 200;" xml:space="preserve">
<path d="M29.2,96.8c-1-1.2-1.6-2.5-1.6-4.1s0.6-2.9,1.8-4.1c1.2-1.2,2.5-1.8,4.1-1.8c1.6,0,2.9,0.6,4.1,1.8l62.5,60.9l62.5-60.9
	c1.2-1.2,2.6-1.8,4.2-1.8c1.6,0,3,0.6,4.1,1.8c1.1,1.2,1.7,2.5,1.7,4.1s-0.5,2.9-1.6,4.1l-66.6,64.7c-1.3,1.2-2.8,1.8-4.4,1.8
	s-3-0.6-4.2-1.8L29.2,96.8z M29.2,46.8c-1-1.2-1.6-2.5-1.6-4.1s0.6-2.9,1.8-4.1c1.2-1.2,2.5-1.8,4.1-1.8c1.6,0,2.9,0.6,4.1,1.8
	l62.5,60.9l62.5-60.9c1.2-1.2,2.6-1.8,4.2-1.8c1.6,0,3,0.6,4.1,1.8s1.7,2.5,1.7,4.1s-0.5,2.9-1.6,4.1l-66.6,64.7
	c-1.3,1.2-2.8,1.8-4.4,1.8s-3-0.6-4.2-1.8L29.2,46.8z"/>
</svg>
