<?xml version="1.0" encoding="utf-8"?>
<!-- Generator: Adobe Illustrator 21.0.0, SVG Export Plug-In . SVG Version: 6.00 Build 0)  -->
<svg version="1.1" id="图层_1" xmlns="http://www.w3.org/2000/svg" xmlns:xlink="http://www.w3.org/1999/xlink" x="0px" y="0px"
	 viewBox="0 0 200 200" style="enable-background:new 0 0 200 200;" xml:space="preserve">
<path d="M28.4,163.6h143.2c4.9,0,8.9,4,8.9,8.9v0.1c0,4.9-4,8.9-8.9,8.9H28.4c-4.9,0-8.9-4-8.9-8.9v-0.1
	C19.5,167.6,23.5,163.6,28.4,163.6z M109,111.4l48-48c3.5-3.5,9.1-3.5,12.6,0l0,0c3.5,3.5,3.5,9.1,0,12.6l-63.3,63.3
	c-3.5,3.5-9.1,3.5-12.6,0L30.4,76c-3.5-3.5-3.5-9.1,0-12.6l0,0c3.5-3.5,9.1-3.5,12.6,0l48,48v-91c0-4.9,4-8.9,8.9-8.9h0.2
	c4.9,0,8.9,4,8.9,8.9V111.4z"/>
</svg>
