<?xml version="1.0" standalone="no"?><!DOCTYPE svg PUBLIC "-//W3C//DTD SVG 1.1//EN" "http://www.w3.org/Graphics/SVG/1.1/DTD/svg11.dtd"><svg class="icon" width="200px" height="200.00px" viewBox="0 0 1024 1024" version="1.1" xmlns="http://www.w3.org/2000/svg"><path d="M545.664 489.408c24.192 0 43.84 20.224 43.84 45.184l-0.064 180.672h21.568c12.288 0 22.272 9.984 22.272 22.272v0.64a22.272 22.272 0 0 1-22.272 22.272H589.44v90.368c0 24.96-19.584 45.184-43.776 45.184H107.776A44.48 44.48 0 0 1 64 850.816V534.592c0-24.96 19.584-45.184 43.776-45.184h437.888z m-21.888 67.776H129.664v271.04h394.112V557.184z m350.336 112.96c12.096 0 21.888 9.792 21.888 21.888v46.528a21.888 21.888 0 0 1-21.888 21.888H828.288a22.272 22.272 0 0 1-22.208-22.208v-0.64c0-12.352 9.92-22.336 22.208-22.336h23.872v-23.232c0-12.16 9.856-21.888 21.952-21.888z m-137.6 45.12c12.224 0 22.208 9.984 22.208 22.272v0.64a22.272 22.272 0 0 1-22.272 22.272h-43.072a22.272 22.272 0 0 1-22.272-22.208v-0.64c0-12.352 9.984-22.336 22.272-22.336h43.072z m137.6-180.672c12.096 0 21.888 9.792 21.888 21.888v46.592a21.888 21.888 0 1 1-43.776 0v-46.592c0-12.096 9.792-21.888 21.888-21.888zM173.44 399.04c12.032 0 21.888 9.792 21.888 21.888v46.592a21.888 21.888 0 1 1-43.84 0v-46.592c0-12.096 9.856-21.888 21.952-21.888z m700.608 0c12.096 0 21.888 9.792 21.888 21.888v46.592a21.888 21.888 0 1 1-43.776 0v-46.592c0-12.096 9.792-21.888 21.888-21.888z m-92.16-154.816a11.968 11.968 0 0 1 3.456 6.528l0.128 3.776-16.32 136.512a12.16 12.16 0 0 1-7.68 9.92c-0.832 0.32-1.728 0.448-2.56 0.64a11.072 11.072 0 0 1-6.592-1.152l-2.816-2.048-40.192-38.72L619.52 459.136a23.04 23.04 0 0 1-33.216 1.152 24.832 24.832 0 0 1-4.352-29.696l3.2-4.48 89.984-99.328-40.192-38.656a12.48 12.48 0 0 1-3.2-12.224 12.032 12.032 0 0 1 5.952-7.488l3.072-1.088 130.944-26.176a11.328 11.328 0 0 1 10.24 3.072z m-608.448 19.328c12.032 0 21.888 9.792 21.888 21.888v46.528a21.888 21.888 0 1 1-43.84 0V285.44c0-12.16 9.856-21.888 21.952-21.888z m700.608 0c12.096 0 21.888 9.792 21.888 21.888v46.528a21.888 21.888 0 1 1-43.776 0V285.44c0-12.16 9.792-21.888 21.888-21.888zM219.264 128c12.288 0 22.272 9.984 22.272 22.272v0.64a22.272 22.272 0 0 1-22.272 22.272l-23.936-0.064v23.36a21.888 21.888 0 1 1-43.776 0v-46.592c0-12.096 9.856-21.888 21.952-21.888h45.76z m652.16 0c12.224 0 22.208 9.984 22.208 22.272v0.64a22.272 22.272 0 0 1-1.088 6.848l-0.064 38.72a21.888 21.888 0 0 1-43.84 0v-23.36h-20.352a22.272 22.272 0 0 1-22.208-22.208v-0.64c0-12.288 9.92-22.272 22.208-22.272h43.072zM354.112 128c12.288 0 22.272 9.984 22.272 22.272v0.64a22.272 22.272 0 0 1-22.272 22.272h-43.072a22.272 22.272 0 0 1-22.208-22.272v-0.64c0-12.288 9.92-22.272 22.208-22.272h43.072z m134.912 0c12.288 0 22.272 9.984 22.272 22.272v0.64a22.272 22.272 0 0 1-22.272 22.272H446.08a22.272 22.272 0 0 1-22.208-22.272v-0.64c0-12.288 9.92-22.272 22.208-22.272h43.072zM601.6 128c12.288 0 22.272 9.984 22.272 22.272v0.64a22.272 22.272 0 0 1-22.272 22.272h-43.072a22.272 22.272 0 0 1-22.272-22.272v-0.64c0-12.288 9.984-22.272 22.272-22.272H601.6z m134.912 0c12.288 0 22.272 9.984 22.272 22.272v0.64a22.272 22.272 0 0 1-22.272 22.272h-43.072a22.272 22.272 0 0 1-22.272-22.272v-0.64c0-12.288 9.984-22.272 22.272-22.272h43.072z" /></svg>