<?xml version="1.0" encoding="utf-8"?>
<!-- Generator: Adobe Illustrator 21.0.0, SVG Export Plug-In . SVG Version: 6.00 Build 0)  -->
<svg version="1.1" id="图层_1" xmlns="http://www.w3.org/2000/svg" xmlns:xlink="http://www.w3.org/1999/xlink" x="0px" y="0px"
	 viewBox="0 0 200 200" style="enable-background:new 0 0 200 200;" xml:space="preserve">
<path d="M167.9,96.4c-0.7-13.4-5.4-26.3-13.4-37c-2.4,2.6-5.1,5.1-7.8,7.4c-8.5,7.1-18,12.8-28.2,17.1c1.4,3,2.7,5.9,3.9,8.6v0
	c0.3,0.8,0.6,1.5,0.9,2.3c12.9-1.4,26.4-0.9,39.6,0.9C164.7,95.9,166.3,96.1,167.9,96.4z M88.1,33c8.3,11.7,15.9,23.8,22.9,36.3
	c10.4-4.1,19-9.3,25.9-15c2.4-2,4.7-4.1,6.8-6.4C131.5,37.6,116,32,100,32C96,32,92.1,32.3,88.1,33L88.1,33z M34.2,83
	c5.8-0.1,11.6-0.5,17.3-1c13.9-1.2,27.8-3.6,41.3-7C85.7,62.6,78.1,50.6,69.9,39C52.1,47.8,39.1,63.8,34.2,83z M47.2,142.8
	c3.3-4.8,7.6-10.2,13.4-16.1c12.4-12.7,26.9-22.5,43.8-28l0.5-0.2c-1.4-3.1-2.7-5.9-4-8.5c-15.6,4.5-32,7.4-48.4,8.9
	c-8,0.7-15.2,1-20.4,1.1C32,115.6,37.3,130.7,47.2,142.8L47.2,142.8z M125.5,163c-3.3-16.5-7.9-32.8-13.9-48.5
	c-17,6.2-30.6,15.2-41.1,26c-4.2,4.3-8,9-11.2,14.1c11.7,8.7,26,13.5,40.6,13.4C108.8,168,117.4,166.3,125.5,163L125.5,163z
	 M141.5,153.9c13.3-10.2,22.3-24.9,25.4-41.4c-2.9-0.7-6.6-1.4-10.6-2c-9-1.3-18-1.4-27-0.3C134.3,124.5,138.4,139.1,141.5,153.9
	L141.5,153.9z M100,185c-46.9,0-85-38.1-85-85s38.1-85,85-85s85,38.1,85,85S146.9,185,100,185z"/>
</svg>
