<?xml version="1.0" encoding="utf-8"?>
<!-- Generator: Adobe Illustrator 21.0.0, SVG Export Plug-In . SVG Version: 6.00 Build 0)  -->
<svg version="1.1" id="图层_1" xmlns="http://www.w3.org/2000/svg" xmlns:xlink="http://www.w3.org/1999/xlink" x="0px" y="0px"
	 viewBox="0 0 200 200" style="enable-background:new 0 0 200 200;" xml:space="preserve">
<path d="M100,15c-46.9,0-85,38.1-85,85s38.1,85,85,85s85-38.1,85-85S146.9,15,100,15z M100,57.5c-5.6,0-11.1-0.5-16.3-1.5
	c5-20,12.4-30.5,16.3-30.5s11.4,10.5,16.3,30.4C111.1,57,105.6,57.5,100,57.5z M126.7,53.7c-2.6-10.6-6-19.4-10.1-26
	c12,2.8,23,8.5,32.1,16.3C142,48,134.6,51.3,126.7,53.7z M73.3,53.7c-7.9-2.3-15.3-5.6-22-9.7c9-7.9,20-13.5,32.1-16.3
	C79.3,34.1,75.9,43.1,73.3,53.7z M131.8,94.7c-0.3-10.9-1.3-21.3-2.9-30.6c10-2.8,19.2-7.1,27.5-12.5c10.1,11.8,16.6,26.7,17.8,43.1
	H131.8L131.8,94.7z M25.9,94.7c1.2-16.4,7.7-31.3,17.8-43.1C51.9,57,61.1,61.1,71.1,64c-1.7,9.4-2.7,19.7-2.9,30.6
	C68.2,94.7,25.9,94.7,25.9,94.7z M78.8,94.7c0.3-10.6,1.3-20,2.6-28.2c6,1.1,12.1,1.7,18.6,1.7c6.3,0,12.5-0.6,18.6-1.7
	c1.5,8.3,2.3,17.7,2.6,28.2C121.2,94.7,78.8,94.7,78.8,94.7z M156.3,148.4c-8.3-5.4-17.5-9.6-27.5-12.5c1.7-9.4,2.7-19.7,2.9-30.6
	h42.4C173,121.8,166.4,136.6,156.3,148.4L156.3,148.4z M81.4,133.5c-1.5-8.3-2.3-17.7-2.6-28.2h42.3c-0.3,10.6-1.2,20-2.6,28.2
	c-6-1.1-12.1-1.7-18.5-1.7S87.5,132.4,81.4,133.5L81.4,133.5z M43.7,148.4c-10.1-11.8-16.6-26.7-17.8-43.1h42.4
	c0.3,10.9,1.3,21.3,2.9,30.6C61.1,138.8,51.9,143,43.7,148.4z M100,174.4c-3.9,0-11.4-10.5-16.3-30.4c5.2-0.9,10.8-1.5,16.3-1.5
	s11.1,0.5,16.3,1.5C111.4,163.9,103.9,174.4,100,174.4z M116.6,172.5c4.1-6.6,7.5-15.5,10.1-26c7.9,2.3,15.3,5.6,22,9.7
	C139.6,163.9,128.7,169.7,116.6,172.5z M83.4,172.5c-12-2.8-23-8.5-32.1-16.3c6.7-4.2,14.1-7.4,22-9.7
	C75.9,156.9,79.3,165.9,83.4,172.5z"/>
</svg>
