<?xml version="1.0" encoding="utf-8"?>
<!-- Generator: Adobe Illustrator 21.0.0, SVG Export Plug-In . SVG Version: 6.00 Build 0)  -->
<svg version="1.1" id="图层_1" xmlns="http://www.w3.org/2000/svg" xmlns:xlink="http://www.w3.org/1999/xlink" x="0px" y="0px"
	 viewBox="0 0 200 200" style="enable-background:new 0 0 200 200;" xml:space="preserve">
<path d="M125.6,151.8c-2.1-5.1-9-13.8-20.5-26c-3.1-3.2-2.9-5.7-1.8-13.1v-0.8c0.7-5.1,2-8,19-10.7c8.7-1.4,10.9,2.1,14.1,6.9l1,1.6
	c2,3.2,5,5.6,8.5,6.9c1.5,0.7,3.4,1.5,5.9,3c6.1,3.4,6.1,7.2,6.1,15.6v1c0.5,8.3-2,16.5-6.9,23.2c-7.4,6.4-16,11.4-25.3,14.6
	c4.6-8.7,1.1-19,0-22L125.6,151.8L125.6,151.8z M100,21.8c11.7,0,23.3,2.6,33.8,7.7c-6.4,3.7-12.1,8.3-17.1,13.7
	c-1.2,1.7-2.3,3.3-3.3,4.8c-3.2,4.9-4.8,7.1-7.7,7.5c-1.9,0.2-3.7,0.2-5.6,0c-5.7-0.4-13.4-0.8-15.9,5.9c-1.6,4.3-1.9,15.9,3.2,21.9
	c0.9,1.4,1,3.2,0.4,4.8c-0.5,1.7-1.4,3.1-2.7,4.3c-1.4-1.1-2.7-2.4-3.9-3.9c-2.8-3.9-6.6-7-11.1-8.8c-1.7-0.5-3.5-0.8-5.3-1.2
	c-5-1-10.7-2.2-12-5.1c-0.8-2.5-1.2-5.1-1-7.7c0.3-4.2-0.4-8.4-1.9-12.3c-1.4-3.2-4.1-5.6-7.4-6.6C57.6,30.8,78.3,21.8,100,21.8z
	 M15,100c0,46.9,38.1,85,85,85s85-38.1,85-85s-38.1-85-85-85S15,53.1,15,100z"/>
</svg>
