<?xml version="1.0" encoding="utf-8"?>
<!-- Generator: Adobe Illustrator 21.0.0, SVG Export Plug-In . SVG Version: 6.00 Build 0)  -->
<svg version="1.1" id="图层_1" xmlns="http://www.w3.org/2000/svg" xmlns:xlink="http://www.w3.org/1999/xlink" x="0px" y="0px"
	 viewBox="0 0 200 200" style="enable-background:new 0 0 200 200;" xml:space="preserve">
<path d="M166.1,102.6c0-2,0.6-3.7,1.9-4.9c1.3-1.3,2.9-1.9,4.9-1.9s3.7,0.6,4.9,1.9c1.3,1.3,1.9,2.9,1.9,4.9v75.6
	c0,2-0.6,3.7-1.9,4.9c-1.3,1.3-2.9,1.9-4.9,1.9H21.9c-2,0-3.7-0.6-4.9-1.9c-1.3-1.3-1.9-2.9-1.9-4.9V27c0-2,0.6-3.7,1.9-4.9
	c1.3-1.3,2.9-1.9,4.9-1.9h75.6c2,0,3.7,0.6,4.9,1.9c1.3,1.3,1.9,2.9,1.9,4.9s-0.6,3.7-1.9,4.9c-1.3,1.3-2.9,1.9-4.9,1.9H28.7v137.4
	h137.4V102.6z M88.4,111.6l11.4-1.5l69.5-69.8c1.9-1.9,2.5-4,1.8-6.5c-0.6-2.5-2.3-4.1-4.8-4.8c-2.6-0.7-4.8-0.1-6.7,1.7l-69.8,69.5
	L88.4,111.6z M179,21c4,4,6,8.8,6,14.5s-2,10.6-6,14.7l-71,71c-1.1,1.1-2.5,1.9-4.1,2.1l-22.5,3.2c-2.3,0.3-4.2-0.4-5.8-2
	s-2.2-3.6-1.9-5.9l3.2-22.5c0.1-1.6,0.8-2.9,1.9-3.9L150,21c4.1-4,9-6,14.5-6C170,15,174.8,17,179,21L179,21z"/>
</svg>
