<?xml version="1.0" encoding="utf-8"?>
<!-- Generator: Adobe Illustrator 21.0.0, SVG Export Plug-In . SVG Version: 6.00 Build 0)  -->
<svg version="1.1" id="图层_1" xmlns="http://www.w3.org/2000/svg" xmlns:xlink="http://www.w3.org/1999/xlink" x="0px" y="0px"
	 viewBox="0 0 200 200" style="enable-background:new 0 0 200 200;" xml:space="preserve">
<g>
	<path d="M156,104.2c-3.5,0-6.4,2.8-6.4,6.4c0,0,0,0,0,0c0,0.2,0,0.5,0,0.7h0v60.9H27.8V50.4h66.6c3.5,0,6.4-2.9,6.4-6.4
		c0-3.5-2.9-6.4-6.4-6.4H27.8c-7,0-12.7,5.7-12.8,12.7c0,0,0,0,0,0v121.9c0,7.1,5.7,12.8,12.8,12.8h121.9c7.1,0,12.8-5.7,12.8-12.8
		v-60.9h0c0-0.2,0-0.5,0-0.7C162.4,107.1,159.5,104.2,156,104.2z"/>
	<path d="M181.3,32.7l-14-14c-5-5-13.1-4.9-18.1,0L78.8,89.1c-0.5,0.5-0.9,1.1-1.2,1.8l-17.7,41.7c-1,2.3-0.3,4.7,1.2,6.2
		c1.5,1.5,3.9,2.2,6.2,1.2l41.7-17.7c0.7-0.3,1.3-0.7,1.8-1.2l70.4-70.4C186.2,45.8,186.3,37.7,181.3,32.7z M102.8,111.2l-24.3,10.3
		l10.3-24.3l49.4-49.4l14,14L102.8,111.2z M172.2,41.8l-11,11l-14-14l11-11l0,0L172.2,41.8L172.2,41.8z"/>
</g>
</svg>
