<?xml version="1.0" encoding="utf-8"?>
<!-- Generator: Adobe Illustrator 21.0.0, SVG Export Plug-In . SVG Version: 6.00 Build 0)  -->
<svg version="1.1" id="图层_1" xmlns="http://www.w3.org/2000/svg" xmlns:xlink="http://www.w3.org/1999/xlink" x="0px" y="0px"
	 viewBox="0 0 200 200" style="enable-background:new 0 0 200 200;" xml:space="preserve">
<title>su-icon-edit</title>
<desc>Created with Sketch.</desc>
<g>
	<path id="Shape" d="M178.2,171.3H21.8c-3.8,0-6.8,3.1-6.8,6.8c0,3.8,3.1,6.8,6.8,6.8h156.3c3.8,0,6.8-3.1,6.8-6.8
		C185,174.4,181.9,171.3,178.2,171.3z M59,148.9l44.7-18.9c0.7-0.3,1.4-0.7,1.9-1.3L181,53.4c5.3-5.3,5.4-14,0-19.4l-15-15
		c-5.3-5.3-14-5.3-19.4,0L71.3,94.4c-0.6,0.6-1,1.2-1.3,1.9L51.1,141c-1.1,2.5-0.3,5,1.3,6.7S56.5,150,59,148.9z M156.3,28.7
		L156.3,28.7l15.1,15l0,0l-11.8,11.8l-15-15L156.3,28.7z M82,103l52.9-52.9l15,15L97,118l-26.1,11L82,103z"/>
</g>
</svg>
