<?xml version="1.0" encoding="utf-8"?>
<!-- Generator: Adobe Illustrator 21.0.0, SVG Export Plug-In . SVG Version: 6.00 Build 0)  -->
<svg version="1.1" id="图层_1" xmlns="http://www.w3.org/2000/svg" xmlns:xlink="http://www.w3.org/1999/xlink" x="0px" y="0px"
	 viewBox="0 0 200 200" style="enable-background:new 0 0 200 200;" xml:space="preserve">
<path d="M71.4,59.5c-1.8,1.7-4.6,1.8-6.3,1.8H47.3c-5.2,0-8.3,0-10.3,0.3c-1.1,0.1-2.5,0.7-3.2,1c-0.3,0.1-0.3,0-0.1-0.1l40.8-41.9
	c0.1-0.1,0.3-0.1,0.1,0.1c-0.5,1-0.8,2.1-1,3.2c-0.3,2.1-0.3,5.2-0.3,10.4v18.8C73.2,54.9,73.1,57.7,71.4,59.5L71.4,59.5z
	 M111.1,179.8c-4.7-3.1-7.3-7.2-8.2-9.7c-1-2.5-1.5-5.1-1.5-7.8c0-11.7,9.5-21.2,21.3-21.3c3.5,0,6.3,2.8,6.3,6.3
	c0,2.3-1.2,4.4-3.2,5.5c-0.7,0.4-1.5,0.7-2.4,0.8c-0.7,0.1-3.4,0.4-4.6,1.6c-1.5,1.2-2.5,3-2.5,4.9c0,2.1,0.8,4,2.2,5.5
	c2.5,2.5,5.9,3.9,9.5,3.9c9.5,0,17.2-7.8,17.2-17.3c0,0,0,0,0,0c0-8.6-5.7-16.2-13.3-19.6c-1.1-0.6-2.9-1-4.6-1.4
	c-1.4-0.3-2.8-0.5-4.2-0.7c-5.9-0.7-20.5-5.4-21.5-18.5c0,0-4.3,19.7-13,25.1c-0.8,0.4-1.9,0.8-3.2,1.1c-1.3,0.3-2.6,0.4-3.1,0.4
	c-14.1,0.8-29.1-3.7-39.4-14.4c0,0-7-5.8-10.6-22c-0.8-4-2.5-11-3.5-17.6c-0.4-2.4-0.6-4.2-0.7-5.9c0-6.9,4.2-11.6,9.5-12.2H66
	c4.9,0,7.7-1.3,9.5-3c2.4-2.3,2.9-5.5,2.9-9.3V24.6c0.7-5.2,5.3-9.6,12.2-9.6h3.4c1.4,0,3.1,0.1,4.6,0.3c1.1,0.1,2.1,0.4,3.8,0.8
	c8.5,2.1,10.3,10.9,10.3,10.9l24.2,4.2c7.7,1.4,26.7,2.7,30.3,22c8.5,45.9,3.4,90.5,2.9,90.5c-6,43.4-41.8,41.3-41.8,41.3
	C122.2,185.1,116.2,183.3,111.1,179.8z M133.3,92.4c-0.3,0.7-0.6,1.6-0.4,2c0.2,0.4,0.4,0.6,0.7,0.7c1.7,0.8,4.5,1.3,8.5,1.7
	c4.1,0.4,6.8,0.7,8.7,0.4c0.3,0,0.6-0.1,0.8-0.6s0.1-1.3,0.1-2c-0.4-3.8-3.9-6.6-8.5-7.2C138.7,87,134.8,88.9,133.3,92.4z"/>
</svg>
