<?xml version="1.0" encoding="utf-8"?>
<!-- Generator: Adobe Illustrator 21.0.0, SVG Export Plug-In . SVG Version: 6.00 Build 0)  -->
<svg version="1.1" id="图层_1" xmlns="http://www.w3.org/2000/svg" xmlns:xlink="http://www.w3.org/1999/xlink" x="0px" y="0px"
	 viewBox="0 0 200 200" style="enable-background:new 0 0 200 200;" xml:space="preserve">
<path d="M162.8,15.7c1.5,0,3,0.4,4.3,1c2.5,0.7,4.3,2.8,4.8,5.3c0.3,0.8,0.5,1.6,0.5,2.5v0.6V149c0,1-0.1,1.9-0.4,2.8v-0.1
	c0,2.6-1.5,5-3.8,6.1l-57.5,27.3c-3.3,1.6-7.4,0.2-8.9-3.2c-0.4-0.9-0.7-1.9-0.7-2.9v-20.7H50.7c-5,0-9.3-3.8-9.6-8.7V149v-36.8
	c0-3.3,2.7-6,6-6c3.1,0,5.7,2.4,6,5.5v0.5v34.2h48.1V39.6c0-3,2-5.6,4.9-6.5l18.8-5.4H53.1v34.2c0,3.3-2.7,6-6,6
	c-3.1,0-5.7-2.4-6-5.5v-0.5V25.1c0-5.1,4.1-9,9-9.4h0.6C50.7,15.7,162.8,15.7,162.8,15.7z M160,30.3l-46.8,13.4v126.9l46.8-22.3
	V30.3z M66.6,64.2L89,86.6c3.4,3.4,3.5,9,0.1,12.4l-22.2,22.2c-2.1,2-5.4,2-7.4,0c-2.1-2-2.1-5.4,0-7.4l15.6-15.6l-52.3,0.2
	c-3.1,0-5.6-2.4-5.6-5.5l0,0c0-3.1,2.5-5.6,5.5-5.6l0,0L74.6,87L59.2,71.6c-2.1-2-2.1-5.4,0-7.4C61.2,62.1,64.5,62.1,66.6,64.2z"/>
</svg>
