<?xml version="1.0" encoding="utf-8"?>
<!-- Generator: Adobe Illustrator 21.0.0, SVG Export Plug-In . SVG Version: 6.00 Build 0)  -->
<svg version="1.1" id="图层_1" xmlns="http://www.w3.org/2000/svg" xmlns:xlink="http://www.w3.org/1999/xlink" x="0px" y="0px"
	 viewBox="0 0 200 200" style="enable-background:new 0 0 200 200;" xml:space="preserve">
<path d="M146.2,157.3c-13.8,8.8-29.8,13.4-46.2,13.4c-42.4,0-77.6-30.5-85-70.7c3.4-18.3,12.6-35,26.2-47.7L16.7,27.8l11.1-11.1
	l155.6,155.6l-11.1,11.1L146.2,157.3L146.2,157.3z M52.4,63.5C41.7,73.2,34.2,85.9,31,100c8.7,38.1,46.6,61.9,84.7,53.2
	c6.6-1.5,13-4,19-7.3l-15.9-15.9c-16.5,10.4-38.4,5.5-48.8-11.1c-7.3-11.5-7.3-26.2,0-37.7L52.4,63.5z M107.2,118.3L81.7,92.8
	c-4,10.1,1,21.5,11.1,25.5C97.4,120.1,102.6,120.1,107.2,118.3L107.2,118.3z M169.2,136.1l-11.2-11.2c5.3-7.5,9-15.9,11-24.8
	c-8.7-38.1-46.6-61.9-84.7-53.2c-1.2,0.3-2.3,0.6-3.5,0.9L68.4,35.3c9.8-3.8,20.5-6,31.6-6c42.4,0,77.6,30.5,85,70.7
	C182.6,113.1,177.2,125.4,169.2,136.1z M97.8,64.7c19.5-1.2,36.3,13.6,37.5,33.1c0.1,1.5,0.1,2.9,0,4.4L97.8,64.7L97.8,64.7z"/>
</svg>
