<?xml version="1.0" encoding="utf-8"?>
<!-- Generator: Adobe Illustrator 21.0.0, SVG Export Plug-In . SVG Version: 6.00 Build 0)  -->
<svg version="1.1" id="图层_1" xmlns="http://www.w3.org/2000/svg" xmlns:xlink="http://www.w3.org/1999/xlink" x="0px" y="0px"
	 viewBox="0 0 200 200" style="enable-background:new 0 0 200 200;" xml:space="preserve">
<path d="M79.1,148.5L64,144.4l6.2-23.1c-9.3-3.4-17.8-8.4-25.4-14.7l-16.9,16.9l-11.1-11.1l16.9-16.9c-9.5-11.4-16-25.2-18.6-39.8
	l15.5-2.8c6,33,34.8,58,69.5,58c34.7,0,63.6-25,69.5-58l15.5,2.8c-2.7,14.7-9.1,28.4-18.6,39.8l16.9,16.9l-11.1,11.1l-16.9-16.9
	c-7.6,6.3-16.2,11.3-25.4,14.7l6.2,23.1l-15.2,4.1l-6.2-23.1c-9.7,1.7-19.7,1.7-29.4,0C85.3,125.4,79.1,148.5,79.1,148.5z"/>
</svg>
