<?xml version="1.0" encoding="utf-8"?>
<!-- Generator: Adobe Illustrator 21.0.0, SVG Export Plug-In . SVG Version: 6.00 Build 0)  -->
<svg version="1.1" id="图层_1" xmlns="http://www.w3.org/2000/svg" xmlns:xlink="http://www.w3.org/1999/xlink" x="0px" y="0px"
	 viewBox="0 0 200 200" style="enable-background:new 0 0 200 200;" xml:space="preserve">
<path d="M41.2,52.3L16.7,27.8l11.1-11.1l155.6,155.6l-11.1,11.1l-26-26c-13.8,8.8-29.8,13.4-46.2,13.4c-42.4,0-77.6-30.5-85-70.7
	C18.4,81.7,27.6,65,41.2,52.3L41.2,52.3z M121.7,132.8l-11.5-11.5c-11.7,5.6-25.8,0.7-31.4-11.1c-3.1-6.4-3.1-13.9,0-20.3L67.2,78.3
	c-12,18.1-7,42.5,11.1,54.4C91.4,141.5,108.5,141.5,121.7,132.8z M68.4,35.3c9.8-3.8,20.5-6,31.6-6c42.4,0,77.6,30.5,85,70.7
	c-2.4,13.1-7.8,25.4-15.8,36.1l-30.3-30.3c3.2-21.5-11.6-41.4-33.1-44.6c-3.8-0.6-7.7-0.6-11.5,0L68.4,35.3L68.4,35.3z"/>
</svg>
