<?xml version="1.0" encoding="utf-8"?>
<!-- Generator: Adobe Illustrator 21.0.0, SVG Export Plug-In . SVG Version: 6.00 Build 0)  -->
<svg version="1.1" id="图层_1" xmlns="http://www.w3.org/2000/svg" xmlns:xlink="http://www.w3.org/1999/xlink" x="0px" y="0px"
	 viewBox="0 0 200 200" style="enable-background:new 0 0 200 200;" xml:space="preserve">
<path d="M15,100c7.4-40.2,42.6-70.7,85-70.7s77.6,30.5,85,70.7c-7.4,40.2-42.6,70.7-85,70.7S22.4,140.2,15,100z M100,139.3
	c21.7,0,39.3-17.6,39.3-39.3S121.7,60.7,100,60.7S60.7,78.3,60.7,100S78.3,139.3,100,139.3z M100,123.6c-13,0-23.6-10.6-23.6-23.6
	S87,76.4,100,76.4S123.6,87,123.6,100S113,123.6,100,123.6z"/>
</svg>
