<?xml version="1.0" encoding="utf-8"?>
<!-- Generator: Adobe Illustrator 21.0.0, SVG Export Plug-In . SVG Version: 6.00 Build 0)  -->
<svg version="1.1" id="图层_1" xmlns="http://www.w3.org/2000/svg" xmlns:xlink="http://www.w3.org/1999/xlink" x="0px" y="0px"
	 viewBox="0 0 200 200" style="enable-background:new 0 0 200 200;" xml:space="preserve">
<path d="M100,29.3c42.4,0,77.6,30.5,85,70.7c-7.4,40.2-42.6,70.7-85,70.7S22.4,140.2,15,100C22.4,59.8,57.6,29.3,100,29.3z M100,155
	c33,0,61.6-22.8,69-55c-8.7-38.1-46.7-61.9-84.8-53.1C57.7,52.9,37.1,73.6,31,100C38.4,132.2,67,155,100,155z M100,135.4
	c-19.5,0-35.4-15.8-35.4-35.4S80.5,64.6,100,64.6s35.4,15.8,35.4,35.4S119.5,135.4,100,135.4L100,135.4z M100,119.6
	c10.8,0,19.6-8.8,19.6-19.6s-8.8-19.6-19.6-19.6S80.4,89.2,80.4,100S89.2,119.6,100,119.6z"/>
</svg>
