<?xml version="1.0" encoding="utf-8"?>
<!-- Generator: Adobe Illustrator 21.0.0, SVG Export Plug-In . SVG Version: 6.00 Build 0)  -->
<svg version="1.1" id="图层_1" xmlns="http://www.w3.org/2000/svg" xmlns:xlink="http://www.w3.org/1999/xlink" x="0px" y="0px"
	 viewBox="0 0 200 200" style="enable-background:new 0 0 200 200;" xml:space="preserve">
<path d="M100,15c-47,0-85,38-85,85s38,85,85,85s85-38,85-85S147,15,100,15z M73.3,73.3C79.2,73.3,84,78.1,84,84s-4.8,10.7-10.7,10.7
	c-5.9,0-10.7-4.8-10.7-10.7S67.4,73.3,73.3,73.3z M131,138.5H68.5c-3.2,0-5.9-2.7-5.9-5.9c0-3.2,2.7-5.9,5.9-5.9H131
	c3.2,0,5.9,2.7,5.9,5.9C136.9,135.8,134.2,138.5,131,138.5z M126.7,94.7c-5.9,0-10.7-4.8-10.7-10.7s4.8-10.7,10.7-10.7
	c5.9,0,10.7,4.8,10.7,10.7S132.6,94.7,126.7,94.7z"/>
</svg>
