<?xml version="1.0" encoding="utf-8"?>
<!-- Generator: Adobe Illustrator 21.0.0, SVG Export Plug-In . SVG Version: 6.00 Build 0)  -->
<svg version="1.1" id="图层_1" xmlns="http://www.w3.org/2000/svg" xmlns:xlink="http://www.w3.org/1999/xlink" x="0px" y="0px"
	 viewBox="0 0 200 200" style="enable-background:new 0 0 200 200;" xml:space="preserve">
<path d="M100,15c-47,0-85,38-85,85s38,85,85,85s85-38,85-85S147,15,100,15z M100,174.3c-41.2,0-74.3-33.1-74.3-74.3
	S58.8,25.7,100,25.7s74.3,33.1,74.3,74.3S141.2,174.3,100,174.3z"/>
<circle cx="73.3" cy="84" r="10.7"/>
<circle cx="126.7" cy="84" r="10.7"/>
<path d="M131,138.5H68.5c-3.2,0-5.9-2.7-5.9-5.9l0,0c0-3.2,2.7-5.9,5.9-5.9H131c3.2,0,5.9,2.7,5.9,5.9l0,0
	C136.9,135.8,134.2,138.5,131,138.5z"/>
</svg>
