<?xml version="1.0" encoding="utf-8"?>
<!-- Generator: Adobe Illustrator 21.0.0, SVG Export Plug-In . SVG Version: 6.00 Build 0)  -->
<svg version="1.1" id="图层_1" xmlns="http://www.w3.org/2000/svg" xmlns:xlink="http://www.w3.org/1999/xlink" x="0px" y="0px"
	 viewBox="0 0 200 200" style="enable-background:new 0 0 200 200;" xml:space="preserve">
<path d="M100,15c-47,0-85,38-85,85s38,85,85,85s85-38,85-85S147,15,100,15z M73.3,73.3C79.2,73.3,84,78.1,84,84s-4.8,10.7-10.7,10.7
	c-5.9,0-10.7-4.8-10.7-10.7S67.4,73.3,73.3,73.3z M135.8,139c-2.1,2.2-5.9,2.2-7.6,0.1c-6.4-7.5-16.6-12.8-27.8-12.8
	c-11.2,0-21.4,4.8-27.8,12.8c-2.6,1-5.3,0.5-6.9-1.1c-2.1-2.1-2.6-5.9-0.5-8c8.5-9.1,20.8-15,34.7-15c14.5,0,27.8,6.9,36.4,17.1
	C137.9,134.2,137.4,136.9,135.8,139z M126.7,94.7c-5.9,0-10.7-4.8-10.7-10.7s4.8-10.7,10.7-10.7c5.9,0,10.7,4.8,10.7,10.7
	S132.6,94.7,126.7,94.7z"/>
</svg>
