<?xml version="1.0" encoding="utf-8"?>
<!-- Generator: Adobe Illustrator 21.0.0, SVG Export Plug-In . SVG Version: 6.00 Build 0)  -->
<svg version="1.1" id="图层_1" xmlns="http://www.w3.org/2000/svg" xmlns:xlink="http://www.w3.org/1999/xlink" x="0px" y="0px"
	 viewBox="0 0 200 200" style="enable-background:new 0 0 200 200;" xml:space="preserve">
<path d="M100,15c-47,0-85,38-85,85s38,85,85,85s85-38,85-85S147,15,100,15z M126.7,73.3c5.9,0,10.7,4.8,10.7,10.7
	s-4.8,10.7-10.7,10.7c-5.9,0-10.7-4.8-10.7-10.7S120.8,73.3,126.7,73.3z M73.3,73.3C79.2,73.3,84,78.1,84,84s-4.8,10.7-10.7,10.7
	c-5.9,0-10.7-4.8-10.7-10.7S67.4,73.3,73.3,73.3z M147,123c-0.6,1.1-13.9,30-47.6,30.5h-0.5c-32.1,0-46-29.4-46.5-30.5
	c-1-2.6,0-5.8,2.7-6.9c2.7-1.6,5.9,0,7.5,2.1c0.5,1.1,11.2,24.6,36.9,24.6h0.5c26.8,0,38-24.1,38-24.1c1-2.7,4.2-3.8,6.9-2.7
	S148.6,120.3,147,123z"/>
</svg>
