<?xml version="1.0" encoding="utf-8"?>
<!-- Generator: Adobe Illustrator 21.0.0, SVG Export Plug-In . SVG Version: 6.00 Build 0)  -->
<svg version="1.1" id="图层_1" xmlns="http://www.w3.org/2000/svg" xmlns:xlink="http://www.w3.org/1999/xlink" x="0px" y="0px"
	 viewBox="0 0 200 200" style="enable-background:new 0 0 200 200;" xml:space="preserve">
<path d="M144.9,116c-2.7-1.1-5.9,0-6.9,2.7c0,0-11.2,24.1-38,24.1h-0.5c-25.7,0-36.4-23.5-36.9-24.6c-1.6-2.1-4.8-3.7-7.5-2.1
	c-2.7,1.1-3.7,4.3-2.7,6.9c0.5,1.1,14.4,30.5,46.5,30.5h0.5c33.7-0.5,47-29.4,47.6-30.5C148.6,120.3,147.6,117.1,144.9,116z"/>
<path d="M100,15c-47,0-85,38-85,85s38,85,85,85s85-38,85-85S147,15,100,15z M100,174.3c-41.2,0-74.3-33.1-74.3-74.3
	S58.8,25.7,100,25.7s74.3,33.1,74.3,74.3S141.2,174.3,100,174.3z"/>
<circle cx="73.3" cy="84" r="10.7"/>
<circle cx="126.7" cy="84" r="10.7"/>
</svg>
