<?xml version="1.0" encoding="utf-8"?>
<!-- Generator: Adobe Illustrator 21.0.0, SVG Export Plug-In . SVG Version: 6.00 Build 0)  -->
<svg version="1.1" id="图层_1" xmlns="http://www.w3.org/2000/svg" xmlns:xlink="http://www.w3.org/1999/xlink" x="0px" y="0px"
	 viewBox="0 0 200 200" style="enable-background:new 0 0 200 200;" xml:space="preserve">
<path d="M145.8,21.5c7.2,0,13.1,5.9,13.1,13.1v65.4h13.1c7.2,0,13.1,5.9,13.1,13.1v39.2c0,14.4-11.7,26.2-26.2,26.2l0,0H41.2
	c-14.4,0-26.2-11.7-26.2-26.2c0,0,0,0,0,0V113c0-7.2,5.9-13.1,13.1-13.1h13.1V34.5c0-7.2,5.9-13.1,13.1-13.1H145.8z M54.2,113H28.1
	v39.2c0,7.2,5.9,13.1,13.1,13.1h117.7c7.2,0,13.1-5.9,13.1-13.1V113h-26.2v6.5c0,10.8-8.8,19.6-19.6,19.6H73.8
	c-10.8,0-19.6-8.8-19.6-19.6V113z M145.8,34.5H54.2v65.4h6.5c3.6,0,6.5,2.9,6.5,6.5v13.1c0,3.6,2.9,6.5,6.5,6.5h52.3
	c3.6,0,6.5-2.9,6.5-6.5v-13.1c0-3.6,2.9-6.5,6.5-6.5h6.5C145.8,99.9,145.8,34.5,145.8,34.5z M119.6,80.3c3.6,0.1,6.5,3.1,6.3,6.7
	c-0.1,3.5-2.9,6.2-6.3,6.3H80.4c-3.6-0.1-6.5-3.1-6.3-6.7c0.1-3.5,2.9-6.2,6.3-6.3H119.6z M119.6,54.1c3.6,0,6.5,2.9,6.5,6.5
	c0,3.6-2.9,6.5-6.5,6.5H80.4c-3.6,0-6.5-2.9-6.5-6.5c0-3.6,2.9-6.5,6.5-6.5H119.6z"/>
</svg>
