<?xml version="1.0" encoding="utf-8"?>
<!-- Generator: Adobe Illustrator 21.0.0, SVG Export Plug-In . SVG Version: 6.00 Build 0)  -->
<svg version="1.1" id="图层_1" xmlns="http://www.w3.org/2000/svg" xmlns:xlink="http://www.w3.org/1999/xlink" x="0px" y="0px"
	 viewBox="0 0 200 200" style="enable-background:new 0 0 200 200;" xml:space="preserve">
<path d="M105.6,15c1.6,0,3.2,0.4,4.7,1c0.1,0.1,0.3,0.1,0.4,0.2c1.1,0.6,2.2,1.4,3.1,2.3L159,65.1c2.2,2.2,3.3,5.3,3.3,8.4V173
	c0,6.6-5.1,12-11.5,12H49.5c-6.6,0-11.9-5.4-11.9-12V27c0-6.6,5.4-12,11.9-12H105.6z M99.9,27H49.4V173h101.3V78.8h-38.8
	c-6.6-0.1-11.9-5.4-11.9-12L99.9,27L99.9,27z M84.7,101.7c1.5,1.9,1.3,4.7-0.6,6.2c0,0,0,0-0.1,0.1l-13.8,10.9l14,11.9
	c1.9,1.6,2.1,4.4,0.5,6.2c0,0,0,0-0.1,0.1c-1.6,1.9-4.5,2.1-6.4,0.4l-15.3-13.1c-3.1-2.6-3.5-7.3-0.9-10.4c0.3-0.4,0.7-0.7,1.1-1
	l15.2-12C80.3,99.4,83.2,99.7,84.7,101.7L84.7,101.7z M120.8,100.5l0.8,0.5l15.2,12.1c3.2,2.5,3.7,7.1,1.2,10.3c0,0,0,0.1-0.1,0.1
	l-0.4,0.5l-0.5,0.5l-15.3,13.1c-1.9,1.6-4.7,1.4-6.4-0.4c-1.4-1.6-1.5-4-0.2-5.6l0.6-0.7l14-11.9L116,107.9
	c-1.9-1.5-2.3-4.3-0.8-6.2c0,0,0,0,0.1-0.1C116.6,100,118.9,99.5,120.8,100.5L120.8,100.5z M100.9,100c3.1,0,5.7,2.4,5.7,5.3v28.1
	c0,2.9-2.5,5.3-5.7,5.3c-3.1,0-5.7-2.4-5.7-5.3v-28.1C95.2,102.4,97.8,100,100.9,100z M111.6,33.3v33.5h32.6L111.6,33.3L111.6,33.3z
	"/>
</svg>
