<?xml version="1.0" encoding="utf-8"?>
<!-- Generator: Adobe Illustrator 21.0.0, SVG Export Plug-In . SVG Version: 6.00 Build 0)  -->
<svg version="1.1" id="图层_1" xmlns="http://www.w3.org/2000/svg" xmlns:xlink="http://www.w3.org/1999/xlink" x="0px" y="0px"
	 viewBox="0 0 200 200" style="enable-background:new 0 0 200 200;" xml:space="preserve">
<title>su-icon-details</title>
<desc>Created with Sketch.</desc>
<path id="Shape" d="M160.4,65.1l-46.2-46.6c-0.7-0.7-1.6-1.4-2.4-1.9c-0.2-0.1-0.5-0.3-0.7-0.4c-0.1-0.1-0.3-0.1-0.5-0.2
	c-1.5-0.7-3.1-1-4.8-1H48.4c-6.6,0-12.1,5.3-12.1,12V173c0,6.6,5.5,12,12.1,12h103.6c6.6,0,11.8-5.3,11.8-12V73.5
	C163.8,70.4,162.6,67.3,160.4,65.1z M111.9,33.3l33.4,33.5h-33.4V33.3z M151.8,173H48.2V27h51.7v39.8c0,6.6,5.5,12,12.1,12h39.7V173
	z M112.1,95.4c0-3.3-2.7-6-6-6H63.5c-3.3,0-6,2.7-6,6s2.7,6,6,6h42.6C109.4,101.3,112.1,98.7,112.1,95.4z M144,121.9
	c0-3.3-2.7-6-6-6H63.5c-3.3,0-6,2.7-6,6c0,3.3,2.7,6,6,6H138C141.3,127.9,144,125.2,144,121.9z M122.7,148.5c0-3.3-2.7-6-6-6H63.5
	c-3.3,0-6,2.7-6,6c0,3.3,2.7,6,6,6h53.2C120,154.5,122.7,151.8,122.7,148.5z"/>
</svg>
