<?xml version="1.0" encoding="utf-8"?>
<!-- Generator: Adobe Illustrator 21.0.0, SVG Export Plug-In . SVG Version: 6.00 Build 0)  -->
<svg version="1.1" id="图层_1" xmlns="http://www.w3.org/2000/svg" xmlns:xlink="http://www.w3.org/1999/xlink" x="0px" y="0px"
	 viewBox="0 0 200 200" style="enable-background:new 0 0 200 200;" xml:space="preserve">
<title>传阅</title>
<desc>Created with Sketch.</desc>
<g id="办结事务" transform="translate(-1415.000000, -280.000000)">
	<g id="传阅" transform="translate(1415.000000, 280.000000)">
		<path d="M141.4,16.9c12.3,0,22.4,9.6,22.4,21.7l0,0v52.7c0,3.5-2.9,6.4-6.4,6.4s-6.4-2.9-6.4-6.4l0,0V38.5c0-4.9-4.2-8.9-9.6-8.9
			l0,0h-104c-5.4,0-9.6,4.1-9.6,8.9l0,0V161c0,4.9,4.2,8.9,9.6,8.9l0,0h44.5c3.5,0,6.4,2.9,6.4,6.4s-2.9,6.4-6.4,6.4l0,0H37.4
			C25.1,182.6,15,173,15,161l0,0V38.5c0-12,10.1-21.7,22.4-21.7l0,0h104V16.9z M57.5,125.3c3.5,0,6.4,2.9,6.4,6.4S61,138,57.5,138
			H44.8c-3.5,0-6.4-2.9-6.4-6.4s2.9-6.4,6.4-6.4L57.5,125.3L57.5,125.3z M117,91.3c3.5,0,6.4,2.9,6.4,6.4s-2.9,6.4-6.4,6.4H44.8
			c-3.5,0-6.4-2.9-6.4-6.4s2.9-6.4,6.4-6.4H117z M117,57.3c3.5,0,6.4,2.9,6.4,6.4c0,3.5-2.9,6.4-6.4,6.4H44.8
			c-3.5,0-6.4-2.9-6.4-6.4s2.9-6.4,6.4-6.4C44.8,57.3,117,57.3,117,57.3z M134,110.4c11.2,0,21.9,3.2,31,9.2
			c8.9,5.8,15.7,14,19.5,23.6l0,0l0.5,1.1l-0.5,1.2c-3.8,9.6-10.6,17.8-19.5,23.6c-9.1,6-19.8,9.2-31.1,9.2
			c-11.1,0-21.9-3.2-31.1-9.2c-8.9-5.8-15.7-14-19.5-23.6l0,0l-0.5-1.1l0.5-1.1c3.8-9.6,10.6-17.8,19.5-23.6
			C112.1,113.6,122.8,110.4,134,110.4z M134,123.1c-16.7,0-32,8.5-38.2,21.3c6.3,12.8,21.5,21.3,38.2,21.3s32-8.5,38.3-21.3
			C166,131.6,150.7,123.1,134,123.1z M134,127.4c9.3,0,17,7.6,17,17s-7.6,17-17,17s-17-7.6-17-17S124.6,127.4,134,127.4z M134,135.9
			c-4.7,0-8.5,3.8-8.5,8.5s3.8,8.5,8.5,8.5s8.5-3.8,8.5-8.5S138.7,135.9,134,135.9z"/>
	</g>
</g>
</svg>
