<?xml version="1.0" encoding="utf-8"?>
<!-- Generator: Adobe Illustrator 21.0.0, SVG Export Plug-In . SVG Version: 6.00 Build 0)  -->
<svg version="1.1" id="图层_1" xmlns="http://www.w3.org/2000/svg" xmlns:xlink="http://www.w3.org/1999/xlink" x="0px" y="0px"
	 viewBox="0 0 200 200" style="enable-background:new 0 0 200 200;" xml:space="preserve">
<title>su-icon-edit</title>
<desc>Created with Sketch.</desc>
<g id="CMS管理">
	<g id="内容管理-高级" transform="translate(-1251.000000, -371.000000)">
		<g id="操作按钮-copy-9备份-3" transform="translate(1249.000000, 370.000000)">
			<g id="操作按钮-copy-5备份">
				<g id="su-icon-chongxintijiao">
					<g id="file-sync" transform="translate(2.000000, 1.000000)">
						<path id="形状结合" d="M171.7,145.2c0.9,0,1.6,0.7,1.6,1.6c-0.9,21.2-18.3,38.2-39.8,38.2c-12.5,0-23.7-5.8-31-14.8l0,0
							l-4,3.1c-1,0.8-2.5,0.1-2.5-1.2l0,0l0.1-18.6c0-1,1-1.7,1.9-1.5l0,0l18.2,4.4c1.3,0.3,1.6,1.9,0.6,2.7l0,0l-4.5,3.5
							c0.6,0.7,1.2,1.3,1.8,2c5.2,5.1,12,8,19.3,8c7.2,0,14.2-2.9,19.3-8c4.8-4.8,7.6-11.1,8-17.8c0-0.8,0.7-1.5,1.6-1.5l0,0H171.7z
							 M157.7,15c3.5,0,6.2,2.8,6.2,6.2l0,0v74.9c0,0.9-0.7,1.6-1.6,1.6l0,0h-10.9c-0.9,0-1.6-0.7-1.6-1.6l0,0V29H40.7v137.2H86
							c0.9,0,1.6,0.7,1.6,1.6l0,0v10.9c0,0.9-0.7,1.6-1.6,1.6l0,0h-53c-3.5,0-6.2-2.8-6.2-6.2l0,0V21.2c0-3.5,2.8-6.2,6.2-6.2l0,0
							H157.7z M133.5,105.5c12.5,0,23.7,5.8,31,14.8l0,0l4-3.1c1-0.8,2.5-0.1,2.5,1.2l0,0l-0.1,18.6c0,1-1,1.7-1.9,1.5l0,0
							l-18.2-4.4c-1.3-0.3-1.6-1.9-0.6-2.7l0,0l4.5-3.5c-0.6-0.7-1.2-1.3-1.8-2c-5.2-5.1-12-8-19.3-8c-7.2,0-14.2,2.9-19.3,8
							c-4.8,4.8-7.6,11.1-8,17.8c0,0.8-0.7,1.5-1.6,1.5l0,0h-9.4c-0.9,0-1.6-0.7-1.6-1.6C94.6,122.4,112.1,105.5,133.5,105.5z
							 M93.8,78.2c0.9,0,1.6,0.7,1.6,1.6l0,0v9.4c0,0.9-0.7,1.6-1.6,1.6l0,0H57.9c-0.9,0-1.6-0.7-1.6-1.6l0,0v-9.4
							c0-0.9,0.7-1.6,1.6-1.6l0,0H93.8z M132.8,50.1c0.9,0,1.6,0.7,1.6,1.6l0,0V61c0,0.9-0.7,1.6-1.6,1.6l0,0H57.9
							c-0.9,0-1.6-0.7-1.6-1.6l0,0v-9.4c0-0.9,0.7-1.6,1.6-1.6l0,0H132.8z"/>
					</g>
				</g>
			</g>
		</g>
	</g>
</g>
</svg>
