<?xml version="1.0" encoding="utf-8"?>
<!-- Generator: Adobe Illustrator 21.0.0, SVG Export Plug-In . SVG Version: 6.00 Build 0)  -->
<svg version="1.1" id="图层_1" xmlns="http://www.w3.org/2000/svg" xmlns:xlink="http://www.w3.org/1999/xlink" x="0px" y="0px"
	 viewBox="0 0 200 200" style="enable-background:new 0 0 200 200;" xml:space="preserve">
<title>su-icon-edit</title>
<desc>Created with Sketch.</desc>
<g id="CMS管理">
	<g id="内容管理-高级" transform="translate(-1251.000000, -299.000000)">
		<g id="操作按钮-copy-9备份-5" transform="translate(1249.000000, 298.000000)">
			<g id="操作按钮-copy-5备份">
				<g id="su-icon-tijiao">
					<g id="file-done" transform="translate(2.000000, 1.000000)">
						<path id="形状结合" d="M131.2,100.8c23.3,0,42.1,18.9,42.1,42.1S154.5,185,131.2,185s-42.1-18.9-42.1-42.1
							S107.9,100.8,131.2,100.8z M157.7,15c3.5,0,6.2,2.8,6.2,6.2l0,0v74.9c0,0.9-0.7,1.6-1.6,1.6l0,0h-10.9c-0.9,0-1.6-0.7-1.6-1.6
							l0,0V29H40.7v137.2H86c0.9,0,1.6,0.7,1.6,1.6l0,0v10.9c0,0.9-0.7,1.6-1.6,1.6l0,0h-53c-3.5,0-6.2-2.8-6.2-6.2l0,0V21.2
							c0-3.5,2.8-6.2,6.2-6.2l0,0H157.7z M131.2,113.3c-7.9,0-15.4,3.1-21,8.7c-5.6,5.6-8.7,13-8.7,21s3.1,15.4,8.7,21
							c5.6,5.6,13,8.7,21,8.7c7.9,0,15.4-3.1,21-8.7c5.6-5.6,8.7-13,8.7-21s-3.1-15.4-8.7-21C146.6,116.3,139.1,113.3,131.2,113.3z
							 M148.5,128.1c1.3,0,2,1.4,1.2,2.5l0,0l-22.3,30.8c-0.6,0.9-1.9,0.9-2.5,0l0,0l-14.4-19.9c-0.7-1,0-2.5,1.3-2.5l0,0h8.6
							c0.5,0,1,0.2,1.3,0.6l0,0l4.5,6.2l12.4-17.1c0.3-0.4,0.8-0.6,1.3-0.6l0,0H148.5z M93.8,78.2c0.9,0,1.6,0.7,1.6,1.6l0,0v9.4
							c0,0.9-0.7,1.6-1.6,1.6l0,0H57.9c-0.9,0-1.6-0.7-1.6-1.6l0,0v-9.4c0-0.9,0.7-1.6,1.6-1.6l0,0H93.8z M132.8,50.1
							c0.9,0,1.6,0.7,1.6,1.6l0,0V61c0,0.9-0.7,1.6-1.6,1.6l0,0H57.9c-0.9,0-1.6-0.7-1.6-1.6l0,0v-9.4c0-0.9,0.7-1.6,1.6-1.6l0,0
							H132.8z"/>
					</g>
				</g>
			</g>
		</g>
	</g>
</g>
</svg>
