<?xml version="1.0" encoding="utf-8"?>
<!-- Generator: Adobe Illustrator 21.0.0, SVG Export Plug-In . SVG Version: 6.00 Build 0)  -->
<svg version="1.1" id="图层_1" xmlns="http://www.w3.org/2000/svg" xmlns:xlink="http://www.w3.org/1999/xlink" x="0px" y="0px"
	 viewBox="0 0 200 200" style="enable-background:new 0 0 200 200;" xml:space="preserve">
<title>数据资产图标-前台</title>
<g>
	<path d="M75.5,168.1H33.3c-2.7,0.1-4.9-2.1-5-4.7V30c0-0.1,0-0.1,0-0.2c0.1-2.7,2.3-4.9,5-4.8h93.1c0,0,0.1,0,0.1,0
		c2.7,0.1,4.9,2.3,4.8,5v22c0,2.8,2.2,5,5,5c2.8,0,5-2.2,5-5V30c0,0,0,0,0,0c0-8.2-6.7-14.9-14.9-15H33.3c0,0-0.1,0-0.1,0
		c-8.2,0-14.9,6.8-14.9,15v133.2c0,0,0,0,0,0c0,8.2,6.8,14.9,15,14.9h42.1c2.8,0,5-2.2,5-5S78.2,168.1,75.5,168.1z"/>
	<path d="M44.5,48.2c-2.8,0-5,2.2-5,5s2.2,5,5,5h57c2.8,0,5-2.2,5-5s-2.2-5-5-5H44.5z"/>
	<path d="M84.5,78h-40c-2.8,0-5,2.2-5,5s2.2,5,5,5h40c2.8,0,5-2.2,5-5S87.3,78,84.5,78z"/>
	<path d="M44.3,117.8h29c2.8,0,5-2.2,5-5s-2.2-5-5-5h-29c-2.8,0-5,2.2-5,5S41.6,117.8,44.3,117.8z"/>
	<path d="M173.3,148.3h-3.7c-10.8-0.7-19.8-14.5-20.4-31.1c7.4-4.3,12.4-12.4,12.4-21.6c0,0,0,0,0,0c0-13.8-11.2-25-25-24.9
		c-13.8,0-25,11.2-24.9,25c0,9.3,5.1,17.4,12.7,21.7c-0.6,16.5-9.6,30.2-20.4,30.9h-3.7c-4.6,0-8.3,3.7-8.3,8.3v20
		c0,4.6,3.7,8.3,8.3,8.3h73.1c4.6,0,8.3-3.7,8.3-8.3v-20C181.7,152.1,177.9,148.3,173.3,148.3z M136.7,80.7L136.7,80.7
		c8.2,0.1,14.9,6.7,14.9,15c0,0,0,0,0,0c0,8.3-6.7,15-15,14.9c-8.3,0-15-6.7-14.9-15C121.7,87.3,128.4,80.6,136.7,80.7z
		 M134.2,120.5c0.8,0.1,1.6,0.1,2.5,0.1c0.9,0,1.8-0.1,2.7-0.2c0.9,11.1,5,21,11,27.8h-27.1C129.2,141.5,133.2,131.7,134.2,120.5z
		 M171.7,175h-69.7v-16.7h0.9c0.1,0,0.2,0,0.3,0c0.3,0,0.6,0,1,0h65.3c0.3,0,0.6,0,1,0c0.1,0,0.2,0,0.3,0h0.9V175z"/>
</g>
</svg>
