<?xml version="1.0" encoding="utf-8"?>
<!-- Generator: Adobe Illustrator 21.0.0, SVG Export Plug-In . SVG Version: 6.00 Build 0)  -->
<svg version="1.1" id="图层_1" xmlns="http://www.w3.org/2000/svg" xmlns:xlink="http://www.w3.org/1999/xlink" x="0px" y="0px"
	 viewBox="0 0 200 200" style="enable-background:new 0 0 200 200;" xml:space="preserve">
<title>发起</title>
<desc>Created with Sketch.</desc>
<g id="办结事务" transform="translate(-1013.000000, -280.000000)">
	<g id="发起" transform="translate(1013.000000, 280.000000)">
		<path d="M143.7,15.7c12.5,0,22.8,9.8,22.8,22.1l0,0v53.6c0,3.6-2.9,6.5-6.5,6.5s-6.5-2.9-6.5-6.5l0,0V37.7c0-4.9-4.3-9.1-9.8-9.1
			l0,0H37.8c-5.5,0-9.8,4.1-9.8,9.1l0,0v124.5c0,4.9,4.3,9.1,9.8,9.1l0,0h105.8c3.6,0,6.5,2.9,6.5,6.5s-2.9,6.5-6.5,6.5l0,0H37.8
			c-12.5,0-22.8-9.8-22.8-22.1l0,0V37.7c0-12.2,10.3-22.1,22.8-22.1l0,0L143.7,15.7L143.7,15.7z M162.5,110.5c0.8,0,1.5,0.3,2,0.9
			l19.9,23.3c0.8,1,0.8,2.4,0,3.4l-19.9,23.3c-0.9,1.1-2.6,1.2-3.7,0.3c-0.6-0.5-0.9-1.2-0.9-2v-16.3h-19.5c-3.6,0-6.5-2.9-6.5-6.5
			s2.9-6.5,6.5-6.5H160v-17.2C160,111.6,161.1,110.5,162.5,110.5z M123.2,130.3c3.6,0,6.5,2.9,6.5,6.5s-2.9,6.5-6.5,6.5h-8.6
			c-3.6,0-6.5-2.9-6.5-6.5s2.9-6.5,6.5-6.5H123.2z M84.3,125.9c3.6,0,6.5,2.9,6.5,6.5c0,3.6-2.9,6.5-6.5,6.5H54
			c-3.6,0-6.5-2.9-6.5-6.5s2.9-6.5,6.5-6.5C54,125.9,84.3,125.9,84.3,125.9z M127.5,91.4c3.6,0,6.5,2.9,6.5,6.5s-2.9,6.5-6.5,6.5H54
			c-3.6,0-6.5-2.9-6.5-6.5s2.9-6.5,6.5-6.5H127.5z M127.5,56.8c3.6,0,6.5,2.9,6.5,6.5c0,3.6-2.9,6.5-6.5,6.5H54
			c-3.6,0-6.5-2.9-6.5-6.5s2.9-6.5,6.5-6.5C54,56.8,127.5,56.8,127.5,56.8z"/>
	</g>
</g>
</svg>
