<?xml version="1.0" encoding="utf-8"?>
<!-- Generator: Adobe Illustrator 21.0.0, SVG Export Plug-In . SVG Version: 6.00 Build 0)  -->
<svg version="1.1" id="图层_1" xmlns="http://www.w3.org/2000/svg" xmlns:xlink="http://www.w3.org/1999/xlink" x="0px" y="0px"
	 viewBox="0 0 200 200" style="enable-background:new 0 0 200 200;" xml:space="preserve">
<path id="形状结合" d="M126.8,14.6l0.3,0l0.5,0.1h0.1c0.2,0,0.4,0.1,0.5,0.1l0,0c0.2,0.1,0.4,0.1,0.6,0.2
	c0.2,0.1,0.3,0.1,0.5,0.2l0,0h0.1c0.1,0.1,0.3,0.2,0.4,0.3l0,0l0.1,0.1l0.4,0.3l0.1,0.1l0.4,0.4l0.1,0.1l42.2,42.2
	c0.1,0.2,0.2,0.3,0.4,0.5l0,0l0.1,0.1c0.1,0.1,0.2,0.2,0.3,0.4c0,0,0,0.1,0.1,0.1c0.1,0.1,0.2,0.3,0.2,0.4l0,0v0.1
	c0.1,0.2,0.2,0.3,0.2,0.5l0,0c0.1,0.2,0.1,0.4,0.2,0.6c0.1,0.2,0.1,0.5,0.1,0.5s-0.1,0,0,0.1c0.1,0.2,0.1,0.3,0.1,0.5
	c0,0.2,0,0.4,0,0.6l0,0V145c0,9.7-7.8,17.5-17.5,17.5l0,0h-5.7v4.5c0,9.7-7.8,17.5-17.5,17.5l0,0h-92c-9.7,0-17.5-7.8-17.5-17.5l0,0
	V54c0-9.7,7.9-17.5,17.5-17.5l0,0h5.6V32c0.1-9.6,7.9-17.4,17.5-17.4l0,0h61.2c0.2,0,0.4,0,0.6,0L126.8,14.6z M47.8,49.1h-5.6
	c-2.7,0-4.9,2.2-4.9,4.9l0,0v113.1c0,1.3,0.5,2.5,1.4,3.4s2.2,1.4,3.4,1.4l0,0h92c2.7,0,4.9-2.2,4.9-4.9l0,0l0-4.5H65.3
	c-9.7,0-17.5-7.8-17.5-17.5l0,0V49.1z M120,27.1H65.3c-1.3,0-2.5,0.5-3.4,1.4c-0.9,0.9-1.4,2.2-1.4,3.4l0,0v113
	c0,1.3,0.5,2.5,1.4,3.4c0.9,0.9,2.2,1.4,3.4,1.4l0,0h92c1.3,0,2.5-0.5,3.5-1.4s1.4-2.1,1.5-3.4l0,0V69.3h-35.8
	c-3.5,0-6.3-2.8-6.3-6.3l0,0V27.1z M140.6,123.1c3.5,0,6.3,2.8,6.3,6.3s-2.8,6.3-6.3,6.3l0,0H81.9c-3.5,0-6.3-2.8-6.3-6.3
	s2.8-6.3,6.3-6.3l0,0H140.6z M140.6,99.2c3.5,0,6.3,2.8,6.3,6.3c0,3.5-2.8,6.3-6.3,6.3l0,0H81.9c-3.5,0-6.3-2.8-6.3-6.3
	c0-3.5,2.8-6.3,6.3-6.3l0,0H140.6z M110,75.2c3.5,0,6.3,2.8,6.3,6.3s-2.8,6.3-6.3,6.3l0,0H81.9c-3.5,0-6.3-2.8-6.3-6.3
	s2.8-6.3,6.3-6.3l0,0H110z M132.7,36.1v20.5h20.5L132.7,36.1z"/>
</svg>
