<?xml version="1.0" encoding="utf-8"?>
<!-- Generator: Adobe Illustrator 21.0.0, SVG Export Plug-In . SVG Version: 6.00 Build 0)  -->
<svg version="1.1" id="图层_1" xmlns="http://www.w3.org/2000/svg" xmlns:xlink="http://www.w3.org/1999/xlink" x="0px" y="0px"
	 viewBox="0 0 200 200" style="enable-background:new 0 0 200 200;" xml:space="preserve">
<title>报告 (1)</title>
<g>
	<path d="M179,175.1l-17-17c5.8-7.8,9-17.6,8.2-28c-1.6-22.1-20-38.9-41.7-38.9c-1,0-2,0-3,0.1c-23,1.7-40.4,21.7-38.8,44.7
		c1.6,22.1,19.9,38.9,41.7,38.9c1,0,2,0,3-0.1c8.4-0.6,16-3.6,22.2-8.3l17,17c1.1,1.1,2.4,1.6,3.8,1.6c1.4,0,2.7-0.5,3.8-1.6
		l0.8-0.8C181.1,180.6,181.1,177.2,179,175.1z M130.6,163.6c-0.7,0.1-1.5,0.1-2.2,0.1c-7.7,0-15.2-2.9-20.9-8.2
		c-5.7-5.3-9.2-12.5-9.7-20.3c-0.6-8.2,2.1-16.1,7.4-22.3s12.8-9.9,21-10.5c0.7-0.1,1.5-0.1,2.2-0.1c7.7,0,15.2,2.9,20.9,8.2
		c5.7,5.3,9.2,12.5,9.7,20.3c0.6,8.2-2.1,16.1-7.4,22.3S138.8,163.1,130.6,163.6z"/>
	<path d="M73.2,165H31V26.6h121.9h0.3v47.1c0,3.2,2.6,5.8,5.8,5.8s5.8-2.6,5.8-5.8V28.6c0-7.5-6.1-13.6-13.6-13.6H33
		c-7.5,0-13.6,6.1-13.6,13.6V163c0,7.5,6.1,13.6,13.6,13.6h40.2c3.2,0,5.8-2.6,5.8-5.8S76.4,165,73.2,165z"/>
	<path d="M73.5,128H54.4c-4.3,0-7.8,2.6-7.8,5.8c0,3.2,3.5,5.8,7.8,5.8h19.1c4.3,0,7.8-2.6,7.8-5.8C81.3,130.6,77.8,128,73.5,128z"
		/>
	<path d="M54.7,54.6c-4,0-7.2,2.6-7.2,5.8c0,3.2,3.2,5.8,7.2,5.8h66.2c4,0,7.2-2.6,7.2-5.8c0-3.2-3.2-5.8-7.2-5.8H54.7z"/>
	<path d="M81,92.4H55c-4,0-7.2,2.6-7.2,5.8c0,3.2,3.2,5.8,7.2,5.8h26c4,0,7.2-2.6,7.2-5.8C88.2,95,85,92.4,81,92.4z"/>
</g>
</svg>
