<?xml version="1.0" standalone="no"?><!DOCTYPE svg PUBLIC "-//W3C//DTD SVG 1.1//EN" "http://www.w3.org/Graphics/SVG/1.1/DTD/svg11.dtd"><svg class="icon" width="200px" height="200.00px" viewBox="0 0 1024 1024" version="1.1" xmlns="http://www.w3.org/2000/svg"><path d="M921.6 140.243478c-13.356522-33.391304-46.747826-53.426087-82.365217-53.426087H198.121739c-35.617391 0-69.008696 20.034783-82.365217 53.426087s-6.678261 69.008696 17.808695 95.721739L427.408696 512v276.034783c0 8.904348 4.452174 20.034783 11.130434 26.713043l133.565218 135.791304c6.678261 6.678261 17.808696 11.130435 26.713043 11.130435 4.452174 0 8.904348 0 13.356522-2.226087 15.582609-6.678261 24.486957-20.034783 24.486957-35.617391V509.773913l264.904347-273.808696c26.713043-26.713043 35.617391-62.330435 20.034783-95.721739z m-73.46087 42.295652L572.104348 467.478261c-6.678261 6.678261-11.130435 15.582609-11.130435 26.713043v338.365218l-57.878261-60.104348V496.417391c0-8.904348-4.452174-20.034783-11.130435-26.713043L189.217391 182.53913c-4.452174-4.452174-4.452174-8.904348-2.226087-13.356521 2.226087-2.226087 4.452174-6.678261 11.130435-6.678261h643.339131c6.678261 0 8.904348 4.452174 11.130434 6.678261 0 4.452174 0 8.904348-4.452174 13.356521z" /></svg>