<?xml version="1.0" encoding="utf-8"?>
<!-- Generator: Adobe Illustrator 21.0.0, SVG Export Plug-In . SVG Version: 6.00 Build 0)  -->
<svg version="1.1" id="图层_1" xmlns="http://www.w3.org/2000/svg" xmlns:xlink="http://www.w3.org/1999/xlink" x="0px" y="0px"
	 viewBox="0 0 200 200" style="enable-background:new 0 0 200 200;" xml:space="preserve">
<title>数据资产图标-前台</title>
<g>
	<path d="M149.1,111.5c0.9,0.8,2,1.3,3.2,1.3c0.1,0,0.3,0,0.4,0c2.7-0.2,4.7-2.5,4.5-5.1l-3.2-63c-0.1-2.6-2.3-4.6-4.9-4.6l-64,1
		c-1.3,0-2.6,0.6-3.5,1.5c-1.8,1.9-1.7,5,0.3,6.8l11.8,10.9l-66.5,71.9c0,0,0,0,0,0c-1.8,1.9-1.7,5,0.3,6.8l36.5,33.7
		c0.9,0.8,2,1.3,3.2,1.3h0.3c1.2-0.1,2.4-0.6,3.2-1.5l66.5-71.9L149.1,111.5z M144.7,49.8l2.3,46.6L97.3,50.6L144.7,49.8z M67,162.5
		l-29.4-27.2l63.2-68.4l29.4,27.2L67,162.5z"/>
	<path d="M81.8,94c-2.7,0-4.8,2.2-4.8,4.8c0,2.7,2.2,4.8,4.8,4.8l33.9,0.3c2.7,0,4.8-2.2,4.8-4.8c0-2.7-2.2-4.8-4.8-4.8L81.8,94z"/>
	<path d="M101.7,109.3l-33.6-0.7c-2.7-0.1-4.9,2.1-4.9,4.7c-0.1,2.7,2.1,4.9,4.7,4.9l33.6,0.7h0.2c2.7,0,4.8-2.2,4.8-4.8
		C106.5,111.4,104.3,109.3,101.7,109.3z"/>
	<path d="M87.8,124.1l-33.6-0.7c-0.1,0-0.1,0-0.2,0c-2.6,0-4.7,2.1-4.7,4.7c0,0,0,0,0,0c-0.1,2.7,2.1,4.9,4.7,4.9l33.6,0.7h0.2
		c2.7,0,4.8-2.2,4.8-4.8C92.6,126.3,90.5,124.1,87.8,124.1z"/>
	<path d="M61,89.4c5.3-12.8,6.3-26.9,2.8-40.2l1.2,0.4c1,0.3,2.1,0.3,3.1-0.1c2.5-0.9,3.8-3.7,2.9-6.2l-2.5-7l4.3-6
		c1.1-1.5,1.2-3.5,0.3-5.1c-0.8-1.6-2.6-2.6-4.4-2.5L61.2,23l-4.3-6c-0.6-0.9-1.5-1.5-2.5-1.8c-2.6-0.7-5.2,0.7-6,3.3l-2.1,7.1
		l-7.1,2.3c-1,0.3-1.9,1-2.5,1.9c-1.5,2.2-0.9,5.2,1.3,6.7l6.2,4.2v7.4c0,2.6,2.2,4.8,4.8,4.8c1,0,2-0.4,2.8-1l2.2-1.6
		c7.5,26-5.5,54-31,64.6c-1.8,0.7-3,2.5-3,4.5c0,2.7,2.2,4.8,4.8,4.8c0.6,0,1.3-0.1,1.8-0.4C42.2,117.3,54.6,105,61,89.4z M51.5,34
		l0.4-0.1c1.5-0.5,2.7-1.7,3.2-3.2v0c0.9,1.2,2.3,1.8,3.8,1.8h0.2v0.2c-1,1.3-1.2,3-0.6,4.5v0.2h-0.2c-1.5-0.4-3.1-0.1-4.3,0.8h-0.2
		v-0.2c0-1.6-0.8-3.1-2.1-3.9H51.5z"/>
	<path d="M175.7,154.3l3.7-6.8c0.5-0.9,0.7-2,0.5-3c-0.4-2.6-2.9-4.4-5.5-4l-7.6,1.3l-5.5-5.5c-0.7-0.8-1.7-1.2-2.7-1.4
		c-2.6-0.4-5.1,1.4-5.5,4l-0.6,4.1c-31.2-10.5-65.6,4.7-78.6,35.4c-0.2,0.6-0.4,1.2-0.4,1.8c0,2.7,2.1,4.8,4.8,4.8
		c1.9,0,3.7-1.2,4.5-3C93,157.8,119,145,143.9,150.5c-0.5,0.4-0.9,0.9-1.2,1.5c-1.2,2.4-0.2,5.3,2.2,6.4l7,3.5l1.1,7.7
		c0.3,2.4,2.4,4.2,4.8,4.2c1.2-0.1,2.4-0.6,3.2-1.5l5.5-5.5l7.6,1.4c1,0.2,2.1,0,3-0.5c2.4-1.2,3.3-4.1,2.1-6.5L175.7,154.3z
		 M165.9,156.4l0.3,0.5h-0.5c-1.6-0.3-3.2,0.2-4.3,1.3l-0.4,0.4v-0.5c-0.2-1.5-1.1-2.9-2.4-3.6l-0.5-0.2l0.3-0.5
		c1.4-0.7,2.4-2,2.7-3.6v-0.5l0.4,0.4c1.1,1.1,2.7,1.7,4.2,1.4h0.5l-0.3,0.5C165.1,153.3,165.1,155,165.9,156.4z"/>
</g>
</svg>
