<?xml version="1.0" encoding="utf-8"?>
<!-- Generator: Adobe Illustrator 21.0.0, SVG Export Plug-In . SVG Version: 6.00 Build 0)  -->
<svg version="1.1" id="图层_1" xmlns="http://www.w3.org/2000/svg" xmlns:xlink="http://www.w3.org/1999/xlink" x="0px" y="0px"
	 viewBox="0 0 200 200" style="enable-background:new 0 0 200 200;" xml:space="preserve">
<path d="M184.7,77.5l-2.3,12.6c-2.7-21.1-6.2-32.1-6.2-32.1c-1.4-5.2-4.1-10-7.9-13.8c3.6,4,3.1,14,3.1,14
	C165.8,45.5,158,40.9,158,40.9C131,14.4,99.2,16.6,99.2,16.6c-40.7-1-61.8,27.3-61.8,27.3c-4.5-4.1-3.9-10.6-3.9-10.6
	c-9.9,10.7-8.4,28.3-8.4,28.3l-5,10.1c-2.5,3.2-4.5,17.1-4.5,17.1v1.9L15,116.4l1.1-6.4c5.9,36.1,25.3,50.3,25.3,50.3
	c45.1,39.2,89.4,16.8,89.4,16.8c42.3-15,49.5-58.6,49.5-58.6C186.8,98.9,184.7,77.5,184.7,77.5L184.7,77.5z M155.2,70.4
	c4.9,4.9-0.4,32.2-0.4,32.2l-5.9-5.9c2,34.8-8.6,36.5-8.6,36.5l2.5-13.9l-0.8,2.5c-25.8,43.4-66,6.5-66,6.5
	c16.4,4.9,25.6-2.4,25.6-2.4c7.8-7,12.3-6.8,12.3-6.8c5.3,0.8,2.5-4.9,2.5-4.9c-6.3-7.6-16.2-4.9-16.2-4.9
	c-15.8,8-23.6,1.4-23.6,1.4c-18.8-11.3-5.5-18.8-5.5-18.8c2-0.8,10.2,2.9,10.2,2.9c1-2.9-1.4-12.1-1.4-12.1l14.3-10L97,70l0.4-4.3
	l-0.6-2l-12.9-0.2c-7.6,1.4-10-7-10-7c1.4-9.8,11.9-16.4,11.9-16.4C65.3,41.5,63,50.3,63,50.3c-14.9-2.2-19,0.8-19,0.8l-6.6-7
	l3.1,2.7l3.1-1.8C64.3,22.9,98.3,22,98.3,22c30.3,2.2,38.1,10,38.1,10c-19.1-2.5-18.4,0-18.4,0c8.5,1.1,16.8,3.9,24.2,8.2
	c-9.8-0.6-17,2.3-17,2.3c34.2,8,38.3,35.6,38.3,35.6C158.9,67.5,155.2,70.4,155.2,70.4L155.2,70.4z"/>
</svg>
