<?xml version="1.0" encoding="utf-8"?>
<!-- Generator: Adobe Illustrator 21.0.0, SVG Export Plug-In . SVG Version: 6.00 Build 0)  -->
<svg version="1.1" id="图层_1" xmlns="http://www.w3.org/2000/svg" xmlns:xlink="http://www.w3.org/1999/xlink" x="0px" y="0px"
	 viewBox="0 0 200 200" style="enable-background:new 0 0 200 200;" xml:space="preserve">
<title>KY</title>
<g>
	<path d="M181.6,171.2l-20.7-42V86.4c0-2.7-2.2-4.8-4.8-4.8h-5.8V59.5c0-11.5-9.3-20.8-20.8-20.8c-11.5,0-20.8,9.3-20.8,20.8v25.9
		c0,0.2,0,0.4,0.1,0.6v2.2c0,2.1-1.7,3.8-3.8,3.8c-2.1,0-3.8-1.7-3.8-3.8V61.6v-2.3V35.8c0-11.5-9.3-20.8-20.8-20.8
		s-20.8,9.3-20.8,20.8v21H48.7c-2.7,0-4.8,2.2-4.8,4.8v14.8c0,2.7,2.2,4.8,4.8,4.8h0.8V94c-18.6,5.9-31.4,22.8-32.3,42.2
		c-0.1,0.3-0.1,0.7-0.1,1c0,0.2,0,0.3,0,0.5c0,0.2,0,0.4,0,0.7c0,25.7,20.8,46.6,46.5,46.6c20.4,0.1,38.4-13.2,44.6-32.6
		c7.7-24.5-5.9-50.7-30.5-58.4V81.2h0.8c2.7,0,4.8-2.2,4.8-4.8V61.6c0-2.7-2.2-4.8-4.8-4.8H69v-21c0-6.2,5-11.2,11.2-11.2
		s11.2,5,11.2,11.2v23.5v2.3v26.5c0,7.4,6,13.4,13.4,13.4c7.4,0,13.4-6,13.5-13.4V59.4c0-0.1,0-0.2,0-0.3c0.2-6,5.1-10.8,11.2-10.8
		c6.2,0,11.2,5,11.2,11.2v22.1h-3.8c-2.7,0-4.8,2.2-4.8,4.8v42.7l-20.6,42c-1.7,3.1-1.7,6.8,0,9.8c1.7,2.6,4.6,4.1,7.8,4h54.7
		c3.1,0.1,6-1.4,7.7-4C183.3,177.9,183.3,174.2,181.6,171.2z M71.9,174.4c-19.9,4.6-39.7-7.9-44.3-27.8c-0.4-1.5-0.6-3.1-0.7-4.6
		h73.5C99,157.4,87.8,170.8,71.9,174.4z M71.9,102.4c13.8,3.2,24.6,14,27.8,27.8c0.2,0.8,0.3,1.5,0.4,2.3H27.2
		c2.4-14.4,13.1-26.6,28.2-30.1c2.2-0.5,3.7-2.4,3.7-4.7V76.3c0-2.7-2.2-4.8-4.8-4.8h-0.8v-5.1h10.3c0.1,0,0.2,0,0.3,0
		c0.1,0,0.2,0,0.3,0h9.3v5.1H73c-2.7,0-4.8,2.2-4.8,4.8v21.4C68.2,99.9,69.8,101.9,71.9,102.4z M120.1,175.4l21.1-43
		c0.3-0.7,0.5-1.4,0.5-2.1v-39h9.6v39c0,0.7,0.2,1.5,0.5,2.1l21.2,43H120.1z"/>
	<circle cx="43" cy="154.1" r="4.3"/>
	<circle cx="64.5" cy="151.1" r="4.3"/>
	<circle cx="71" cy="165.4" r="4.3"/>
	<circle cx="80.1" cy="121.9" r="4.3"/>
</g>
</svg>
