<?xml version="1.0" encoding="utf-8"?>
<!-- Generator: Adobe Illustrator 21.0.0, SVG Export Plug-In . SVG Version: 6.00 Build 0)  -->
<svg version="1.1" id="图层_1" xmlns="http://www.w3.org/2000/svg" xmlns:xlink="http://www.w3.org/1999/xlink" x="0px" y="0px"
	 viewBox="0 0 200 200" style="enable-background:new 0 0 200 200;" xml:space="preserve">
<path d="M135.9,115.9c0,3.4,2.7,6.1,6.1,6.1s6.1-2.7,6.1-6.1c0-3.4-2.7-6.1-6.1-6.1C138.6,109.9,135.9,112.6,135.9,115.9z"/>
<path d="M75.9,145.7c2.3,2.3,6.2,2.3,8.6,0l25.6-25.6c0.1-0.1,0.1-0.1,0.2-0.2l0,0l0.1-0.1c2.3-2.3,2.3-6.1,0-8.4L84.8,85.5
	c-2.3-2.3-6.1-2.3-8.5,0h-0.2c-2.3,2.3-2.3,6.1,0,8.4l15.5,15.5H21.2c-3.3,0-6,2.7-6,6c0,3.3,2.7,6,6,6h70.2L75.9,137
	C73.5,139.5,73.5,143.4,75.9,145.7z"/>
<path d="M21.4,139.7c3.4,0,6.1,2.7,6.1,6.1v15.3c0,6.7,5.4,12.1,12.1,12.1h121.2c6.7,0,12.1-5.4,12.1-12.1v-122
	c0-6.7-5.4-12.1-12.1-12.1h-38.3c-2.1,0-3.9,1.7-4,3.9l-0.3,20.9c0,3.2-2.8,5.6-6,5.3l0,0H39.6c-6.7,0-12.1,5.4-12.1,12.1v15.1
	c0,3.4-2.7,6.1-6.1,6.1s-6.1-2.7-6.1-6.1c0-0.2,0-0.3,0-0.5V69.3c0-13.4,10.9-24.2,24.2-24.2h63.6c1.9,0,3.6-1.6,3.6-3.5V20.1
	c0.1-2.8,2.3-5.1,5.1-5.1c0,0,0,0,0.1,0l0,0h48.7c13.4,0,24.2,10.9,24.2,24.2v121.6c0,13.4-10.9,24.2-24.2,24.2H39.4
	c-13.4,0-24.2-10.9-24.2-24.2v-14.5c0-0.2,0-0.3,0-0.5C15.2,142.4,18,139.7,21.4,139.7L21.4,139.7z"/>
</svg>
