<?xml version="1.0" encoding="utf-8"?>
<!-- Generator: Adobe Illustrator 21.0.0, SVG Export Plug-In . SVG Version: 6.00 Build 0)  -->
<svg version="1.1" id="图层_1" xmlns="http://www.w3.org/2000/svg" xmlns:xlink="http://www.w3.org/1999/xlink" x="0px" y="0px"
	 viewBox="0 0 200 200" style="enable-background:new 0 0 200 200;" xml:space="preserve">
<path d="M171.2,87.7H49.1l-18.4,73.7h122L171.2,87.7z M162.3,75.5V63.2H96L71.4,38.6H27.3v86l11.1-44.5c0.4-1.4,1.1-2.5,2.2-3.4
	c1.1-0.8,2.3-1.2,3.7-1.2L162.3,75.5L162.3,75.5z M157.5,173.7H21.1c-1.8,0-3.3-0.6-4.4-1.7c-1.1-1.1-1.7-2.6-1.7-4.4V32.4
	c0-1.8,0.6-3.3,1.7-4.4c1.1-1.1,2.6-1.7,4.4-1.7h55.2l24.5,24.5h67.6c1.8,0,3.3,0.6,4.4,1.7c1.1,1.1,1.7,2.6,1.7,4.4v18.4h4.4
	c1.9,0,3.5,0.8,4.7,2.4c1.2,1.6,1.6,3.4,1.2,5.3l-21.3,86c-0.4,1.4-1.1,2.5-2.2,3.4C160.2,173.3,159,173.7,157.5,173.7L157.5,173.7z
	"/>
</svg>
