<?xml version="1.0" encoding="utf-8"?>
<!-- Generator: Adobe Illustrator 21.0.0, SVG Export Plug-In . SVG Version: 6.00 Build 0)  -->
<svg version="1.1" id="图层_1" xmlns="http://www.w3.org/2000/svg" xmlns:xlink="http://www.w3.org/1999/xlink" x="0px" y="0px"
	 viewBox="0 0 200 200" style="enable-background:new 0 0 200 200;" xml:space="preserve">
<path d="M39.2,29.2h25.4c3.9,0,7.1-3.2,7.1-7.1S68.5,15,64.6,15H22.1c-3.9,0-7.1,3.2-7.1,7.1v42.5c0,3.9,3.2,7.1,7.1,7.1
	s7.1-3.2,7.1-7.1V39.2l30.4,30.4c2.7,2.8,7.2,2.9,10,0.2c2.8-2.7,2.9-7.2,0.2-10c-0.1-0.1-0.1-0.1-0.2-0.2L39.2,29.2z M170.8,39.2
	v25.4c0,3.9,3.2,7.1,7.1,7.1c3.9,0,7.1-3.2,7.1-7.1V22.1c0-3.9-3.2-7.1-7.1-7.1h-42.5c-3.9,0-7.1,3.2-7.1,7.1s3.2,7.1,7.1,7.1h25.4
	l-30.4,30.4c-2.8,2.7-2.9,7.2-0.2,10c2.7,2.8,7.2,2.9,10,0.2c0.1-0.1,0.1-0.1,0.2-0.2L170.8,39.2z M39.2,170.8h25.4
	c3.9,0,7.1,3.2,7.1,7.1c0,3.9-3.2,7.1-7.1,7.1H22.1c-3.9,0-7.1-3.2-7.1-7.1v-42.5c0-3.9,3.2-7.1,7.1-7.1s7.1,3.2,7.1,7.1v25.4
	l30.4-30.4c2.7-2.8,7.2-2.9,10-0.2c2.8,2.7,2.9,7.2,0.2,10c-0.1,0.1-0.1,0.1-0.2,0.2L39.2,170.8z M170.8,160.8v-25.4
	c0-3.9,3.2-7.1,7.1-7.1c3.9,0,7.1,3.2,7.1,7.1v42.5c0,3.9-3.2,7.1-7.1,7.1h-42.5c-3.9,0-7.1-3.2-7.1-7.1c0-3.9,3.2-7.1,7.1-7.1h25.4
	l-30.4-30.4c-2.8-2.7-2.9-7.2-0.2-10c2.7-2.8,7.2-2.9,10-0.2c0.1,0.1,0.1,0.1,0.2,0.2L170.8,160.8z"/>
</svg>
