<?xml version="1.0" encoding="utf-8"?>
<!-- Generator: Adobe Illustrator 21.0.0, SVG Export Plug-In . SVG Version: 6.00 Build 0)  -->
<svg version="1.1" id="图层_1" xmlns="http://www.w3.org/2000/svg" xmlns:xlink="http://www.w3.org/1999/xlink" x="0px" y="0px"
	 viewBox="0 0 200 200" style="enable-background:new 0 0 200 200;" xml:space="preserve">
<path d="M100,14.7c-46.4-0.5-84.5,36.8-85,83.2c0.2,36.2,23.6,68.1,58.1,79.1c4.3,0.8,5.8-1.8,5.8-4v-14.1
	c-23.6,5-28.7-11.1-28.7-11.1c-1.6-5.1-4.9-9.4-9.4-12.2c-7.7-5.1,0.6-5,0.6-5c5.4,0.7,10.2,3.9,13,8.6c5,8.7,16,11.7,24.7,6.9
	c0.4-4.2,2.3-8.2,5.4-11.1c-18.9-2.1-38.6-9.2-38.6-41.1c-0.2-8.3,2.9-16.4,8.6-22.5c-2.6-7.1-2.3-15,0.8-21.9c0,0,7.2-2.2,23.2,8.5
	c13.9-3.7,28.6-3.7,42.5,0c16.2-10.7,23.2-8.5,23.2-8.5c3.1,6.9,3.4,14.8,0.9,21.9c5.8,6,9,14,9,22.3c0,32-19.9,39-38.6,41.1
	c4.1,4,6.3,9.7,5.8,15.5v22.8c0,2.7,1.5,4.9,5.8,4c34.4-11,57.7-42.9,58-79C184.5,51.5,146.4,14.2,100,14.7"/>
</svg>
