<?xml version="1.0" encoding="utf-8"?>
<!-- Generator: Adobe Illustrator 21.0.0, SVG Export Plug-In . SVG Version: 6.00 Build 0)  -->
<svg version="1.1" id="图层_1" xmlns="http://www.w3.org/2000/svg" xmlns:xlink="http://www.w3.org/1999/xlink" x="0px" y="0px"
	 viewBox="0 0 200 200" style="enable-background:new 0 0 200 200;" xml:space="preserve">
<path d="M25.5,61.8C40,33.1,69.4,15,101.5,15c22.9,0,42.2,8.4,56.9,22.1L134,61.5c-8.8-8.4-20-12.7-32.5-12.7
	c-22.1,0-40.9,15-47.6,35c-1.7,5.1-2.7,10.5-2.7,16.1s1,11.1,2.7,16.1c6.7,20.1,25.4,35,47.6,35c11.4,0,21.2-3,28.8-8.1
	c8.9-5.9,15.1-15.1,17-25.7h-45.7V84.5h80.1c1,5.6,1.5,11.4,1.5,17.4c0,25.9-9.3,47.7-25.3,62.5c-14.1,13-33.3,20.6-56.3,20.6
	c-46.9,0-85-38-85-84.9c0,0,0,0,0-0.1C16.5,86.3,19.8,73.3,25.5,61.8z"/>
</svg>
