<?xml version="1.0" encoding="utf-8"?>
<!-- Generator: Adobe Illustrator 21.0.0, SVG Export Plug-In . SVG Version: 6.00 Build 0)  -->
<svg version="1.1" id="图层_1" xmlns="http://www.w3.org/2000/svg" xmlns:xlink="http://www.w3.org/1999/xlink" x="0px" y="0px"
	 viewBox="0 0 200 200" style="enable-background:new 0 0 200 200;" xml:space="preserve">
<title>成绩</title>
<desc>Created with Sketch.</desc>
<g id="页面-1">
	<g id="首页1-卡片翻页总" transform="translate(-1171.000000, -516.000000)">
		<g id="成绩" transform="translate(1171.000000, 516.000000)">
			<path id="形状" d="M172.1,15H27.9C20.8,15,15,20.8,15,27.9v144.2c0,3.4,1.4,6.7,3.8,9.1s5.7,3.8,9.1,3.8h144.2
				c3.4,0,6.7-1.4,9.1-3.8s3.8-5.7,3.8-9.1V27.9C185,20.8,179.2,15,172.1,15z M173.1,172.1c0,0.5-0.5,1-1,1H27.9c-0.5,0-1-0.5-1-1
				V27.9c0-0.5,0.5-1,1-1h144.2c0.5,0,1,0.5,1,1V172.1z"/>
			<path id="形状_1_" d="M88.9,139.3H46.5c-3.3,0-6,2.7-6,5.9c0,3.3,2.7,5.9,6,5.9h42.5c3.3,0,6-2.7,6-5.9
				C94.9,141.9,92.2,139.3,88.9,139.3L88.9,139.3z M88.9,113.8H46.5c-3.3,0-6,2.7-6,6s2.7,5.9,6,5.9h42.5c3.3,0,6-2.7,6-5.9
				S92.2,113.8,88.9,113.8z M149.3,128.1l-22.8,22.8l-9.9-10c-2.3-2.3-6.1-2.3-8.4,0c-2.3,2.3-2.3,6.1,0,8.4l14.2,14.2
				c1.1,1.1,2.7,1.7,4.3,1.7c1.6,0,3.1-0.6,4.2-1.7l26.9-26.9c1.8-2.4,1.6-5.8-0.6-7.9C155.1,126.5,151.7,126.2,149.3,128.1
				L149.3,128.1z"/>
			<path id="形状_2_" d="M149.3,99.2L126.5,122l-9.9-10.1c-1.5-1.5-3.7-2.1-5.7-1.5c-2.1,0.6-3.7,2.2-4.2,4.2
				c-0.6,2.1,0,4.2,1.5,5.7l14.2,14.2c1.1,1.1,2.7,1.7,4.3,1.7c1.6,0,3.1-0.6,4.2-1.7l26.9-26.9c2.1-2.4,2-6-0.2-8.3
				C155.3,97.1,151.7,97.1,149.3,99.2L149.3,99.2z M48.6,51.7h3.7v33.4c0,1.6,1.3,3,3,3H60c1.6,0,3-1.3,3-3V44c0-1.6-1.3-3-3-3h-8.5
				c-1,0-2,0.6-2.5,1.4l-2.9,4.7c-0.6,0.9-0.6,2-0.1,3C46.5,51.1,47.5,51.7,48.6,51.7L48.6,51.7z M105,46.9c-2.8-4.4-7.7-7-12.9-6.9
				c-5.2-0.1-10,2.4-12.8,6.8c-3.1,5.4-4.5,11.5-4.1,17.7c-0.4,6.2,1,12.4,4.1,17.8c2.7,4.3,7.5,6.9,12.7,6.8
				c5.2,0.1,10.1-2.5,12.9-6.8c3.3-5.3,4.9-11.5,4.5-17.7C109.8,58.3,108.2,52.2,105,46.9L105,46.9z M96.8,75.7
				c-0.8,1.8-2.6,3-4.6,3c-1.6,0-6.5,0-6.5-14c-0.3-3.9,0.5-7.7,2.1-11.2c0.7-1.8,2.4-2.9,4.3-2.9c2,0,3.8,1.2,4.6,3
				c1.7,3.4,2.4,7.2,2.2,11C99.2,68.4,98.4,72.2,96.8,75.7L96.8,75.7z M137,89c5.2,0.1,10.1-2.5,12.9-6.8c3.3-5.3,4.9-11.5,4.5-17.7
				c0.4-6.2-1.2-12.4-4.4-17.7c-2.8-4.4-7.7-7-12.9-6.9c-5.2-0.1-10,2.4-12.7,6.8c-3.1,5.4-4.5,11.5-4.1,17.7
				c-0.4,6.2,1,12.4,4.1,17.8C127,86.6,131.8,89.2,137,89L137,89z M132.8,53.4c0.7-1.8,2.4-2.9,4.3-2.9c2,0,3.8,1.2,4.6,3
				c1.7,3.4,2.4,7.2,2.2,11c0.2,3.8-0.5,7.6-2.1,11.1c-0.8,1.8-2.6,3-4.6,3c-1.6,0-6.5,0-6.5-14C130.5,60.8,131.2,56.9,132.8,53.4
				L132.8,53.4z"/>
		</g>
	</g>
</g>
</svg>
