<?xml version="1.0" encoding="utf-8"?>
<!-- Generator: Adobe Illustrator 21.0.0, SVG Export Plug-In . SVG Version: 6.00 Build 0)  -->
<svg version="1.1" id="图层_1" xmlns="http://www.w3.org/2000/svg" xmlns:xlink="http://www.w3.org/1999/xlink" x="0px" y="0px"
	 viewBox="0 0 200 200" style="enable-background:new 0 0 200 200;" xml:space="preserve">
<title>收藏 (1)备份</title>
<desc>Created with Sketch.</desc>
<g>
	<path d="M100,15c-46.9,0-85,38.1-85,85s38.1,85,85,85s85-38.1,85-85S146.9,15,100,15z M100,173c-40.3,0-73-32.7-73-73
		c0-40.3,32.7-73,73-73c40.3,0,73,32.7,73,73C173,140.3,140.3,173,100,173z"/>
	<path d="M119.2,61c-7.5,0-14.6,3.7-19.2,10c-4.6-6.2-11.7-10-19.2-10C67.2,61,56.2,73.2,56,88c0,8.8,4,15.1,7.1,20.1
		c9.3,14.5,32.6,32.6,33.6,33.3c1,0.7,2,1.1,3.2,1.1c1.2,0,2.2-0.4,3.2-1.1c1.1-0.7,24.3-18.8,33.6-33.3c3.1-5,7.1-11.3,7.1-20.2
		C143.8,73.1,132.8,61,119.2,61z M126.7,101.5l-0.1,0.2c-6,9.4-19.8,21.4-26.6,27c-7-5.8-20.8-17.8-26.7-27l-0.1-0.2
		c-2.6-4.2-5.1-8.2-5.1-13.4C68.1,79.8,73.9,73,80.8,73c3.6,0,7.2,1.9,9.6,5.2l9.7,13.1l9.6-13.2c2.4-3.2,5.8-5.1,9.5-5.1
		c6.9,0,12.6,6.7,12.6,14.9C131.8,93.2,129.3,97.3,126.7,101.5z"/>
</g>
</svg>
