<?xml version="1.0" encoding="utf-8"?>
<!-- Generator: Adobe Illustrator 21.0.0, SVG Export Plug-In . SVG Version: 6.00 Build 0)  -->
<svg version="1.1" id="图层_1" xmlns="http://www.w3.org/2000/svg" xmlns:xlink="http://www.w3.org/1999/xlink" x="0px" y="0px"
	 viewBox="0 0 200 200" style="enable-background:new 0 0 200 200;" xml:space="preserve">
<title>收藏 (1)备份</title>
<desc>Created with Sketch.</desc>
<path d="M100,15c-46.9,0-85,38.1-85,85s38.1,85,85,85s85-38.1,85-85S146.9,15,100,15z M136.7,108.1c-9.3,14.5-32.5,32.6-33.6,33.3
	c-1,0.7-2,1.1-3.2,1.1c-1.2,0-2.2-0.4-3.2-1.1c-1-0.7-24.3-18.8-33.6-33.3C60,103.1,56,96.8,56,88C56.2,73.2,67.2,61,80.8,61
	c7.5,0,14.6,3.8,19.2,10c4.6-6.3,11.7-10,19.2-10c13.6,0,24.6,12.1,24.6,26.9C143.8,96.8,139.8,103.1,136.7,108.1z"/>
</svg>
