<?xml version="1.0" encoding="utf-8"?>
<!-- Generator: Adobe Illustrator 21.0.0, SVG Export Plug-In . SVG Version: 6.00 Build 0)  -->
<svg version="1.1" id="图层_1" xmlns="http://www.w3.org/2000/svg" xmlns:xlink="http://www.w3.org/1999/xlink" x="0px" y="0px"
	 viewBox="0 0 200 200" style="enable-background:new 0 0 200 200;" xml:space="preserve">
<path d="M180.9,55.1c-2.6-6.1-6.4-11.6-11.2-16.3c-4.8-4.7-10.3-8.3-16.5-10.9c-6.4-2.7-13.2-4-20.2-4c-9.7,0-19.2,2.7-27.4,7.7
	c-2,1.2-3.8,2.5-5.6,4c-1.8-1.4-3.6-2.8-5.6-4c-8.2-5-17.7-7.7-27.4-7.7c-7,0-13.8,1.3-20.2,4c-6.2,2.6-11.7,6.2-16.5,10.9
	c-4.8,4.7-8.6,10.2-11.2,16.3C16.4,61.4,15,68.2,15,75.1c0,6.6,1.3,13.4,4,20.3c2.2,5.8,5.4,11.8,9.5,17.9
	c6.5,9.6,15.3,19.7,26.3,29.8c18.3,16.9,36.3,28.5,37.1,29l4.7,3c2.1,1.3,4.7,1.3,6.8,0l4.7-3c0.8-0.5,18.8-12.1,37.1-29
	c11-10.2,19.9-20.2,26.3-29.8c4.1-6.1,7.3-12.1,9.5-17.9c2.7-6.9,4-13.8,4-20.3C185,68.2,183.6,61.4,180.9,55.1L180.9,55.1z"/>
</svg>
