<?xml version="1.0" standalone="no"?><!DOCTYPE svg PUBLIC "-//W3C//DTD SVG 1.1//EN" "http://www.w3.org/Graphics/SVG/1.1/DTD/svg11.dtd"><svg class="icon" width="200px" height="200.00px" viewBox="0 0 1024 1024" version="1.1" xmlns="http://www.w3.org/2000/svg"><path d="M612.173913 554.74087h-200.347826v367.304347a33.391304 33.391304 0 0 1-30.185739 33.235479l-3.205565 0.133565H178.086957c-28.716522 0-53.581913-21.081043-55.54087-49.574957L122.434783 902.233043V452.786087l-34.79374 27.826087a33.391304 33.391304 0 0 1-44.655304-2.649044l-2.270609-2.56a33.391304 33.391304 0 0 1 5.209044-46.925913l431.304348-345.043478a55.652174 55.652174 0 0 1 69.542956 0l431.304348 345.043478a33.391304 33.391304 0 0 1-41.716869 52.157218L901.565217 452.786087v449.446956c0 29.094957-23.707826 51.355826-52.090434 53.069914l-3.56174 0.111304h-200.347826a33.391304 33.391304 0 0 1-33.391304-33.391304v-367.304348zM512 141.133913L189.217391 399.36v489.293913l155.826087-0.022261v-345.043478a55.652174 55.652174 0 0 1 52.001392-55.518609l3.650782-0.133565h222.608696a55.652174 55.652174 0 0 1 55.652174 55.652174v345.043478h155.826087V399.36L512 141.133913z" /></svg>