<?xml version="1.0" encoding="utf-8"?>
<!-- Generator: Adobe Illustrator 21.0.0, SVG Export Plug-In . SVG Version: 6.00 Build 0)  -->
<svg version="1.1" id="图层_1" xmlns="http://www.w3.org/2000/svg" xmlns:xlink="http://www.w3.org/1999/xlink" x="0px" y="0px"
	 viewBox="0 0 200 200" style="enable-background:new 0 0 200 200;" xml:space="preserve">
<path d="M101.5,99.9c-1.3,0-2.4,0.4-3.3,1.2c-0.9,0.8-1.4,2-1.4,3.7v25.8c0,1.7,0.5,2.9,1.4,3.7c0.9,0.8,2,1.2,3.3,1.2
	s2.4-0.4,3.3-1.2c0.9-0.8,1.4-2,1.4-3.7v-25.8c0-1.7-0.5-2.9-1.4-3.7C103.9,100.3,102.7,99.9,101.5,99.9z"/>
<title>热门 (3)</title>
<desc>Created with Sketch.</desc>
<path d="M149.1,65.9c-3.7-5.5-7.8-10.8-12.2-15.8c-1.3-1.5-2.6-3-4-4.4c-0.5-0.5-1.1-1.1-1.6-1.6c-2.8-2.8-7.5-0.7-7.4,3.3
	c0,0.1,0,0.4,0,0.8c-0.1,0.8-0.2,1.5-0.3,2.3c-0.4,2.4-1.1,4.6-2.1,6.7c-0.6,1.2-1.2,2.2-2,3.2c0.3-4.5-0.2-9.2-1.8-14.4
	c-2.1-6.6-5.7-12.8-10.3-18.5c-2.5-3.1-5.3-6-8.3-8.6c-1.2-1.1-2.5-2.1-3.9-3.1c-3.2-2.2-7.5,0.7-6.7,4.6c0,0,0.1,0.2-0.2,0.4
	c0.3,2.3,0.2,5.2-0.6,8.5c-1.1,4.9-3.5,9.7-7.3,14.2c-1,1.3-2.2,2.5-3.5,3.7s-2.9,2.5-4.7,4c-1.6,1.3-9.2,7.1-11.3,8.8
	c-19.2,15.4-28.4,30.6-28.4,55.8c0,38.1,30.1,69,67.3,69c37.2,0,67.3-30.9,67.3-69C167.1,99.5,160.3,82.6,149.1,65.9z M83.5,139.2
	c0,1.6-1.3,2.8-2.8,2.8h-1.3c-1.6,0-2.8-1.3-2.8-2.8v-18.9H68v18.9c0,1.6-1.3,2.8-2.8,2.8h-1.3c-1.6,0-2.8-1.3-2.8-2.8v-43
	c0-1.6,1.3-2.8,2.8-2.8h1.3v-0.1c1.6,0,2.8,1.3,2.8,2.9v18h8.6v-18c0-1.6,1.3-2.9,2.8-2.9h1.3c1.6,0,2.8,1.3,2.8,2.8V139.2z
	 M113.2,130.6c0,2-0.3,3.8-1,5.2c-0.7,1.5-1.6,2.7-2.7,3.7s-2.4,1.7-3.8,2.2c-1.4,0.5-2.8,0.8-4.2,0.8c-1.4,0-2.8-0.3-4.2-0.8
	c-1.4-0.5-2.7-1.3-3.8-2.2c-1.2-1-2.1-2.3-2.7-3.7c-0.7-1.5-1-3.2-1-5.2v-25.8c0-2,0.3-3.7,1-5.2c0.7-1.5,1.6-2.8,2.7-3.7
	c1.1-1,2.4-1.7,3.8-2.2c1.4-0.5,2.8-0.8,4.2-0.8s2.8,0.3,4.2,0.8c1.4,0.5,2.6,1.2,3.8,2.2s2,2.2,2.7,3.7s1,3.2,1,5.2V130.6z
	 M138.9,97c0,0.7-0.3,1.5-0.8,2s-1.2,0.8-2,0.8h-5.3v39.4c0,1.6-1.3,2.8-2.8,2.8h-1.3c-0.8,0-1.5-0.3-2-0.8s-0.8-1.3-0.8-2V99.9
	h-5.3c-1.6,0-2.8-1.3-2.8-2.8v-0.9c0-1.6,1.3-2.8,2.8-2.8h17.5v-0.1c1.6,0,2.8,1.3,2.8,2.8V97z"/>
</svg>
