<?xml version="1.0" encoding="utf-8"?>
<!-- Generator: Adobe Illustrator 21.0.0, SVG Export Plug-In . SVG Version: 6.00 Build 0)  -->
<svg version="1.1" id="图层_1" xmlns="http://www.w3.org/2000/svg" xmlns:xlink="http://www.w3.org/1999/xlink" x="0px" y="0px"
	 viewBox="0 0 200 200" style="enable-background:new 0 0 200 200;" xml:space="preserve">
<title>热门 (3)</title>
<desc>Created with Sketch.</desc>
<path id="形状结合" d="M88.5,20.4c-0.8-3.9,3.5-6.8,6.7-4.6c1.4,1,2.7,2,3.9,3.1c3,2.6,5.8,5.5,8.3,8.6
	c4.6,5.7,8.2,11.9,10.3,18.5c1.6,5.2,2.1,9.9,1.8,14.4c0.8-1,1.4-2,2-3.2c1-2.1,1.7-4.3,2.1-6.7c0.1-0.8,0.2-1.5,0.3-2.3
	c0-0.4,0-0.7,0-0.8c-0.1-4,4.6-6.1,7.4-3.3c0.5,0.5,1.1,1.1,1.6,1.6c1.4,1.4,2.7,2.9,4,4.4c4.4,5,8.5,10.3,12.2,15.8
	c11.2,16.7,18,33.6,18,49.9c0,38.1-30.1,69-67.3,69s-67.3-30.9-67.3-69c0-25.2,9.2-40.4,28.4-55.8c2.1-1.7,9.7-7.5,11.3-8.8
	c1.8-1.5,3.4-2.8,4.7-4c1.3-1.2,2.5-2.4,3.5-3.7c3.8-4.5,6.2-9.3,7.3-14.2c0.8-3.3,0.9-6.2,0.6-8.5C88.6,20.6,88.5,20.4,88.5,20.4z
	 M97,29.1c-1,6.6-4,13.6-9.8,20.4c-1.3,1.6-2.8,3.1-4.3,4.5c-1.7,1.5-3.4,3-5.2,4.4c-1.7,1.4-9.3,7.2-11.3,8.8
	C49.2,81,41.4,93.9,41.4,116c0,33.2,26.2,60.1,58.6,60.1c32.3,0,58.6-26.9,58.6-60.1c0-14.2-6.2-29.5-16.5-44.8
	c-3.4-5-7-9.7-10.9-14.2c-0.5,1.5-1.1,3-1.8,4.4c-3,5.9-7.7,10.4-14.4,12.7c-1.3,0.5-2.8,0.3-4-0.5c-1.2-0.8-1.9-2.2-2-3.6
	c0-0.8,0.1-1.3,0.3-2.1c0,0.1,0.6-2.1,0.8-2.9c1.2-5,1.2-10.1-0.6-16c-1.7-5.5-4.7-10.7-8.7-15.5l0,0C99.6,31.8,98.3,30.4,97,29.1z
	 M101.5,92.9c1.4,0,2.8,0.3,4.2,0.8c1.4,0.5,2.6,1.2,3.8,2.2s2,2.2,2.7,3.7c0.7,1.5,1,3.2,1,5.2v25.8c0,2-0.3,3.8-1,5.2
	c-0.7,1.5-1.6,2.7-2.7,3.7c-1.1,1-2.4,1.7-3.8,2.2c-1.4,0.5-2.8,0.8-4.2,0.8s-2.8-0.3-4.2-0.8c-1.4-0.5-2.7-1.3-3.8-2.2
	c-1.2-1-2.1-2.3-2.7-3.7c-0.7-1.5-1-3.2-1-5.2v-25.8c0-2,0.3-3.7,1-5.2c0.7-1.5,1.6-2.8,2.7-3.7c1.1-1,2.4-1.7,3.8-2.2
	C98.7,93.2,100.1,92.9,101.5,92.9z M65.2,93.3c1.6,0,2.8,1.3,2.8,2.9v18h8.6v-18c0-1.6,1.3-2.9,2.8-2.9h1.3c1.6,0,2.8,1.3,2.8,2.8
	v43.1c0,1.6-1.3,2.8-2.8,2.8h-1.3c-1.6,0-2.8-1.3-2.8-2.8v-18.9H68v18.9c0,1.6-1.3,2.8-2.8,2.8h-1.3c-1.6,0-2.8-1.3-2.8-2.8V96.2
	c0-1.6,1.3-2.8,2.8-2.8H65.2z M136.1,93.3c1.6,0,2.8,1.3,2.8,2.8v0.9c0,0.7-0.3,1.5-0.8,2c-0.5,0.5-1.2,0.8-2,0.8h-5.3v39.4
	c0,1.6-1.3,2.8-2.8,2.8h-1.3c-0.8,0-1.5-0.3-2-0.8c-0.5-0.5-0.8-1.3-0.8-2V99.9h-5.3c-1.6,0-2.8-1.3-2.8-2.8v-0.9
	c0-1.6,1.3-2.8,2.8-2.8H136.1z M101.5,99.9c-1.3,0-2.4,0.4-3.3,1.2s-1.4,2-1.4,3.7v25.8c0,1.7,0.5,2.9,1.4,3.7s2,1.2,3.3,1.2
	c1.3,0,2.4-0.4,3.3-1.2c0.9-0.8,1.4-2,1.4-3.7v-25.8c0-1.7-0.5-2.9-1.4-3.7C103.9,100.3,102.7,99.9,101.5,99.9z"/>
</svg>
