<?xml version="1.0" encoding="utf-8"?>
<!-- Generator: Adobe Illustrator 21.0.0, SVG Export Plug-In . SVG Version: 6.00 Build 0)  -->
<svg version="1.1" id="图层_1" xmlns="http://www.w3.org/2000/svg" xmlns:xlink="http://www.w3.org/1999/xlink" x="0px" y="0px"
	 viewBox="0 0 200 200" style="enable-background:new 0 0 200 200;" xml:space="preserve">
<g>
	<path d="M58.6,75.3L58.6,75.3C71.5,36.5,102.3,27,102.3,27s-17.5-5.6-40.2-7.1c-18-1.2-42.4,2.6-42.4,2.6s-6.3,67.1,32.4,112.6
		c0.3,0.4,0.9,1,1.3,1.4c0,0,0,0,0-0.1C53.1,123.6,51.1,97.5,58.6,75.3z"/>
	<path d="M180.2,133.6L180.2,133.6c-1.8-18.8-7.1-37.9-7.1-37.9s-10.4,27.6-43.4,40.6c-24,9.6-52.5,10.5-66,10.2
		c45.4,38.3,113.9,33.6,113.9,33.6S182.1,153,180.2,133.6z"/>
	<path d="M151.9,114C187,79,177.6,22.5,177.6,22.5S115.5,14.3,83.6,46c-31.8,31.8-25.8,93.7-25.8,93.7h0
		C57.8,139.7,116.8,148.9,151.9,114z"/>
</g>
</svg>
