<?xml version="1.0" encoding="utf-8"?>
<!-- Generator: Adobe Illustrator 21.0.0, SVG Export Plug-In . SVG Version: 6.00 Build 0)  -->
<svg version="1.1" id="图层_1" xmlns="http://www.w3.org/2000/svg" xmlns:xlink="http://www.w3.org/1999/xlink" x="0px" y="0px"
	 viewBox="0 0 200 200" style="enable-background:new 0 0 200 200;" xml:space="preserve">
<path d="M87.5,37.5c0,0-13.6-0.6-22.2,10.6c-8.7,11.2-2.2,28.3,1.9,37.1c4.1,8.8,25.8,43.4,26.6,44.2c0.8,0.8,1.7,0.4,1.8-0.2
	c0.1-0.7,2.5-50.2,0.5-62.5C94.2,54.4,88.4,38.8,87.5,37.5z M40.6,60.6C39.1,60.7,28,71.8,27,82.7c-1,10.9,3.6,18.1,16.6,26.7
	c13.1,9.3,44.1,26.3,44.7,24.8c0.6-1.5-12-23.8-22.3-40.1C55.6,77.8,42.2,60.4,40.6,60.6L40.6,60.6z M44.8,160.7
	c9.4,4.2,24-5.2,28.1-8c3.8-2.9,10.7-8.2,10.7-8.2L30.4,146C30.4,146,35.4,156.5,44.8,160.7z M46.1,117.7
	c-9.5-4.8-29.1-15.7-29.9-15.5c-0.8,0.2-3.7,13.8,2.4,24.1s18.1,13.4,23.5,14.2c6.2,0.9,42.4,0.5,42.1-0.2
	C84.1,139.6,55.7,122.4,46.1,117.7z M134.4,48.1c-8.7-11.2-22.2-10.6-22.2-10.6c-0.9,1.3-6.7,16.9-8.6,29.1
	c-1.9,12.2,0.5,61.8,0.5,62.5c0.1,0.7,1,1,1.8,0.2c0.8-0.8,22.5-35.3,26.6-44.2C136.6,76.3,143.1,59.3,134.4,48.1L134.4,48.1z
	 M183.5,102.2c-0.8-0.2-20.4,10.7-29.9,15.5c-9.5,4.8-38,22-38.2,22.6c-0.2,0.7,36,1.1,42.1,0.2c5.5-0.8,17.4-4,23.5-14.2
	C187.2,116,184.3,102.4,183.5,102.2L183.5,102.2z M126.9,152.7c4,2.7,18.7,12.2,28.1,8c9.4-4.2,14.4-14.7,14.4-14.7l-53.2-1.4
	C116.2,144.5,123.1,149.8,126.9,152.7L126.9,152.7z M172.8,82.7c-1-10.9-12.1-22-13.7-22.1c-1.6-0.2-14.9,17.3-25.3,33.5
	c-10.3,16.3-22.9,38.7-22.3,40.1c0.6,1.5,31.6-15.6,44.7-24.8C169.2,100.7,173.8,93.5,172.8,82.7z"/>
</svg>
