<?xml version="1.0" encoding="utf-8"?>
<!-- Generator: Adobe Illustrator 21.0.0, SVG Export Plug-In . SVG Version: 6.00 Build 0)  -->
<svg version="1.1" id="图层_1" xmlns="http://www.w3.org/2000/svg" xmlns:xlink="http://www.w3.org/1999/xlink" x="0px" y="0px"
	 viewBox="0 0 200 200" style="enable-background:new 0 0 200 200;" xml:space="preserve">
<path d="M143.3,113.2h41.3c0.3-2.9,0.4-5.8,0.4-8.8c0-14.1-3.8-27.2-10.3-38.6c6.8-18.1,6.5-33.5-2.6-42.6
	c-8.7-8.6-31.9-7.2-58.1,4.4c-2-0.1-3.9-0.2-5.9-0.2c-36,0-66.2,24.8-74.6,58.3c11.3-14.5,23.2-25,39.1-32.7
	c-1.4,1.3-9.9,9.7-11.3,11.2c-41.9,41.9-55,96.8-40.8,111c10.8,10.8,30.4,9,52.8-2c10.4,5.3,22.3,8.4,34.8,8.4
	c32.9,0,62.1-21,72.7-52.1h-41.6c-5.9,10.9-17.3,17.8-29.8,17.8c-12.4,0-23.8-6.8-29.7-17.8c-2.6-4.9-4-10.5-4-16.1v-0.1
	L143.3,113.2L143.3,113.2z M75.9,92.8c1-17.1,15.1-30.6,32.3-30.6c17.2,0,31.3,13.5,32.3,30.6H75.9z M171.8,31.7
	c5.9,5.9,5.7,16.9,0.7,30.5c-8.6-13.2-21.1-23.5-35.8-29.4C152.4,26,165.2,25.1,171.8,31.7z M31.3,172.5c-7.5-7.5-5.2-23.2,4.4-42.2
	c6,16.8,17.5,30.9,32.7,40.2C51.8,178,38.1,179.3,31.3,172.5z"/>
</svg>
