<?xml version="1.0" encoding="utf-8"?>
<!-- Generator: Adobe Illustrator 21.0.0, SVG Export Plug-In . SVG Version: 6.00 Build 0)  -->
<svg version="1.1" id="图层_1" xmlns="http://www.w3.org/2000/svg" xmlns:xlink="http://www.w3.org/1999/xlink" x="0px" y="0px"
	 viewBox="0 0 200 200" style="enable-background:new 0 0 200 200;" xml:space="preserve">
<path d="M100,74.5c-14.1,0-25.5,11.4-25.5,25.5s11.4,25.5,25.5,25.5s25.5-11.4,25.5-25.5S114.1,74.5,100,74.5z M100,57.5
	c23.5,0,42.5,19,42.5,42.5s-19,42.5-42.5,42.5s-42.5-19-42.5-42.5S76.5,57.5,100,57.5z M155.3,55.4c0,5.9-4.8,10.6-10.6,10.6
	c-5.9,0-10.6-4.8-10.6-10.6s4.8-10.6,10.6-10.6C150.5,44.8,155.3,49.5,155.3,55.4z M100,32c-21,0-24.5,0.1-34.2,0.5
	c-6.7,0.3-11.1,1.2-15.3,2.8c-3.7,1.4-6.3,3.1-9.2,6c-2.7,2.6-4.7,5.7-6,9.2c-1.6,4.2-2.5,8.6-2.8,15.3C32.1,75.1,32,78.4,32,100
	c0,21,0.1,24.5,0.5,34.2c0.3,6.7,1.2,11.1,2.8,15.3c1.4,3.7,3.1,6.4,6,9.2c2.9,2.9,5.5,4.6,9.2,6c4.2,1.6,8.7,2.5,15.3,2.8
	c9.4,0.4,12.7,0.5,34.2,0.5c21,0,24.5-0.1,34.2-0.5c6.6-0.3,11.1-1.2,15.3-2.8c3.7-1.4,6.4-3.1,9.2-6c2.9-2.9,4.6-5.5,6-9.2
	c1.6-4.2,2.5-8.7,2.8-15.3c0.4-9.4,0.5-12.7,0.5-34.2c0-21-0.1-24.5-0.5-34.2c-0.3-6.6-1.2-11.1-2.8-15.3c-1.3-3.5-3.3-6.6-6-9.2
	c-2.6-2.7-5.7-4.7-9.2-6c-4.2-1.6-8.6-2.5-15.3-2.8C124.9,32.1,121.6,32,100,32z M100,15c23.1,0,26,0.1,35,0.5
	c9.1,0.4,15.2,1.8,20.6,4c5.6,2.2,10.3,5.1,15.1,9.8c4.3,4.2,7.7,9.4,9.8,15.1c2.1,5.4,3.5,11.6,4,20.6c0.4,9.1,0.5,11.9,0.5,35
	s-0.1,26-0.5,35c-0.4,9.1-1.9,15.2-4,20.6c-2.1,5.7-5.5,10.8-9.8,15.1c-4.3,4.3-9.4,7.7-15.1,9.8c-5.4,2.1-11.6,3.5-20.6,4
	c-9.1,0.4-11.9,0.5-35,0.5s-26-0.1-35-0.5c-9.1-0.4-15.2-1.9-20.6-4c-5.7-2.1-10.8-5.5-15.1-9.8c-4.3-4.2-7.7-9.4-9.8-15.1
	c-2.1-5.4-3.5-11.6-4-20.6c-0.4-9.1-0.5-11.9-0.5-35s0.1-26,0.5-35c0.4-9.1,1.8-15.2,4-20.6c2.1-5.7,5.5-10.8,9.8-15.1
	c4.2-4.3,9.4-7.7,15.1-9.8c5.4-2.1,11.6-3.5,20.6-4C74,15.1,76.9,15,100,15z"/>
</svg>
