<?xml version="1.0" encoding="utf-8"?>
<!-- Generator: Adobe Illustrator 21.0.0, SVG Export Plug-In . SVG Version: 6.00 Build 0)  -->
<svg version="1.1" id="图层_1" xmlns="http://www.w3.org/2000/svg" xmlns:xlink="http://www.w3.org/1999/xlink" x="0px" y="0px"
	 viewBox="0 0 200 200" style="enable-background:new 0 0 200 200;" xml:space="preserve">
<path d="M118,104.2c0,0,0.3,4.5,18.1,1.9c0,0-2.1,49,1.3,65c0,0-1.3,4.5-5.6-11.2c-4.3-15.7-5.3-19.5-7.2-20.3
	c-1.8-0.8-10.4,4.8-14.6,13.9c-4.3,9.1-6.7,20-6.7,20s-2.8,2.1-2.9-1.3c0-3.5,2.4-21.6,2.4-21.6s-4.9,12.7-5.8,19.3
	c-0.9,6.7-2.6,0.7-2.2-1.4c0.3-2,2.3-11.2,0-16.6c0,0-2.2-1-16.4,20.4c0,0-1.2,3.2-2.6,1.8c-1.4-1.3,0.2-3.4,1.5-6.8
	c1.4-3.4,7.4-17.4,9.2-19.2c0,0-5.6,1-8.7-0.5c-3.1-1.5-6.8-4.4-4.4-15.7c1-4.5,1.1-0.1,0.7,3.3c-0.8,7,2,11,7.4,9.8
	c5.6-1.2,8.5-5.7,8.5-5.7L118,104.2L118,104.2z M184.3,34.1c0,0-6,6-18.4,5.9c-5.8-0.1-9.4-0.4-10.1-2.7c-1.1-3.6,8.7-8.8,21.1-8.1
	c0,0-10.9-5.8-45.3-3.1c-34.4,2.7-81.3,23.7-81.3,23.7s0.3,1.9-4.3-1.3c-4.5-3.2-10.1-5.6-11.7-5.3c-1.6,0.3-4.5,0-5.1,6.9L15,84.8
	c0,0,9.4,6.9,20.6,2.7c11.2-4.3,11.2-18.6,8.5-23.5c0,0,1.6-0.3,3.2,2.4c1.6,2.7,19.2,12.8,25.3,15.5c6.1,2.7,39.4,14.4,47.4,16.4
	s17.3,0.4,21-3.1c3.7-3.5,23.2-24.8,28-33c0,0-60,9.9-77.1,2.7c0,0-2.6,1.3-4,0.5c-1.3-0.8,0.3-5.6,1.6-5.1c1.3,0.5,2.4,1.9,2.4,1.9
	s19.5,7.2,78.9-3.5C171,58.7,188.6,41.6,184.3,34.1L184.3,34.1z M90.5,46.7c-3.3,0.4-3.4-5.2-2-8.6c1-2.4,6-3.3,5.9,0.6
	C94.2,43.7,93.6,46.4,90.5,46.7z"/>
</svg>
