<?xml version="1.0" encoding="utf-8"?>
<!-- Generator: Adobe Illustrator 21.0.0, SVG Export Plug-In . SVG Version: 6.00 Build 0)  -->
<svg version="1.1" id="图层_1" xmlns="http://www.w3.org/2000/svg" xmlns:xlink="http://www.w3.org/1999/xlink" x="0px" y="0px"
	 viewBox="0 0 200 200" style="enable-background:new 0 0 200 200;" xml:space="preserve">
<path d="M119.7,15.1c-9.5,0.1-18.8,2.1-27.4,6.1c-32.7,15.2-47,54-31.8,86.8l-40.8,40.8c-3,3-4.7,7.1-4.7,11.4s1.7,8.4,4.7,11.4
	l8.7,8.7c6.3,6.2,16.5,6.2,22.8-0.1l9.5-9.5L64,174c4.7,4.7,12.3,4.7,17,0l5.6-5.5c2.3-2.2,3.5-5.3,3.5-8.5s-1.2-6.3-3.5-8.5
	l-3.3-3.3l8.7-8.7c8.6,4,18.1,6.1,27.7,6.1c36,0,65.3-29.2,65.3-65.2C184.9,44.4,155.7,15.2,119.7,15.1z M119.7,109.8
	c-16.2,0-29.4-13.2-29.4-29.4c0-16.2,13.2-29.4,29.4-29.4s29.4,13.2,29.4,29.4C149.1,96.6,135.9,109.8,119.7,109.8z"/>
</svg>
