<?xml version="1.0" encoding="utf-8"?>
<!-- Generator: Adobe Illustrator 21.0.0, SVG Export Plug-In . SVG Version: 6.00 Build 0)  -->
<svg version="1.1" id="图层_1" xmlns="http://www.w3.org/2000/svg" xmlns:xlink="http://www.w3.org/1999/xlink" x="0px" y="0px"
	 viewBox="0 0 200 200" style="enable-background:new 0 0 200 200;" xml:space="preserve">
<path d="M119.7,145.6c-9.6,0-19.1-2.1-27.7-6.1l-8.7,8.7l3.3,3.3c2.3,2.2,3.5,5.3,3.5,8.5c0,3.2-1.2,6.3-3.5,8.5L81,174
	c-4.7,4.7-12.3,4.7-17,0l-3.3-3.3l-9.5,9.5c-6.3,6.3-16.5,6.3-22.8,0.1c0,0,0,0,0,0l-8.7-8.7c-3-3-4.7-7.1-4.7-11.4
	c0-4.3,1.7-8.4,4.7-11.4l40.8-40.8c-15.2-32.8-0.9-71.6,31.8-86.8c8.6-4,17.9-6,27.4-6.1c36,0.1,65.2,29.3,65.3,65.3
	C185,116.4,155.7,145.6,119.7,145.6z M119.7,26.4c-29.8,0-53.9,24.2-53.9,54.1c0,9,2.3,17.9,6.6,25.8c1.2,2.2,0.8,5-1,6.8
	l-43.7,43.7c-1.9,1.9-1.9,4.9,0,6.7c0,0,0,0,0,0l8.7,8.8c1.9,1.9,4.9,1.9,6.7,0c0,0,0,0,0,0l13.5-13.5c2.2-2.2,5.8-2.2,8,0
	c0,0,0,0,0,0l7.3,7.3c0.2,0.3,0.7,0.3,0.9,0l5.6-5.6c0.1-0.1,0.2-0.3,0.2-0.5c0-0.2-0.1-0.3-0.2-0.5l-7.3-7.3c-2.2-2.2-2.2-5.8,0-8
	l15.6-15.6c1.8-1.8,4.6-2.2,6.8-1c7.9,4.4,16.9,6.7,26,6.7c29.8,0,53.9-24.2,53.9-54C173.6,50.6,149.5,26.4,119.7,26.4L119.7,26.4z
	 M119.7,109.8c-16.2,0-29.4-13.2-29.4-29.4c0-16.2,13.2-29.4,29.4-29.4c16.2,0,29.4,13.2,29.4,29.4
	C149.1,96.6,135.9,109.8,119.7,109.8z M119.7,62.3c-10,0-18.1,8.1-18.1,18.1s8.1,18.1,18.1,18.1l0,0c10,0,18.1-8.1,18.1-18.1
	S129.7,62.3,119.7,62.3z"/>
</svg>
