<?xml version="1.0" encoding="utf-8"?>
<!-- Generator: Adobe Illustrator 21.0.0, SVG Export Plug-In . SVG Version: 6.00 Build 0)  -->
<svg version="1.1" id="图层_1" xmlns="http://www.w3.org/2000/svg" xmlns:xlink="http://www.w3.org/1999/xlink" x="0px" y="0px"
	 viewBox="0 0 200 200" style="enable-background:new 0 0 200 200;" xml:space="preserve">
<path d="M103.3,29.1c1.2-1,2.5-1.6,4.1-1.6s2.9,0.6,4.1,1.8c1.2,1.2,1.8,2.5,1.8,4.1s-0.6,2.9-1.8,4.1L50.6,100l60.9,62.5
	c1.2,1.2,1.8,2.6,1.8,4.2c0,1.6-0.6,3-1.8,4.1c-1.2,1.1-2.5,1.7-4.1,1.7c-1.6,0-2.9-0.5-4.1-1.6l-64.7-66.6
	c-1.2-1.3-1.8-2.8-1.8-4.4c0-1.6,0.6-3,1.8-4.2L103.3,29.1z M153.3,29.1c1.2-1,2.5-1.6,4.1-1.6c1.6,0,2.9,0.6,4.1,1.8
	c1.2,1.2,1.8,2.5,1.8,4.1s-0.6,2.9-1.8,4.1L100.6,100l60.9,62.5c1.2,1.2,1.8,2.6,1.8,4.2c0,1.6-0.6,3-1.8,4.1
	c-1.2,1.1-2.5,1.7-4.1,1.7c-1.6,0-2.9-0.5-4.1-1.6l-64.7-66.6c-1.2-1.3-1.8-2.8-1.8-4.4c0-1.6,0.6-3,1.8-4.2L153.3,29.1z"/>
</svg>
