<?xml version="1.0" encoding="utf-8"?>
<!-- Generator: Adobe Illustrator 21.0.0, SVG Export Plug-In . SVG Version: 6.00 Build 0)  -->
<svg version="1.1" id="图层_1" xmlns="http://www.w3.org/2000/svg" xmlns:xlink="http://www.w3.org/1999/xlink" x="0px" y="0px"
	 viewBox="0 0 200 200" style="enable-background:new 0 0 200 200;" xml:space="preserve">
<path d="M156.6,89.4c0,2.5-2,4.5-4.5,4.5h-12.4v8h12.4c2.5-0.1,4.5,1.8,4.7,4.3c0.1,2.5-1.8,4.5-4.3,4.7c-0.1,0-0.3,0-0.4,0h-16.9
	c-2.4,0-4.4-2-4.4-4.5V72.5c0-2.4,2-4.5,4.5-4.5h16.9c2.5,0,4.5,2,4.4,4.5c0,2.5-2,4.5-4.5,4.4h-12.4v8h12.4
	C154.6,85,156.6,87,156.6,89.4L156.6,89.4z M121.8,110.5c-0.5,0.1-0.9,0.2-1.4,0.2c-1.4,0-2.8-0.6-3.6-1.8L99.5,85.5v20.8
	c-0.2,2.5-2.3,4.3-4.8,4.1c-2.2-0.2-3.9-1.9-4.1-4.1V72.5c0-2.4,2-4.4,4.4-4.4c1.4,0,2.7,0.7,3.5,1.8l17.4,23.6V72.5
	c0-2.4,2-4.5,4.5-4.5c2.4,0,4.5,2,4.5,4.5v33.8C124.9,108.2,123.6,109.9,121.8,110.5z M79.7,110.8c-2.5,0-4.4-2-4.4-4.5V72.5
	c0-2.4,2-4.5,4.5-4.5s4.5,2,4.5,4.5v33.8C84.2,108.8,82.2,110.8,79.7,110.8z M66.7,110.8H49.8c-2.5,0-4.4-2-4.5-4.5V72.5
	c0.2-2.5,2.4-4.3,4.9-4.1c2.2,0.2,3.9,1.9,4.1,4.1v29.3h12.4c2.5,0,4.5,2,4.5,4.5C71.2,108.8,69.2,110.8,66.7,110.8L66.7,110.8
	L66.7,110.8z M100,19.1c-46.9,0-85,31-85,69c0,34.1,30.2,62.6,71.1,68.1c2.8,0.6,6.5,1.8,7.5,4.2c0.8,2.1,0.6,5.4,0.3,7.6l-1.2,7.2
	c-0.3,2.1-1.7,8.4,7.4,4.6c9.1-3.8,49-28.9,66.8-49.4c12.2-13.4,18-27.1,18-42.3C185,50.1,146.9,19.1,100,19.1z"/>
</svg>
