<?xml version="1.0" encoding="utf-8"?>
<!-- Generator: Adobe Illustrator 21.0.0, SVG Export Plug-In . SVG Version: 6.00 Build 0)  -->
<svg version="1.1" id="图层_1" xmlns="http://www.w3.org/2000/svg" xmlns:xlink="http://www.w3.org/1999/xlink" x="0px" y="0px"
	 viewBox="0 0 200 200" style="enable-background:new 0 0 200 200;" xml:space="preserve">
<path d="M141,120.5L141,120.5c-2.9-2.9-2.9-7.5-0.1-10.4l15.4-15.4c8.4-8.9,13.1-18.6,14.1-29.2c1-10.5-2-19.6-8.9-27.1
	c-7.5-6.9-16.6-9.9-27.1-8.9s-20.3,5.7-29.2,14.1L89.8,59.1c-2.9,2.9-7.5,2.8-10.3-0.1l0,0c-2.8-2.8-2.7-7.4,0.1-10.2l15.3-15.3
	c11.9-11.3,25.1-17.4,39.6-18.4s26.9,3.4,37.3,13.2c9.8,10.4,14.2,22.8,13.2,37.3s-7.1,27.6-18.4,39.6l-15.3,15.1
	C148.4,123.3,143.8,123.3,141,120.5z"/>
<path d="M120.4,141c2.8,2.9,2.8,7.4,0,10.2l-15.2,15.2c-11.9,11.3-25.1,17.4-39.6,18.4s-26.9-3.4-37.3-13.2
	c-9.8-10.4-14.2-22.8-13.2-37.3s7.1-27.6,18.4-39.6l15.2-15.2c2.8-2.8,7.4-2.8,10.2,0l0.1,0.1c2.9,2.8,2.9,7.4,0,10.3l-15.4,15.4
	c-8.4,8.9-13.1,18.6-14.1,29.2c-1,10.5,2,19.6,8.9,27.1c7.5,6.9,16.6,9.9,27.1,8.9s20.3-5.7,29.2-14.1l15.4-15.4
	C113,138,117.6,138.1,120.4,141L120.4,141z"/>
<path d="M130.6,69.4L130.6,69.4c2.8,2.8,2.8,7.4,0,10.2l-51,51c-2.8,2.8-7.4,2.8-10.2,0l0,0c-2.8-2.8-2.8-7.4,0-10.2l51-51
	C123.2,66.6,127.8,66.6,130.6,69.4z"/>
</svg>
