<?xml version="1.0" encoding="utf-8"?>
<!-- Generator: Adobe Illustrator 21.0.0, SVG Export Plug-In . SVG Version: 6.00 Build 0)  -->
<svg version="1.1" id="图层_1" xmlns="http://www.w3.org/2000/svg" xmlns:xlink="http://www.w3.org/1999/xlink" x="0px" y="0px"
	 viewBox="0 0 200 200" style="enable-background:new 0 0 200 200;" xml:space="preserve">
<path d="M159.8,159.9h-25.2v-39.4c0-9.4-0.2-21.5-13.1-21.5c-13.1,0-15.1,10.2-15.1,20.8v40.1H81.2V78.8h24.2v11.1h0.3
	c3.4-6.4,11.6-13.1,23.9-13.1c25.5,0,30.2,16.8,30.2,38.6L159.8,159.9L159.8,159.9z M52.8,67.7c-8.1,0-14.6-6.5-14.6-14.6
	c0,0,0,0,0,0c0-8.1,6.6-14.6,14.6-14.6c8.1,0,14.6,6.6,14.6,14.6C67.4,61.1,60.9,67.7,52.8,67.7L52.8,67.7z M65.4,159.9H40.2V78.8
	h25.3L65.4,159.9L65.4,159.9z M172.4,15H27.6c-7,0-12.6,5.5-12.6,12.2v145.5c0,6.8,5.6,12.2,12.5,12.2h144.9
	c6.9,0,12.6-5.5,12.6-12.2V27.2C185,20.5,179.3,15,172.4,15L172.4,15L172.4,15z"/>
</svg>
