<?xml version="1.0" encoding="utf-8"?>
<!-- Generator: Adobe Illustrator 21.0.0, SVG Export Plug-In . SVG Version: 6.00 Build 0)  -->
<svg version="1.1" id="图层_1" xmlns="http://www.w3.org/2000/svg" xmlns:xlink="http://www.w3.org/1999/xlink" x="0px" y="0px"
	 viewBox="0 0 200 200" style="enable-background:new 0 0 200 200;" xml:space="preserve">
<path d="M146.1,125.5l-10.4-10.2l20.6-20.6c8.4-8.9,13.1-18.6,14.1-29.2c1-10.5-2-19.6-8.9-27.1c-7.5-6.9-16.6-9.9-27.1-8.9
	c-10.5,1-20.3,5.7-29.2,14.1L84.6,64.3L74.5,53.9l20.3-20.3c11.9-11.3,25.1-17.4,39.6-18.4s26.9,3.4,37.3,13.2
	c9.8,10.4,14.2,22.8,13.2,37.3s-7.1,27.6-18.4,39.6L146.1,125.5z M125.5,146.1l-20.3,20.3c-11.9,11.3-25.1,17.4-39.6,18.4
	s-26.9-3.4-37.3-13.2c-9.8-10.4-14.2-22.8-13.2-37.3s7.1-27.6,18.4-39.6l20.3-20.3l10.4,10.2l-20.6,20.6
	c-8.4,8.9-13.1,18.6-14.1,29.2c-1,10.5,2,19.6,8.9,27.1c7.5,6.9,16.6,9.9,27.1,8.9c10.5-1,20.3-5.7,29.2-14.1l20.6-20.6L125.5,146.1
	z M125.5,64.3l10.2,10.2l-61.2,61.2l-10.2-10.2L125.5,64.3z"/>
</svg>
