<?xml version="1.0" encoding="utf-8"?>
<!-- Generator: Adobe Illustrator 21.0.0, SVG Export Plug-In . SVG Version: 6.00 Build 0)  -->
<svg version="1.1" id="图层_1" xmlns="http://www.w3.org/2000/svg" xmlns:xlink="http://www.w3.org/1999/xlink" x="0px" y="0px"
	 viewBox="0 0 200 200" style="enable-background:new 0 0 200 200;" xml:space="preserve">
<path d="M173.7,26.2C158.5,11,134,11,118.9,26.2L84.8,60.3c-2.7,2.7-2.7,7,0,9.7c0,0,0,0,0,0c2.7,2.7,7,2.7,9.7,0c0,0,0,0,0,0
	l34.1-34.1c9.8-9.7,25.6-9.7,35.4,0.1c4.7,4.7,7.3,11,7.3,17.6c0,6.7-2.6,12.9-7.3,17.7l-34.1,34.1c-2.7,2.6-2.7,7-0.1,9.7
	c1.3,1.3,3.1,2.1,5,2c1.8,0,3.6-0.7,4.9-2l34.1-34.1C188.8,65.8,188.8,41.3,173.7,26.2L173.7,26.2z M74.3,56c3.8,0,6.8-3,6.9-6.8
	c0,0,0,0,0,0l0-27.5c0-3.8-3-6.8-6.8-6.9c0,0,0,0,0,0c-3.8,0-6.8,3-6.9,6.8c0,0,0,0,0,0v27.5c0,1.8,0.7,3.6,2,4.8
	C70.7,55.3,72.5,56,74.3,56L74.3,56z M156.4,146.3c-1.3-1.3-3-2-4.8-2c-3.8,0-6.9,3.1-6.9,6.8c0,1.8,0.7,3.6,2,4.9l19.5,19.4
	c2.7,2.7,7,2.7,9.7,0c0,0,0,0,0,0c2.7-2.7,2.7-7,0-9.7c0,0,0,0,0,0L156.4,146.3L156.4,146.3z M178.1,118.6h-27.5
	c-1.8,0-3.6,0.7-4.8,2c-2.7,2.7-2.7,7-0.1,9.7c1.3,1.3,3,2,4.9,2l27.5,0c3.8,0,6.8-3,6.9-6.8c0,0,0,0,0,0
	C185,121.7,182,118.6,178.1,118.6C178.2,118.6,178.2,118.6,178.1,118.6z M125.8,143.6c-3.8,0-6.8,3-6.9,6.8c0,0,0,0,0,0l0,27.5
	c0,3.8,3,6.8,6.8,6.9c0,0,0,0,0,0c3.8,0,6.8-3,6.9-6.8c0,0,0,0,0,0v-27.5c0-1.8-0.7-3.6-2-4.8C129.3,144.4,127.6,143.6,125.8,143.6z
	 M105.5,129.7l-34.1,34.1c-4.7,4.7-11,7.3-17.7,7.3c-6.6,0-13-2.6-17.6-7.3c-9.8-9.7-9.8-25.5-0.1-35.2c0,0,0.1-0.1,0.1-0.1
	l34.1-34.1c2.7-2.7,2.7-7,0-9.7c0,0,0,0,0,0c-2.7-2.7-7-2.7-9.7,0c0,0,0,0,0,0l-34.1,34.1C19.1,126,15,135.8,15,146.1
	c0,10.3,4,20.1,11.3,27.4c7.2,7.3,17.1,11.3,27.4,11.3c9.9,0,19.8-3.8,27.4-11.3l34.1-34.1c2.7-2.7,2.7-7,0-9.7c0,0,0,0,0,0
	C112.5,127,108.2,127,105.5,129.7L105.5,129.7z M43.7,53.3c1.4,1.3,3.1,2,4.8,2c3.8,0,6.9-3.1,6.9-6.8c0-1.8-0.7-3.6-2-4.9
	L33.9,24.2c-2.7-2.7-7-2.7-9.7,0c0,0,0,0,0,0c-2.7,2.7-2.7,7,0,9.7c0,0,0,0,0,0L43.7,53.3L43.7,53.3z M21.9,81h27.5
	c1.8,0,3.6-0.7,4.8-2c2.7-2.7,2.7-7,0.1-9.7c-1.3-1.3-3.1-2-4.9-2l-27.5,0c-3.8,0-6.8,3-6.9,6.8c0,0,0,0,0,0c0,3.7,3,6.8,6.7,6.9
	C21.9,81,21.9,81,21.9,81L21.9,81z"/>
</svg>
