<?xml version="1.0" encoding="utf-8"?>
<!-- Generator: Adobe Illustrator 21.0.0, SVG Export Plug-In . SVG Version: 6.00 Build 0)  -->
<svg version="1.1" id="图层_1" xmlns="http://www.w3.org/2000/svg" xmlns:xlink="http://www.w3.org/1999/xlink" x="0px" y="0px"
	 viewBox="0 0 200 200" style="enable-background:new 0 0 200 200;" xml:space="preserve">
<path d="M100,163.7l38.7-38.7c21.4-21.4,21.4-56.1,0-77.5s-56.1-21.4-77.5,0c-21.4,21.4-21.4,56.1,0,77.5L100,163.7z M100,185.9
	l-49.8-49.8c-27.5-27.5-27.5-72.1,0-99.6s72.1-27.5,99.6,0c27.5,27.5,27.5,72.1,0,99.6L100,185.9z M100,101.9
	c8.6,0,15.6-7,15.6-15.6s-7-15.6-15.6-15.6s-15.6,7-15.6,15.6S91.4,101.9,100,101.9z M100,117.6c-17.3,0-31.3-14-31.3-31.3
	S82.7,55,100,55s31.3,14,31.3,31.3S117.3,117.6,100,117.6z"/>
</svg>
