<?xml version="1.0" encoding="utf-8"?>
<!-- Generator: Adobe Illustrator 21.0.0, SVG Export Plug-In . SVG Version: 6.00 Build 0)  -->
<svg version="1.1" id="图层_1" xmlns="http://www.w3.org/2000/svg" xmlns:xlink="http://www.w3.org/1999/xlink" x="0px" y="0px"
	 viewBox="0 0 200 200" style="enable-background:new 0 0 200 200;" xml:space="preserve">
<path d="M149.8,136.1L100,185.9l-49.8-49.8c-27.5-27.5-27.5-72.1,0-99.6s72.1-27.5,99.6,0C177.3,64,177.3,108.6,149.8,136.1z
	 M100,117.6c17.3,0,31.3-14,31.3-31.3S117.3,55,100,55S68.7,69,68.7,86.3S82.7,117.6,100,117.6z M100,101.9c-8.6,0-15.6-7-15.6-15.6
	s7-15.6,15.6-15.6s15.6,7,15.6,15.6S108.6,101.9,100,101.9z"/>
</svg>
