<?xml version="1.0" encoding="utf-8"?>
<!-- Generator: Adobe Illustrator 21.0.0, SVG Export Plug-In . SVG Version: 6.00 Build 0)  -->
<svg version="1.1" id="图层_1" xmlns="http://www.w3.org/2000/svg" xmlns:xlink="http://www.w3.org/1999/xlink" x="0px" y="0px"
	 viewBox="0 0 200 200" style="enable-background:new 0 0 200 200;" xml:space="preserve">
<path d="M151.4,79V62.6c0-26.3-22.5-47.6-50.2-47.6S51,36.3,51,62.6v16.1C38.7,79.5,29.1,89.2,29.1,101v61.6
	c0,12.4,10.6,22.4,23.6,22.4h94.6c13.1,0,23.6-10,23.6-22.4V101C170.9,90,162.5,80.8,151.4,79L151.4,79z M111.6,136.3v20.7H93.9
	v-20.4c-5.9-2.9-10-8.8-10-15.6c0-9.7,8.3-17.5,18.5-17.5s18.5,7.9,18.5,17.5C121,127.6,117.2,133.3,111.6,136.3L111.6,136.3z
	 M135.4,78.6H66.7V65.5c0-18,15.4-32.6,34.4-32.6s34.4,14.6,34.4,32.6V78.6z"/>
</svg>
