<?xml version="1.0" encoding="utf-8"?>
<!-- Generator: Adobe Illustrator 21.0.0, SVG Export Plug-In . SVG Version: 6.00 Build 0)  -->
<svg version="1.1" id="图层_1" xmlns="http://www.w3.org/2000/svg" xmlns:xlink="http://www.w3.org/1999/xlink" x="0px" y="0px"
	 viewBox="0 0 200 200" style="enable-background:new 0 0 200 200;" xml:space="preserve">
<path d="M50.3,52.4h20.6c2.1,0,3.8,0.7,5.1,2c1.3,1.3,2,3,2,5c0,2-0.7,3.7-2,5c-1.3,1.3-3,2.1-5.1,2.2h-33c-2.1-0.1-3.8-0.9-5.1-2.2
	c-1.3-1.3-2-3-2-4.9v-33c0-2.1,0.7-3.8,2-5.1s3-2,5.1-2c2.1,0,3.8,0.7,5.1,2c1.3,1.3,2,3,2,5.1v11.1c12.7-11.4,27.2-18.4,43.5-21.1
	c16.3-2.7,32.4-0.8,48.1,5.9c15.6,7.1,28,17.6,37.1,31.4c9.1,13.9,13.7,29.4,13.8,46.5c-0.6,24.1-8.9,44.1-24.9,60.1
	c-16,16-36,24.3-60.1,24.9c-24.1-0.6-44.1-8.9-60.1-24.9s-24.3-36-24.9-60.1h14.2c0.4,20.1,7.3,36.8,20.7,50.1
	c13.4,13.4,30.1,20.3,50.1,20.7c20.1-0.4,36.7-7.3,50-20.7c13.3-13.4,20.2-30.1,20.8-50.1c-0.1-14.9-4.3-28.2-12.4-40
	s-19-20.4-32.8-26c-13.9-5.2-27.8-6.2-41.7-3C72.5,34.4,60.5,41.5,50.3,52.4L50.3,52.4z"/>
</svg>
