<?xml version="1.0" encoding="utf-8"?>
<!-- Generator: Adobe Illustrator 21.0.0, SVG Export Plug-In . SVG Version: 6.00 Build 0)  -->
<svg version="1.1" id="图层_1" xmlns="http://www.w3.org/2000/svg" xmlns:xlink="http://www.w3.org/1999/xlink" x="0px" y="0px"
	 viewBox="0 0 200 200" style="enable-background:new 0 0 200 200;" xml:space="preserve">
<path d="M179.2,99.9c-3.4-0.4-6.3,2.1-6.3,5.5c-1.3,18.1-9.7,35.4-23.2,47.7c-13.5,12.7-31.2,19.4-49.8,19.4
	c-14.3,0-28.3-4.2-40.5-12.2c-10.5-7.2-19-16.5-24.5-27.8h16.5c3.4,0,5.9-2.5,5.9-5.9c0-3.4-2.5-5.9-5.9-5.9H21
	c-3.4,0-5.9,2.5-5.9,5.9v30.4c0,3.4,2.5,5.9,5.9,5.9s5.9-2.5,5.9-5.9v-14.3c6.7,11.8,15.6,21.1,26.2,28.3
	c13.9,9.3,30,14.3,46.8,14.3c21.5,0,42.2-8,57.8-22.8s25.3-34.6,26.6-55.7C184.7,103.3,182.6,100.3,179.2,99.9L179.2,99.9z
	 M178.8,36.2c-3.4,0-5.9,2.5-5.9,5.9v14.3c-6.3-11-15.2-20.2-26.2-27.4c-13.5-8.9-30-13.9-46.8-13.9c-21.5,0-42.2,8-57.8,22.8
	s-25.3,34.6-27,55.7c-0.4,3.4,2.1,6.3,5.5,6.3H21c3,0,5.9-2.5,5.9-5.5c1.3-18.1,9.7-35.4,23.2-47.7c13.5-12.7,31.2-19.4,49.8-19.4
	c14.3,0,28.3,4.2,40.5,12.2c10.5,7.2,19,16.5,24.5,27.8h-16.5c-3.4,0-5.9,2.5-5.9,5.9s2.5,5.9,5.9,5.9h30.4c3.4,0,5.9-2.5,5.9-5.9
	V42.1C184.7,39.2,182.1,36.2,178.8,36.2z"/>
</svg>
