<?xml version="1.0" encoding="utf-8"?>
<!-- Generator: Adobe Illustrator 21.0.0, SVG Export Plug-In . SVG Version: 6.00 Build 0)  -->
<svg version="1.1" id="图层_1" xmlns="http://www.w3.org/2000/svg" xmlns:xlink="http://www.w3.org/1999/xlink" x="0px" y="0px"
	 viewBox="0 0 200 200" style="enable-background:new 0 0 200 200;" xml:space="preserve">
<path d="M157.5,37.3V26.3c0-2.1,0.7-3.8,2-5.1c1.3-1.3,3-2,5-2c2,0,3.7,0.7,5,2s2.1,3,2.2,5.1v33c-0.1,1.9-0.9,3.5-2.2,4.9
	c-1.3,1.3-3,2.1-4.9,2.2h-33c-2.1-0.1-3.8-0.9-5.1-2.2c-1.3-1.3-2-3-2-5c0-2,0.7-3.6,2-5s3-2,5.1-2h20.6
	c-11.5-12.1-25.1-19.4-40.6-22c-15.6-2.6-30.7,0-45.3,7.6c-14.5,8-24.9,19.2-31.2,33.6c-6.3,14.5-7.6,29.8-3.8,46
	c4.3,15.9,12.7,28.7,25.1,38.4c12.5,9.7,27,14.6,43.5,14.9c20.1-0.4,36.7-7.3,50-20.7c13.3-13.4,20.2-30.1,20.8-50.1H185
	c-0.6,24.1-8.9,44.1-24.9,60.1s-36,24.3-60.1,24.9c-24.1-0.6-44.1-8.9-60.1-24.9S15.6,124,15,100c0.1-17.1,4.7-32.6,13.7-46.5
	s21.3-24.3,37-31.2c15.8-6.8,31.8-8.8,48.1-6.1S144.7,26,157.5,37.3L157.5,37.3z"/>
</svg>
