<?xml version="1.0" encoding="utf-8"?>
<!-- Generator: Adobe Illustrator 21.0.0, SVG Export Plug-In . SVG Version: 6.00 Build 0)  -->
<svg version="1.1" id="图层_1" xmlns="http://www.w3.org/2000/svg" xmlns:xlink="http://www.w3.org/1999/xlink" x="0px" y="0px"
	 viewBox="0 0 200 200" style="enable-background:new 0 0 200 200;" xml:space="preserve">
<path d="M173.7,37.7c6.3,0,11.3,5.1,11.3,11.3v102c0,6.3-5.1,11.3-11.3,11.3H26.3c-6.3,0-11.3-5.1-11.3-11.3V49
	c0-6.3,5.1-11.3,11.3-11.3l0,0C26.3,37.7,173.7,37.7,173.7,37.7z M122.7,108.8l-10.2,10.3c-6.6,6.6-17.1,6.9-24,0.8l-0.8-0.8
	l-10.3-10.3l-41.1,41.1h127.4L122.7,108.8z M27.5,58.9v82.1L68.5,100L27.5,58.9z M172.5,58.9L131.5,100l41.1,41.1V58.9z M163.7,50.1
	H36.3l60.1,60.1c1.8,1.8,4.7,2,6.7,0.5l0.5-0.5L163.7,50.1z"/>
</svg>
