<?xml version="1.0" encoding="utf-8"?>
<!-- Generator: Adobe Illustrator 21.0.0, SVG Export Plug-In . SVG Version: 6.00 Build 0)  -->
<svg version="1.1" id="图层_1" xmlns="http://www.w3.org/2000/svg" xmlns:xlink="http://www.w3.org/1999/xlink" x="0px" y="0px"
	 viewBox="0 0 200 200" style="enable-background:new 0 0 200 200;" xml:space="preserve">
<path d="M162.3,23.8c6.5,0,11.5,5.4,11.9,11.9l0,0.9l0,16l0.3,0c5.9,0.4,10.5,5.3,10.5,11.3v101.6c0,6.2-5.1,11.3-11.3,11.3H26.3
	c-6.3,0-11.3-5.1-11.3-11.3V63.9c0-6,4.8-11,10.8-11.3v-16c0-6.6,4.7-12.3,11-12.8l0.9,0H162.3z M122.7,123.4l-10.2,10.2
	c-6.6,6.5-17.1,6.9-24,0.8l-0.8-0.8l-10.3-10.2l-41,40.9h127.4L122.7,123.4z M27.5,73.8v81.8l41.1-40.9L27.5,73.8L27.5,73.8z
	 M172.5,73.8l-41,40.9l41,40.9V73.8z M162.1,36.2H37.9c0.2,0,0.3,0,0.3,0.2l0,0.2l0,30.4l58.2,58c1.8,1.8,4.7,2,6.7,0.5l0.5-0.5
	l58.2-58V36.6C161.8,36.2,161.8,36.2,162.1,36.2z"/>
</svg>
