<?xml version="1.0" encoding="utf-8"?>
<!-- Generator: Adobe Illustrator 21.0.0, SVG Export Plug-In . SVG Version: 6.00 Build 0)  -->
<svg version="1.1" id="图层_1" xmlns="http://www.w3.org/2000/svg" xmlns:xlink="http://www.w3.org/1999/xlink" x="0px" y="0px"
	 viewBox="0 0 200 200" style="enable-background:new 0 0 200 200;" xml:space="preserve">
<title>邮箱</title>
<desc>Created with Sketch.</desc>
<g id="页面-1">
	<g id="首页1" transform="translate(-224.000000, -840.000000)">
		<g id="邮箱" transform="translate(224.000000, 840.000000)">
			<path id="形状结合" d="M162.5,32.2c12.3,0,22.2,9.9,22.2,22.2v90.7c0,12.3-10,22.2-22.2,22.2H37c-12.3,0-22.2-10-22.2-22.2
				V54.5c0-12.3,9.9-22.2,22.2-22.2H162.5z M171.7,76.3l-64.5,31.5c-4.7,2.3-10.2,2.3-14.9,0L27.8,76.3l0,68.8
				c0,5.1,4.1,9.2,9.2,9.2h125.5c5.1,0,9.2-4.1,9.2-9.2L171.7,76.3z M162.5,45.3H37c-5.1,0-9.2,4.1-9.2,9.2l0,7.5
				c0.5,0.1,1.1,0.3,1.6,0.5L98.1,96c1.1,0.5,2.4,0.5,3.4,0l68.6-33.5c0.5-0.2,1-0.4,1.6-0.5l0-7.5
				C171.7,49.4,167.6,45.3,162.5,45.3z"/>
		</g>
	</g>
</g>
</svg>
