<?xml version="1.0" encoding="utf-8"?>
<!-- Generator: Adobe Illustrator 21.0.0, SVG Export Plug-In . SVG Version: 6.00 Build 0)  -->
<svg version="1.1" id="图层_1" xmlns="http://www.w3.org/2000/svg" xmlns:xlink="http://www.w3.org/1999/xlink" x="0px" y="0px"
	 viewBox="0 0 200 200" style="enable-background:new 0 0 200 200;" xml:space="preserve">
<path d="M43.3,92.9h113.3c3.9,0,7.1,3.2,7.1,7.1l0,0c0,3.9-3.2,7.1-7.1,7.1H43.3c-3.9,0-7.1-3.2-7.1-7.1l0,0
	C36.3,96.1,39.4,92.9,43.3,92.9z"/>
<path d="M43.3,43.3h70.8c3.9,0,7.1,3.2,7.1,7.1l0,0c0,3.9-3.2,7.1-7.1,7.1H43.3c-3.9,0-7.1-3.2-7.1-7.1l0,0
	C36.3,46.5,39.4,43.3,43.3,43.3z"/>
<path d="M43.3,142.5h113.3c3.9,0,7.1,3.2,7.1,7.1l0,0c0,3.9-3.2,7.1-7.1,7.1H43.3c-3.9,0-7.1-3.2-7.1-7.1l0,0
	C36.3,145.7,39.4,142.5,43.3,142.5z"/>
</svg>
