<?xml version="1.0" encoding="utf-8"?>
<!-- Generator: Adobe Illustrator 21.0.0, SVG Export Plug-In . SVG Version: 6.00 Build 0)  -->
<svg version="1.1" id="图层_1" xmlns="http://www.w3.org/2000/svg" xmlns:xlink="http://www.w3.org/1999/xlink" x="0px" y="0px"
	 viewBox="0 0 200 200" style="enable-background:new 0 0 200 200;" xml:space="preserve">
<title>形状</title>
<desc>Created with Sketch.</desc>
<path id="形状" d="M96.8,105c0.6-2.3,2.2-4.4,6.2-4.5h0.2c10.8,0,20.2-8.8,20.2-20.2c0-11.3-8.8-19.4-20.2-19.4
	c-11.4,0-19.6,8-19.6,19.4c0,2.5-2.6,6.1-7.1,6.1c-4.5,0-6.4-3.6-6.4-6.1c0-8.7,3.6-17.1,9.8-23.2c6.2-6.1,14.6-9.4,23.4-9.3
	c20.1,0,33.2,16.1,33.2,32.5c0,14.5-10.2,28.9-26.5,31.9l0.1,13.9c0,2-1.8,5.7-6.6,5.7c-4.8,0-6.6-3.7-6.6-5.7l-0.1-19.1
	c0-0.1,0-0.2,0-0.3C96.5,106.2,96.6,105.6,96.8,105L96.8,105z M38.5,183.6c-2.5-1.6-3.9-4.5-3.7-7.4l1.6-25.3
	C23.9,136.2,17,117.4,17,98c0-45.4,34.3-83,82.7-83s83.1,35.8,83.1,83c0,47.3-34.5,81.5-83.1,81.5c-11,0-21.8-1.4-32.1-5.7
	l-20.9,10.3C44.1,185.5,40.9,185.3,38.5,183.6L38.5,183.6z M30,98c0,17.1,6.4,33.7,17.4,46.6l1.2,1.4l-1.2,25.4l20.4-11.6l1.9,0.9
	c9.2,4.2,20.1,5.9,30.1,5.9c36,0,69.8-30.6,69.8-68.6c0-38-33.4-70.6-70.1-70.6C60.4,27.4,30,62.1,30,98L30,98z M103.2,153.1
	c-3.7,0-6.6-2.9-6.6-6.6s3-6.6,6.6-6.6c3.7,0,6.6,2.9,6.6,6.6S106.9,153.1,103.2,153.1z"/>
</svg>
