<?xml version="1.0" encoding="utf-8"?>
<!-- Generator: Adobe Illustrator 21.0.0, SVG Export Plug-In . SVG Version: 6.00 Build 0)  -->
<svg version="1.1" id="图层_1" xmlns="http://www.w3.org/2000/svg" xmlns:xlink="http://www.w3.org/1999/xlink" x="0px" y="0px"
	 viewBox="0 0 200 200" style="enable-background:new 0 0 200 200;" xml:space="preserve">
<title>形状</title>
<desc>Created with Sketch.</desc>
<path d="M99.7,15C51.3,15,17,52.6,17,98c0,19.4,6.9,38.2,19.4,52.9l-1.6,25.3c-0.2,2.9,1.2,5.8,3.7,7.4c2.4,1.7,5.6,1.9,8.2,0.5
	l20.9-10.3c10.3,4.3,21.1,5.7,32.1,5.7c48.6,0,83.1-34.2,83.1-81.5C182.8,50.8,148.1,15,99.7,15z M99.8,166.6
	c-10,0-20.9-1.7-30.1-5.9l-1.9-0.9l-20.4,11.6l1.2-25.4l-1.2-1.4C36.4,131.7,30,115.1,30,98c0-35.9,30.4-70.6,69.5-70.6
	c36.7,0,70.1,32.6,70.1,70.6C169.6,136,135.8,166.6,99.8,166.6z"/>
</svg>
