<?xml version="1.0" encoding="utf-8"?>
<!-- Generator: Adobe Illustrator 21.0.0, SVG Export Plug-In . SVG Version: 6.00 Build 0)  -->
<svg version="1.1" id="图层_1" xmlns="http://www.w3.org/2000/svg" xmlns:xlink="http://www.w3.org/1999/xlink" x="0px" y="0px"
	 viewBox="0 0 200 200" style="enable-background:new 0 0 200 200;" xml:space="preserve">
<path d="M146.7,15H53.3c-7.8,0-14,6.3-14,14V171c0,7.8,6.3,14,14,14h93.3c7.8,0,14-6.3,14-14V29C160.7,21.3,154.4,15,146.7,15z
	 M100,177.3c-6,0-10.8-4.8-10.8-10.8s4.8-10.8,10.8-10.8s10.8,4.8,10.8,10.8S106,177.3,100,177.3z M148.4,145.2
	c0,1.9-1.5,3.4-3.4,3.4H54.7c-1.9,0-3.4-1.5-3.4-3.4V30.6c0-1.9,1.5-3.4,3.4-3.4H145c1.9,0,3.4,1.5,3.4,3.4V145.2z"/>
</svg>
