<?xml version="1.0" encoding="utf-8"?>
<!-- Generator: Adobe Illustrator 21.0.0, SVG Export Plug-In . SVG Version: 6.00 Build 0)  -->
<svg version="1.1" id="图层_1" xmlns="http://www.w3.org/2000/svg" xmlns:xlink="http://www.w3.org/1999/xlink" x="0px" y="0px"
	 viewBox="0 0 200 200" style="enable-background:new 0 0 200 200;" xml:space="preserve">
<path d="M144.8,15H54.7c-8.4,0-15,6.6-15,15v139.4c0,8.4,6.6,15.6,15.6,15.6h37.8h20.4h31.2c8.4,0,15.6-6.6,15.6-15.6V30.1
	C160.4,21.6,153.8,15,144.8,15z M85.3,25.8h30c1.2,0,2.4,1.2,2.4,2.4c0,1.2-1.2,2.4-2.4,2.4h-30c-1.2,0-2.4-1.2-2.4-2.4
	C82.9,27,83.5,25.8,85.3,25.8z M99.7,173c-6,0-10.8-4.8-10.8-10.8s4.8-10.8,10.8-10.8s10.8,4.8,10.8,10.8S105.7,173,99.7,173z"/>
</svg>
