<?xml version="1.0" encoding="utf-8"?>
<!-- Generator: Adobe Illustrator 21.0.0, SVG Export Plug-In . SVG Version: 6.00 Build 0)  -->
<svg version="1.1" id="图层_1" xmlns="http://www.w3.org/2000/svg" xmlns:xlink="http://www.w3.org/1999/xlink" x="0px" y="0px"
	 viewBox="0 0 200 200" style="enable-background:new 0 0 200 200;" xml:space="preserve">
<title>模块</title>
<desc>Created with Sketch.</desc>
<path d="M176.5,91.5c4.7,0,8.5,3.8,8.5,8.5v76.5c0,4.7-3.8,8.5-8.5,8.5H117c-2.3,0-4.4-0.9-6-2.5c-1.6-1.6-2.5-3.8-2.5-6V100
	c0-2.3,0.9-4.4,2.5-6c1.6-1.6,3.8-2.5,6-2.5H176.5L176.5,91.5z"/>
<path d="M83,125.5c2.3,0,4.4,0.9,6,2.5c1.6,1.6,2.5,3.8,2.5,6v42.5c0,4.7-3.8,8.5-8.5,8.5H23.5c-4.7,0-8.5-3.8-8.5-8.5V134
	c0-4.7,3.8-8.5,8.5-8.5H83L83,125.5z"/>
<path d="M83,15c4.7,0,8.5,3.8,8.5,8.5V100c0,4.7-3.8,8.5-8.5,8.5H23.5c-4.7,0-8.5-3.8-8.5-8.5V23.5c0-4.7,3.8-8.5,8.5-8.5H83z"/>
<path d="M176.5,15c4.7,0,8.5,3.8,8.5,8.5V66c0,4.7-3.8,8.5-8.5,8.5H117c-2.3,0-4.4-0.9-6-2.5c-1.6-1.6-2.5-3.8-2.5-6V23.5
	c0-2.3,0.9-4.4,2.5-6c1.6-1.6,3.8-2.5,6-2.5H176.5z"/>
</svg>
