<?xml version="1.0" encoding="utf-8"?>
<!-- Generator: Adobe Illustrator 21.0.0, SVG Export Plug-In . SVG Version: 6.00 Build 0)  -->
<svg version="1.1" id="图层_1" xmlns="http://www.w3.org/2000/svg" xmlns:xlink="http://www.w3.org/1999/xlink" x="0px" y="0px"
	 viewBox="0 0 200 200" style="enable-background:new 0 0 200 200;" xml:space="preserve">
<path d="M103.8,25.8c-11.6,9.2-19,23.3-19,39.3c0,27.7,22.4,50.1,50.1,50.1c15.9,0,30.1-7.4,39.3-19c0,0,1.7-2.2,4.7-2.2
	c3.4,0,6.1,2.7,6.1,6.1c0,47-38.1,85-85,85c-46.9,0-85-38.1-85-85s38.1-85,85-85c3.4,0,6.1,2.7,6.1,6.1
	C106.1,24.2,103.8,25.8,103.8,25.8z"/>
</svg>
