<?xml version="1.0" encoding="utf-8"?>
<!-- Generator: Adobe Illustrator 21.0.0, SVG Export Plug-In . SVG Version: 6.00 Build 0)  -->
<svg version="1.1" id="图层_1" xmlns="http://www.w3.org/2000/svg" xmlns:xlink="http://www.w3.org/1999/xlink" x="0px" y="0px"
	 viewBox="0 0 200 200" style="enable-background:new 0 0 200 200;" xml:space="preserve">
<path d="M100,185c-46.9,0-85-38.1-85-85s38.1-85,85-85s85,38.1,85,85S146.9,185,100,185z M90.8,96.3c2-7.1,9.1-13.1,16.9-14
	c1.6,5.9,3.3,11.7,4.6,17.5c0.5,2,0.3,4.2-0.2,6.2c-1.8,7.6-10.6,10.6-16.8,5.8C90.8,108.4,89,102.3,90.8,96.3z M123.2,94.7
	c-1.1-4-2.2-7.9-3.3-12.1c4.3,1.1,7.7,3.1,10.7,5.9c10.7,10.4,11.8,28.1,2.5,40.2c-9.6,12.7-26.8,18.1-42.7,13.6
	c-19.6-5.5-32.4-25.1-29.2-45.2c2.3-15,10.8-25.5,24.6-31.7c3.5-1.5,4.9-4.8,3.6-7.9c-1.3-3.1-4.6-4.3-8-2.9
	C58.1,63.9,44.5,89.8,50.1,114c6.1,26.5,29.7,43.9,56.7,41.3c14.7-1.4,26.9-8.1,35.8-19.9c12.8-17,11-40.7-3.9-55.2
	c-5.7-5.5-12.5-8.7-20.3-9.8c-0.7-0.1-1.8-0.4-2-0.9c-0.7-2.7-1.5-5.4-1.8-8.1c-0.2-3,2.5-5.4,5.5-5.5c2.2,0,3.7,1.1,5.1,2.6
	c2.6,2.5,6,2.7,8.4,0.5c2.5-2.2,2.5-5.8,0.2-8.6c-4.8-5.7-13.5-7.6-20.7-4.4C106,49.1,102,56,103,63.7c0.3,2.4,0.9,4.7,1.4,7.2
	l-2.2,0.6c-7.3,2-13.3,6-17.8,12c-7.8,10.4-8,24-0.3,33.5c10.8,13.5,31.8,10.9,38.4-4.8C124.9,106.5,124.8,100.6,123.2,94.7z"/>
</svg>
