<?xml version="1.0" encoding="utf-8"?>
<!-- Generator: Adobe Illustrator 21.0.0, SVG Export Plug-In . SVG Version: 6.00 Build 0)  -->
<svg version="1.1" id="图层_1" xmlns="http://www.w3.org/2000/svg" xmlns:xlink="http://www.w3.org/1999/xlink" x="0px" y="0px"
	 viewBox="0 0 200 200" style="enable-background:new 0 0 200 200;" xml:space="preserve">
<title>新闻</title>
<desc>Created with Sketch.</desc>
<g id="页面-1">
	<g id="首页1" transform="translate(-457.000000, -313.000000)">
		<g id="新闻" transform="translate(457.000000, 313.000000)">
			<path id="形状" d="M169.1,15H52.2c-8.8,0-15.9,7.1-15.9,15.9v10.6h-5.3c-8.8,0-15.9,7.1-15.9,15.9v106.3
				c0,11.7,9.5,21.3,21.3,21.3h127.5c11.7,0,21.3-9.5,21.3-21.3V30.9C185,22.1,177.9,15,169.1,15z M174.4,163.8
				c0,5.9-4.8,10.6-10.6,10.6H36.3c-5.9,0-10.6-4.8-10.6-10.6V57.5c0-2.9,2.4-5.3,5.3-5.3h5.3v106.3c0,2.9,2.4,5.3,5.3,5.3
				s5.3-2.4,5.3-5.3V30.9c0-2.9,2.4-5.3,5.3-5.3h116.9c2.9,0,5.3,2.4,5.3,5.3V163.8z"/>
			<path id="形状_1_" d="M118.6,84.1h42.5c1.5,0,2.7-1.2,2.7-2.7s-1.2-2.7-2.7-2.7h-42.5c-1.5,0-2.7,1.2-2.7,2.7
				S117.1,84.1,118.6,84.1z M118.6,68.1h42.5c1.5,0,2.7-1.2,2.7-2.7s-1.2-2.7-2.7-2.7h-42.5c-1.5,0-2.7,1.2-2.7,2.7
				S117.1,68.1,118.6,68.1z M118.6,52.2h42.5c1.5,0,2.7-1.2,2.7-2.7s-1.2-2.7-2.7-2.7h-42.5c-1.5,0-2.7,1.2-2.7,2.7
				S117.1,52.2,118.6,52.2z M102.7,158.4H60.2c-1.5,0-2.7,1.2-2.7,2.7s1.2,2.7,2.7,2.7h42.5c1.5,0,2.7-1.2,2.7-2.7
				S104.1,158.4,102.7,158.4z M102.7,142.5H60.2c-1.5,0-2.7,1.2-2.7,2.7s1.2,2.7,2.7,2.7h42.5c1.5,0,2.7-1.2,2.7-2.7
				S104.1,142.5,102.7,142.5z M102.7,126.6H60.2c-1.5,0-2.7,1.2-2.7,2.7s1.2,2.7,2.7,2.7h42.5c1.5,0,2.7-1.2,2.7-2.7
				S104.1,126.6,102.7,126.6z M161.1,158.4h-42.5c-1.5,0-2.7,1.2-2.7,2.7s1.2,2.7,2.7,2.7h42.5c1.5,0,2.7-1.2,2.7-2.7
				S162.6,158.4,161.1,158.4z M161.1,142.5h-42.5c-1.5,0-2.7,1.2-2.7,2.7s1.2,2.7,2.7,2.7h42.5c1.5,0,2.7-1.2,2.7-2.7
				S162.6,142.5,161.1,142.5z M161.1,126.6h-42.5c-1.5,0-2.7,1.2-2.7,2.7s1.2,2.7,2.7,2.7h42.5c1.5,0,2.7-1.2,2.7-2.7
				S162.6,126.6,161.1,126.6z M161.1,94.7H60.2c-1.5,0-2.7,1.2-2.7,2.7s1.2,2.7,2.7,2.7h100.9c1.5,0,2.7-1.2,2.7-2.7
				S162.6,94.7,161.1,94.7z M161.1,110.6H60.2c-1.5,0-2.7,1.2-2.7,2.7s1.2,2.7,2.7,2.7h100.9c1.5,0,2.7-1.2,2.7-2.7
				S162.6,110.6,161.1,110.6z M62.8,84.1H100c2.9,0,5.3-2.4,5.3-5.3V41.6c0-2.9-2.4-5.3-5.3-5.3H62.8c-2.9,0-5.3,2.4-5.3,5.3v37.2
				C57.5,81.7,59.9,84.1,62.8,84.1z M68.1,46.9h26.6v26.6H68.1V46.9z"/>
		</g>
	</g>
</g>
</svg>
