<?xml version="1.0" encoding="utf-8"?>
<!-- Generator: Adobe Illustrator 21.0.0, SVG Export Plug-In . SVG Version: 6.00 Build 0)  -->
<svg version="1.1" id="图层_1" xmlns="http://www.w3.org/2000/svg" xmlns:xlink="http://www.w3.org/1999/xlink" x="0px" y="0px"
	 viewBox="0 0 200 200" style="enable-background:new 0 0 200 200;" xml:space="preserve">
<path d="M72,52.1C62.6,63.2,56.5,79.6,56.1,98v4c0.4,18.4,6.5,34.8,15.9,45.9c12.2,15.8,30.3,25.9,50.6,25.9
	c12.4,0,24.1-3.8,34-10.4c-16.6,14.9-38.4,22.7-60.7,21.5c-45.1-2.1-81-39.3-81-84.9c0-47,38.1-85,85-85h0.3
	c20.8,0.1,40.8,7.8,56.3,21.6c-10-6.6-21.6-10.4-34.1-10.4C102.3,26.2,84.2,36.3,72,52.1L72,52.1z M185,100
	c0,25.2-10.9,47.8-28.3,63.4c-21.8,10.6-42.1,3.2-48.8-1.5c21.4-4.7,37.6-30.6,37.6-61.9c0-31.3-16.2-57.2-37.6-61.9
	c6.7-4.6,27-12.1,48.8-1.5C174.7,52.7,185,75.8,185,100L185,100z"/>
</svg>
