<?xml version="1.0" encoding="utf-8"?>
<!-- Generator: Adobe Illustrator 21.0.0, SVG Export Plug-In . SVG Version: 6.00 Build 0)  -->
<svg version="1.1" id="图层_1" xmlns="http://www.w3.org/2000/svg" xmlns:xlink="http://www.w3.org/1999/xlink" x="0px" y="0px"
	 viewBox="0 0 200 200" style="enable-background:new 0 0 200 200;" xml:space="preserve">
<path d="M153,76.5c-8.3-22.1-29.4-36.8-53.1-36.8c-24.2,0-45.8,15.4-53.7,38.3c-20.6,3.6-34.3,23.2-30.7,43.8
	c3.2,18,18.8,31.2,37.1,31.3H67c5,4.4,11.6,7.1,18.7,7.1h56.7c23.5,0,42.5-19,42.5-42.5C185,97.9,171.4,81.2,153,76.5z M29,115.4
	C29,103.9,37.3,94,48.7,92l8.3-1.4l2.7-8c7.6-22.2,31.8-34.1,54-26.5c9.9,3.4,18.2,10.3,23.2,19.3c-16.1,2.1-29.4,13.1-34.6,28H85.8
	c-15.7,0-28.3,12.7-28.3,28.3c0,2.4,0.3,4.8,0.9,7.1h-5.6C39.7,139,29,128.5,29,115.4z M142.5,146.1H85.8c-7.8,0-14.2-6.3-14.2-14.2
	c0-7.8,6.3-14.2,14.2-14.2h26.6l3.3-9.5c4-11.3,14.7-18.9,26.7-18.9c15.7,0,28.4,12.7,28.4,28.3S158.1,146.1,142.5,146.1z"/>
</svg>
