<?xml version="1.0" encoding="utf-8"?>
<!-- Generator: Adobe Illustrator 21.0.0, SVG Export Plug-In . SVG Version: 6.00 Build 0)  -->
<svg version="1.1" id="图层_1" xmlns="http://www.w3.org/2000/svg" xmlns:xlink="http://www.w3.org/1999/xlink" x="0px" y="0px"
	 viewBox="0 0 200 200" style="enable-background:new 0 0 200 200;" xml:space="preserve">
<title>su-icon-details</title>
<desc>Created with Sketch.</desc>
<path d="M184.9,31.6c0-0.2-0.1-0.4-0.2-0.6c0-0.1-0.1-0.2-0.1-0.3c-0.1-0.3-0.2-0.5-0.3-0.7c0,0,0-0.1-0.1-0.1l-0.5-0.8
	c0,0,0-0.1-0.1-0.1l-0.6-0.6c-0.1-0.1-0.2-0.1-0.2-0.2c-0.3-0.2-0.5-0.3-0.8-0.4H182l-0.8-0.3c-0.1,0-0.2-0.1-0.3-0.1
	c-0.2-0.1-0.4-0.1-0.7-0.1H179c-0.3,0-0.5,0.1-0.8,0.2c-0.1,0-0.2,0.1-0.3,0.1c-0.1,0-0.2,0.1-0.3,0.1l-93,42.5L54.6,40.1
	c-2.4-2.4-6.2-2.4-8.6,0s-2.4,6.2,0,8.6l27,27L18,100.8c-1.8,0.9-3,2.6-3,4.7c0,2,1.1,3.8,2.9,4.8l48,23.9l4.2,33.9
	c0.3,2.1,1.7,3.8,3.7,4.3c0.4,0.2,1,0.2,1.4,0.2c1.6,0,3-0.7,4.1-2l17-21.3l35.6,17.5c0.2,0.1,0.4,0.2,0.6,0.3l0.1,0.1c0,0,0,0,0,0
	c0.6,0.2,1.2,0.3,1.9,0.3c2.1,0,3.9-1.3,4.7-3l0,0l0,0c0.1-0.3,0.2-0.6,0.3-0.9l5.5-15.8l12.5,12.5c2.4,2.4,6.2,2.4,8.6,0
	s2.4-6.2,0-8.6L149.5,135l35.2-100.8c0-0.1,0.1-0.2,0.1-0.3c0-0.1,0.1-0.2,0.1-0.3c0-0.3,0.1-0.5,0.1-0.8v-1
	C185,31.8,185,31.7,184.9,31.6z M151,51.4l-44.8,40.3L92.6,78.1L151,51.4z M69.8,124.4l-37.5-18.7l48.5-22.2l16.3,16.3L69.8,124.4z
	 M78.8,154.4L77,139.6l9.8,4.9L78.8,154.4z M131.3,155l-34-16.9l-17.4-8.7l24.6-22.1l32.2,32.2L131.3,155z M141.3,126.8l-27.7-27.7
	l54.8-49.2L141.3,126.8z"/>
</svg>
