<?xml version="1.0" encoding="utf-8"?>
<!-- Generator: Adobe Illustrator 21.0.0, SVG Export Plug-In . SVG Version: 6.00 Build 0)  -->
<svg version="1.1" id="图层_1" xmlns="http://www.w3.org/2000/svg" xmlns:xlink="http://www.w3.org/1999/xlink" x="0px" y="0px"
	 viewBox="0 0 200 200" style="enable-background:new 0 0 200 200;" xml:space="preserve">
<path d="M184.9,31.6c0-0.2-0.1-0.4-0.2-0.6c0-0.1-0.1-0.2-0.1-0.3c-0.1-0.3-0.2-0.5-0.3-0.7c0,0,0-0.1-0.1-0.1l-0.5-0.8
	c0,0,0-0.1-0.1-0.1l-0.6-0.6c-0.1-0.1-0.2-0.1-0.2-0.2c-0.3-0.2-0.5-0.3-0.8-0.4l-0.8-0.3c-0.1,0-0.2-0.1-0.3-0.1
	c-0.2-0.1-0.4-0.1-0.7-0.1H179c-0.3,0-0.5,0.1-0.8,0.2c-0.1,0-0.2,0.1-0.3,0.1c-0.1,0-0.2,0.1-0.3,0.1L18,100.8
	c-1.8,0.9-3,2.6-3,4.7c0,2,1.1,3.8,2.9,4.8l48,23.9l4.2,33.9c0.3,2.1,1.7,3.8,3.7,4.3c0.4,0.2,1,0.2,1.4,0.2c1.6,0,3-0.7,4.1-2
	l17-21.3l35.6,17.5c0.2,0.1,0.4,0.2,0.6,0.3l0.1,0.1c0.6,0.2,1.2,0.3,1.9,0.3c2.1,0,3.9-1.3,4.7-3c0.1-0.3,0.2-0.6,0.3-0.9l5.5-15.8
	l39.7-113.6c0-0.1,0.1-0.2,0.1-0.3c0-0.1,0.1-0.2,0.1-0.3c0-0.3,0.1-0.5,0.1-0.8v-1C185,31.8,185,31.7,184.9,31.6z M69.8,124.4
	l-37.5-18.7L151,51.4L69.8,124.4z M78.8,154.4L77,139.6l9.8,4.9L78.8,154.4z M131.3,155l-34-16.9l-17.4-8.7l88.5-79.5L131.3,155z"/>
</svg>
