<?xml version="1.0" encoding="utf-8"?>
<!-- Generator: Adobe Illustrator 21.0.0, SVG Export Plug-In . SVG Version: 6.00 Build 0)  -->
<svg version="1.1" id="图层_1" xmlns="http://www.w3.org/2000/svg" xmlns:xlink="http://www.w3.org/1999/xlink" x="0px" y="0px"
	 viewBox="0 0 200 200" style="enable-background:new 0 0 200 200;" xml:space="preserve">
<path d="M74.9,125.1c16.1,16.1,30.6,18.7,35.4,14c7.9-7.9,20.7-7.8,28.7,0.1l11.4,11.4c5,5,5,13,0.1,17.9l-10.6,10.6
	c-3.9,3.9-9.3,5.9-14.8,5.9c-18.5-0.2-43.6-17.5-68.1-42S15.2,93.5,15,74.9c0-5.5,2-10.9,5.9-14.8l10.6-10.6
	c4.9-4.9,13-4.9,17.9,0.1l11.4,11.4c8,8,8,20.8,0.1,28.7C56.2,94.5,58.7,109,74.9,125.1L74.9,125.1z"/>
<path d="M185,107.7c0,4.3-3.5,7.7-7.7,7.7s-7.7-3.5-7.7-7.7c0,0,0,0,0,0c0-42.7-34.6-77.3-77.3-77.3c-4.3,0-7.7-3.5-7.7-7.7
	c0-4.3,3.5-7.7,7.7-7.7c0,0,0,0,0,0C143.5,15,185,56.5,185,107.7z"/>
<path d="M150.2,107.7c0,4.3-3.5,7.7-7.7,7.7s-7.7-3.5-7.7-7.7c0,0,0,0,0,0c0-23.5-19-42.5-42.5-42.5c-4.3,0-7.7-3.5-7.7-7.7
	c0-4.3,3.5-7.7,7.7-7.7c0,0,0,0,0,0C124.3,49.8,150.2,75.7,150.2,107.7z"/>
</svg>
