<?xml version="1.0" encoding="utf-8"?>
<!-- Generator: Adobe Illustrator 21.0.0, SVG Export Plug-In . SVG Version: 6.00 Build 0)  -->
<svg version="1.1" id="图层_1" xmlns="http://www.w3.org/2000/svg" xmlns:xlink="http://www.w3.org/1999/xlink" x="0px" y="0px"
	 viewBox="0 0 200 200" style="enable-background:new 0 0 200 200;" xml:space="preserve">
<path d="M25.6,33c5.8-8.9,13.7-19.1,24.2-19.1c3,0,7.6,0.9,12.1,5.4c4.2,4.1,10.1,10.5,14.5,17.5c5.6,8.7,7.4,15.8,5.5,21.8
	c-1.2,4-5,7.9-11.7,14.6l-0.1,0.1c-2.8,2.8-6,6-7.2,7.8c-1.1,1.6,0.3,6,3.7,11.4c4.5,7.1,11.9,15.2,18.6,22.3
	c5.7,5.4,12.4,11.6,18.7,16.1c7.9,5.7,11.9,6.5,13.6,6.5c0.8,0,1.2-0.2,1.4-0.4c1.7-1.2,4.7-4.2,7.8-7.3
	c6.9-6.8,10.7-10.4,14.6-11.6c1.5-0.5,3.2-0.7,4.8-0.7c5.4,0,11.6,2.4,18.9,7.5c6.2,4.3,11.9,9.6,15.6,13.3
	c5.1,5.1,5.7,10.3,5.3,13.7c-1,9.7-10.7,17.1-19,22.5c-9.7,6.3-20.9,9.5-33.3,9.5c-25.6,0-54.3-14.1-78.9-38.7
	c-8.3-8.2-15.7-17.4-22-27.3c-6-9.6-10.5-19.4-13.3-29C13.4,68,15.5,48.6,25.6,33L25.6,33z M32.4,85.2c2.4,8.4,6.4,17,11.8,25.6
	c5.7,9,12.5,17.4,20.1,24.9c5.6,5.6,11.5,10.7,17.5,15.1c5.9,4.3,11.9,8,18,11c5.9,2.9,11.8,5.1,17.6,6.6c5.7,1.5,11.1,2.2,16.4,2.2
	c9.7,0,18.4-2.5,26-7.4c3.1-2,7-4.7,9.7-7.5c2.6-2.7,3.1-4.4,3.2-5.1c0-0.4,0.1-1.3-1.4-2.8c-4.8-4.8-9.5-8.8-13.7-11.7
	c-6.4-4.4-9.8-5.1-11.2-5.1c-0.2,0-0.5,0-0.7,0.1c-0.8,0.5-1.6,1.1-2.3,1.7c-1.8,1.5-4,3.6-7,6.7c-4.4,4.3-7.2,7-9.4,8.6l-0.3,0.2
	c-2.7,1.8-5.8,2.8-9,2.7c-3.1,0-6.3-0.7-9.8-2.2c-3.5-1.5-7.3-3.8-11.6-6.8c-6.9-5-14-11.6-20.1-17.3l-0.2-0.2l-0.3-0.3
	c-7.5-7.9-15.1-16.3-20.3-24.4c-1.8-2.8-3.4-5.9-4.6-9c-0.8-2.2-1.4-4.5-1.5-6.9c-0.3-3.7,0.7-7.4,2.8-10.4c1.7-2.3,4.4-5.1,8.3-9.1
	l0.4-0.4c3-3,5.2-5.3,6.7-7c1.1-1.3,1.6-2,1.7-2.3c0.4-1.5-0.5-5-4-10.4c-3.8-5.8-9-11.5-12.7-15.2l0,0c-1-1-1.9-1.5-2.6-1.5
	c-1.2,0-3,1-4.9,2.8c-3,2.8-5.9,6.9-8,10.2c-3.9,6.1-6.3,13-7,20.2C29,68.2,29.8,76.5,32.4,85.2L32.4,85.2z"/>
</svg>
