<?xml version="1.0" encoding="utf-8"?>
<!-- Generator: Adobe Illustrator 21.0.0, SVG Export Plug-In . SVG Version: 6.00 Build 0)  -->
<svg version="1.1" id="图层_1" xmlns="http://www.w3.org/2000/svg" xmlns:xlink="http://www.w3.org/1999/xlink" x="0px" y="0px"
	 viewBox="0 0 200 200" style="enable-background:new 0 0 200 200;" xml:space="preserve">
<path d="M25.6,33c5.8-8.9,13.7-19.1,24.2-19.1c3,0,7.6,0.9,12.1,5.4c4.2,4.1,10.1,10.5,14.5,17.5c5.6,8.7,7.4,15.8,5.5,21.8
	c-1.2,4-5,7.9-11.7,14.6l-0.1,0.1c-2.8,2.8-6,6-7.2,7.8c-1.1,1.6,0.3,6,3.7,11.4c4.5,7.1,11.9,15.2,18.6,22.3
	c5.7,5.4,12.4,11.6,18.7,16.1c7.9,5.7,11.9,6.5,13.6,6.5c0.8,0,1.2-0.2,1.4-0.4c1.7-1.2,4.7-4.2,7.8-7.3
	c6.9-6.8,10.7-10.4,14.6-11.6c1.5-0.5,3.2-0.7,4.8-0.7c5.4,0,11.6,2.4,18.9,7.5c6.2,4.3,11.9,9.6,15.6,13.3
	c5.1,5.1,5.7,10.3,5.3,13.7c-1,9.7-10.7,17.1-19,22.5c-9.7,6.3-20.9,9.5-33.3,9.5c-25.6,0-54.3-14.1-78.9-38.7
	c-8.3-8.2-15.7-17.4-22-27.3c-6-9.6-10.5-19.4-13.3-29C13.4,68,15.5,48.6,25.6,33L25.6,33z"/>
</svg>
