<?xml version="1.0" encoding="utf-8"?>
<!-- Generator: Adobe Illustrator 21.0.0, SVG Export Plug-In . SVG Version: 6.00 Build 0)  -->
<svg version="1.1" id="图层_1" xmlns="http://www.w3.org/2000/svg" xmlns:xlink="http://www.w3.org/1999/xlink" x="0px" y="0px"
	 viewBox="0 0 200 200" style="enable-background:new 0 0 200 200;" xml:space="preserve">
<path d="M111.6,15.8C65.1,9.4,22.2,41.9,15.8,88.4c-5.2,37.7,15.3,74.2,50.2,89.5c-0.5-6.5,0-13.1,1.4-19.5c1.6-7.1,11-46.4,11-46.4
	c-1.9-4.2-2.8-8.8-2.8-13.4c0-12.6,7.3-22,16.3-22c6.3-0.1,11.4,4.9,11.5,11.2c0,0.5,0,1.1-0.1,1.6c0,7.6-4.9,19.2-7.5,30.1
	c-1.8,7,2.5,14.2,9.5,16c1.3,0.3,2.6,0.5,3.9,0.4c16.1,0,26.9-20.7,26.9-45.1c0-18.7-12.4-32.7-35.2-32.7
	c-22.3-0.9-41,16.5-41.9,38.7c0,0.7,0,1.3,0,2c-0.2,6.1,1.7,12,5.5,16.7c1.5,1.1,2,3,1.4,4.7c-0.4,1.6-1.4,5.3-1.8,6.7
	c-0.3,1.6-1.8,2.7-3.5,2.4c-0.3-0.1-0.6-0.1-0.9-0.3c-11.8-4.7-17.3-17.7-17.3-32.4c0-24.2,20.3-53.2,60.8-53.2
	c32.3,0,53.7,23.6,53.7,48.8c0,33.2-18.5,58.2-45.8,58.2c-8.3,0.3-16.2-3.7-20.9-10.6c0,0-4.9,19.7-5.9,23.4
	c-2,6.4-4.9,12.5-8.7,18.1c7.8,2.4,16,3.6,24.2,3.5c46.9,0,84.9-37.9,85-84.8c0-0.1,0-0.1,0-0.2C185,57.5,153.7,21.6,111.6,15.8
	L111.6,15.8z"/>
</svg>
