<?xml version="1.0" encoding="utf-8"?>
<!-- Generator: Adobe Illustrator 21.0.0, SVG Export Plug-In . SVG Version: 6.00 Build 0)  -->
<svg version="1.1" id="图层_1" xmlns="http://www.w3.org/2000/svg" xmlns:xlink="http://www.w3.org/1999/xlink" x="0px" y="0px"
	 viewBox="0 0 200 200" style="enable-background:new 0 0 200 200;" xml:space="preserve">
<path d="M183.3,135.4c-3.3,4.2-11.5,7.2-11.5,7.2l-60.5,21.8v-16.1l44.5-15.9c5.1-1.8,5.8-4.4,1.7-5.7c-4.1-1.4-11.5-1-16.6,0.9
	L111.3,138v-16.7l1.7-0.6c0,0,8.6-3,20.6-4.4c12.1-1.3,26.8,0.2,38.4,4.6C185.1,125.1,186.6,131.2,183.3,135.4L183.3,135.4z
	 M117,108V67c0-4.8-0.9-9.3-5.4-10.5c-3.5-1.1-5.6,2.1-5.6,6.9v102.8l-27.7-8.8V34.8c11.8,2.2,28.9,7.4,38.2,10.5
	c23.5,8.1,31.4,18.1,31.4,40.7C147.9,108,134.3,116.4,117,108L117,108z M27.5,146.6c-13.4-3.8-15.6-11.7-9.5-16.2
	c5.6-4.2,15.3-7.3,15.3-7.3L73,108.9V125l-28.6,10.2c-5,1.8-5.8,4.4-1.7,5.7c4.1,1.4,11.5,1,16.6-0.9l13.7-5v14.4l-2.7,0.5
	C56.5,152.3,41.9,151.3,27.5,146.6z"/>
</svg>
