<?xml version="1.0" standalone="no"?><!DOCTYPE svg PUBLIC "-//W3C//DTD SVG 1.1//EN" "http://www.w3.org/Graphics/SVG/1.1/DTD/svg11.dtd"><svg class="icon" width="200px" height="200.00px" viewBox="0 0 1024 1024" version="1.1" xmlns="http://www.w3.org/2000/svg"><path d="M710.656 89.043478c26.668522 0 52.246261 10.640696 71.101217 29.584696a101.197913 101.197913 0 0 1 29.451131 71.390609v110.703304h71.590956c46.681043 0.089043 84.658087 37.064348 85.303653 83.055304v202.662957a83.611826 83.611826 0 0 1-24.798609 59.814956 86.082783 86.082783 0 0 1-60.505044 24.909913l-62.886956-0.02226v174.235826c0 55.763478-45.011478 100.975304-100.530087 100.975304H317.19513c-55.54087 0-100.552348-45.211826-100.552347-100.975304L216.598261 670.497391h-73.46087c-46.792348-0.089043-84.813913-37.264696-85.281391-83.389217V383.777391c0.645565-45.990957 38.622609-82.966261 85.281391-83.055304h81.519305V190.018783C224.678957 134.255304 269.690435 89.043478 325.231304 89.043478h385.424696z m8.726261 458.106435H317.19513c-18.521043 0-33.52487 15.070609-33.524869 33.658435v264.570435c0 18.587826 15.003826 33.658435 33.524869 33.658434h402.187131c18.498783 0 33.502609-15.070609 33.502609-33.658434V580.786087c0-18.587826-15.003826-33.658435-33.502609-33.658435z m-81.029565 184.230957a33.391304 33.391304 0 1 1 0 66.782608H387.873391a33.391304 33.391304 0 1 1 0-66.782608h250.479305z m0-128.578783a33.391304 33.391304 0 1 1 0 66.782609H387.873391a33.391304 33.391304 0 1 1 0-66.782609h250.479305z m244.446608-235.631304H143.159652a17.92 17.92 0 0 0-17.853217 16.606608v202.662957c0 9.728 8.013913 17.608348 17.853217 17.608348h73.46087v-23.240348c0-55.763478 45.033739-100.975304 100.574608-100.975305h402.187131c55.518609 0 100.552348 45.189565 100.552348 100.975305l-0.022261 23.885913 62.886956 0.022261a17.741913 17.741913 0 0 0 17.875479-17.608348V383.777391a17.92 17.92 0 0 0-17.875479-16.606608z m-640.044521 18.231652a33.391304 33.391304 0 1 1 0 66.782608H207.693913a33.391304 33.391304 0 1 1 0-66.782608h35.06087z m467.923478-229.042087H325.231304c-18.521043 0-33.52487 15.070609-33.524869 33.658435v108.900174H744.18087V190.018783c0-8.904348-3.539478-17.474783-9.817044-23.819131a33.435826 33.435826 0 0 0-23.707826-9.839304z" /></svg>