<svg id="图层_1" data-name="图层 1" xmlns="http://www.w3.org/2000/svg" viewBox="0 0 60 60"><title>数据资产图标-前台</title><path d="M46.64,20.09a1.6,1.6,0,1,0,.8-1.39,1.6,1.6,0,0,0-.8,1.39Zm0,0"/><path d="M29.18,20.16c-5,0-9.28-4.19-10.93-7-1.43-2.43-1.13-5.42.7-7a2.47,2.47,0,0,1,1.6-.59,4.43,4.43,0,0,1,2,.61,4.71,4.71,0,0,0,2.15.65,4.74,4.74,0,0,0,2.07-.55,3.78,3.78,0,0,1,1.67-.37A8.34,8.34,0,0,1,32,7a6.09,6.09,0,0,0,1.88.71c2.83-1.35,4.41-1.46,5.94-.44a3,3,0,0,1,1.34,2.32c.13,1.82-1.18,3.68-2.34,4.72-.23.21-.5.5-.83.84C36.23,17.06,33.32,20.16,29.18,20.16ZM20.71,8.67a2.77,2.77,0,0,0,.12,3c1.26,2.14,4.63,5.53,8.35,5.53,2.84,0,5.1-2.41,6.6-4,.39-.42.73-.77,1-1a3.61,3.61,0,0,0,1.34-2.32.86.86,0,0,0-.51-.15,5.81,5.81,0,0,0-2.34.78,3.15,3.15,0,0,1-1.42.33,7.56,7.56,0,0,1-3.2-1c-1-.49-2.06-1-2.6-.73a7.74,7.74,0,0,1-3.38.85,7.46,7.46,0,0,1-3.48-1Z"/><path d="M29.2,54.4C16,54.4,8.66,54.4,8.66,43.79c0-11.45,9.16-25.27,20.53-25.27S49.73,32.34,49.73,43.79C49.73,54.4,42.87,54.4,29.2,54.4Zm0-32.89c-9.44,0-17.53,12.25-17.53,22.27,0,7.34,3.35,7.62,17.53,7.62,14.47,0,17.54-.26,17.54-7.62C46.73,33.76,38.64,21.52,29.2,21.52Z"/><path d="M44.27,25.57c-.93-1.64-8.55-5.83-12.2-6.7l-.31.11-.11,0a22.32,22.32,0,0,1-3.31.46l-1.74.6C23.2,21.25,19,22.73,17,23a2.13,2.13,0,0,1-2.18-1,3.27,3.27,0,0,1,.42-3.5c.52-.67,2.09-2.13,5.36-1.23a23,23,0,0,0,7.44.69c.83-.28,1.53-.51,2-.66a4.1,4.1,0,0,1,1.75,0c1.65-.52,6-1.59,8.93.5s6,2.08,6.81,1.7l.65,1.46c-1.36.61-4.84.65-8.39-1.86A7.06,7.06,0,0,0,35,18.21c4.31,1.66,9.71,4.87,10.68,6.57ZM18.63,18.74a2,2,0,0,0-1.49.73,1.36,1.36,0,0,0-.24,1.41.42.42,0,0,0,.48.21A39.79,39.79,0,0,0,23,19.46a18,18,0,0,1-2.86-.54,4.49,4.49,0,0,0-1.52-.18Z"/><path d="M43.5,25.12a1.6,1.6,0,1,0,.8-1.39,1.6,1.6,0,0,0-.8,1.39Zm0,0"/><path d="M23.63,29.57l5,5a1.26,1.26,0,0,1,.59-.16,1.23,1.23,0,0,1,.61.18l4.91-4.91a1.24,1.24,0,1,1,1.75,1.75L31,37h3.34a1.27,1.27,0,1,1,0,2.55H30.52v2.55h3.82a1.27,1.27,0,0,1,0,2.55H30.52v2.55a1.27,1.27,0,0,1-2.55,0V44.63H24.16a1.27,1.27,0,0,1,0-2.55H28V39.54H24.16a1.27,1.27,0,1,1,0-2.55h3.29l-5.62-5.62a1.27,1.27,0,0,1,1.8-1.8Z"/></svg>