<svg id="图层_1" data-name="图层 1" xmlns="http://www.w3.org/2000/svg" viewBox="0 0 60 60"><title>CW</title><path d="M46.64,20.09a1.6,1.6,0,1,0,.8-1.39,1.6,1.6,0,0,0-.8,1.39Zm0,0"/><path d="M29.18,20.16c-5,0-9.28-4.19-10.93-7-1.43-2.43-1.13-5.42.7-7a2.47,2.47,0,0,1,1.6-.59,4.43,4.43,0,0,1,2,.61,4.7,4.7,0,0,0,2.15.65,4.74,4.74,0,0,0,2.07-.55,3.8,3.8,0,0,1,1.67-.37A8.34,8.34,0,0,1,32,7a6.11,6.11,0,0,0,1.88.71c2.84-1.35,4.41-1.46,5.94-.44a3,3,0,0,1,1.34,2.32c.13,1.82-1.18,3.68-2.34,4.72-.23.21-.5.5-.83.84C36.23,17.06,33.32,20.16,29.18,20.16ZM20.71,8.67a2.7,2.7,0,0,0,.12,3c1.26,2.14,4.63,5.53,8.35,5.53,2.84,0,5.1-2.41,6.6-4,.39-.42.73-.77,1-1a3.53,3.53,0,0,0,1.34-2.32.86.86,0,0,0-.51-.15,5.82,5.82,0,0,0-2.35.78,3.15,3.15,0,0,1-1.42.32,7.55,7.55,0,0,1-3.2-1c-1-.49-2-1-2.6-.73a7.74,7.74,0,0,1-3.38.85,7.45,7.45,0,0,1-3.48-1Z"/><path d="M29.2,54.4C16,54.4,8.66,54.4,8.66,43.79c0-11.45,9.16-25.27,20.53-25.27S49.73,32.34,49.73,43.79C49.73,54.4,42.87,54.4,29.2,54.4Zm0-32.89c-9.44,0-17.53,12.25-17.53,22.27,0,7.34,3.35,7.61,17.53,7.61,14.47,0,17.54-.26,17.54-7.61C46.73,33.76,38.64,21.52,29.2,21.52Z"/><path d="M44.27,25.57c-.93-1.64-8.55-5.83-12.2-6.7l-.31.11-.11,0a22.32,22.32,0,0,1-3.31.46l-1.74.6C23.2,21.25,19,22.73,17,23a2.13,2.13,0,0,1-2.18-1,3.27,3.27,0,0,1,.42-3.5c.52-.67,2.09-2.13,5.36-1.23a23,23,0,0,0,7.44.69c.83-.28,1.53-.51,2-.66a4.1,4.1,0,0,1,1.75,0c1.65-.52,6-1.59,8.93.5s6,2.08,6.81,1.7l.65,1.46c-1.36.61-4.84.65-8.39-1.86A7.06,7.06,0,0,0,35,18.21c4.31,1.66,9.71,4.87,10.68,6.57ZM18.63,18.74a2,2,0,0,0-1.49.73,1.36,1.36,0,0,0-.24,1.41.42.42,0,0,0,.48.21A39.79,39.79,0,0,0,23,19.46a18,18,0,0,1-2.86-.54,4.49,4.49,0,0,0-1.52-.18Z"/><path d="M43.5,25.12a1.6,1.6,0,1,0,.8-1.39,1.6,1.6,0,0,0-.8,1.39Zm0,0"/><path d="M27.71,48.75a2.19,2.19,0,0,1-.72-.12l-2.87-1a2.23,2.23,0,0,1-1.47-2.35,2.06,2.06,0,0,0-1.4-2.15,2.16,2.16,0,0,0-.64-.12,2.21,2.21,0,0,1-2.11-1.78l-.59-3a2.22,2.22,0,0,1,1.34-2.48,1.93,1.93,0,0,0,1-2.76,2.22,2.22,0,0,1,.49-2.77l2.31-2a2.21,2.21,0,0,1,2.76-.08,2.17,2.17,0,0,0,.58.31,2.06,2.06,0,0,0,2.43-.82,2.23,2.23,0,0,1,2.62-.93l2.87,1a2.23,2.23,0,0,1,1.47,2.35,2.06,2.06,0,0,0,1.4,2.15,2.16,2.16,0,0,0,.64.12,2.21,2.21,0,0,1,2.11,1.78l.59,3a2.22,2.22,0,0,1-1.34,2.48A1.93,1.93,0,0,0,38,40.76h0a1.93,1.93,0,0,0,.15,1.6,2.22,2.22,0,0,1-.49,2.77l-2.31,2a2.21,2.21,0,0,1-2.76.08,2.17,2.17,0,0,0-.58-.31,2.06,2.06,0,0,0-2.43.82A2.23,2.23,0,0,1,27.71,48.75Zm-2.4-3.52,2.23.78a4.74,4.74,0,0,1,5.37-1.64,4.82,4.82,0,0,1,1,.49l1.79-1.52a4.58,4.58,0,0,1,2.11-6L37.36,35a4.77,4.77,0,0,1-4.27-4.86l-2.23-.78a4.76,4.76,0,0,1-6.37,1.15L22.7,32a4.58,4.58,0,0,1-2.11,6l.45,2.3a4.77,4.77,0,0,1,4.27,4.86Zm0,.35h0Zm8.92-.53h0Zm2.58-4.73h0ZM20.26,38.22h0Zm12.85-8.44h0Z"/><path d="M29.19,43.23a5.55,5.55,0,1,1,5.25-3.72A5.53,5.53,0,0,1,29.19,43.23Zm0-8.45a2.9,2.9,0,1,0,1,.16A2.9,2.9,0,0,0,29.2,34.78Z"/></svg>