<?xml version="1.0" encoding="utf-8"?>
<!-- Generator: Adobe Illustrator 21.0.0, SVG Export Plug-In . SVG Version: 6.00 Build 0)  -->
<svg version="1.1" id="图层_1" xmlns="http://www.w3.org/2000/svg" xmlns:xlink="http://www.w3.org/1999/xlink" x="0px" y="0px"
	 viewBox="0 0 200 200" style="enable-background:new 0 0 200 200;" xml:space="preserve">
<path d="M97.4,130.4c3.5,0,6.8,1.3,9.3,3.4c3.3-16,19-26.3,35.1-23c9.9,2.1,18.1,9,21.7,18.5c13.8,2,23.4,14.9,21.3,28.7
	c-1.7,11.5-11,20.4-22.6,21.5c-0.6,0.1-1.2,0.1-1.8,0.1H93.8l-0.7,0c-43.9-0.8-78.8-37-78-80.9s37-78.8,80.9-78
	c43.9,0.8,78.8,37,78,80.9c-0.1,7.5-1.3,15-3.6,22.1c-0.6-0.2-1.3-0.4-1.9-0.6c-4.8-9.4-13.4-16.2-23.6-18.9
	c2.3-27.9-18.5-52.3-46.4-54.5c-27.9-2.3-52.3,18.5-54.5,46.4C42,121.2,59,144,83.7,149.4c-2.6-7.6,1.5-15.7,9-18.3
	C94.3,130.6,95.8,130.4,97.4,130.4L97.4,130.4z"/>
</svg>
