<?xml version="1.0" encoding="utf-8"?>
<!-- Generator: Adobe Illustrator 21.0.0, SVG Export Plug-In . SVG Version: 6.00 Build 0)  -->
<svg version="1.1" id="图层_1" xmlns="http://www.w3.org/2000/svg" xmlns:xlink="http://www.w3.org/1999/xlink" x="0px" y="0px"
	 viewBox="0 0 200 200" style="enable-background:new 0 0 200 200;" xml:space="preserve">
<path d="M166.5,121.5c-3.4-10.9-7.3-20.1-13.3-35.1C154.1,46.9,137.7,15,99.9,15c-38.2,0-54.2,32.6-53.2,71.4
	c-6,15-9.9,24.2-13.3,35.1c-7.2,23.3-4.9,32.9-3.1,33.1c3.8,0.5,14.9-17.5,14.9-17.5c0,10.4,5.4,24,17,33.8
	c-5.6,1.7-18.2,6.4-15.2,11.4c2.4,4.1,41.7,2.6,53,1.3c11.3,1.3,50.6,2.8,53-1.3c3-5.1-9.6-9.7-15.2-11.4c11.6-9.8,17-23.4,17-33.8
	c0,0,11.1,18,14.9,17.5C171.3,154.4,173.7,144.8,166.5,121.5z"/>
</svg>
