<?xml version="1.0" encoding="utf-8"?>
<!-- Generator: Adobe Illustrator 21.0.0, SVG Export Plug-In . SVG Version: 6.00 Build 0)  -->
<svg version="1.1" id="图层_1" xmlns="http://www.w3.org/2000/svg" xmlns:xlink="http://www.w3.org/1999/xlink" x="0px" y="0px"
	 viewBox="0 0 200 200" style="enable-background:new 0 0 200 200;" xml:space="preserve">
<path d="M100,185c-46.9,0-85-38.1-85-85s38.1-85,85-85s85,38.1,85,85S146.9,185,100,185z M100,168c37.6,0,68-30.4,68-68
	s-30.4-68-68-68s-68,30.4-68,68S62.4,168,100,168z M91.5,125.5h17v17h-17V125.5z M108.5,111.5v5.5h-17v-12.8c0-4.7,3.8-8.5,8.5-8.5
	c7,0,12.7-5.7,12.7-12.8c0-7-5.7-12.7-12.8-12.7c-6.1,0-11.3,4.3-12.5,10.3l-16.7-3.3c3.2-16.1,18.9-26.6,35-23.3s26.6,18.9,23.3,35
	C127,99.6,119.1,108.4,108.5,111.5z"/>
</svg>
