<?xml version="1.0" encoding="utf-8"?>
<!-- Generator: Adobe Illustrator 21.0.0, SVG Export Plug-In . SVG Version: 6.00 Build 0)  -->
<svg version="1.1" id="图层_1" xmlns="http://www.w3.org/2000/svg" xmlns:xlink="http://www.w3.org/1999/xlink" x="0px" y="0px"
	 viewBox="0 0 200 200" style="enable-background:new 0 0 200 200;" xml:space="preserve">
<path d="M100,185c-46.9,0-85-38.1-85-85s38.1-85,85-85s85,38.1,85,85S146.9,185,100,185z M91.5,125.5v17h17v-17H91.5z M108.5,111.5
	c15.7-4.7,24.7-21.4,19.9-37.1c-3.8-12.5-15.3-21.1-28.4-21.2c-14.2,0-26.4,10-29.2,23.9l16.7,3.3c1.4-6.9,8.1-11.4,15-10
	c6.9,1.4,11.4,8.1,10,15c-1.2,6-6.4,10.3-12.5,10.3c-4.7,0-8.5,3.8-8.5,8.5V117h17V111.5z"/>
</svg>
