<?xml version="1.0" encoding="utf-8"?>
<!-- Generator: Adobe Illustrator 21.0.0, SVG Export Plug-In . SVG Version: 6.00 Build 0)  -->
<svg version="1.1" id="图层_1" xmlns="http://www.w3.org/2000/svg" xmlns:xlink="http://www.w3.org/1999/xlink" x="0px" y="0px"
	 viewBox="0 0 200 200" style="enable-background:new 0 0 200 200;" xml:space="preserve">
<path d="M151.3,67.3l-8.3-1.4l-2.7-8c-7.6-22.2-31.8-34-54-26.4c-12.4,4.3-22.2,14-26.4,26.4l-2.7,8l-8.3,1.4
	c-12.8,2.3-21.4,14.5-19.1,27.4c2,11.2,11.7,19.5,23.2,19.5h94.4c13,0,23.6-10.5,23.7-23.5C170.9,79.1,162.6,69.2,151.3,67.3z
	 M185,90.6c0,20.9-16.9,37.8-37.8,37.8H52.8C32,128.4,15,111.5,15,90.6c0-18.4,13.3-34.2,31.4-37.3c10.1-29.6,42.4-45.4,72-35.2
	c16.6,5.7,29.6,18.7,35.2,35.2C171.8,56.5,185,72.2,185,90.6z M40.2,140.3c1.2-3.7,5.2-5.7,9-4.5c3.7,1.2,5.7,5.2,4.5,9l0,0
	L46.6,166c-1.2,3.7-5.2,5.7-9,4.5c-3.7-1.2-5.7-5.2-4.5-9C33.1,161.5,40.2,140.3,40.2,140.3z M75.5,140.5c1.1-3.7,5.1-5.9,8.8-4.8
	c3.7,1.1,5.9,5.1,4.8,8.8l-10.6,35.4c-1.1,3.7-5.1,5.9-8.8,4.8c-3.7-1.1-5.9-5.1-4.8-8.8L75.5,140.5z M111,140.3
	c1.2-3.7,5.2-5.7,9-4.5c3.7,1.2,5.7,5.2,4.5,9l-7.1,21.2c-1.2,3.7-5.2,5.7-9,4.5c-3.7-1.2-5.7-5.2-4.5-9L111,140.3z M146.4,140.5
	c1.1-3.7,5.1-5.9,8.8-4.8c3.7,1.1,5.9,5.1,4.8,8.8l-10.6,35.4c-1.1,3.7-5.1,5.9-8.8,4.8c-3.7-1.1-5.9-5.1-4.8-8.8L146.4,140.5z"/>
</svg>
