<?xml version="1.0" encoding="utf-8"?>
<!-- Generator: Adobe Illustrator 21.0.0, SVG Export Plug-In . SVG Version: 6.00 Build 0)  -->
<svg version="1.1" id="图层_1" xmlns="http://www.w3.org/2000/svg" xmlns:xlink="http://www.w3.org/1999/xlink" x="0px" y="0px"
	 viewBox="0 0 200 200" style="enable-background:new 0 0 200 200;" xml:space="preserve">
<title>撤回</title>
<desc>Created with Sketch.</desc>
<g id="页面-1">
	<g id="我发起的-进行中" transform="translate(-1630.000000, -750.000000)">
		<g id="撤回" transform="translate(1630.000000, 750.000000)">
			<path id="形状结合" d="M153,15c8.5,0,16.6,3.4,22.5,9.3c6,6,9.3,14.1,9.3,22.5l0,0v40.4c0,4.4-3.6,8-8,8s-8-3.6-8-8l0,0V46.9
				c0-4.2-1.7-8.3-4.7-11.3s-7-4.7-11.3-4.7l0,0H46.8c-8.8,0-15.9,7.1-15.9,15.9l0,0v106.2c0,8.8,7.1,15.9,15.9,15.9l0,0H76
				c4.3,0.1,7.8,3.6,7.8,8c0,4.3-3.5,7.9-7.8,8l0,0H46.8c-17.6,0-31.9-14.3-31.9-31.9l0,0V46.9C15,29.3,29.2,15,46.8,15l0,0H153z
				 M82.4,95.7c3.1-3.1,8.1-3.1,11.3,0c1.5,1.5,2.4,3.5,2.4,5.6c0,2.1-0.9,4.2-2.4,5.6l0,0l-8.9,8.9h63.7
				c18.7-0.4,34.6,13.6,36.4,32.2c0.5,9.5-2.9,18.8-9.4,25.6c-6.5,6.9-15.6,10.8-25.1,10.8l0,0h-37.3c-4.4,0-8-3.6-8-8s3.6-8,8-8
				l0,0h37.5c5.4,0,10.5-2.4,14-6.4c3.5-4.1,5.1-9.5,4.3-14.8c-1.8-9.2-10-15.7-19.3-15.5l0,0H84.9l8.9,8.9c1.5,1.5,2.4,3.5,2.4,5.6
				c0,2.1-0.9,4.2-2.4,5.6c-3.1,3.1-8.1,3.1-11.3,0l0,0L60,129.5c-0.7-0.7-1.3-1.6-1.7-2.5c-0.9-2-0.9-4.2,0-6.2
				c0.4-0.9,1-1.8,1.7-2.5l0,0L82.4,95.7z M129.1,57.5c4.3,0.1,7.8,3.6,7.8,8s-3.5,7.9-7.8,8l0,0l-58.5,0c-4.4,0-8-3.6-8-8
				c0-4.4,3.6-8,8-8l0,0H129.1z"/>
		</g>
	</g>
</g>
</svg>
