<?xml version="1.0" encoding="utf-8"?>
<!-- Generator: Adobe Illustrator 21.0.0, SVG Export Plug-In . SVG Version: 6.00 Build 0)  -->
<svg version="1.1" id="图层_1" xmlns="http://www.w3.org/2000/svg" xmlns:xlink="http://www.w3.org/1999/xlink" x="0px" y="0px"
	 viewBox="0 0 200 200" style="enable-background:new 0 0 200 200;" xml:space="preserve">
<path d="M88.5,29.1c1.2-1,2.5-1.6,4.1-1.6s2.9,0.5,4.1,1.6l64.6,66.6c1.2,1.2,1.8,2.6,1.8,4.3c0,1.7-0.6,3.1-1.8,4.3l-64.6,66.6
	c-1.2,1-2.5,1.6-4.1,1.6s-2.9-0.6-4.1-1.8s-1.8-2.5-1.8-4.1s0.6-2.9,1.8-4.1l60.9-62.5L88.5,37.5c-1.2-1.2-1.8-2.5-1.8-4.1
	S87.3,30.4,88.5,29.1L88.5,29.1z M38.5,29.1c1.2-1,2.5-1.6,4.1-1.6s2.9,0.5,4.1,1.6l64.7,66.6c1.2,1.2,1.8,2.6,1.8,4.3
	c0,1.7-0.6,3.1-1.8,4.3l-64.7,66.6c-1.2,1-2.5,1.6-4.1,1.6s-2.9-0.6-4.1-1.8c-1.2-1.2-1.8-2.5-1.8-4.1s0.6-2.9,1.8-4.1L99.4,100
	L38.5,37.5c-1.2-1.2-1.8-2.5-1.8-4.1S37.3,30.4,38.5,29.1L38.5,29.1z"/>
</svg>
