<?xml version="1.0" encoding="utf-8"?>
<!-- Generator: Adobe Illustrator 21.0.0, SVG Export Plug-In . SVG Version: 6.00 Build 0)  -->
<svg version="1.1" id="图层_1" xmlns="http://www.w3.org/2000/svg" xmlns:xlink="http://www.w3.org/1999/xlink" x="0px" y="0px"
	 viewBox="0 0 200 200" style="enable-background:new 0 0 200 200;" xml:space="preserve">
<path d="M128.4,81.7l-56,56c-2.8,2.8-7.2,2.8-10,0h0c-2.8-2.8-2.8-7.2,0-10l56-56H71.7c-3.9,0-7.1-3.2-7.1-7.1v-0.1
	c0-3.9,3.2-7.1,7.1-7.1h63.8c3.9,0,7.1,3.2,7.1,7.1v63.8c0,3.9-3.2,7.1-7.1,7.1h-0.1c-3.9,0-7.1-3.2-7.1-7.1L128.4,81.7L128.4,81.7z
	"/>
</svg>
