<?xml version="1.0" encoding="utf-8"?>
<!-- Generator: Adobe Illustrator 21.0.0, SVG Export Plug-In . SVG Version: 6.00 Build 0)  -->
<svg version="1.1" id="图层_1" xmlns="http://www.w3.org/2000/svg" xmlns:xlink="http://www.w3.org/1999/xlink" x="0px" y="0px"
	 viewBox="0 0 200 200" style="enable-background:new 0 0 200 200;" xml:space="preserve">
<path d="M63.6,40.5l60.9,62.5l-60.9,62.5c-1.2,1.2-1.8,2.5-1.8,4.1c0,1.6,0.6,2.9,1.8,4.1c1.2,1.2,2.5,1.8,4.1,1.8s2.9-0.5,3.9-1.6
	l64.8-66.6c1.2-1.2,1.8-2.6,1.8-4.3c0-1.7-0.6-3.1-1.8-4.3L71.8,32.1c-1.2-1-2.6-1.6-4.2-1.6c-1.6,0-3,0.6-4.1,1.8
	c-1.1,1.2-1.7,2.5-1.7,4.1S62.4,39.3,63.6,40.5L63.6,40.5z"/>
</svg>
