<?xml version="1.0" encoding="utf-8"?>
<!-- Generator: Adobe Illustrator 21.0.0, SVG Export Plug-In . SVG Version: 6.00 Build 0)  -->
<svg version="1.1" id="图层_1" xmlns="http://www.w3.org/2000/svg" xmlns:xlink="http://www.w3.org/1999/xlink" x="0px" y="0px"
	 viewBox="0 0 200 200" style="enable-background:new 0 0 200 200;" xml:space="preserve">
<path d="M129.6,92.9l-33-33c-2.8-2.8-2.8-7.2,0-10l0,0c2.8-2.8,7.2-2.8,10,0c10.5,10.5,34.6,34.6,45.1,45.1c2.8,2.8,2.8,7.2,0,10
	l-45.1,45.1c-2.8,2.8-7.2,2.8-10,0h0c-2.8-2.8-2.8-7.2,0-10l33-33H50.4c-3.9,0-7.1-3.2-7.1-7.1V100c0-3.9,3.2-7.1,7.1-7.1H129.6z"/>
</svg>
