<?xml version="1.0" standalone="no"?><!DOCTYPE svg PUBLIC "-//W3C//DTD SVG 1.1//EN" "http://www.w3.org/Graphics/SVG/1.1/DTD/svg11.dtd"><svg class="icon" width="200px" height="200.00px" viewBox="0 0 1024 1024" version="1.1" xmlns="http://www.w3.org/2000/svg"><path d="M840.448 82.56c35.392 0 56.768 3.392 68.48 6.272l20.608 4.992 4.864 20.544c2.944 12.224 6.336 34.56 6.016 71.168a848.448 848.448 0 0 1-14.976 145.664C903.616 448 863.808 544.448 818.88 589.44c-15.744 15.872-47.168 36.736-93.696 62.016-10.88 5.888-22.656 12.032-35.072 18.368-14.72 51.072-50.56 111.488-66.688 137.216-36.48 58.176-74.624 105.344-101.952 126.016a34.368 34.368 0 0 1-52.928-15.168l-7.936-20.736c-12.8-33.728-28.352-75.008-43.968-106.88L232.32 605.952c-31.616-15.808-72.576-31.232-106.048-43.968l-20.736-7.936a34.496 34.496 0 0 1-15.104-52.864c20.608-27.392 67.84-65.536 125.952-102.016 25.6-16.128 86.272-52.032 137.216-66.56 6.272-12.224 12.288-23.68 18.112-34.432 25.152-46.208 45.888-77.632 61.76-93.568 17.408-17.408 43.328-34.688 75.136-49.984 30.72-14.848 66.752-28.032 107.136-39.232 73.6-20.48 157.696-32.704 224.64-32.704zM199.424 740.48a83.008 83.008 0 1 1 24 162.304l-118.592 36.096a16.576 16.576 0 0 1-20.544-20.672l35.904-118.784c10.24-34.176 41.792-58.944 79.232-58.944z m397.824-26.24l-14.848 6.72a4161.28 4161.28 0 0 1-101.504 43.904c11.584 24.32 22.784 52.032 32.832 78.08a805.888 805.888 0 0 0 83.52-128.64z m243.328-562.816c-61.12 0-138.24 11.328-206.208 30.336-36.48 10.048-68.608 21.824-95.616 34.816-24.576 11.904-44.544 24.896-56.32 36.672-3.904 3.904-19.2 21.184-49.92 77.632-19.84 36.736-42.56 83.2-67.328 138.24-20.224 44.928-38.272 87.68-51.648 120.32l120.128 120.512c32.512-13.44 75.2-31.424 120.32-51.712a2184.96 2184.96 0 0 0 138.304-67.456c56.832-30.912 73.856-46.016 77.696-49.92 16.128-16.064 33.28-45.568 48.384-82.944 16.256-40.192 29.824-88.32 39.424-139.392 8.768-46.912 13.696-94.272 13.888-133.376a376.512 376.512 0 0 0-1.088-32.576 353.92 353.92 0 0 0-30.08-1.152z m-531.2 273.92c-17.856 9.152-36.992 20.032-56.32 32.192-29.568 18.496-54.016 36.288-72.512 51.392 26.112 10.112 53.888 21.184 78.144 32.896a4378.88 4378.88 0 0 1 50.752-116.48z m309.184-95.808a61.248 61.248 0 1 1 31.744 118.272 61.248 61.248 0 0 1-31.744-118.272z" /></svg>