<?xml version="1.0" encoding="utf-8"?>
<!-- Generator: Adobe Illustrator 21.0.0, SVG Export Plug-In . SVG Version: 6.00 Build 0)  -->
<svg version="1.1" id="图层_1" xmlns="http://www.w3.org/2000/svg" xmlns:xlink="http://www.w3.org/1999/xlink" x="0px" y="0px"
	 viewBox="0 0 200 200" style="enable-background:new 0 0 200 200;" xml:space="preserve">
<path d="M137.8,174.2h-17.7v-19.7c0-3.2-2.6-5.7-5.7-5.7c-3.2,0-5.7,2.6-5.7,5.7c0,0,0,0,0,0v19.7H94.4v-37.8c0-3.2-2.6-5.7-5.7-5.7
	c-3.2,0-5.7,2.6-5.7,5.7v37.8H62.2v-29c0-14.8,6.3-26.2,37.8-37.2c31.5,10.9,38,22.5,38,37.2v29 M62.7,61.7v-36H138v35.8
	c0,10.2-4.2,23.3-37.8,35c-33.8-11.7-37.7-24.8-37.7-35 M163.1,174h-12.6v-29c0-19.4-10.2-32.4-35.2-43.1c23.8-10.2,35-23.4,35-40.9
	V25.7H163c3.2,0.2,6-2.1,6.3-5.3c-0.3-3.2-3.1-5.6-6.3-5.3H36.8c-3.2-0.2-6,2.1-6.3,5.3c0.3,3.2,3.1,5.6,6.3,5.3h13.1v35.8
	c0,17.3,10.9,30.7,34.8,40.9c-24.8,10.2-35,23.6-35,43.1v29H36.8c-2.8-1-5.9,0.5-6.9,3.3s0.5,5.9,3.3,6.9c1.2,0.4,2.4,0.4,3.6,0
	h126.3c2.8,1,5.9-0.5,6.9-3.3c1-2.8-0.5-5.9-3.3-6.9c-1.2-0.4-2.4-0.4-3.6,0"/>
</svg>
