<?xml version="1.0" encoding="utf-8"?>
<!-- Generator: Adobe Illustrator 21.0.0, SVG Export Plug-In . SVG Version: 6.00 Build 0)  -->
<svg version="1.1" id="图层_1" xmlns="http://www.w3.org/2000/svg" xmlns:xlink="http://www.w3.org/1999/xlink" x="0px" y="0px"
	 viewBox="0 0 200 200" style="enable-background:new 0 0 200 200;" xml:space="preserve">
<path d="M178.9,106.1H21.1c-3.4,0-6.1-2.7-6.1-6.1c0-3.4,2.7-6.1,6.1-6.1h157.9c3.4,0,6.1,2.7,6.1,6.1
	C185,103.3,182.3,106.1,178.9,106.1z"/>
<path d="M160.7,178.9h-36.5c-3.4,0-6.1-2.7-6.1-6.1c0-3.4,2.7-6.1,6.1-6.1h36.4c3.4,0,6.1-2.7,6.1-6.1v-30.4c0-3.4,2.7-6.1,6.1-6.1
	c3.4,0,6.1,2.7,6.1,6.1v30.4C178.9,170.7,170.7,178.9,160.7,178.9z"/>
<path d="M69.6,178.9H39.3c-10.1,0-18.2-8.2-18.2-18.2v-30.4c0-3.4,2.7-6.1,6.1-6.1s6.1,2.7,6.1,6.1v30.4c0,3.4,2.7,6.1,6.1,6.1h30.4
	c3.4,0,6.1,2.7,6.1,6.1C75.7,176.2,73,178.9,69.6,178.9z"/>
<path d="M27.1,75.7c-3.4,0-6.1-2.7-6.1-6.1V39.3c0-10.1,8.2-18.2,18.2-18.2h30.4c3.4,0,6.1,2.7,6.1,6.1c0,3.4-2.7,6.1-6.1,6.1H39.3
	c-3.3,0-6.1,2.7-6.1,6.1v30.4C33.2,73,30.5,75.7,27.1,75.7z"/>
<path d="M172.9,75.7c-3.4,0-6.1-2.7-6.1-6.1V39.3c0-3.3-2.7-6.1-6.1-6.1l-36.5,0c-3.4,0-6.1-2.7-6.1-6.1s2.7-6.1,6.1-6.1h36.4
	c10.1,0,18.2,8.2,18.2,18.2v30.4C178.9,73,176.2,75.7,172.9,75.7z"/>
</svg>
