<?xml version="1.0" encoding="utf-8"?>
<!-- Generator: Adobe Illustrator 21.0.0, SVG Export Plug-In . SVG Version: 6.00 Build 0)  -->
<svg version="1.1" id="图层_1" xmlns="http://www.w3.org/2000/svg" xmlns:xlink="http://www.w3.org/1999/xlink" x="0px" y="0px"
	 viewBox="0 0 200 200" style="enable-background:new 0 0 200 200;" xml:space="preserve">
<g>
	<path d="M97.5,87.4c-3.2,0-5.8,2-5.8,4.5v47.4c0,2.5,2.6,4.5,5.8,4.5c3.2,0,5.8-2,5.8-4.5V91.8C103.3,89.3,100.7,87.4,97.5,87.4z"
		/>
	<path d="M68.9,87.4c-3.2,0-5.8,2-5.8,4.5v47.4c0,2.5,2.6,4.5,5.8,4.5c3.2,0,5.8-2,5.8-4.5V91.8C74.7,89.3,72.2,87.4,68.9,87.4z"/>
	<path d="M23.6,79.6h11.2v70.9c0,0.4,0,0.7,0.1,1.1h-4.6c-3.2,0-5.8,2.6-5.8,5.8c0,3.2,2.6,5.7,5.8,5.8H165c3.2,0,5.8-2.6,5.8-5.8h0
		c0-3.1-2.7-5.8-5.9-5.8h-4.4c0-0.3,0.1-0.7,0.1-1.1V79.6h14c2.5,0,4.8-1.6,5.5-4c0.9-2.4,0-5.1-2.1-6.5l-75.5-53.2
		c-2-1.5-4.8-1.5-6.8,0L20.2,69.2c-2.1,1.5-2.9,4.1-2.1,6.5C18.9,78,21.1,79.7,23.6,79.6z M46.4,151.6c0-0.3,0.1-0.7,0.1-1.1V79.6
		h102.4v70.9c0,0.4,0,0.7,0.1,1.1H46.4z M44.6,66.2L44.6,66.2l50.9-35.9c2.2-1.6,5.2-1.6,7.4,0l50.9,35.9c0.4,0.3,0.6,0.7,0.4,1.2
		c-0.1,0.4-0.6,0.7-1,0.7H45.2C44.1,68.1,43.7,66.7,44.6,66.2z"/>
	<path d="M126.9,87.4c-3.2,0-5.8,2-5.8,4.5v47.4c0,2.5,2.6,4.5,5.8,4.5c3.2,0,5.8-2,5.8-4.5V91.8h0
		C132.7,89.3,130.2,87.4,126.9,87.4z"/>
	<path d="M175.2,173.1H23.6c-3.3,0-5.9,2.6-5.9,5.9c0,1.6,0.6,3.1,1.7,4.2c1.1,1.1,2.6,1.7,4.2,1.7h151.7c1.6,0,3-0.6,4.1-1.7
		c1.1-1.1,1.7-2.6,1.7-4.1C181.2,175.7,178.5,173.1,175.2,173.1z"/>
</g>
</svg>
