<?xml version="1.0" encoding="utf-8"?>
<!-- Generator: Adobe Illustrator 21.0.0, SVG Export Plug-In . SVG Version: 6.00 Build 0)  -->
<svg version="1.1" id="图层_1" xmlns="http://www.w3.org/2000/svg" xmlns:xlink="http://www.w3.org/1999/xlink" x="0px" y="0px"
	 viewBox="0 0 200 200" style="enable-background:new 0 0 200 200;" xml:space="preserve">
<path d="M100,118.5c10.7,0,19.4-8.7,19.4-19.3C119.3,88.6,110.7,80,100,80l0,0c-10.7,0-19.4,8.7-19.4,19.3
	C80.6,110,89.3,118.5,100,118.5z M100,87.4c6.6,0,11.9,5.3,11.9,11.8c0,6.5-5.4,11.8-11.9,11.8l0,0c-6.6,0-11.9-5.3-11.9-11.8
	C88.1,92.7,93.5,87.4,100,87.4z"/>
<path d="M53.1,83.6L53.1,83.6L53.1,83.6z"/>
<rect x="146.8" y="157.8" width="8.8" height="12.8"/>
<polygon points="53.2,137.9 44.5,137.9 44.5,138 44.5,150.8 53.2,150.8 "/>
<polygon points="155.5,137.9 146.8,137.9 146.8,138 146.8,150.8 155.5,150.8 "/>
<rect x="44.5" y="157.8" width="8.8" height="12.8"/>
<path d="M179.2,99.1L179.2,99.1h-42.1V79.1l7.8,4c2.2,1.1,4.7,0.3,5.9-1.9l0,0c1.1-2.2,0.3-4.7-1.9-5.8l0,0l-44.3-22.7
	c-0.1-0.2-0.3-1.2-0.3-1.5v-6.8l25-10c0.3-0.1,0.5-0.2,0.8-0.4l0,0c0.4-0.3,0.8-0.6,1-1c0.2-0.3,0.5-0.6,0.6-1l0,0l0.1-0.3
	c0.1-0.2,0.1-0.4,0.2-0.5c0-0.1,0-0.3,0-0.4c0.1-0.3,0.1-0.6,0-0.9c0-0.2,0-0.3,0-0.4c0-0.2-0.1-0.3-0.1-0.5c0-0.1,0-0.2-0.1-0.3
	l0,0c-0.1-0.2-0.2-0.4-0.3-0.6c0,0,0-0.1-0.1-0.2c-0.5-0.7-1.2-1.3-2-1.6l0,0l-27.3-11.1c-1.7-0.7-3.6-0.3-4.8,1.1
	c-0.9,0.8-1.5,2-1.5,3.1v31.7c0,0.3,0,0.7,0.1,1c-0.1,0.2-0.2,0.3-0.3,0.5L51.4,75.3c-2.2,1.1-3,3.7-1.9,5.8l0,0
	c0.8,1.5,2.3,2.4,3.8,2.4c0.7,0,1.4-0.2,2-0.5l7.8-4v20l0,0H20.8c-2.4,0-4.3,2-4.3,4.3l0,0v17.4c0,2.4,2,4.3,4.3,4.3h5v55.1
	c0,2.8,2.2,4.9,4.9,4.9h138.6c2.8,0,4.9-2.2,4.9-4.9V125h5c2.5,0,4.3-2,4.3-4.3v-17.4C183.7,101,181.7,99,179.2,99.1z M104.4,25.7
	l11.7,4.7l-11.7,4.7V25.7z M137.1,125.1h28.4v51.2h-28.4V125.1z M71.7,74.5L100,60.1l28.3,14.6v101.7h-12.1v-27
	c0-0.9-0.3-1.8-0.8-2.5c-0.8-1.3-2.3-2.2-3.7-2.2l0,0H88.1c-2.4,0-4.3,2-4.3,4.3l0,0v0.1v0.1v27H71.7V74.5z M107.5,153.5v22.8h-15
	v-22.9L107.5,153.5L107.5,153.5z M25.2,116.5v-8.8h37.7v8.8l0,0H25.2z M63,125.2v51.1H34.5v-51.1H63z M174.9,116.4L174.9,116.4
	h-37.7v-8.8h37.7V116.4z"/>
</svg>
