<?xml version="1.0" encoding="utf-8"?>
<!-- Generator: Adobe Illustrator 21.0.0, SVG Export Plug-In . SVG Version: 6.00 Build 0)  -->
<svg version="1.1" id="图层_1" xmlns="http://www.w3.org/2000/svg" xmlns:xlink="http://www.w3.org/1999/xlink" x="0px" y="0px"
	 viewBox="0 0 200 200" style="enable-background:new 0 0 200 200;" xml:space="preserve">
<path d="M100,118.1l-21.3,30.5c0.1,8.2-2.3,15.3-7.2,21.3c-4.9,6-11.4,9.7-19.5,11.1c-8.1,1.2-15.4-0.3-22-4.4
	c-6.6-4.1-11.1-10.1-13.6-17.9c-2.3-7.8-1.8-15.3,1.5-22.4c3.2-7.1,8.6-12.4,16-15.8c7.6-3.2,15.1-3.6,22.5-1.3
	c7.4,2.3,13.3,6.9,17.7,13.8l18.1-25.9L37.3,28.5c-1.1-1.5-1.4-3-1.1-4.7c0.3-1.7,1.2-3,2.7-4.1c1.5-1.1,3-1.4,4.7-1.1
	c1.7,0.3,3,1.2,4.1,2.7L125.9,133c4.5-6.9,10.5-11.5,17.8-13.8c7.4-2.3,14.8-1.9,22.4,1.3c7.4,3.5,12.8,8.7,16,15.8
	c3.3,7.1,3.8,14.6,1.5,22.4c-2.5,7.8-7.1,13.8-13.6,17.9s-13.9,5.6-22,4.4c-8-1.5-14.4-5.2-19.4-11.1c-5-6-7.4-13.1-7.3-21.3
	L100,118.1z M110.8,80.5l41.6-59.1c1.1-1.5,2.4-2.4,4.1-2.7c1.7-0.3,3.2,0,4.7,1.1c1.5,1.1,2.4,2.4,2.7,4.1c0.3,1.7,0,3.2-1.1,4.7
	l-44,63.1L111,80.5H110.8z M35.9,165.3c2.9,2,6,3.2,9.4,3.5s6.6-0.2,9.8-1.7c3.2-1.5,5.7-3.6,7.7-6.4s3.1-5.9,3.4-9.4
	c0.3-3.5-0.2-6.7-1.7-9.8s-3.7-5.6-6.6-7.6c-4.5-2.9-9.2-3.9-14.1-3s-8.9,3.6-11.9,8c-3.1,4.4-4.2,9-3.4,13.9
	C29.1,157.9,31.7,162,35.9,165.3z M164.1,165.3c2.9-2,5.1-4.5,6.6-7.6c1.5-3.1,2.1-6.3,1.8-9.9s-1.4-6.7-3.3-9.5s-4.5-4.9-7.8-6.4
	s-6.6-2-10-1.7c-3.4,0.3-6.5,1.6-9.3,3.7c-4.2,3.2-6.8,7.3-7.6,12.2s0.3,9.6,3.4,13.9c3.1,4.3,7,6.9,11.9,7.9
	C154.9,169,159.6,168.1,164.1,165.3L164.1,165.3z"/>
</svg>
