<?xml version="1.0" encoding="utf-8"?>
<!-- Generator: Adobe Illustrator 21.0.0, SVG Export Plug-In . SVG Version: 6.00 Build 0)  -->
<svg version="1.1" id="图层_1" xmlns="http://www.w3.org/2000/svg" xmlns:xlink="http://www.w3.org/1999/xlink" x="0px" y="0px"
	 viewBox="0 0 200 200" style="enable-background:new 0 0 200 200;" xml:space="preserve">
<title>办理 (1)备份</title>
<desc>Created with Sketch.</desc>
<path d="M158.8,171.1H41.3c-4,0-7.3,3.1-7.3,7c0,3.8,3.3,7,7.3,7h117.5c4,0,7.3-3.1,7.3-7C166.1,174.2,162.8,171.1,158.8,171.1z"/>
<path d="M158.2,103.5h-27.5c-0.2-0.6-0.4-1.1-0.4-1.6c-0.4-4.4,2-8,6.5-14.4c5.3-7.5,11.9-16.7,11.9-30.5c0-11.7-4.9-22.3-13.7-30
	c-8.9-7.8-21-12-35-12c-13.9,0-26,4.1-34.9,12c-8.8,7.7-13.7,18.4-13.7,30c0,13.7,6.6,23,11.9,30.5c4.5,6.4,6.8,9.9,6.5,14.4
	c-0.1,0.5-0.2,1.1-0.4,1.6H41.8c-11.5,0-20.8,8.8-20.8,19.5v28.9h157.9V123C179,112.2,169.7,103.5,158.2,103.5z M35.7,138v-15
	c0-3.1,2.8-5.6,6.3-5.6h37.3l3.7-8.7c0.8-1.8,1.2-3.8,1.4-5.7c0.8-9.5-3.9-16.2-8.9-23.3C70.5,72.9,66,66.5,66,57.1
	c0-7.7,3.2-14.7,8.9-19.8C81.1,31.9,89.8,29,100,29c10.2,0,18.9,2.9,25.1,8.3c5.8,5,8.9,12.1,8.9,19.8c0,9.5-4.6,15.9-9.4,22.7
	c-5,7.1-9.8,13.8-8.9,23.3c0.2,1.9,0.7,3.8,1.4,5.7l3.7,8.7h37.3c3.5,0,6.3,2.5,6.3,5.6V138H35.7z"/>
</svg>
