<?xml version="1.0" encoding="utf-8"?>
<!-- Generator: Adobe Illustrator 21.0.0, SVG Export Plug-In . SVG Version: 6.00 Build 0)  -->
<svg version="1.1" id="图层_1" xmlns="http://www.w3.org/2000/svg" xmlns:xlink="http://www.w3.org/1999/xlink" x="0px" y="0px"
	 viewBox="0 0 200 200" style="enable-background:new 0 0 200 200;" xml:space="preserve">
<g id="信息标准">
	<g id="信息标准v4" transform="translate(-707.000000, -262.000000)">
		<g id="二级导航" transform="translate(0.000000, 240.000000)">
			<g id="编组-9" transform="translate(707.000000, 19.000000)">
				<g id="编组-8">
					<g id="icon-rgb_资源智能管理" transform="translate(0.000000, 3.000000)">
						<path id="形状" d="M163.1,15H35.6c-8.2,0-14.8,6.6-14.8,14.8v37c0,8.2,6.6,14.8,14.8,14.8h127.5c8.2,0,14.8-6.6,14.8-14.8
							v-37C177.9,21.6,171.3,15,163.1,15z M35.6,29.8h127.5v37H35.6V29.8z"/>
						<path id="路径" d="M56.9,40.9c-4.1,0-7.4,3.3-7.4,7.4s3.3,7.4,7.4,7.4s7.4-3.3,7.4-7.4c0-2-0.8-3.8-2.2-5.2
							S58.8,40.9,56.9,40.9L56.9,40.9z"/>
						<path id="形状_1_" d="M163.1,118.5H153v-18c0-4.1-3.3-7.4-7.4-7.4c-4.1,0-7.4,3.3-7.4,7.4v18H60.6v-18
							c0-4.1-3.3-7.4-7.4-7.4s-7.4,3.3-7.4,7.4v18H35.6c-8.2,0-14.8,6.6-14.8,14.8v37c0,8.2,6.6,14.8,14.8,14.8h127.5
							c8.2,0,14.8-6.6,14.8-14.8v-37C177.9,125.1,171.3,118.5,163.1,118.5L163.1,118.5z M163.1,170.2H35.6v-37h127.5V170.2z"/>
						<path id="形状_2_" d="M56.9,144.3c-4.1,0-7.4,3.3-7.4,7.4c0,4.1,3.3,7.4,7.4,7.4s7.4-3.3,7.4-7.4c0-2-0.8-3.8-2.2-5.2
							C60.7,145.1,58.8,144.3,56.9,144.3L56.9,144.3z M98.2,150.6H83.4c-1.5,0-2.8,1.2-2.8,2.8c0,1.5,1.2,2.8,2.8,2.8h14.8
							c1.5,0,2.8-1.2,2.8-2.8C100.9,151.9,99.7,150.6,98.2,150.6L98.2,150.6z M124,150.6h-14.8c-1.5,0-2.8,1.2-2.8,2.8
							c0,1.5,1.2,2.8,2.8,2.8H124c1.5,0,2.8-1.2,2.8-2.8C126.8,151.9,125.6,150.6,124,150.6z"/>
					</g>
				</g>
			</g>
		</g>
	</g>
</g>
</svg>
