<?xml version="1.0" encoding="utf-8"?>
<!-- Generator: Adobe Illustrator 21.0.0, SVG Export Plug-In . SVG Version: 6.00 Build 0)  -->
<svg version="1.1" id="图层_1" xmlns="http://www.w3.org/2000/svg" xmlns:xlink="http://www.w3.org/1999/xlink" x="0px" y="0px"
	 viewBox="0 0 200 200" style="enable-background:new 0 0 200 200;" xml:space="preserve">
<title>服务</title>
<desc>Created with Sketch.</desc>
<g id="页面-1">
	<g id="首页1" transform="translate(-1643.000000, -200.000000)">
		<g id="服务" transform="translate(1643.000000, 200.000000)">
			<path id="形状" d="M54.5,15C32.7,15,15,32.7,15,54.5s17.7,39.5,39.5,39.5h39.5V54.5C94.1,32.7,76.3,15,54.5,15z M81.9,81.9
				H54.5c-15.2,0-27.3-12.2-27.3-27.3s12.2-27.3,27.3-27.3s27.3,12.2,27.3,27.3V81.9z M145.5,15c-21.8,0-39.5,17.7-39.5,39.5v39.5
				h39.5c21.8,0,39.5-17.7,39.5-39.5S167.3,15,145.5,15z M145.5,81.9h-27.3V54.5c0-15.2,12.2-27.3,27.3-27.3
				c15.2,0,27.3,12.2,27.3,27.3S160.6,81.9,145.5,81.9z M54.5,105.9c-21.8,0-39.5,17.7-39.5,39.5S32.7,185,54.5,185
				s39.5-17.7,39.5-39.5v-39.5H54.5z M81.9,145.5c0,15.2-12.2,27.3-27.3,27.3s-27.3-12.2-27.3-27.3c0-15.2,12.2-27.3,27.3-27.3h27.3
				V145.5z M145.5,105.9h-39.5v39.5c0,21.8,17.7,39.5,39.5,39.5s39.5-17.7,39.5-39.5S167.3,105.9,145.5,105.9z M145.5,172.8
				c-15.2,0-27.3-12.2-27.3-27.3v-27.3h27.3c15.2,0,27.3,12.2,27.3,27.3C172.8,160.6,160.6,172.8,145.5,172.8L145.5,172.8z"/>
		</g>
	</g>
</g>
</svg>
