<?xml version="1.0" encoding="utf-8"?>
<!-- Generator: Adobe Illustrator 21.0.0, SVG Export Plug-In . SVG Version: 6.00 Build 0)  -->
<svg version="1.1" id="图层_1" xmlns="http://www.w3.org/2000/svg" xmlns:xlink="http://www.w3.org/1999/xlink" x="0px" y="0px"
	 viewBox="0 0 200 200" style="enable-background:new 0 0 200 200;" xml:space="preserve">
<path d="M180.1,120.8c-4.9-3.8-9.9-7.5-14.7-11.5c-1-0.8-1.6-2.4-1.7-3.8c-0.2-3.8,0.3-7.7-0.1-11.5c-0.2-2.1,0.3-3.2,1.9-4.5
	c4.9-3.7,9.7-7.5,14.5-11.2c3.3-2.6,3.6-3.8,1.5-7.4c-5.3-9.1-10.7-18.1-15.9-27.3c-1.7-3-3.9-3.7-7.1-2.4
	c-5.8,2.4-11.5,4.4-17.1,6.8c-2.1,0.9-3.7,0.9-5.6-0.5c-2.9-2-5.9-3.8-9.1-5.3c-2.2-1-3-2.3-3.3-4.6c-0.7-6-1.7-12-2.5-18.1
	c-0.3-3.2-2.1-4.6-5.4-4.6c-10.4,0.1-20.9,0.1-31.3,0c-3.3,0-5.2,1.3-5.5,4.8C78,26,77,32.1,76.2,38.3c-0.2,1.8-0.8,2.9-2.6,3.8
	c-3.5,1.7-6.6,4-10,5.7c-1.2,0.7-3.2,1-4.5,0.5C53,46.1,47,43.7,41,41.3c-2.8-1.1-4.8-0.5-6.3,2.1c-5.4,9.4-10.9,18.9-16.4,28.2
	c-1.8,2.9-1.1,5,1.5,7c4.5,3.3,8.7,6.9,13.2,10.2c2.6,1.9,4,3.8,3.4,7.3c-0.5,3.3,0.2,6.8,0,10.2c0,1.1-0.6,2.8-1.5,3.5
	c-4.8,4-9.8,7.7-14.7,11.6c-3.8,2.9-3.9,3.9-1.5,8c5,8.8,10.1,17.6,15.3,26.4c2.3,4,3.5,4.3,7.7,2.7c5.8-2.3,11.5-4.6,17.4-6.7
	c1.3-0.4,3.1-0.1,4.3,0.5c3.4,1.6,6.3,3.9,9.7,5.5c2,1,2.7,2.3,3,4.4c0.7,6,1.7,12,2.5,18.1c0.4,3.4,2.3,4.8,5.7,4.8
	c10.4-0.1,20.9-0.1,31.3,0c3.5,0.1,5.1-1.5,5.6-4.9c0.7-6,1.5-12.1,2.6-18.1c0.3-1.3,1.2-3,2.3-3.7c3.3-2.3,6.8-4.3,10.3-6
	c1.4-0.8,3.4-1,4.9-0.5c5.1,1.7,9.9,3.9,14.9,5.8c1.6,0.6,3.4,1.2,5.8,2.1c1-1,2.6-1.9,3.6-3.9c5.4-9.2,10.7-18.3,16.1-27.6
	C183.6,124.6,183.5,123.4,180.1,120.8z M99.6,129.9C83.4,129.8,70,116.3,70.1,100c0-16.5,13.6-29.9,30-29.9
	c16.5,0.1,29.8,13.6,29.7,30.3C129.6,116.7,116,130,99.6,129.9z"/>
</svg>
