<?xml version="1.0" encoding="utf-8"?>
<!-- Generator: Adobe Illustrator 21.0.0, SVG Export Plug-In . SVG Version: 6.00 Build 0)  -->
<svg version="1.1" id="图层_1" xmlns="http://www.w3.org/2000/svg" xmlns:xlink="http://www.w3.org/1999/xlink" x="0px" y="0px"
	 viewBox="0 0 200 200" style="enable-background:new 0 0 200 200;" xml:space="preserve">
<path d="M180,121.6L167.7,111c0.4-3.8,0.8-7.2,0.8-11s-0.4-7.2-0.8-11L180,78.4c2.1-1.7,2.5-4.2,1.7-6.8v-0.4
	c-3.4-9.7-8.5-18.6-15.2-26.2l-0.4-0.4c-1.7-2.1-4.2-2.5-6.8-1.7l-15.6,5.5c-5.5-4.7-12.3-8.5-19-11l-3-16.1
	c-0.4-2.5-2.5-4.2-5.1-5.1h-0.4c-9.7-1.7-20.3-1.7-30,0h-0.4c-2.5,0.4-4.7,2.5-5.1,5.1l-3,16.1c-6.8,2.5-13.1,6.3-18.6,11l-15.2-5.5
	c-2.5-0.8-5.1,0-6.8,1.7L36.6,45c-6.8,7.6-11.8,16.5-15.2,26.2v0.4c-0.8,2.5,0,5.1,1.7,6.8L35.8,89c-0.4,3.4-0.8,7.2-0.8,11
	s0.4,7.2,0.8,11l-12.7,10.6c-2.1,1.7-2.5,4.2-1.7,6.8v0.4c3.4,9.7,8.5,18.6,15.2,26.2l0.4,0.4c1.7,2.1,4.2,2.5,6.8,1.7l15.6-5.5
	c5.5,4.7,11.8,8.5,18.6,11l3,16.1c0.4,2.5,2.5,4.2,5.1,5.1h0.4c5.1,0.8,10.1,1.3,15.2,1.3c5.1,0,10.1-0.4,15.2-1.3h0.4
	c2.5-0.4,4.7-2.5,5.1-5.1l3-16.1c6.8-2.5,13.1-6.3,19-11l15.6,5.5c2.5,0.8,5.1,0,6.8-1.7l0.4-0.4c6.8-7.6,11.8-16.5,15.2-26.2v-0.4
	C182.5,125.8,182.1,123.3,180,121.6L180,121.6z M154.2,91.1c0.4,3,0.8,5.9,0.8,8.9c0,3-0.4,5.9-0.8,8.9l-1.3,7.6l14.4,12.3
	c-2.1,5.1-5.1,9.7-8,14l-17.8-6.3l-5.9,5.1c-4.7,3.8-9.7,6.8-15.2,8.9l-7.2,2.5l-3.4,18.6c-5.5,0.4-11,0.4-16.1,0l-3.4-18.6l-7.2-3
	c-5.5-2.1-10.6-5.1-14.8-8.9l-6.3-4.7l-17.8,6.3c-3.4-4.2-5.9-8.9-8-14l14.4-12.3l-1.3-7.6c-0.4-3-0.8-5.9-0.8-8.5
	c0-3,0.4-5.9,0.8-8.5l1.3-7.6L36.2,72.1c2.1-5.5,4.7-10.1,8-14.4L62,64.1l5.9-5.1c4.7-3.8,9.7-6.8,14.8-8.9l7.2-2.5L93.3,29
	c5.5-0.4,11-0.4,16.1,0l3.4,18.6l7.2,2.5c5.5,2.1,10.6,5.1,15.2,8.9l5.9,5.1l17.8-6.3c3.4,4.2,5.9,8.9,8,14l-14.4,12.3L154.2,91.1
	L154.2,91.1z M101.7,64.9c-18.6,0-33.4,14.8-33.4,33.4s14.8,33.4,33.4,33.4s33.4-14.8,33.4-33.4S119.9,64.9,101.7,64.9z
	 M116.5,113.1c-4.2,3.8-9.3,6.3-15.2,6.3c-5.5,0-11-2.1-15.2-6.3c-3.8-4.2-6.3-9.3-6.3-15.2c0-5.9,2.1-11,6.3-15.2
	c4.2-4.2,9.3-6.3,15.2-6.3c5.5,0,11,2.1,15.2,6.3c3.8,4.2,6.3,9.3,6.3,15.2S120.8,109.3,116.5,113.1L116.5,113.1z"/>
</svg>
