<?xml version="1.0" encoding="utf-8"?>
<!-- Generator: Adobe Illustrator 21.0.0, SVG Export Plug-In . SVG Version: 6.00 Build 0)  -->
<svg version="1.1" id="图层_1" xmlns="http://www.w3.org/2000/svg" xmlns:xlink="http://www.w3.org/1999/xlink" x="0px" y="0px"
	 viewBox="0 0 200 200" style="enable-background:new 0 0 200 200;" xml:space="preserve">
<path d="M170.9,39.7l-7-0.1c-0.2,0-15.9-0.3-32.1-6.9c-16.7-6.8-27.4-14.5-27.5-14.6L100,15l-4.2,3.1c-0.1,0.1-10.8,7.8-27.5,14.6
	c-16.2,6.6-32,6.9-32.1,6.9l-7,0.1v71.5c0,35.9,46.1,73.8,70.9,73.8c24.8,0,70.9-37.9,70.9-73.8C170.9,111.2,170.9,39.7,170.9,39.7z
	 M101.6,100.9l28.1-28.1c2.4-2.4,6.2-2.4,8.6,0c2.4,2.4,2.4,6.2,0,8.6l-46,46c-1.2,1.2-2.7,1.8-4.3,1.8c-1.6,0-3.1-0.6-4.3-1.8
	l-22-22c-2.4-2.4-2.4-6.2,0-8.6c2.4-2.4,6.2-2.4,8.6,0L88,114.4L101.6,100.9"/>
</svg>
