<?xml version="1.0" standalone="no"?><!DOCTYPE svg PUBLIC "-//W3C//DTD SVG 1.1//EN" "http://www.w3.org/Graphics/SVG/1.1/DTD/svg11.dtd"><svg class="icon" width="200px" height="200.00px" viewBox="0 0 1024 1024" version="1.1" xmlns="http://www.w3.org/2000/svg"><path d="M485.9 618.4l-98.8-83.7-32.2 37.7 136.4 115.7 220-252.2-37.7-32.6z"  /><path d="M863.4 215l-24.1-0.4c-0.8 0-83.4-1.5-169.2-36.1-87.2-35.3-142.7-75.3-143.3-75.8L511.9 92l-14.7 10.6c-0.6 0.4-57.2 41-143.4 75.9-85.4 34.5-167.9 36.1-168.8 36.1l-24.6 0.4v352.6c0 78.1 47.1 168.1 129.2 247C363.9 885.9 451.1 932 512 932c60.8 0 148.1-46.1 222.3-117.4 82.1-78.9 129.2-168.9 129.2-246.9l-0.1-352.7z m-49.9 352.7c0 146.8-214.1 314.8-301.6 314.8-87.5 0-301.5-168-301.5-314.8V262.8l10.4-1.1c36.9-4 93.3-13.7 151.8-37.3 63.1-25.6 110.4-53.4 133-67.8l6.3-4 6.3 4c27.8 17.6 73.4 43.6 133.1 67.8 58.5 23.6 114.8 33.3 151.8 37.3l10.4 1.1v304.9z"  /></svg>