<?xml version="1.0" encoding="utf-8"?>
<!-- Generator: Adobe Illustrator 21.0.0, SVG Export Plug-In . SVG Version: 6.00 Build 0)  -->
<svg version="1.1" id="图层_1" xmlns="http://www.w3.org/2000/svg" xmlns:xlink="http://www.w3.org/1999/xlink" x="0px" y="0px"
	 viewBox="0 0 200 200" style="enable-background:new 0 0 200 200;" xml:space="preserve">
<path d="M148.6,24.7H51.5L15,76.4l85.4,107.6L185,77.6L148.6,24.7z M79.6,70L100,43.6L124.4,70H79.6z M125.3,80.6L100,159.9
	L75.5,80.7L125.3,80.6L125.3,80.6z M107.1,35.3h32.7l-8,26.5L107.1,35.3L107.1,35.3z M70.5,64.4l-8.9-29.1h31.9
	C93.4,35.3,70.5,64.4,70.5,64.4z M61.1,70H32.5l19.9-27.7C52.4,42.2,61.1,70,61.1,70z M57.5,80.6h6.6L86,151.9L31.6,80.6
	C31.6,80.6,57.5,80.6,57.5,80.6z M136.1,80.6H169l-55.9,72L136.1,80.6L136.1,80.6z M139.6,70l8.5-26.7L166.5,70H139.6z"/>
</svg>
