<?xml version="1.0" encoding="utf-8"?>
<!-- Generator: Adobe Illustrator 21.0.0, SVG Export Plug-In . SVG Version: 6.00 Build 0)  -->
<svg version="1.1" id="图层_1" xmlns="http://www.w3.org/2000/svg" xmlns:xlink="http://www.w3.org/1999/xlink" x="0px" y="0px"
	 viewBox="0 0 200 200" style="enable-background:new 0 0 200 200;" xml:space="preserve">
<title>收 藏 (1) (1)</title>
<desc>Created with Sketch.</desc>
<g id="学生">
	<g id="学生首页" transform="translate(-311.000000, -783.000000)">
		<g id="编组-8" transform="translate(130.000000, 690.000000)">
			<g id="收-藏-_x28_1_x29_-_x28_1_x29_" transform="translate(181.000000, 93.000000)">
				<path id="形状结合" d="M109.8,20.6c3,1.8,5.3,4.5,6.6,7.7l16.4,33.1l36.6,6.5c6.9,1.1,12.6,6,14.6,12.7
					c2.2,6.7,0.4,14-4.6,18.9l-0.2,0.2l-26.2,24.6l6.6,35.6c1.2,6.9-1.5,13.9-7.1,18c-3.1,2.4-6.8,3.7-10.7,3.7l0-0.1
					c-3-0.1-5.9-0.8-8.5-2.2l-33.5-16.7l-33.6,16.7c-2.6,1.4-5.5,2.1-8.5,2.1c-3.9,0-7.6-1.2-10.8-3.5l-0.1-0.1
					c-5.6-4.2-8.4-11.2-7.2-18.1v-0.1l6.9-35.5l-26-24.4l-0.1-0.1c-4.8-4.9-6.7-12-4.9-18.7l0.1-0.3c2-6.8,7.8-11.8,14.9-12.7
					L67,61.3l16.5-33.4c2.3-4.7,6.4-8.2,11.5-9.6C100,16.9,105.4,17.7,109.8,20.6z M99.7,31.9c-1.6,0.1-3,1.1-3.6,2.6L76.5,74l-44,8
					c-1.6,0.2-3,1.4-3.5,3c-0.3,1.7,0.1,3.4,1.2,4.7l32.3,29.9l-1.3,3.9l-7.5,38.9c-0.2,1.6,0.5,3.2,1.8,4.2
					c0.7,0.5,1.5,0.8,2.4,0.8c0.6,0,1.3-0.1,1.9-0.4l0.2-0.2l39.9-19.8l39.7,19.8v0c0.7,0.4,1.4,0.6,2.2,0.7c0.7,0,1.4-0.2,2-0.6
					l0.2-0.2c1.4-0.9,2.1-2.6,1.8-4.3l-8-42.9l2.8-2.8l29-27.2c1.2-1.2,1.6-2.9,1-4.5l-0.1-0.2l-0.1-0.2c-0.4-1.4-1.7-2.5-3.1-2.7
					H167l-43.8-7.6l-19.7-40l-0.1-0.2C102.7,32.6,101.3,31.8,99.7,31.9z M77.9,87.9c6.1,0,11.1,4.9,11.1,11.1
					c0,6.1-4.9,11.1-11.1,11.1c-6.1,0-11.1-4.9-11.1-11.1l0,0h-0.1c0-2.9,1.2-5.8,3.3-7.8C72.1,89.1,74.9,87.9,77.9,87.9z
					 M122.3,87.9c6.1,0,11.1,4.9,11.1,11.1c0,6.1-4.9,11.1-11.1,11.1c-6.1,0-11.1-4.9-11.1-11.1l0,0h0.1
					C111.3,92.9,116.2,88,122.3,87.9z"/>
			</g>
		</g>
	</g>
</g>
</svg>
