<?xml version="1.0" encoding="utf-8"?>
<!-- Generator: Adobe Illustrator 21.0.0, SVG Export Plug-In . SVG Version: 6.00 Build 0)  -->
<svg version="1.1" id="图层_1" xmlns="http://www.w3.org/2000/svg" xmlns:xlink="http://www.w3.org/1999/xlink" x="0px" y="0px"
	 viewBox="0 0 200 200" style="enable-background:new 0 0 200 200;" xml:space="preserve">
<path d="M100,31.4L116.4,65c2.8,7.1,9.7,12.1,17.3,12.5l37.2,5.7L143.1,112c-4.4,4.4-6.6,10.4-6.6,17.9v1l0.2,1l6.6,38.7L111,153.1
	l-0.9-0.5l-1-0.3c-2.8-0.9-5.7-1.4-8.5-1.4c-2.9,0-5.7,0.5-8.5,1.4l-1,0.3l-0.9,0.5l-32.3,17.5l6.5-38C65.5,128,65.9,120,58,112
	L30.1,83.1l36.3-5.6C74,77.1,80.9,72.1,83.6,65L100,31.4 M100,15c-3.4,0-6.9,2.1-8.4,6.3l-19,39c-1.1,3.2-4.2,5.3-7.4,5.3l-41.1,6.3
	c-8.4,1.1-11.6,11.6-5.3,16.9l30.6,31.6c3.2,3.2,4.2,6.3,3.2,9.5l-7.4,43.2c-1.6,6.6,3.1,11.9,8.8,11.9c1.6,0,3.3-0.4,4.9-1.3
	l36.9-20c1.6-0.5,3.2-0.8,4.7-0.8c1.6,0,3.2,0.3,4.7,0.8l36.9,20c1.4,0.9,2.9,1.3,4.3,1.3c5.2,0,10.2-5.3,9.4-11.9l-7.4-43.2
	c0-4.2,1.1-7.4,3.2-9.5l29.5-30.6c6.3-6.3,3.2-16.9-5.3-17.9l-41.1-6.3c-3.2,0-6.3-2.1-7.4-5.3l-19-39C106.9,17.1,103.4,15,100,15
	L100,15z"/>
</svg>
