<?xml version="1.0" encoding="utf-8"?>
<!-- Generator: Adobe Illustrator 21.0.0, SVG Export Plug-In . SVG Version: 6.00 Build 0)  -->
<svg version="1.1" id="图层_1" xmlns="http://www.w3.org/2000/svg" xmlns:xlink="http://www.w3.org/1999/xlink" x="0px" y="0px"
	 viewBox="0 0 200 200" style="enable-background:new 0 0 200 200;" xml:space="preserve">
<path d="M100,15c-3.4,0-6.9,2.1-8.4,6.3l-19,39c-1.1,3.2-4.2,5.3-7.4,5.3l-41.1,6.3c-8.4,1.1-11.6,11.6-5.3,16.9l30.6,31.6
	c3.2,3.2,4.2,6.3,3.2,9.5l-7.4,43.2c-1.6,6.6,3.1,11.9,8.8,11.9c1.6,0,3.3-0.4,4.9-1.3l36.9-20c1.6-0.5,3.2-0.8,4.7-0.8
	c1.6,0,3.2,0.3,4.7,0.8l36.9,20c1.4,0.9,2.9,1.3,4.3,1.3c5.2,0,10.2-5.3,9.4-11.9l-7.4-43.2c0-4.2,1.1-7.4,3.2-9.5l29.5-30.6
	c6.3-6.3,3.2-16.9-5.3-17.9l-41.1-6.3c-3.2,0-6.3-2.1-7.4-5.3l-19-39C106.9,17.1,103.4,15,100,15L100,15z"/>
</svg>
