<?xml version="1.0" encoding="utf-8"?>
<!-- Generator: Adobe Illustrator 21.0.0, SVG Export Plug-In . SVG Version: 6.00 Build 0)  -->
<svg version="1.1" id="图层_1" xmlns="http://www.w3.org/2000/svg" xmlns:xlink="http://www.w3.org/1999/xlink" x="0px" y="0px"
	 viewBox="0 0 200 200" style="enable-background:new 0 0 200 200;" xml:space="preserve">
<title>收 藏 (1) (1)</title>
<desc>Created with Sketch.</desc>
<path d="M184,80.6c-2-6.7-7.7-11.6-14.6-12.7l-36.6-6.5l-16.4-33.1c-1.3-3.2-3.6-5.9-6.6-7.7c-4.4-2.9-9.8-3.7-14.8-2.3
	c-5.1,1.4-9.2,4.9-11.5,9.6L67,61.3l-36.5,6.6c-7.1,0.9-12.9,5.9-14.9,12.7l-0.1,0.3c-1.8,6.7,0.1,13.8,4.9,18.7l0.1,0.1l26,24.4
	l-6.9,35.5v0.1c-1.2,6.9,1.6,13.9,7.2,18.1l0.1,0.1c3.2,2.3,6.9,3.5,10.8,3.5c3,0,5.9-0.7,8.5-2.1l33.6-16.7l33.5,16.7
	c2.6,1.4,5.5,2.1,8.5,2.2v0.1c3.9,0,7.6-1.3,10.7-3.7c5.6-4.1,8.3-11.1,7.1-18l-6.6-35.6l26.2-24.6l0.2-0.2
	C184.4,94.6,186.2,87.3,184,80.6z M77.9,110.1c-6.1,0-11.1-4.9-11.1-11.1h-0.1c0-2.9,1.2-5.8,3.3-7.8c2.1-2.1,4.9-3.3,7.9-3.3
	C84,87.9,89,92.8,89,99C89,105.1,84.1,110.1,77.9,110.1z M122.3,110.1c-6.1,0-11.1-4.9-11.1-11.1h0.1c0-6.1,4.9-11,11-11.1
	c6.1,0,11.1,4.9,11.1,11.1C133.4,105.1,128.5,110.1,122.3,110.1z"/>
</svg>
