<?xml version="1.0" encoding="utf-8"?>
<!-- Generator: Adobe Illustrator 21.0.0, SVG Export Plug-In . SVG Version: 6.00 Build 0)  -->
<svg version="1.1" id="图层_1" xmlns="http://www.w3.org/2000/svg" xmlns:xlink="http://www.w3.org/1999/xlink" x="0px" y="0px"
	 viewBox="0 0 200 200" style="enable-background:new 0 0 200 200;" xml:space="preserve">
<path d="M100,15c-44.6,0-81.2,34.4-84.7,78.2L60.9,112c3.9-2.6,8.5-4.2,13.5-4.2c0.5,0,0.9,0,1.3,0L96,78.5v-0.4
	c0-17.7,14.4-32,32-32c17.7,0,32,14.4,32,32.1s-14.4,32.1-32,32.1h-0.7l-28.9,20.6c0,0.4,0,0.7,0,1.1c0,13.3-10.7,24.1-24,24.1
	c-11.6,0-21.4-8.3-23.6-19.3l-32.6-13.5C28.3,158.8,61.1,185,100,185c46.9,0,85-38.1,85-85C185,53.1,146.9,15,100,15z M58.1,139.7
	c1.9,3.8,5.1,7.1,9.3,8.8c9.2,3.8,19.8-0.5,23.6-9.7c1.9-4.5,1.9-9.3,0-13.8c-1.8-4.5-5.3-7.9-9.7-9.8c-4.4-1.8-9.1-1.8-13.3-0.2
	l10.8,4.5c6.8,2.8,10,10.6,7.1,17.4c-2.8,6.8-10.6,10-17.4,7.2C68.6,144,58.1,139.7,58.1,139.7z M149.4,78.1
	c0-11.8-9.6-21.4-21.4-21.4c-11.8,0-21.4,9.6-21.4,21.4c0,11.8,9.6,21.4,21.4,21.4C139.8,99.4,149.4,89.9,149.4,78.1L149.4,78.1z
	 M128.1,62c8.8,0,16,7.2,16,16s-7.2,16-16,16c-8.9,0-16-7.2-16-16S119.2,62,128.1,62z"/>
</svg>
