<?xml version="1.0" encoding="utf-8"?>
<!-- Generator: Adobe Illustrator 21.0.0, SVG Export Plug-In . SVG Version: 6.00 Build 0)  -->
<svg version="1.1" id="图层_1" xmlns="http://www.w3.org/2000/svg" xmlns:xlink="http://www.w3.org/1999/xlink" x="0px" y="0px"
	 viewBox="0 0 200 200" style="enable-background:new 0 0 200 200;" xml:space="preserve">
<path d="M100,79.3c-44.4,0-80.4-12-80.4-32.2S55.6,15,100,15s80.4,12,80.4,32.2S144.4,79.3,100,79.3z M100,63.3
	c35.6,0,64.3-9.6,64.3-16.1S135.6,31.1,100,31.1s-64.3,9.6-64.3,16.1S64.4,63.3,100,63.3z M83.5,111c-4.4-0.1-7.9-3.8-7.8-8.3
	c0.1-4.4,3.8-7.9,8.3-7.8c0.1,0,0.3,0,0.4,0c29.3,1.7,52.4-0.7,69.1-7c4.2-1.6,8.8,0.5,10.4,4.7c1.6,4.2-0.5,8.8-4.7,10.4
	C140,110.1,114.8,112.8,83.5,111L83.5,111z M57.5,143.4c-4.3-1.3-6.7-5.7-5.5-10c1.3-4.3,5.7-6.7,10-5.5c18.6,5.5,38.8,6.3,60.7,2.5
	c4.4-0.7,8.5,2.3,9.2,6.7c0.7,4.3-2.2,8.4-6.4,9.2C101.2,150.5,78.5,149.5,57.5,143.4L57.5,143.4z M89.5,183.5
	c-4.2-1.3-6.6-5.9-5.2-10.1s5.9-6.6,10.1-5.2l0,0c3.1,1,7,1,11.8-0.2c4.3-1,8.7,1.6,9.7,6c1,4.3-1.6,8.7-6,9.7
	C102.5,185.5,95.6,185.5,89.5,183.5L89.5,183.5z"/>
</svg>
