<?xml version="1.0" encoding="utf-8"?>
<!-- Generator: Adobe Illustrator 21.0.0, SVG Export Plug-In . SVG Version: 6.00 Build 0)  -->
<svg version="1.1" id="图层_1" xmlns="http://www.w3.org/2000/svg" xmlns:xlink="http://www.w3.org/1999/xlink" x="0px" y="0px"
	 viewBox="0 0 200 200" style="enable-background:new 0 0 200 200;" xml:space="preserve">
<title>数据资产图标-前台</title>
<path d="M148.7,109.6c0,7.7,6.3,14,14,14c0,0,0,0,0,0c7.7,0,14-6.3,14-14c0-6-3.7-11-9-13.1V56.4c0-0.4,0-0.7-0.1-1
	c0.5-2.2-0.5-4.5-2.6-5.6L99.6,15.6c-1.4-0.7-3.2-0.7-4.6,0L29.3,49.3c-0.8,0.4-1.4,1-1.9,1.7c-1.5,2.3-0.9,5.4,1.4,6.9l32.1,21
	c-0.9,3.3-1.4,6.8-1.4,10.3c0,8.7,3,16.7,7.9,23.1c-26.7,11.5-44.3,38-44.2,67.6c0,2.7,2.2,4.9,4.9,5c0,0,0.1,0,0.1,0
	c2.8,0,5-2.2,5-5c-0.1-27,16.8-51,42.1-60c6.2,4.4,13.8,7.1,22,7.1c8.1,0,15.5-2.6,21.7-6.9c24.9,9.2,41.6,33,41.5,59.8
	c0,2.8,2.2,5,5,5s5-2.2,5-5c0-29.3-17.3-55.5-43.6-67.2c5.2-6.5,8.2-14.7,8.3-23.6c0-3.9-0.6-7.6-1.7-11.2l24.2-14.9v33.3
	C152.5,98.5,148.7,103.6,148.7,109.6z M69.6,89.3c0-15.4,12.4-27.8,27.8-27.9c15.4,0,27.9,12.5,27.9,27.9c0,8-3.4,15.3-8.9,20.3
	c-1.5,0.3-2.7,1.3-3.4,2.7c-4.4,3-9.8,4.8-15.6,4.8C82.1,117.1,69.6,104.6,69.6,89.3z M129.3,69c-6.7-10.6-18.5-17.6-31.9-17.6
	c-13.7,0-25.6,7.2-32.3,18.1L41.5,54.3l55.8-28.6l55.4,28.9L129.3,69z"/>
</svg>
