<?xml version="1.0" encoding="utf-8"?>
<!-- Generator: Adobe Illustrator 21.0.0, SVG Export Plug-In . SVG Version: 6.00 Build 0)  -->
<svg version="1.1" id="图层_1" xmlns="http://www.w3.org/2000/svg" xmlns:xlink="http://www.w3.org/1999/xlink" x="0px" y="0px"
	 viewBox="0 0 200 200" style="enable-background:new 0 0 200 200;" xml:space="preserve">
<path d="M164.8,57.8h0.2c2.3,0,4.2,1.9,4.2,4.2v34c0,2.3-1.9,4.2-4.2,4.2h-0.2c-2.3,0-4.2-1.9-4.2-4.2v-34
	C160.5,59.7,162.4,57.8,164.8,57.8z"/>
<path d="M153,76V56.9l13.9-3.8c4.5-1.2,7.2-5.9,6-10.4c-0.8-2.8-2.9-5-5.7-5.9L99.6,15.7c-1.6-0.5-3.4-0.5-5.1,0L26.9,36.8
	c-4.5,1.4-7,6.2-5.6,10.6c0.9,2.8,3.1,4.9,5.9,5.7l13.9,3.8v19.1c0,2.7,2.1,5.5,5.7,8c0,0.7-0.1,1.4-0.1,2.2
	c0,17,8.3,31.8,24.1,39.7c-25.5,8.2-41.4,27.1-45.5,51.1c-0.1,0.4-0.1,0.9-0.1,1.4c0,2.7,1,5.9,4.8,6.2c3.8,0.3,6-2.1,6.6-5.6
	c4.7-28.7,29.4-45.6,60.8-45.6c37.4,0,55.2,18.3,60,45.6c0.1,0.7,0.2,1.3,0.4,2c1,2.6,3,4.9,6.4,4.5c3.5-0.4,4.8-2.2,4.8-6.1
	c0-0.7-0.1-1.5-0.4-2.1c-4.3-23.7-20.1-43.2-45.4-51.3c15.8-7.9,24.1-22.7,24.1-39.7c0-0.7-0.1-1.4-0.1-2.1
	C150.8,81.5,153,78.7,153,76L153,76z M97,122.6c-20.6,0-37.6-14.3-39.6-32.6c10.7,4,25.9,8.9,40.3,8.9c14.4,0,28.1-4.8,38.8-8.8
	C134.6,108.4,117.6,122.6,97,122.6z M133.4,77.9c0,0-0.8,0.6-2,1.2c-7.5,4.1-20.9,8.1-34.3,8.1c-13.4,0-26.8-4.1-34.3-8.2
	c-1-0.5-1.8-1-1.8-1c-2.8-1.7-6.9-3.4-6.9-4.6V62.4l43,13.8l43.7-13.8v10.9h0C140.7,74.6,136,76.2,133.4,77.9L133.4,77.9z M97,64.8
	L37.2,45.4L97,25.9l60.1,19.6L97,64.8z"/>
</svg>
