<?xml version="1.0" encoding="utf-8"?>
<!-- Generator: Adobe Illustrator 21.0.0, SVG Export Plug-In . SVG Version: 6.00 Build 0)  -->
<svg version="1.1" id="图层_1" xmlns="http://www.w3.org/2000/svg" xmlns:xlink="http://www.w3.org/1999/xlink" x="0px" y="0px"
	 viewBox="0 0 200 200" style="enable-background:new 0 0 200 200;" xml:space="preserve">
<path d="M98.4,15C52.9,15.9,15.9,52.9,15,98.4c-0.9,48.2,38.4,87.5,86.6,86.6c45.4-0.9,82.5-37.9,83.3-83.3
	C185.9,53.4,146.6,14.1,98.4,15z M97.8,168c-35.6-1.1-64.6-30.1-65.8-65.8C30.8,62.9,62.9,30.8,102.2,32
	c35.6,1.1,64.6,30.1,65.8,65.8C169.2,137.1,137.1,169.2,97.8,168z"/>
<path d="M66,91.5h68c4.7,0,8.5,3.8,8.5,8.5v0c0,4.7-3.8,8.5-8.5,8.5H66c-4.7,0-8.5-3.8-8.5-8.5v0C57.5,95.3,61.3,91.5,66,91.5z"/>
</svg>
