<?xml version="1.0" encoding="utf-8"?>
<!-- Generator: Adobe Illustrator 21.0.0, SVG Export Plug-In . SVG Version: 6.00 Build 0)  -->
<svg version="1.1" id="图层_1" xmlns="http://www.w3.org/2000/svg" xmlns:xlink="http://www.w3.org/1999/xlink" x="0px" y="0px"
	 viewBox="0 0 200 200" style="enable-background:new 0 0 200 200;" xml:space="preserve">
<path d="M100,139.2c21.7,0,39.2-17.6,39.2-39.2S121.7,60.8,100,60.8S60.8,78.3,60.8,100S78.3,139.2,100,139.2z M100,152.3
	c-28.9,0-52.3-23.4-52.3-52.3S71.1,47.7,100,47.7s52.3,23.4,52.3,52.3S128.9,152.3,100,152.3z M93.5,21.5c0-3.6,2.9-6.5,6.5-6.5
	c3.6,0,6.5,2.9,6.5,6.5v13.1c0,3.6-2.9,6.5-6.5,6.5c-3.6,0-6.5-2.9-6.5-6.5V21.5z M93.5,165.4c0-3.6,2.9-6.5,6.5-6.5
	c3.6,0,6.5,2.9,6.5,6.5v13.1c0,3.6-2.9,6.5-6.5,6.5c-3.6,0-6.5-2.9-6.5-6.5V165.4z M150.9,39.9c2.5-2.6,6.6-2.7,9.2-0.2
	c2.6,2.5,2.7,6.6,0.2,9.2c-0.1,0.1-0.1,0.1-0.2,0.2l-9.2,9.2c-2.6,2.5-6.7,2.4-9.2-0.2c-2.4-2.5-2.4-6.6,0-9.1L150.9,39.9z
	 M49.1,141.6c2.5-2.6,6.6-2.7,9.2-0.2c2.6,2.5,2.7,6.6,0.2,9.2c-0.1,0.1-0.1,0.1-0.2,0.2l-9.2,9.2c-2.6,2.5-6.7,2.4-9.2-0.2
	c-2.4-2.5-2.4-6.6,0-9.1L49.1,141.6z M49.1,39.9c-2.5-2.6-6.6-2.7-9.2-0.2c-2.6,2.5-2.7,6.6-0.2,9.2c0.1,0.1,0.1,0.1,0.2,0.2
	l9.2,9.2c2.6,2.5,6.7,2.4,9.2-0.2c2.4-2.5,2.4-6.6,0-9.1L49.1,39.9z M150.9,141.6c-2.5-2.6-6.6-2.7-9.2-0.2
	c-2.6,2.5-2.7,6.6-0.2,9.2c0.1,0.1,0.1,0.1,0.2,0.2l9.2,9.2c2.6,2.5,6.7,2.4,9.2-0.2c2.4-2.5,2.4-6.6,0-9.1L150.9,141.6z
	 M178.5,93.5c3.6,0,6.5,2.9,6.5,6.5c0,3.6-2.9,6.5-6.5,6.5h-13.1c-3.6,0-6.5-2.9-6.5-6.5c0-3.6,2.9-6.5,6.5-6.5H178.5z M34.6,93.5
	c3.6,0,6.5,2.9,6.5,6.5c0,3.6-2.9,6.5-6.5,6.5H21.5c-3.6,0-6.5-2.9-6.5-6.5c0-3.6,2.9-6.5,6.5-6.5H34.6z"/>
</svg>
