<?xml version="1.0" encoding="utf-8"?>
<!-- Generator: Adobe Illustrator 21.0.0, SVG Export Plug-In . SVG Version: 6.00 Build 0)  -->
<svg version="1.1" id="图层_1" xmlns="http://www.w3.org/2000/svg" xmlns:xlink="http://www.w3.org/1999/xlink" x="0px" y="0px"
	 viewBox="0 0 200 200" style="enable-background:new 0 0 200 200;" xml:space="preserve">
<path d="M100,33.7c4.9,0,8.9-4.3,8.9-9.3c0-5.5-4-9.4-8.9-9.4s-8.9,4.3-8.9,9.3C91.1,29.7,95.1,33.7,100,33.7z"/>
<path d="M100,70.3c5.9,0,10.2-4.3,10.2-10.2s-4.9-10.2-10.2-10.2s-10.2,4.9-10.2,10.2C89.8,66,94.5,70.3,100,70.3z"/>
<path d="M100,109.6c6.4,0,11.7-5.5,11.7-12.3s-4.9-12.3-11.7-12.3c-6.4,0-11.7,5.5-11.7,12.3S93.6,109.6,100,109.6z"/>
<path d="M129.8,49.8c5.5,0,9.8-4.3,9.8-9.8s-4.3-9.8-9.8-9.8c-5.5,0-9.3,4.3-9.8,9.8C120,45.4,124.6,49.8,129.8,49.8z"/>
<path d="M161.8,70.9c5.9,0,10.8-4.9,10.8-10.8s-4.9-10.8-10.8-10.8c-5.9,0-10.8,4.7-10.8,10.8C151,66,155.9,70.9,161.8,70.9z"/>
<path d="M129.8,87.9c5.9,0,10.8-4.9,10.8-10.8c0-5.9-4.9-10.8-10.8-10.8c-5.9,0-10.2,4.9-10.8,10.8C119.1,83.2,124,87.9,129.8,87.9z
	"/>
<path d="M161.8,108.5c6.4,0,11.3-5.5,11.3-11.7c0-6.4-4.9-11.7-11.3-11.7s-11.3,5.5-11.3,11.7S155.3,108.5,161.8,108.5z"/>
<path d="M161.8,119.3c-7.7,0-13.8,6.4-13.8,14.2s5.9,14.2,13.8,14.2c7.4,0,13.8-6.4,13.8-14.2C175.4,125.7,169.5,119.3,161.8,119.3z
	"/>
<path d="M130.4,140.4c-5.9,0-11.3,4.9-11.3,11.7c0,6.4,4.9,11.7,11.3,11.7c6.4,0,11.3-5.5,11.3-11.7S136.8,140.4,130.4,140.4z"/>
<path d="M70.2,49.8c5.5,0,9.8-4.3,9.8-9.8c-0.6-5.3-4.9-9.8-9.8-9.8c-5.5,0-9.8,4.3-9.8,9.8S64.7,49.8,70.2,49.8z"/>
<path d="M38.2,70.9C44.1,70.9,49,66,49,60.1s-4.9-10.8-10.8-10.8s-10.8,4.9-10.8,10.8S32.4,70.9,38.2,70.9z"/>
<path d="M70.2,87.9c5.9,0,10.8-4.9,10.8-10.8c-0.6-5.9-4.9-10.8-10.8-10.8c-5.9,0-10.8,4.9-10.8,10.8C59.4,83.2,64.3,87.9,70.2,87.9
	z"/>
<path d="M38.2,108.5c6.4,0,11.3-5.5,11.3-11.7s-4.9-11.7-11.3-11.7s-11.3,5.5-11.3,11.7C27.1,103.2,31.8,108.5,38.2,108.5z"/>
<path d="M38.2,119.3c-7.7,0-13.8,6.4-13.8,14.2s6.4,14.2,13.8,14.2c7.7,0,13.8-6.4,13.8-14.2C52,125.7,45.6,119.3,38.2,119.3z"/>
<path d="M69.2,140.4c-6.4,0-11.3,5.5-11.3,11.7s4.9,11.7,11.3,11.7s11.3-5.5,11.3-11.7C80.9,145.3,75.4,140.4,69.2,140.4z"/>
<path d="M100,132.5c-7.7-14.2-19.6-24.6-34.8-31.9l-6.8,13.2c32.3,16.8,41.6,40.4,27.4,71.2h3.4h21.5h3.4
	c-14.2-30.8-4.9-54.4,27.4-71l-6.8-13.2C119.6,108.1,107.7,118.3,100,132.5z"/>
</svg>
