<?xml version="1.0" encoding="utf-8"?>
<!-- Generator: Adobe Illustrator 21.0.0, SVG Export Plug-In . SVG Version: 6.00 Build 0)  -->
<svg version="1.1" id="图层_1" xmlns="http://www.w3.org/2000/svg" xmlns:xlink="http://www.w3.org/1999/xlink" x="0px" y="0px"
	 viewBox="0 0 200 200" style="enable-background:new 0 0 200 200;" xml:space="preserve">
<path d="M115.3,185c-0.8,0-1.3-0.5-1.2-1.2V16.2c0-0.5,0.4-1.1,1.1-1.1h26.3c24,0,43.5,19.5,43.5,43.5v82.8
	c0,24-19.5,43.5-43.5,43.5l0,0H115.3L115.3,185z M147.6,91.3c-9.5,0-17.2,7.7-17.2,17.2s7.7,17.2,17.2,17.2s17.2-7.7,17.2-17.2
	S157.1,91.3,147.6,91.3z M41.4,66c0-8.8,7.2-16,16-16c8.8,0,16,7.2,16,16c0,8.8-7.2,16-16,16C48.6,82,41.5,74.8,41.4,66L41.4,66z
	 M95.7,15c0.8,0,1.3,0.5,1.2,1.2v167.5c0,0.7-0.5,1.2-1.2,1.2H58.5c-24,0-43.5-19.5-43.5-43.5c0,0,0,0,0,0V58.5
	C15,34.5,34.5,15,58.5,15H95.7z M83.2,171.2V28.6H58.5c-8,0-15.5,3.2-21.1,8.8c-5.7,5.5-8.9,13.2-8.8,21.1v82.8
	c0,8,3.2,15.5,8.8,21.1c5.5,5.7,13.2,8.9,21.1,8.8C58.5,171.2,83.2,171.2,83.2,171.2z"/>
</svg>
