<?xml version="1.0" encoding="utf-8"?>
<!-- Generator: Adobe Illustrator 21.0.0, SVG Export Plug-In . SVG Version: 6.00 Build 0)  -->
<svg version="1.1" id="图层_1" xmlns="http://www.w3.org/2000/svg" xmlns:xlink="http://www.w3.org/1999/xlink" x="0px" y="0px"
	 viewBox="0 0 200 200" style="enable-background:new 0 0 200 200;" xml:space="preserve">
<title>皮肤</title>
<desc>Created with Sketch.</desc>
<g id="切换主题">
	<g id="风格定制" transform="translate(-130.000000, -365.000000)">
		<g id="皮肤" transform="translate(130.000000, 365.000000)">
			<path id="路径_1_" d="M143.5,36.6L172.1,67l-12.9,13.9c-1.4-0.6-2.9-0.9-4.5-0.9c-6.7,0-12.1,5.5-12.1,12.2v71.2H57.4V92.2
				C57.4,85.5,52,80,45.3,80c-1.5,0-3,0.3-4.4,0.8L27.9,67l28.4-30.4h7.5C72.1,46,89.7,50.2,100,50.2s27.9-4.2,36.2-13.6H143.5
				 M144.8,25.6H135c-2.6,0-5.1,1.2-6.7,3.3c-5,6.3-19.3,10.3-28.3,10.3s-23.3-4-28.3-10.3c-1.7-2.1-4.2-3.3-6.7-3.3h-9.8
				c-2.4,0-4.6,1-6.3,2.8L16.6,63c-2.1,2.2-2.1,5.8,0,8l19.7,21.1c1,1.1,2.4,1.7,3.8,1.7c1.4,0,2.7-0.6,3.8-1.7l0.7-0.7
				c0.2-0.3,0.5-0.4,0.8-0.4c0.6,0,1.1,0.5,1.1,1.2v73.5c0,4.8,3.6,8.7,8.1,8.7h91c4.5,0,8.1-3.9,8.1-8.7V92.2
				c0-0.7,0.5-1.2,1.1-1.2c0.3,0,0.6,0.1,0.8,0.4l0.7,0.7c1.1,1.1,2.4,1.7,3.8,1.7c1.4,0,2.7-0.6,3.8-1.7L183.4,71
				c2.1-2.2,2.1-5.8,0-8L151,28.5C149.4,26.6,147.1,25.6,144.8,25.6L144.8,25.6z"/>
		</g>
	</g>
</g>
</svg>
