<?xml version="1.0" encoding="utf-8"?>
<!-- Generator: Adobe Illustrator 21.0.0, SVG Export Plug-In . SVG Version: 6.00 Build 0)  -->
<svg version="1.1" id="图层_1" xmlns="http://www.w3.org/2000/svg" xmlns:xlink="http://www.w3.org/1999/xlink" x="0px" y="0px"
	 viewBox="0 0 200 200" style="enable-background:new 0 0 200 200;" xml:space="preserve">
<title>皮肤</title>
<desc>Created with Sketch.</desc>
<g id="切换主题">
	<g id="风格定制" transform="translate(-130.000000, -365.000000)">
		<g id="皮肤" transform="translate(130.000000, 365.000000)">
			<path id="路径" d="M144.8,25.6H135c-2.6,0-5.1,1.2-6.7,3.3c-5,6.3-19.3,10.3-28.3,10.3c-9,0-23.3-4-28.3-10.3
				c-1.7-2.1-4.2-3.3-6.7-3.3h-9.8c-2.4,0-4.6,1-6.3,2.8L16.6,63c-2.1,2.2-2.1,5.8,0,8l19.7,21.1c2.1,2.2,5.4,2.2,7.5,0l0.7-0.7
				c0.7-0.8,1.9-0.2,1.9,0.8v73.5c0,4.8,3.6,8.7,8.1,8.7h91c4.5,0,8.1-3.9,8.1-8.7V92.2c0-1.1,1.2-1.6,1.9-0.8l0.7,0.7
				c2.1,2.2,5.4,2.2,7.5,0L183.4,71c2.1-2.2,2.1-5.8,0-8l-32.4-34.5C149.4,26.6,147.1,25.6,144.8,25.6z"/>
		</g>
	</g>
</g>
</svg>
