<?xml version="1.0" encoding="utf-8"?>
<!-- Generator: Adobe Illustrator 21.0.0, SVG Export Plug-In . SVG Version: 6.00 Build 0)  -->
<svg version="1.1" id="图层_1" xmlns="http://www.w3.org/2000/svg" xmlns:xlink="http://www.w3.org/1999/xlink" x="0px" y="0px"
	 viewBox="0 0 200 200" style="enable-background:new 0 0 200 200;" xml:space="preserve">
<title>数据资产图标-前台</title>
<g>
	<path d="M151,34.4h-18.4V23.7c0-4.8-3.9-8.7-8.7-8.7H76.5c-4.8,0-8.7,3.9-8.7,8.7v10.7H49c-9.5,0-17.2,7.7-17.3,17.3v116.1
		c0,9.5,7.7,17.2,17.3,17.3h44h14h44c9.5,0,17.2-7.7,17.3-17.3V51.6C168.2,42.1,160.5,34.4,151,34.4z M77.5,24.6h45.4v33.7H77.5
		V24.6z M158.6,167.7c0,4.2-3.4,7.6-7.6,7.6H93c0,0,0,0,0,0H49c-4.2,0-7.6-3.4-7.6-7.6V51.6c0-4.2,3.4-7.6,7.6-7.6h18.8v14.3h-9.6
		c-2.7,0-4.8,2.2-4.8,4.8s2.2,4.8,4.8,4.8h18.2h47.3h17.2c2.7,0,4.8-2.2,4.8-4.8s-2.2-4.8-4.8-4.8h-8.5V44H151
		c4.2,0,7.6,3.4,7.6,7.6V167.7z"/>
	<path d="M100.2,28.8c-7.1,0-12.8,5.7-12.8,12.8s5.7,12.8,12.8,12.8S113,48.7,113,41.6C113,34.5,107.3,28.8,100.2,28.8z M100.2,44.8
		c-1.8,0-3.3-1.5-3.3-3.3c0-1.8,1.5-3.3,3.3-3.3s3.3,1.5,3.3,3.3C103.5,43.3,102,44.8,100.2,44.8z"/>
	<path d="M75.1,107.3L91,119.6c0.5,0.5,1.1,0.8,1.7,1c0,0,0.1,0,0.1,0c0.2,0.1,0.4,0.1,0.6,0.2c0.3,0,0.5,0.1,0.8,0.1
		c1.1,0,2.1-0.4,3-1.1c0.1-0.1,0.2-0.2,0.3-0.3c0.1-0.1,0.2-0.1,0.2-0.2l28-29.9c1.8-1.9,1.7-4.9-0.2-6.7c-1.9-1.8-5-1.8-6.8,0.1
		l-25,26.6L81,99.7c-2.1-1.6-5.1-1.2-6.8,0.8C72.7,102.6,73,105.7,75.1,107.3z"/>
	<path d="M135.3,133.7H65c-2.7,0-4.8,2.2-4.8,4.8s2.2,4.8,4.8,4.8h70.3c2.7,0,4.8-2.2,4.8-4.8S137.9,133.7,135.3,133.7z"/>
	<path d="M118.2,152.4h-36c-2.7,0-4.8,2.2-4.8,4.8c0,2.7,2.2,4.8,4.8,4.8h36c2.7,0,4.8-2.2,4.8-4.8
		C123,154.6,120.8,152.4,118.2,152.4z"/>
</g>
</svg>
