<?xml version="1.0" encoding="utf-8"?>
<!-- Generator: Adobe Illustrator 21.0.0, SVG Export Plug-In . SVG Version: 6.00 Build 0)  -->
<svg version="1.1" id="图层_1" xmlns="http://www.w3.org/2000/svg" xmlns:xlink="http://www.w3.org/1999/xlink" x="0px" y="0px"
	 viewBox="0 0 200 200" style="enable-background:new 0 0 200 200;" xml:space="preserve">
<title>数据资产图标-前台</title>
<path d="M151,34.4h-18.4V23.7c0-4.8-3.9-8.7-8.7-8.7H76.5c-4.8,0-8.7,3.9-8.7,8.7v10.7H49c-9.5,0-17.2,7.7-17.3,17.3v116.1
	c0,9.5,7.7,17.2,17.3,17.3h44h14h44c9.5,0,17.2-7.7,17.3-17.3V51.6C168.2,42.1,160.5,34.4,151,34.4z M77.5,24.6h45.4v33.7H77.5V24.6
	z M158.6,167.7c0,4.2-3.4,7.6-7.6,7.6H93l0,0H49c-4.2,0-7.6-3.4-7.6-7.6V51.6c0-4.2,3.4-7.6,7.6-7.6h18.8v14.3h-9.6
	c-2.7,0-4.8,2.2-4.8,4.8s2.2,4.8,4.8,4.8h18.2h47.3h17.2c2.7,0,4.8-2.2,4.8-4.8s-2.2-4.8-4.8-4.8h-8.5V44H151c4.2,0,7.6,3.4,7.6,7.6
	V167.7z"/>
<path d="M100.2,28.8c-7.1,0-12.8,5.7-12.8,12.8s5.7,12.8,12.8,12.8S113,48.7,113,41.6S107.3,28.8,100.2,28.8z M100.2,44.8
	c-1.8,0-3.3-1.5-3.3-3.3s1.5-3.3,3.3-3.3s3.3,1.5,3.3,3.3S102,44.8,100.2,44.8z"/>
</svg>
