<?xml version="1.0" standalone="no"?><!DOCTYPE svg PUBLIC "-//W3C//DTD SVG 1.1//EN" "http://www.w3.org/Graphics/SVG/1.1/DTD/svg11.dtd"><svg class="icon" width="200px" height="200.00px" viewBox="0 0 1024 1024" version="1.1" xmlns="http://www.w3.org/2000/svg"><path d="M521.386667 849.92a53.546667 53.546667 0 0 1-37.76-15.573333L109.226667 466.133333a32.426667 32.426667 0 0 1-9.386667-22.826666V226.986667a53.973333 53.973333 0 0 1 53.973333-53.973334h200.32a54.613333 54.613333 0 0 1 38.613334 15.36L759.466667 561.066667a53.76 53.76 0 0 1 0 75.093333l-200.32 198.4a54.186667 54.186667 0 0 1-37.76 15.36z m7.253333-60.586667zM163.84 429.866667l357.333333 351.786666 52.693334-52.48 132.48-130.773333-355.626667-361.386667H163.84z m549.973333 176z"  /><path d="M671.573333 851.84a53.76 53.76 0 0 1-37.76-15.36L571.733333 774.4a32.213333 32.213333 0 0 1 0-45.226667 31.786667 31.786667 0 0 1 45.226667 0l54.613333 54.4 52.48-52.48 132.48-130.773333L501.12 238.933333h-157.013333a32 32 0 1 1 0-64h160.213333a54.613333 54.613333 0 0 1 38.613333 15.36l366.72 372.693334a54.186667 54.186667 0 0 1 0 75.306666l-200.32 198.186667a52.906667 52.906667 0 0 1-37.546666 15.36z m-7.68-60.586667z m200.106667-183.253333zM504.32 238.933333z"  /><path d="M283.946667 449.28a88.106667 88.106667 0 1 1 88.106666-88.106667 88.32 88.32 0 0 1-88.106666 88.106667z m0-112.213333a24.106667 24.106667 0 1 0 24.106666 24.106666 24.32 24.32 0 0 0-24.106666-24.106666z"  /></svg>