<?xml version="1.0" encoding="utf-8"?>
<!-- Generator: Adobe Illustrator 21.0.0, SVG Export Plug-In . SVG Version: 6.00 Build 0)  -->
<svg version="1.1" id="图层_1" xmlns="http://www.w3.org/2000/svg" xmlns:xlink="http://www.w3.org/1999/xlink" x="0px" y="0px"
	 viewBox="0 0 200 200" style="enable-background:new 0 0 200 200;" xml:space="preserve">
<path d="M31.8,69.9l-9.7,14.9L40,95.9c0,0,11.9,6.1,6.2,17.6C40.9,124.3,15,148,15,148l23.2,14.6c16.1-35,15-30.4,19-43
	c4.1-12.8,5.1-22.6-2-29.8C46.2,80.7,45.2,79.9,31.8,69.9z M44.5,64.2c8.4,0,15.2-6.1,15.2-13.7c0-7.6-6.8-13.8-15.2-13.8
	c-8.5,0-15.3,6.2-15.3,13.8C29.2,58.1,36,64.2,44.5,64.2z M182.1,65.9c0,0-5.1-39.4-90.7-15c3.7-6.4,5.4-10.6,5.4-10.6l-21.4-6.1
	c0,0-8.7,28.4-24.1,41.6c0,0,14.9,8.7,14.8,8.4c4.1-4.1,7.9-8.4,11.4-12.9c3.4-1.5,6.7-2.9,9.9-4.2c-4,7.2-10.3,18-16.7,24.7l9,8
	c0,0,6.2-6,12.9-13.1h7.6V100H70.4v10.6h29.8v25.4l-1.1,0c-3.3-0.2-8.4-0.7-10.4-3.9c-2.4-3.9-0.6-11-0.5-15.4H67.6l-0.8,0.4
	c0,0-7.6,34,21.8,33.3c27.4,0.7,43.1-7.7,50.7-13.6l3,11.3l16.9-7.1l-11.5-28.2l-13.7,4.3l2.5,9.6c-3.5,2.7-7.5,4.6-11.9,6.1v-22.2
	h29.1V100h-29.1V86.7h29.2V76.1H102c3.8-4.6,6.7-8.8,7.4-11.5l-9.1-2.5c38.8-14,60.5-11.6,60.3,11.4v60.5c0,0,2.3,20.8-21.3,19.3
	l-12.8-2.8l-3,12.2c0,0,55.2,15.9,59.7-26.8C187.7,93.2,182.1,65.9,182.1,65.9z"/>
</svg>
