<?xml version="1.0" encoding="utf-8"?>
<!-- Generator: Adobe Illustrator 21.0.0, SVG Export Plug-In . SVG Version: 6.00 Build 0)  -->
<svg version="1.1" id="图层_1" xmlns="http://www.w3.org/2000/svg" xmlns:xlink="http://www.w3.org/1999/xlink" x="0px" y="0px"
	 viewBox="0 0 200 200" style="enable-background:new 0 0 200 200;" xml:space="preserve">
<path d="M124.5,61.8H25.8H15.2v10.6v55.1v10.2v0.4H135v-0.4v-10.2v-55V61.8H124.5z M124.5,127.4H25.8v-55h98.6L124.5,127.4
	L124.5,127.4z"/>
<rect x="163" y="0.1" width="10.8" height="38.1"/>
<rect x="163.1" y="118.3" width="10.6" height="81.7"/>
<polygon points="124.4,0 124.5,27.5 25.8,27.5 25.8,0 15.1,0 15.1,27.5 15.1,37.8 15.1,38.2 135.1,38.2 135.1,37.8 135.1,27.5 
	135.1,0 "/>
<polygon points="25.8,200 25.8,172.3 124.3,172.3 124.4,200 135.1,200 135.1,172.3 135.1,161.6 124.5,161.6 25.8,161.6 15.1,161.6 
	15.1,172.3 15.1,200 "/>
<rect x="151.9" y="61.8" width="33" height="33"/>
</svg>
