<?xml version="1.0" encoding="utf-8"?>
<!-- Generator: Adobe Illustrator 21.0.0, SVG Export Plug-In . SVG Version: 6.00 Build 0)  -->
<svg version="1.1" id="图层_1" xmlns="http://www.w3.org/2000/svg" xmlns:xlink="http://www.w3.org/1999/xlink" x="0px" y="0px"
	 viewBox="0 0 200 200" style="enable-background:new 0 0 200 200;" xml:space="preserve">
<path d="M110.7,16.3c-6.5,1.6-13.1,3-19.3,5.5C69,30.9,56.2,47.9,50.6,71.1c-3,12.2-2.8,24.6-1.6,36.8c0.4,3.7,0.9,7.4,0,11.3
	c-1.8,7.4-7.6,12.4-14.8,12.7c-7.6,0.4-14-4.2-16.1-11.7c-6-20.9-3.9-41.2,6.4-60.3c13.8-25.6,35.7-40.7,65.1-44.5
	c5.5-0.7,10.8-0.9,16.3-0.5C107.3,15,109.1,15,110.7,16.3z"/>
<path d="M166.7,149.9c1.2-4.6,2.7-8.8,3.5-13.1c5.8-27.8-3.4-50.2-24.6-68.2c-8.8-7.6-19.1-12.7-29.7-17.5c-2.3-1.1-4.8-2.1-6.9-3.4
	c-7.2-4.1-10.1-11.5-7.4-18.9c2.7-7.4,9.5-11.7,17.5-10.4c14,2.1,26,8.8,36.6,18c31.3,27.6,37.7,75.1,14.8,109.4
	C169.7,147.1,169,149,166.7,149.9L166.7,149.9z"/>
<path d="M22.7,133.6c0.4,0.4,0.7,0.5,1.1,0.9c24.9,29.5,59.2,33.1,92.1,15.4c7.8-4.2,14.7-9.7,21.9-14.7c7.2-4.9,14.8-4.6,20.5,0.5
	c7.1,6.5,7.2,16.4,0.5,23.5c-34.3,36.4-95.3,33.2-126-6.7C28.5,146.7,24.8,140.7,22.7,133.6L22.7,133.6z"/>
<path d="M101,62.9c16.4,0.2,25.6,9.5,26.5,27.4c0.2,2.1,0.5,4.1,1.8,6c2.5,4.2,4.2,8.7,5.3,13.4c0.4,1.4,0.9,3-0.4,4.1
	c-1.4,1.2-2.8,0.2-4.2-0.4c-0.9-0.4-1.6-0.9-2.3-1.6c-1.1-0.9-1.6-0.7-2.1,0.5c-0.4,1.1-0.9,2.1-1.6,3.2c-1.4,2.3-2.3,3.7,1.2,5.3
	c3.9,1.9,3.4,5.7-0.7,7.2c-6.4,2.7-13.1,3-19.6,0.5c-3-1.1-5.5-1.1-8.5,0c-6.2,2.3-12.6,1.9-18.7-0.2c-1.9-0.7-3.9-1.6-3.9-4.1
	c-0.2-2.3,1.4-3.5,3.2-4.2c2.7-0.9,2.1-2.3,1.1-3.9c-0.4-0.5-0.7-1.2-1.1-1.9c-1.1-2.7-2.1-4.2-4.9-1.4c-1.1,1.1-3,1.8-4.6,0.7
	c-1.2-0.9-0.5-2.7-0.2-4.1c0.9-3.7,1.8-7.8,3.9-11c2.5-3.7,3-7.8,3.4-11.8C76,71.1,85.4,62.7,101,62.9L101,62.9z"/>
</svg>
