<?xml version="1.0" encoding="utf-8"?>
<!-- Generator: Adobe Illustrator 21.0.0, SVG Export Plug-In . SVG Version: 6.00 Build 0)  -->
<svg version="1.1" id="图层_1" xmlns="http://www.w3.org/2000/svg" xmlns:xlink="http://www.w3.org/1999/xlink" x="0px" y="0px"
	 viewBox="0 0 200 200" style="enable-background:new 0 0 200 200;" xml:space="preserve">
<path d="M179.1,82.8c-4.3-5.4-10.8-8.6-17.7-8.6h-39.5c2.2-6,3.6-12.6,4.1-18.9c0.8-9.8-0.7-18.6-4.4-25.3
	c-4.5-8.2-12.1-13.4-22.1-14.9c-4.5-0.7-8.4,0.2-11.6,2.6c-6.4,4.8-7.5,14-8.9,24.6c-1.1,8.5-2.3,18.1-6.4,25
	c-2.7,4.6-8.1,10.7-22.8,10.7H34.5C24.3,78.2,16,86.5,16,96.7v69.9c0,10.2,8.3,18.5,18.5,18.5H146c5.1,0,10.1-1.7,14-4.9
	c4-3.2,6.8-7.6,8-12.6l15.3-65.6C185,95.2,183.4,88.2,179.1,82.8L179.1,82.8L179.1,82.8z M28.3,166.5V96.7c0-3.4,2.8-6.2,6.2-6.2h13
	v82.2h-13C31.1,172.7,28.3,169.9,28.3,166.5L28.3,166.5L28.3,166.5z M171.4,99.2L156,164.7c-1.1,4.7-5.2,7.9-10,7.9H59.8V89.6
	c10.4-2,18.2-7.3,23.3-15.8c5.4-9.1,6.8-20.1,8.1-29.8c0.6-4.4,1.1-8.5,1.9-11.7c0.9-3.4,1.8-4.4,2.2-4.7c0.4-0.3,1.2-0.4,2.3-0.2
	c6.2,0.9,10.5,3.7,13.1,8.6c5.4,9.9,3,26.7-2.1,38.2c-1.2,2.7-1,5.9,0.6,8.4c1.6,2.5,4.4,4,7.4,4h44.8c3.2,0,6.1,1.4,8.1,3.9
	C171.4,92.9,172.1,96.1,171.4,99.2L171.4,99.2L171.4,99.2z"/>
</svg>
