<?xml version="1.0" encoding="utf-8"?>
<!-- Generator: Adobe Illustrator 21.0.0, SVG Export Plug-In . SVG Version: 6.00 Build 0)  -->
<svg version="1.1" id="图层_1" xmlns="http://www.w3.org/2000/svg" xmlns:xlink="http://www.w3.org/1999/xlink" x="0px" y="0px"
	 viewBox="0 0 200 200" style="enable-background:new 0 0 200 200;" xml:space="preserve">
<path d="M20.9,117.2c4.3,5.4,10.8,8.6,17.7,8.6h39.5c-2.2,6-3.6,12.6-4.1,18.9c-0.8,9.8,0.7,18.6,4.4,25.3
	c4.5,8.2,12.1,13.4,22.1,14.9c4.5,0.7,8.4-0.2,11.6-2.6c6.4-4.8,7.5-14,8.9-24.6c1.1-8.5,2.3-18.1,6.4-25
	c2.7-4.6,8.1-10.7,22.8-10.7h15.3c10.2-0.2,18.5-8.5,18.5-18.7V33.4c0-10.2-8.3-18.5-18.5-18.5H54c-5.1,0-10.1,1.7-14,4.9
	c-4,3.2-6.8,7.6-8,12.6L16.7,98C15,104.8,16.6,111.8,20.9,117.2L20.9,117.2L20.9,117.2z M171.7,33.5v69.8c0,3.4-2.8,6.2-6.2,6.2h-13
	V27.3h13C168.9,27.3,171.7,30.1,171.7,33.5L171.7,33.5L171.7,33.5z M28.6,100.8L44,35.3c1.1-4.7,5.2-7.9,10-7.9h86.2v83
	c-10.4,2-18.2,7.3-23.3,15.8c-5.4,9.1-6.8,20.1-8.1,29.8c-0.6,4.4-1.1,8.5-1.9,11.7c-0.9,3.4-1.8,4.4-2.2,4.7
	c-0.4,0.3-1.2,0.4-2.3,0.2c-6.2-0.9-10.5-3.7-13.1-8.6c-5.4-9.9-3-26.7,2.1-38.2c1.2-2.7,1-5.9-0.6-8.4s-4.4-4-7.4-4H38.6
	c-3.2,0-6.1-1.4-8.1-3.9C28.6,107.1,27.9,103.9,28.6,100.8L28.6,100.8L28.6,100.8z"/>
</svg>
