<?xml version="1.0" encoding="utf-8"?>
<!-- Generator: Adobe Illustrator 21.0.0, SVG Export Plug-In . SVG Version: 6.00 Build 0)  -->
<svg version="1.1" id="图层_1" xmlns="http://www.w3.org/2000/svg" xmlns:xlink="http://www.w3.org/1999/xlink" x="0px" y="0px"
	 viewBox="0 0 200 200" style="enable-background:new 0 0 200 200;" xml:space="preserve">
<path d="M98.2,36.9v42.6v12h12h39.3l-47.8,71.6v-42.6v-12h-12H50.4L98.2,36.9 M102.5,15c-2.6,0-5,1.3-6.4,3.4L36,108.5
	c-2.4,3.5-1.4,8.3,2.1,10.7c1.3,0.8,2.8,1.3,4.3,1.3h47.3v56.7c0,4.3,3.5,7.7,7.7,7.7c0.1,0,0.2,0,0.3,0c2.5,0,4.8-1.3,6.1-3.3
	l60.1-90.1c2.4-3.5,1.4-8.3-2.1-10.7c-1.3-0.8-2.8-1.3-4.3-1.3h-47.3V22.7C110.2,18.4,106.7,15,102.5,15L102.5,15z"/>
</svg>
