<?xml version="1.0" encoding="utf-8"?>
<!-- Generator: Adobe Illustrator 21.0.0, SVG Export Plug-In . SVG Version: 6.00 Build 0)  -->
<svg version="1.1" id="图层_1" xmlns="http://www.w3.org/2000/svg" xmlns:xlink="http://www.w3.org/1999/xlink" x="0px" y="0px"
	 viewBox="0 0 200 200" style="enable-background:new 0 0 200 200;" xml:space="preserve">
<path d="M103.8,181.6l60.1-90.1c2.4-3.5,1.4-8.3-2.1-10.7c-1.3-0.8-2.8-1.3-4.3-1.3h-47.3V22.7c0-4.3-3.5-7.7-7.7-7.7
	c-2.6,0-5,1.3-6.4,3.4l-60.1,90.1c-2.4,3.5-1.4,8.3,2.1,10.7c1.3,0.8,2.8,1.3,4.3,1.3h47.3v56.7c0,4.3,3.5,7.7,7.7,7.7
	C100,185,102.4,183.7,103.8,181.6z"/>
</svg>
