<?xml version="1.0" encoding="utf-8"?>
<!-- Generator: Adobe Illustrator 21.0.0, SVG Export Plug-In . SVG Version: 6.00 Build 0)  -->
<svg version="1.1" id="图层_1" xmlns="http://www.w3.org/2000/svg" xmlns:xlink="http://www.w3.org/1999/xlink" x="0px" y="0px"
	 viewBox="0 0 200 200" style="enable-background:new 0 0 200 200;" xml:space="preserve">
<path d="M174,62.2c-0.1-2.2,0-4.3,0-6.5c-2.8-0.1-5.7-0.3-8.4-0.9c-4.7-1-9.2-2.9-13.3-5.5c-0.3-0.3-0.5-0.6-0.9-0.8
	c-5.6-3.4-9.9-8.5-12.9-14.3c-1.9-3.7-3.4-7.7-4.2-11.8c0,0-0.1,0-0.2,0c-0.4-2.5-0.7-4.9-0.6-7.4c-9.7,0-19.5,0-29.2,0
	c0,14.1,0.1,28.3-0.1,42.4c0,24.7,0,49.4,0,74.1c0,8.2-4.5,16.2-11.5,20.5c-7.2,4.6-16.9,5-24.3,0.9c-2.7-1.7-5.3-3.6-7.4-6.1
	c-3.1-3.5-5-8-5.6-12.6c-0.5-4.8,0.3-9.7,2.5-14c1.3-2.5,3.1-4.8,5.3-6.6c3.5-3,7.9-4.9,12.4-6c3.8-0.9,7.8-0.9,11.5,0.4
	c0-4.9,0-9.7,0-14.6c0-2.8,0.1-5.7-0.1-8.5c-0.1-2.3,0-4.6,0-6.9c-12.2-1.8-24.9,0.9-35.4,7.4c-7.2,4.4-13.4,10.6-17.8,17.9
	c-4.8,7.9-7.6,17.1-7.8,26.4c-0.3,10.1,2.3,20.2,7.4,28.9c3.8,6.5,9,12.2,15.2,16.5c0.1,0.1,0.3,0.3,0.4,0.3
	c5.8,4.1,12.4,6.9,19.3,8.4c4.9,1.1,10,1.4,15,1.2c9.9-0.3,19.7-3.5,27.7-9.4c6.2-4.5,11.3-10.4,15.1-17c4.4-7.6,7.2-16.2,7.8-25
	c0.2-2.4,0.1-4.8,0.1-7.2c-0.1-18-0.2-36.1-0.2-54.1c11.6,8.3,25.9,12.8,40.2,12.7C174,77.3,174,69.7,174,62.2L174,62.2z"/>
</svg>
