<?xml version="1.0" encoding="utf-8"?>
<!-- Generator: Adobe Illustrator 21.0.0, SVG Export Plug-In . SVG Version: 6.00 Build 0)  -->
<svg version="1.1" id="图层_1" xmlns="http://www.w3.org/2000/svg" xmlns:xlink="http://www.w3.org/1999/xlink" x="0px" y="0px"
	 viewBox="0 0 200 200" style="enable-background:new 0 0 200 200;" xml:space="preserve">
<title>时区</title>
<desc>Created with Sketch.</desc>
<g id="日程中心备份">
	<g id="日程中心" transform="translate(-160.000000, -806.000000)">
		<g id="地球-_x28_1_x29_" transform="translate(160.000000, 806.000000)">
			<path id="时区" d="M100,15c46.9,0,85,38.1,85,85s-38.1,85-85,85s-85-38.1-85-85S53.1,15,100,15z M100,25
				c-24.5,0-46.3,11.8-60,30l30.3,0c10.4,0,18.8,8.5,18.8,18.8s-8.5,18.8-18.8,18.8c-3.9,0-7.1,3.2-7.1,7.1c0,3.9,3.2,7.1,7.1,7.1
				h47.1c10.4,0,18.8,8.5,18.8,18.8s-8.5,18.8-18.8,18.8l-77.8,0C53.3,163,75.3,175,100,175c41.4,0,75-33.6,75-75
				c0-2.5-0.1-4.9-0.4-7.3l-28.5,0c-10.4,0-18.8-8.5-18.8-18.8S135.8,55,146.2,55l13.8,0C146.3,36.8,124.5,25,100,25z M32.8,66.8
				c-5,10-7.8,21.3-7.8,33.2c0,11.7,2.7,22.8,7.5,32.7l84.9,0c3.9,0,7.1-3.2,7.1-7.1c0-3.9-3.2-7.1-7.1-7.1H70.3
				c-10.4,0-18.8-8.5-18.8-18.8s8.5-18.8,18.8-18.8c3.9,0,7.1-3.2,7.1-7.1c0-3.9-3.2-7.1-7.1-7.1L32.8,66.8z M172.5,80.9
				c-1.3-4.9-3.1-9.6-5.3-14.1l-21.1,0c-3.9,0-7.1,3.2-7.1,7.1c0,3.9,3.2,7.1,7.1,7.1L172.5,80.9z"/>
		</g>
	</g>
</g>
</svg>
