<?xml version="1.0" encoding="utf-8"?>
<!-- Generator: Adobe Illustrator 21.0.0, SVG Export Plug-In . SVG Version: 6.00 Build 0)  -->
<svg version="1.1" id="图层_1" xmlns="http://www.w3.org/2000/svg" xmlns:xlink="http://www.w3.org/1999/xlink" x="0px" y="0px"
	 viewBox="0 0 200 200" style="enable-background:new 0 0 200 200;" xml:space="preserve">
<title>su-icon-催办</title>
<desc>Created with Sketch.</desc>
<g id="事务中心">
	<g id="发起-进行中" transform="translate(-1705.000000, -456.000000)">
		<g id="su-icon-催办" transform="translate(1705.000000, 456.000000)">
			<g id="催办-_x28_1_x29_备份-2" transform="translate(1.777778, 0.000000)">
				<path id="形状结合" d="M147.7,65.5c13.1,13.1,20.5,30.9,20.5,49.5c0,33.4-23.6,62.2-56.4,68.7c-32.7,6.5-65.5-11-78.3-41.8
					c-12.8-30.9-2-66.6,25.9-85.1C87.2,38.3,124.1,41.9,147.7,65.5z M52.4,88.5c-12,20.7-8.5,46.8,8.5,63.7
					c9.9,10,23.4,15.6,37.6,15.5c14.1,0,27.6-5.6,37.6-15.5c9.9-9.9,15.5-23.3,15.5-37.3c0-23.9-16.1-44.9-39.3-51.1
					C88.9,57.6,64.4,67.8,52.4,88.5z M95.1,84.1c4.2,0,7.6,3.3,7.6,7.4v28.8h27.5c2.7-0.1,5.3,1.2,6.8,3.5v0c1.5,2.4,1.5,5.4,0,7.7
					c-1.5,2.3-4.1,3.6-6.7,3.5h-32c-3,0.2-5.9-0.9-8.1-3c-1.8-1.9-2.8-4.5-2.8-7.2V91.5C87.5,87.3,91,84.1,95.1,84.1z M120.4,15
					c2,0,4,0.8,5.5,2.2c1.5,1.5,2.3,3.5,2.3,5.5c0,4.2-3.5,7.6-7.8,7.6H76.1c-4.3,0-7.8-3.4-7.8-7.7c0-4.3,3.6-7.7,7.8-7.7H120.4z"
					/>
			</g>
		</g>
	</g>
</g>
</svg>
