<?xml version="1.0" encoding="utf-8"?>
<!-- Generator: Adobe Illustrator 21.0.0, SVG Export Plug-In . SVG Version: 6.00 Build 0)  -->
<svg version="1.1" id="图层_1" xmlns="http://www.w3.org/2000/svg" xmlns:xlink="http://www.w3.org/1999/xlink" x="0px" y="0px"
	 viewBox="0 0 200 200" style="enable-background:new 0 0 200 200;" xml:space="preserve">
<path d="M100,15c-46.9,0-85,38.1-85,85s38.1,85,85,85s85-38.1,85-85S146.9,15,100,15z M100,172.8c-40.1,0-72.8-32.7-72.8-72.8
	c0-40.1,32.7-72.8,72.8-72.8c40.1,0,72.8,32.7,72.8,72.8C172.8,140.1,140.1,172.8,100,172.8z"/>
<path d="M130.4,100H100V57.5c0-3.4-2.7-6.1-6.1-6.1s-6.1,2.7-6.1,6.1v48.6c0,3.4,2.7,6.1,6.1,6.1h36.4c3.4,0,6.1-2.7,6.1-6.1
	S133.7,100,130.4,100z"/>
</svg>
