<?xml version="1.0" encoding="utf-8"?>
<!-- Generator: Adobe Illustrator 21.0.0, SVG Export Plug-In . SVG Version: 6.00 Build 0)  -->
<svg version="1.1" id="图层_1" xmlns="http://www.w3.org/2000/svg" xmlns:xlink="http://www.w3.org/1999/xlink" x="0px" y="0px"
	 viewBox="0 0 200 200" style="enable-background:new 0 0 200 200;" xml:space="preserve">
<style type="text/css">
	.st0{opacity:0.8031;}
</style>
<title>待办</title>
<desc>Created with Sketch.</desc>
<g id="页面-1" class="st0">
	<g id="办结事务" transform="translate(-201.000000, -280.000000)">
		<g id="待办" transform="translate(201.000000, 280.000000)">
			<path id="形状结合" d="M100.3,14.6c22.9,0,44.4,9.1,60.3,24.9c0.6,0.6,1.1,1.3,1.4,2l5.4-3.9c0.8-0.6,1.8-0.4,2.4,0.4
				c0.3,0.4,0.4,0.8,0.3,1.3l-3,18.7c-0.1,0.9-1,1.6-2,1.4l-18.7-3c-0.9-0.1-1.6-1-1.4-2c0.1-0.4,0.3-0.8,0.7-1.1l5.9-4.3
				c-0.1-0.1-0.2-0.2-0.3-0.3c-13.5-13.4-31.6-21.1-51-21.1c-39.9,0-72.2,32.3-72.2,72.2s32.3,72.2,72.2,72.2
				c4.7,0,9.3-0.4,13.9-1.3c3.6-0.7,7,1.6,7.7,5.2c0.7,3.6-1.6,7-5.2,7.7c-5.4,1-10.8,1.6-16.4,1.6C53.2,185.4,15,147.1,15,100
				S53.2,14.6,100.3,14.6z M151.9,159.9c2.1,2.9,1.5,7-1.5,9.2c-3.5,2.5-7.1,4.8-10.9,6.7c-3.2,1.7-7.2,0.4-8.9-2.8
				c-1.7-3.2-0.4-7.2,2.8-8.9c3.2-1.7,6.3-3.6,9.2-5.7C145.7,156.4,149.8,157,151.9,159.9z M171.2,135c3.1,1.9,4.1,5.9,2.2,9
				c-2,3.3-4.1,6.4-6.5,9.3c-2.3,2.8-6.4,3.3-9.2,1c-2.8-2.3-3.3-6.4-1-9.2c2-2.5,3.9-5.2,5.5-7.9
				C164.1,134.1,168.1,133.1,171.2,135z M178.4,104.2l0.9,0.1c3.6,0.5,6.1,3.8,5.6,7.4c-0.6,4.5-1.6,8.9-2.9,13.2
				c-1.1,3.5-4.7,5.4-8.2,4.4s-5.4-4.7-4.4-8.2c1.1-3.6,1.9-7.3,2.4-11.1C172.3,106.6,175.2,104.2,178.4,104.2z M100.3,58.4
				c3.6,0,6.6,2.9,6.6,6.6l0,0v31l31.4,15.7c3.2,1.6,4.6,5.6,2.9,8.8c-1.6,3.2-5.6,4.6-8.8,2.9l0,0l-34.1-17
				c-2.8-1.4-4.6-4.3-4.6-7.4l0,0V65C93.8,61.4,96.7,58.4,100.3,58.4z M182.3,76.2c1.1,3.7,1.9,7.5,2.5,11.4c0.5,3.6-2,6.9-5.6,7.4
				c-3.6,0.5-6.9-2-7.4-5.6c-0.5-3.3-1.2-6.5-2.1-9.6c-1-3.5,1-7.1,4.5-8.1C177.7,70.8,181.3,72.8,182.3,76.2z"/>
		</g>
	</g>
</g>
</svg>
