<?xml version="1.0" encoding="utf-8"?>
<!-- Generator: Adobe Illustrator 21.0.0, SVG Export Plug-In . SVG Version: 6.00 Build 0)  -->
<svg version="1.1" id="图层_1" xmlns="http://www.w3.org/2000/svg" xmlns:xlink="http://www.w3.org/1999/xlink" x="0px" y="0px"
	 viewBox="0 0 200 200" style="enable-background:new 0 0 200 200;" xml:space="preserve">
<g id="办结事务" transform="translate(-201.000000, -280.000000)">
	<g id="待办" transform="translate(201.000000, 280.000000)">
		<path id="形状结合" d="M100.3,14.9c22.8,0,44.2,9.1,60.1,24.8c0.6,0.6,1.1,1.3,1.4,2l5.4-3.9c0.8-0.6,1.8-0.4,2.4,0.4
			c0.3,0.4,0.4,0.8,0.3,1.3l-3,18.6c-0.1,0.9-1,1.6-2,1.4l-18.6-3c-0.9-0.1-1.6-1-1.4-2c0.1-0.4,0.3-0.8,0.7-1.1l5.9-4.3
			c-0.1-0.1-0.2-0.2-0.3-0.3c-13.5-13.4-31.5-21-50.8-21c-39.8,0-71.9,32.2-71.9,71.9s32.2,71.9,71.9,71.9c4.7,0,9.3-0.4,13.9-1.3
			c3.6-0.7,7,1.6,7.7,5.2c0.7,3.6-1.6,7-5.2,7.7c-5.4,1-10.8,1.6-16.3,1.6c-46.9,0.2-85-38-85-84.9S53.4,14.9,100.3,14.9z
			 M151.7,159.7c2.1,2.9,1.5,7-1.5,9.2c-3.5,2.5-7.1,4.8-10.9,6.7c-3.2,1.7-7.2,0.4-8.9-2.8c-1.7-3.2-0.4-7.2,2.8-8.9
			c3.2-1.7,6.3-3.6,9.2-5.7C145.5,156.2,149.6,156.8,151.7,159.7z M170.9,134.9c3.1,1.9,4.1,5.9,2.2,9c-2,3.3-4.1,6.4-6.5,9.3
			c-2.3,2.8-6.4,3.3-9.2,1c-2.8-2.3-3.3-6.4-1-9.2c2-2.5,3.9-5.2,5.5-7.9C163.9,134,167.9,133,170.9,134.9z M178.1,104.2l0.9,0.1
			c3.6,0.5,6.1,3.8,5.6,7.4c-0.6,4.5-1.6,8.9-2.9,13.2c-1.1,3.5-4.7,5.4-8.2,4.4c-3.5-1-5.4-4.7-4.4-8.2c1.1-3.6,1.9-7.3,2.4-11.1
			C172,106.6,174.9,104.2,178.1,104.2z M100.3,58.5c3.6,0,6.6,2.9,6.6,6.6l0,0V96l31.3,15.6c3.2,1.6,4.6,5.6,2.9,8.8
			c-1.6,3.2-5.6,4.6-8.8,2.9l0,0l-34-16.9c-2.8-1.4-4.6-4.3-4.6-7.4l0,0V65.1C93.8,61.5,96.7,58.5,100.3,58.5z M182,76.3
			c1.1,3.7,1.9,7.5,2.5,11.4c0.5,3.6-2,6.9-5.6,7.4c-3.6,0.5-6.9-2-7.4-5.6c-0.5-3.3-1.2-6.5-2.1-9.6c-1-3.5,1-7.1,4.5-8.1
			C177.4,70.9,181,72.9,182,76.3z"/>
	</g>
</g>
</svg>
