<?xml version="1.0" encoding="utf-8"?>
<!-- Generator: Adobe Illustrator 21.0.0, SVG Export Plug-In . SVG Version: 6.00 Build 0)  -->
<svg version="1.1" id="图层_1" xmlns="http://www.w3.org/2000/svg" xmlns:xlink="http://www.w3.org/1999/xlink" x="0px" y="0px"
	 viewBox="0 0 200 200" style="enable-background:new 0 0 200 200;" xml:space="preserve">
<path d="M159,23.8l8.9,4.1l-19.8,17.8c-3.6,3.3-3.9,8.8-0.8,12.3c3.1,3.4,8.3,3.8,11.8,1l0.5-0.4l19.8-17.8l3.1,9.3
	c5.8,17.2,0.8,36.5-13.1,49.1c-7.9,7.1-18,11.3-28.6,11.9l28.7,28.7c9.5,9.5,9.6,24.6,0.3,33.9c-9.3,9.3-24.5,9.1-33.9-0.3
	l-32.4-32.4l-34.3,30.9c-13.5,12.2-34.2,11.3-46.2-2c-12-13.3-10.7-33.9,2.8-46.1l44.7-40.2l-15-15c-7.3,3.4-16.3,2-22.4-4.1
	L20.9,52c-4.3-4.3-4.4-11.2-0.2-15.4l12.2-12.2c4.2-4.2,11.1-4.2,15.4,0.1l12.4,12.5c6.1,6.1,7.5,15.1,4.1,22.4l15.5,15.5l13.2-11.9
	l0.1-1.5c1.2-11.5,6.6-22.1,15.2-29.8C122.8,19.1,142.5,16.2,159,23.8L159,23.8z M129.4,117.7l-16.1,14.5l31.9,31.9
	c4.3,4.3,11.2,4.4,15.4,0.1c4.2-4.2,4.1-11.1-0.2-15.4L129.4,117.7z M117.5,41.3c-7,6.2-11,15.1-11,24.5l0,2.9l-71.8,64.6
	c-8.1,7.3-8.9,19.7-1.7,27.7c7.2,8,19.6,8.5,27.7,1.2l71.8-64.6l2.9,0.3c9.3,0.9,18.6-2.1,25.5-8.4c6.6-6,10.6-14.3,11-23.2l0-1.2
	l-3.7,3.3l-0.8,0.7c-9.1,7.3-22.2,6.4-29.9-2.1c-8-8.9-7.1-22.6,1.9-30.8l3.6-3.2C133.7,32,124.5,35,117.5,41.3z M54.2,141.8
	c2.4,2.7,2.1,6.8-0.6,9.2c-2.7,2.4-6.8,2.3-9.2-0.4c-2.4-2.7-2.1-6.8,0.6-9.2C47.7,139,51.8,139.2,54.2,141.8z M40.8,35.2l-9.2,9.2
	l10.9,10.9c2.6,2.6,6.7,2.6,9.2,0.1c2.5-2.5,2.5-6.7-0.1-9.2L40.8,35.2L40.8,35.2z"/>
</svg>
