<?xml version="1.0" encoding="utf-8"?>
<!-- Generator: Adobe Illustrator 21.0.0, SVG Export Plug-In . SVG Version: 6.00 Build 0)  -->
<svg version="1.1" id="图层_1" xmlns="http://www.w3.org/2000/svg" xmlns:xlink="http://www.w3.org/1999/xlink" x="0px" y="0px"
	 viewBox="0 0 200 180" style="enable-background:new 0 0 200 180;" xml:space="preserve">
<title>置顶 (4)</title>
<desc>Created with Sketch.</desc>
<g>
	<path d="M159.3,70.8h-6.3l0,0v20.8h6.2c8.3,0,12.5-3.5,12.5-10.5C171.7,74.2,167.6,70.8,159.3,70.8z"/>
	<path d="M106.7,32.4c-17.8-8.9-53.3-6.2-106.7,8v112c44.4-17.8,75.6-22.2,93.3-13.3c24.2,10.7,59.8,15.1,106.7,13.3v-112
		C173.3,45.7,133.3,45.7,106.7,32.4z M127.3,116.3c-6,6.3-13.9,9.4-23.7,9.4c-9.6,0-17.3-3-23.3-9.1c-6-6.1-8.9-13.9-8.9-23.4h0
		c0-8.7,2.3-15.9,6.7-21.8H59.9v53.2H45.6V71.4h-19V60.1h52.2v10.3c0.5-0.6,1.1-1.3,1.7-1.9c6.1-6.3,14.1-9.5,24.1-9.5
		c9.5,0,17.2,3.1,23,9.2c5.8,6.1,8.7,14,8.7,23.6C136.4,101.9,133.4,110.1,127.3,116.3z M179.2,96.4c-5,4-11.3,5.9-18.8,5.7h-7.3
		v22.5h-14.2V60.1h22.9c16.6,0,24.9,6.8,24.9,20.4C186.7,87.1,184.2,92.4,179.2,96.4z"/>
	<path d="M104.3,70.9c-5.6,0-9.9,2-13.1,6c-3.2,4-4.8,9.2-4.8,15.5h0c0,6.3,1.6,11.4,4.7,15.4c3.1,4,7.4,6,12.9,6
		c5.6,0,9.9-1.9,13-5.7c3.1-3.8,4.7-8.9,4.7-15.4c0-6.7-1.5-12-4.5-15.9C114,72.9,109.8,70.9,104.3,70.9z"/>
</g>
</svg>
