<?xml version="1.0" encoding="utf-8"?>
<!-- Generator: Adobe Illustrator 21.0.0, SVG Export Plug-In . SVG Version: 6.00 Build 0)  -->
<svg version="1.1" id="图层_1" xmlns="http://www.w3.org/2000/svg" xmlns:xlink="http://www.w3.org/1999/xlink" x="0px" y="0px"
	 viewBox="0 0 200 200" style="enable-background:new 0 0 200 200;" xml:space="preserve">
<path d="M37.6,184l-1.7-1.7L37.6,184z M35.9,183.1l-1.7-1.7C35,181.8,35.5,182.3,35.9,183.1z M183.1,41.4c-1.3-1.3-3-2.1-5.1-2.1
	h-35V28.7c0-7.6-5.9-13.5-13.5-13.5H70c-7.2,0-13.5,5.9-13.5,13.5v11H22c-3.8,0-6.7,3-6.7,6.7c0,3.8,3,6.7,6.7,6.7h5.9v118.5
	c0,7.6,5.9,13.5,13.5,13.5h119.4c7.2,0,13.5-5.9,13.5-13.5V53.2h3.8c3.8,0,6.7-3,6.7-6.7C184.8,44.3,184.4,42.6,183.1,41.4z
	 M70,28.7h59.5v11H70V28.7z M160.7,171.3H41.4V53.2h119.8L160.7,171.3z M100,76c-3.8,0-6.7,3-6.7,6.7v63.7c0,3.8,3,6.7,6.7,6.7
	s6.7-3,6.7-6.7V82.7C106.7,78.9,103.8,76,100,76z M62.9,76c-3.8,0-6.7,3-6.7,6.7v63.7c0,3.8,3,6.7,6.7,6.7s6.7-3,6.7-6.7V82.7
	C70,78.9,66.7,76,62.9,76z M136.3,76c-3.8,0-6.7,3-6.7,6.7v63.7c0,3.8,3,6.7,6.7,6.7c3.8,0,6.7-3,6.7-6.7V82.7
	C143,78.9,140.1,76,136.3,76z"/>
</svg>
