<?xml version="1.0" encoding="utf-8"?>
<!-- Generator: Adobe Illustrator 21.0.0, SVG Export Plug-In . SVG Version: 6.00 Build 0)  -->
<svg version="1.1" id="图层_1" xmlns="http://www.w3.org/2000/svg" xmlns:xlink="http://www.w3.org/1999/xlink" x="0px" y="0px"
	 viewBox="0 0 200 200" style="enable-background:new 0 0 200 200;" xml:space="preserve">
<path d="M185,47.3c-6.4,2.8-13.1,4.7-20,5.5c7.3-4.4,12.7-11.2,15.3-19.3c-6.8,4.1-14.3,6.9-22.2,8.5c-13.2-14.1-35.2-14.8-49.3-1.7
	c-9.1,8.5-13,21.3-10.1,33.5c-28-1.4-54.2-14.7-71.9-36.4c-3.1,5.3-4.7,11.4-4.7,17.5c0,12.1,6.2,22.8,15.5,29
	c-5.5-0.2-11-1.7-15.8-4.4v0.4c0,16.6,11.7,30.9,28,34.2c-5.1,1.4-10.5,1.6-15.8,0.6c4.6,14.2,17.7,24,32.6,24.2
	C52,150.4,33.4,155.6,15,153.4c15.9,10.3,34.5,15.7,53.5,15.7c64.2,0,99.2-53.2,99.2-99.2c0-1.5,0-3-0.1-4.5
	C174.4,60.4,180.3,54.3,185,47.3L185,47.3z"/>
</svg>
