<?xml version="1.0" encoding="utf-8"?>
<!-- Generator: Adobe Illustrator 21.0.0, SVG Export Plug-In . SVG Version: 6.00 Build 0)  -->
<svg version="1.1" id="图层_1" xmlns="http://www.w3.org/2000/svg" xmlns:xlink="http://www.w3.org/1999/xlink" x="0px" y="0px"
	 viewBox="0 0 200 200" style="enable-background:new 0 0 200 200;" xml:space="preserve">
<path d="M171,103.2c1,1.2,1.6,2.5,1.6,4.1s-0.6,2.9-1.8,4.1s-2.5,1.8-4.1,1.8c-1.6,0-2.9-0.6-4.1-1.8l-62.5-60.9l-62.5,60.9
	c-1.2,1.2-2.6,1.8-4.2,1.8c-1.6,0-3-0.6-4.1-1.8c-1.1-1.2-1.7-2.5-1.7-4.1s0.5-2.9,1.6-4.1l66.6-64.7c1.3-1.2,2.8-1.8,4.4-1.8
	s3,0.6,4.2,1.8L171,103.2z M171,153.2c1,1.2,1.6,2.5,1.6,4.1s-0.6,2.9-1.8,4.1c-1.2,1.2-2.5,1.8-4.1,1.8c-1.6,0-2.9-0.6-4.1-1.8
	l-62.5-60.9l-62.5,60.9c-1.2,1.2-2.6,1.8-4.2,1.8c-1.6,0-3-0.6-4.1-1.8s-1.7-2.5-1.7-4.1s0.5-2.9,1.6-4.1l66.6-64.7
	c1.3-1.2,2.8-1.8,4.4-1.8s3,0.6,4.2,1.8L171,153.2z"/>
</svg>
