<?xml version="1.0" encoding="utf-8"?>
<!-- Generator: Adobe Illustrator 21.0.0, SVG Export Plug-In . SVG Version: 6.00 Build 0)  -->
<svg version="1.1" id="图层_1" xmlns="http://www.w3.org/2000/svg" xmlns:xlink="http://www.w3.org/1999/xlink" x="0px" y="0px"
	 viewBox="0 0 200 200" style="enable-background:new 0 0 200 200;" xml:space="preserve">
<path d="M107.1,70.4v79.1c0,3.9-3.2,7.1-7.1,7.1H100c-3.9,0-7.1-3.2-7.1-7.1V70.4l-33,33c-2.8,2.8-7.2,2.8-10,0l0,0
	c-2.8-2.8-2.8-7.2,0-10L95,48.3c2.8-2.8,7.2-2.8,10,0l45.1,45.1c2.8,2.8,2.8,7.2,0,10v0c-2.8,2.8-7.2,2.8-10,0L107.1,70.4z"/>
</svg>
