<?xml version="1.0" encoding="utf-8"?>
<!-- Generator: Adobe Illustrator 21.0.0, SVG Export Plug-In . SVG Version: 6.00 Build 0)  -->
<svg version="1.1" id="图层_1" xmlns="http://www.w3.org/2000/svg" xmlns:xlink="http://www.w3.org/1999/xlink" x="0px" y="0px"
	 viewBox="0 0 200 200" style="enable-background:new 0 0 200 200;" xml:space="preserve">
<path d="M95.5,67.2l-66.4,69.7c-1.2,1.3-1.8,2.7-1.8,4.3s0.6,3,1.8,4.3v0.2c1.2,1.2,2.6,1.8,4.2,1.8c1.6,0,3-0.6,4.2-1.8L100,80.1
	l62.5,65.6c1.2,1.2,2.6,1.8,4.2,1.8c1.6,0,3-0.6,4.2-1.8v-0.2c1.2-1.3,1.8-2.7,1.8-4.3s-0.6-3-1.8-4.3l-66.4-69.7
	c-1.2-1.2-2.7-1.8-4.5-1.8S96.7,66,95.5,67.2z"/>
</svg>
