<?xml version="1.0" encoding="utf-8"?>
<!-- Generator: Adobe Illustrator 21.0.0, SVG Export Plug-In . SVG Version: 6.00 Build 0)  -->
<svg version="1.1" id="图层_1" xmlns="http://www.w3.org/2000/svg" xmlns:xlink="http://www.w3.org/1999/xlink" x="0px" y="0px"
	 viewBox="0 0 200 200" style="enable-background:new 0 0 200 200;" xml:space="preserve">
<path d="M28.4,76.2L28.4,76.2c5,0,9-4,9-8.9V32.9h125.2v34.4c0,4.9,4,8.9,8.9,8.9h0.1c4.9,0,8.9-4,8.9-8.9V24v-0.1
	c0-4.9-4-8.9-8.9-8.9h-0.1h-143h-0.1c-4.9,0-8.9,4-8.9,8.9V24v43.3C19.5,72.3,23.5,76.2,28.4,76.2z"/>
<path d="M91,85.1l-48,48c-3.5,3.5-9.1,3.5-12.6,0l0,0c-3.5-3.5-3.5-9.1,0-12.6l63.3-63.3c3.5-3.5,9.1-3.5,12.6,0l63.3,63.3
	c3.5,3.5,3.5,9.1,0,12.6l0,0c-3.5,3.5-9.1,3.5-12.6,0l-48-48v91c0,4.9-4,8.9-8.9,8.9h-0.2c-4.9,0-8.9-4-8.9-8.9L91,85.1L91,85.1z"/>
</svg>
