<?xml version="1.0" encoding="utf-8"?>
<!-- Generator: Adobe Illustrator 21.0.0, SVG Export Plug-In . SVG Version: 6.00 Build 0)  -->
<svg version="1.1" id="图层_1" xmlns="http://www.w3.org/2000/svg" xmlns:xlink="http://www.w3.org/1999/xlink" x="0px" y="0px"
	 viewBox="0 0 200 200" style="enable-background:new 0 0 200 200;" xml:space="preserve">
<title>su-icon-Import</title>
<desc>Created with Sketch.</desc>
<path id="Shape" d="M95.5,16.9c1.3-1.3,3-1.9,4.6-1.9c1.7,0,3.4,0.6,4.6,1.9l29.6,29.6c2.6,2.6,2.6,6.7,0,9.3
	c-1.2,1.2-2.9,1.9-4.6,1.9c-1.7,0-3.4-0.7-4.6-1.9l-18.4-18.4V147c0,3.6-2.9,6.6-6.6,6.6c-3.6,0-6.6-2.9-6.6-6.6V37.4L75.2,55.8
	c-2.6,2.6-6.7,2.6-9.3,0c-2.6-2.6-2.6-6.7,0-9.3L95.5,16.9z M178.4,124.4c-3.6,0-6.6,2.9-6.6,6.6V168c0,2.1-1.7,3.9-3.9,3.9H32
	c-2.1,0-3.9-1.7-3.9-3.9v-37.1c0-3.6-2.9-6.6-6.6-6.6s-6.5,3-6.5,6.6v42.3c0,6.5,5.3,11.8,11.8,11.8h146.4c6.5,0,11.8-5.3,11.8-11.8
	v-42.3C185,127.3,182.1,124.4,178.4,124.4z"/>
</svg>
