<?xml version="1.0" encoding="utf-8"?>
<!-- Generator: Adobe Illustrator 21.0.0, SVG Export Plug-In . SVG Version: 6.00 Build 0)  -->
<svg version="1.1" id="图层_1" xmlns="http://www.w3.org/2000/svg" xmlns:xlink="http://www.w3.org/1999/xlink" x="0px" y="0px"
	 viewBox="0 0 200 200" style="enable-background:new 0 0 200 200;" xml:space="preserve">
<title>su-icon-edit</title>
<desc>Created with Sketch.</desc>
<g>
	<path d="M178.7,16.9H21.3c-3.5,0-6.3,2.8-6.3,6.3s2.8,6.3,6.3,6.3h157.5c3.5,0,6.3-2.8,6.3-6.3S182.2,16.9,178.7,16.9z"/>
	<path d="M111.6,100.4h15.8c1.6,0,2.5-1.9,1.5-3.2l-27.4-34.6c-0.8-1-2.3-1-3.1,0L87.6,76.4L54,42.8c-2.4-2.4-6.4-2.7-8.9-0.3
		c-2.6,2.4-2.6,6.5-0.1,9l34.8,34.8l-8.7,11c-1,1.3-0.1,3.2,1.5,3.2h21.3l0.6,0.6V177c0,3.4,2.8,6.2,6.2,6.2l0,0
		c3.4,0,6.2-2.8,6.2-6.2v-63.5l52.9,52.9c2.4,2.4,6.4,2.7,8.9,0.3c2.6-2.4,2.6-6.5,0.1-9L111.6,100.4z"/>
</g>
</svg>
