<?xml version="1.0" encoding="utf-8"?>
<!-- Generator: Adobe Illustrator 21.0.0, SVG Export Plug-In . SVG Version: 6.00 Build 0)  -->
<svg version="1.1" id="图层_1" xmlns="http://www.w3.org/2000/svg" xmlns:xlink="http://www.w3.org/1999/xlink" x="0px" y="0px"
	 viewBox="0 0 200 200" style="enable-background:new 0 0 200 200;" xml:space="preserve">
<path d="M171.6,32.9H28.4c-4.9,0-8.9-4-8.9-8.9v-0.1c0-4.9,4-8.9,8.9-8.9h143.2c4.9,0,8.9,4,8.9,8.9V24
	C180.5,28.9,176.5,32.9,171.6,32.9z M91,85.1l-48,48c-3.5,3.5-9.1,3.5-12.6,0l0,0c-3.5-3.5-3.5-9.1,0-12.6l63.3-63.3
	c3.5-3.5,9.1-3.5,12.6,0l63.3,63.3c3.5,3.5,3.5,9.1,0,12.6l0,0c-3.5,3.5-9.1,3.5-12.6,0l-48-48v91c0,4.9-4,8.9-8.9,8.9h-0.2
	c-4.9,0-8.9-4-8.9-8.9L91,85.1L91,85.1z"/>
</svg>
