<?xml version="1.0" encoding="utf-8"?>
<!-- Generator: Adobe Illustrator 21.0.0, SVG Export Plug-In . SVG Version: 6.00 Build 0)  -->
<svg version="1.1" id="图层_1" xmlns="http://www.w3.org/2000/svg" xmlns:xlink="http://www.w3.org/1999/xlink" x="0px" y="0px"
	 viewBox="0 0 200 200" style="enable-background:new 0 0 200 200;" xml:space="preserve">
<g>
	<path d="M142.5,57.6c0-23.5-19-42.6-42.5-42.6c-23.5,0-42.5,19.1-42.5,42.6c0,23.5,19,42.6,42.5,42.6
		C123.5,100.2,142.5,81.1,142.5,57.6z M100,86.5c-15.9,0-28.8-12.9-28.8-28.9c0-16,12.9-28.9,28.8-28.9c15.9,0,28.8,12.9,28.8,28.9
		C128.8,73.6,115.9,86.5,100,86.5z"/>
	<path d="M166,147.8h-16.7v-16.7c0-3.8-3.1-6.9-6.9-6.9c-3.8,0-6.9,3.1-6.9,6.9v16.7H119c-3.8,0-6.9,3.1-6.9,6.9
		c0,3.8,3.1,6.9,6.9,6.9h16.7v16.7c0,3.8,3.1,6.9,6.9,6.9c3.8,0,6.9-3.1,6.9-6.9v-16.7H166c3.8,0,6.9-3.1,6.9-6.9
		C172.9,150.8,169.8,147.8,166,147.8z"/>
	<path d="M139.9,112.1c-11.8-7.8-25.7-11.9-39.9-11.9c-40.3,0-72.9,32.7-72.9,73.1h0c0,0.1,0,0.2,0,0.4c0,3.8,3.1,6.8,6.8,6.9
		c3.8,0,6.8-3.1,6.8-6.9c0-0.1,0-0.2,0-0.4h0c0-32.8,26.5-59.4,59.2-59.4c7.4,0,14.6,1.4,21.1,3.9
		C126.8,114.5,133.2,112.5,139.9,112.1z"/>
</g>
</svg>
