<?xml version="1.0" encoding="utf-8"?>
<!-- Generator: Adobe Illustrator 21.0.0, SVG Export Plug-In . SVG Version: 6.00 Build 0)  -->
<svg version="1.1" id="图层_1" xmlns="http://www.w3.org/2000/svg" xmlns:xlink="http://www.w3.org/1999/xlink" x="0px" y="0px"
	 viewBox="0 0 200 200" style="enable-background:new 0 0 200 200;" xml:space="preserve">
<title>XS</title>
<g>
	<path d="M139.1,57.4c0-23.1-18.8-41.9-41.9-41.9S55.3,34.3,55.3,57.4c0,9.7,3.3,18.5,8.8,25.6C34.4,95.8,14.9,125.2,15,158
		c0,3.1,2.5,5.5,5.6,5.5c0,0,0,0,0,0c3.1,0,5.5-2.5,5.5-5.6C26,128,44.8,101.4,72.8,91.5c6.9,4.9,15.3,7.8,24.4,7.8
		C120.3,99.3,139,80.5,139.1,57.4z M97.2,26.6c17,0,30.8,13.8,30.8,30.8c0,17-13.8,30.8-30.8,30.8S66.4,74.5,66.4,57.4
		S80.2,26.6,97.2,26.6z"/>
	<path d="M184.8,141.6l-2.2-11c-0.7-3.8-3.9-6.5-7.8-6.6c-0.8,0-1.6-0.2-2.4-0.4c-3.4-1.1-5.5-4.4-5.2-7.9c0.5-3.8-1.8-7.4-5.4-8.7
		l-10.7-3.6c-3.6-1.3-7.6,0.1-9.6,3.3c-1.9,3-5.6,4.2-9,3c-0.8-0.3-1.5-0.6-2.1-1.1c-3.1-2.3-7.3-2.2-10.2,0.3l-8.4,7.2
		c-3,2.5-3.7,6.8-1.8,10.2c0.2,0.3,0.3,0.6,0.5,0.9c1.4,3.7-0.4,7.8-4,9.2c-3.6,1.5-5.7,5.3-5,9.1l2.2,11c0.7,3.8,3.9,6.5,7.8,6.6
		c0.8,0,1.6,0.2,2.4,0.4c3.4,1.1,5.5,4.4,5.2,7.9c-0.4,3.8,1.8,7.4,5.4,8.7l10.6,3.7c0.9,0.3,1.8,0.5,2.7,0.5c2.8,0,5.5-1.4,7-3.8
		c1.9-3,5.6-4.2,9-3c0.8,0.3,1.5,0.6,2.1,1.1c3.1,2.3,7.3,2.2,10.2-0.3l8.5-7.2c3-2.5,3.7-6.8,1.8-10.2c-1-1.8-1.2-4-0.6-5.9
		c0.7-2,2.2-3.5,4.1-4.3C183.5,149.3,185.6,145.5,184.8,141.6z M166.8,151.8c-1.4,4.2-1.2,8.7,0.7,12.7l-6.6,5.6
		c-1.2-0.7-2.4-1.3-3.7-1.8c-7.3-2.6-15.4-0.1-19.9,6.1l-8.2-2.9l0,0c0.3-7.7-4.5-14.7-11.8-17.2c-1.3-0.5-2.7-0.8-4-0.9l-1.7-8.5
		c8.2-4.1,11.7-14,7.8-22.3l6.6-5.6c1.2,0.7,2.4,1.3,3.7,1.8c7.3,2.6,15.4,0.1,19.9-6.1l8.2,2.9c-0.2,7.6,4.5,14.5,11.7,17.1
		c1.3,0.5,2.7,0.8,4,0.9l1.7,8.7C171.3,144.2,168.2,147.6,166.8,151.8z"/>
	<path d="M143.3,123.2c-11.3,0-20.5,9.2-20.5,20.5s9.2,20.5,20.5,20.5c8.7,0,16.5-5.5,19.3-13.7c0.8-2.2,1.1-4.4,1.1-6.7
		C163.7,132.3,154.6,123.2,143.3,123.2z M143.3,154.3c-5.9,0-10.7-4.8-10.7-10.7c0-5.9,4.8-10.7,10.7-10.7h0c1.2,0,2.5,0.2,3.6,0.6
		c4.2,1.5,7.1,5.5,7.1,10C154,149.5,149.2,154.3,143.3,154.3z"/>
</g>
</svg>
