<?xml version="1.0" encoding="utf-8"?>
<!-- Generator: Adobe Illustrator 21.0.0, SVG Export Plug-In . SVG Version: 6.00 Build 0)  -->
<svg version="1.1" id="图层_1" xmlns="http://www.w3.org/2000/svg" xmlns:xlink="http://www.w3.org/1999/xlink" x="0px" y="0px"
	 viewBox="0 0 200 200" style="enable-background:new 0 0 200 200;" xml:space="preserve">
<g>
	<path d="M115.9,107.5L115.9,107.5c-31.1-0.2-56.5,24.7-56.8,55.8c0,3.4,2.8,6.2,6.2,6.2c3.4,0,6.1-2.8,6.1-6.2
		c0-24.5,19.9-44.4,44.4-44.4c24.5,0,44.4,19.9,44.4,44.4c0,3.5,2.8,6.3,6.3,6.3s6.3-2.8,6.3-6.3C172.5,132.2,147,107.2,115.9,107.5
		z"/>
	<path d="M89.9,100.1l-1.1-1.2c-2.3-3.2-4-6.7-4.9-10.5l-0.2-0.8c0-0.1,0-0.1,0-0.2v-0.5h-0.1c-0.8-3.5-0.9-7.1-0.5-10.7v-0.8h-0.8
		c-8.6-1.3-14.5-9.3-13.2-17.8s9.3-14.5,17.8-13.2c4.7,0.7,8.8,3.4,11.2,7.5l0.5,0.8l0.7-0.4c3.3-1.9,6.9-3.2,10.7-3.8h1.1l-0.4-1.3
		c-6.9-14.5-24.3-20.7-38.9-13.8c-14.5,6.9-20.7,24.3-13.8,38.9c3.6,7.5,10.1,13,17.9,15.4c-27.6,4-48.6,27.8-48.5,56.4
		c0,3.7,3,6.6,6.6,6.6c3.7,0,6.6-3,6.6-6.6c0.1-24.2,19.8-43.8,44-43.8H89.9z"/>
	<path d="M86.5,79.1c0,15.7,12.7,28.4,28.4,28.3c15.6,0,28.3-12.7,28.3-28.3c0,0,0-0.1,0-0.1c0-15.7-12.7-28.4-28.4-28.3
		C99.2,50.7,86.5,63.5,86.5,79.1z M114.9,63.3c8.8,0,15.8,7.1,15.8,15.9c0,0,0,0,0,0c0,8.8-7.1,15.9-15.9,15.8
		C106.1,95,99,87.9,99,79.1C99,70.3,106.1,63.2,114.9,63.3z"/>
</g>
</svg>
