<?xml version="1.0" encoding="utf-8"?>
<!-- Generator: Adobe Illustrator 21.0.0, SVG Export Plug-In . SVG Version: 6.00 Build 0)  -->
<svg version="1.1" id="图层_1" xmlns="http://www.w3.org/2000/svg" xmlns:xlink="http://www.w3.org/1999/xlink" x="0px" y="0px"
	 viewBox="0 0 200 200" style="enable-background:new 0 0 200 200;" xml:space="preserve">
<g>
	<path d="M136.5,56.2L136.5,56.2c0-22.8-18.4-41.2-41.1-41.2c-22.7,0-41.1,18.4-41.1,41.2c0,22.8,18.4,41.2,41.1,41.2
		C118.1,97.4,136.5,79,136.5,56.2z M95.4,84.2c-15.4,0-27.9-12.5-27.9-28c0-15.4,12.5-28,27.9-28s27.9,12.5,27.9,28
		C123.3,71.6,110.8,84.2,95.4,84.2z"/>
	<path d="M148.5,111.5c-3.7,0-7.3,0.8-10.7,2.2c-13.4,5.9-19.5,21.6-13.6,35l-5.5,4.3l-6.1-7l-0.4-0.4c-2.3-2.1-5.8-2.2-8.2-0.2
		l-0.5,0.4c-2.1,2.3-2.2,5.8-0.2,8.2l5.7,6.5l-4,3.1l-4.7-5.4l-0.4-0.4c-2.3-2.1-5.8-2.2-8.2-0.2l-0.5,0.4c-2.1,2.3-2.2,5.8-0.2,8.2
		l4.2,4.9l-3.7,2.9l-0.4,0.4c-2.3,2.2-2.5,5.7-0.6,8.2c2.1,2.7,5.9,3.2,8.6,1.1l32.4-25.2c4.8,3.9,10.7,6.1,16.9,6.1
		c14.7,0,26.5-11.9,26.5-26.6C175.1,123.4,163.2,111.5,148.5,111.5z M148.5,152.3C148.5,152.3,148.5,152.3,148.5,152.3
		c-7.9,0-14.3-6.4-14.3-14.3s6.4-14.3,14.3-14.3c7.9,0,14.3,6.4,14.3,14.3C162.8,145.9,156.4,152.3,148.5,152.3z"/>
	<path d="M115.8,114.4c5.5-3.2,11.7-5.1,18.1-5.5c-11.1-7.3-24.3-11.5-38.5-11.5c-38.9,0-70.5,31.6-70.5,70.6l0,0.4
		c0,3.7,3,6.6,6.6,6.6c0,0,0,0,0,0c3.7,0,6.6-3,6.6-6.6v-0.4c0-31.7,25.6-57.4,57.3-57.4C102.4,110.7,109.3,111.9,115.8,114.4z"/>
</g>
</svg>
