<?xml version="1.0" encoding="utf-8"?>
<!-- Generator: Adobe Illustrator 21.0.0, SVG Export Plug-In . SVG Version: 6.00 Build 0)  -->
<svg version="1.1" id="图层_1" xmlns="http://www.w3.org/2000/svg" xmlns:xlink="http://www.w3.org/1999/xlink" x="0px" y="0px"
	 viewBox="0 0 200 200" style="enable-background:new 0 0 200 200;" xml:space="preserve">
<path d="M175.9,155.8c3.4,0,6.2,2.8,6.2,6.2s-2.8,6.2-6.2,6.2h-61.8l6.7,5.6c2.6,2.2,2.9,6.2,0.7,8.8c-2.2,2.6-6.1,2.9-8.7,0.7
	l-14.5-12.2c-3.7-3.1-4.2-8.6-1.1-12.3c1.7-2,4.1-3.1,6.7-3.1L175.9,155.8L175.9,155.8z M92.5,102.3c15.1,0,29.1,4.5,40.9,12.2
	c-6.8,0.4-13.4,2.4-19.2,5.9c-6.9-2.7-14.2-4-21.7-4c-33.6,0-60.8,27.3-60.7,60.9l0,0v0.4c0.2,3.9-2.8,7.1-6.7,7.3
	c-3.9,0.2-7.1-2.8-7.3-6.7c0-0.2,0-0.4,0-0.6v-0.4C17.8,135.8,51.2,102.3,92.5,102.3z M164.5,119.9l14.5,12.2
	c3.7,3.1,4.2,8.6,1.1,12.3c-1.7,2-4.1,3.1-6.7,3.1h-72.1c-3.4,0-6.2-2.8-6.2-6.2c0-3.4,2.8-6.2,6.2-6.2h61.8l-6.7-5.6
	c-2.6-2.2-3-6.1-0.8-8.8C157.9,118,161.8,117.7,164.5,119.9L164.5,119.9L164.5,119.9z M92.5,15c24.1,0,43.6,19.6,43.6,43.7
	s-19.5,43.7-43.6,43.7l0,0c-24.1,0-43.6-19.6-43.6-43.7C48.9,34.6,68.4,15,92.5,15L92.5,15z M92.5,29.1c-16.4,0-29.6,13.3-29.6,29.6
	c0,16.4,13.2,29.6,29.6,29.6s29.6-13.3,29.6-29.6C122.1,42.3,108.9,29.1,92.5,29.1z"/>
</svg>
