<?xml version="1.0" encoding="utf-8"?>
<!-- Generator: Adobe Illustrator 21.0.0, SVG Export Plug-In . SVG Version: 6.00 Build 0)  -->
<svg version="1.1" id="图层_1" xmlns="http://www.w3.org/2000/svg" xmlns:xlink="http://www.w3.org/1999/xlink" x="0px" y="0px"
	 viewBox="0 0 200 200" style="enable-background:new 0 0 200 200;" xml:space="preserve">
<path d="M158.8,153.7c-3.4-7.6-8-14.4-13.5-20.3c-5.5-5.9-12.7-10.6-20.3-13.5c-2.5-1.3-5.1-2.1-8-2.5c7.6-2.5,14.4-6.8,20.3-12.7
	c10.1-9.7,15.6-23.3,15.6-37.2s-5.5-27.1-15.6-37.2C127.1,20.5,114,15,100,15s-27.5,5.5-37.2,15.2C52.6,40,47.1,53.5,47.1,67.4
	s5.5,27.1,15.6,37.2c5.9,5.9,12.7,10.1,20.3,12.7c-2.5,0.8-5.5,1.7-8,2.5c-7.6,3.4-14.4,7.6-20.3,13.5c-5.9,5.9-10.6,12.7-13.5,20.3
	c-3.4,8-5.1,16.1-5.1,24.5c0,3.8,3,6.8,6.8,6.8c3.8,0,6.8-3,6.8-6.8c0-13.1,5.1-25.8,14.8-35.1c9.3-9.3,22-14.4,35.5-14.4
	c13.5,0,25.8,5.1,35.5,14.4c9.3,9.3,14.8,22,14.8,35.1c0,3.8,3,6.8,6.8,6.8s6.8-3,6.8-6.8C163.9,169.8,162.2,161.3,158.8,153.7z
	 M61.1,67.4c0-21.6,17.3-38.9,38.9-38.9c21.6,0,38.9,17.3,38.9,38.9c0,21.6-17.3,38.9-38.9,38.9C78.4,106.3,61.1,88.6,61.1,67.4z"/>
</svg>
