<?xml version="1.0" encoding="utf-8"?>
<!-- Generator: Adobe Illustrator 21.0.0, SVG Export Plug-In . SVG Version: 6.00 Build 0)  -->
<svg version="1.1" id="图层_1" xmlns="http://www.w3.org/2000/svg" xmlns:xlink="http://www.w3.org/1999/xlink" x="0px" y="0px"
	 viewBox="0 0 200 200" style="enable-background:new 0 0 200 200;" xml:space="preserve">
<title>数据资产图标-前台</title>
<g>
	<path d="M141.9,110.6c1.7-2.2,1.3-5.3-0.9-7c-6.8-5.4-14.5-9.5-22.7-12.1c11.5-7.4,19.1-20.2,19.2-34.9c0,0,0,0,0-0.1
		c0-22.9-18.6-41.5-41.5-41.5C73,15,54.4,33.6,54.4,56.5c0,14.9,7.8,27.9,19.6,35.3c-31.3,10.6-54.1,42.7-54.1,80.5
		c0,2.7,2.2,4.9,4.9,5c0,0,0.1,0,0.1,0c2.8,0,5-2.2,5-5c0-40.8,30-74.2,66.7-74.2c13.9,0,27.4,4.7,38.3,13.3
		C137.1,113.2,140.2,112.8,141.9,110.6z M95.9,88.1c-17.4,0-31.5-14.1-31.5-31.5C64.4,39.1,78.5,25,95.9,25
		c17.4,0,31.6,14.2,31.5,31.6C127.4,74,113.3,88.1,95.9,88.1z"/>
	<path d="M175.2,148.3h-21.8v-21.6c0-2.8-2.2-5-5-5s-5,2.2-5,5v21.6h-21.6c-2.8,0-5,2.2-5,5s2.2,5,5,5h21.6v21.8c0,0,0,0,0,0
		c0.1,2.8,2.4,4.9,5.1,4.9c2.7-0.1,4.8-2.2,4.9-4.9v-21.8h21.8c2.8,0,5-2.2,5-5S177.9,148.3,175.2,148.3z"/>
</g>
</svg>
