<?xml version="1.0" encoding="utf-8"?>
<!-- Generator: Adobe Illustrator 21.0.0, SVG Export Plug-In . SVG Version: 6.00 Build 0)  -->
<svg version="1.1" id="图层_1" xmlns="http://www.w3.org/2000/svg" xmlns:xlink="http://www.w3.org/1999/xlink" x="0px" y="0px"
	 viewBox="0 0 200 200" style="enable-background:new 0 0 200 200;" xml:space="preserve">
<title>TY</title>
<g>
	<path d="M77.4,97.5c21-0.1,38-17.2,38-38.2c0-0.1,0-0.1,0-0.2c-0.1-21.1-17.3-38.1-38.4-38C56,21.2,39,38.4,39,59.5
		C39.1,80.6,56.3,97.6,77.4,97.5z M77.4,30.4c15.9,0.1,28.8,13,28.8,28.9c0,0.1,0,0.1,0,0.2c-0.1,16-13.1,28.9-29.1,28.8
		c-16-0.1-28.9-13.1-28.8-29.1C48.4,43.2,61.4,30.3,77.4,30.4z"/>
	<path d="M180.4,32.8h-50.6c-2.6,0-4.6,2.1-4.6,4.6s2.1,4.6,4.6,4.6h50.6c2.6,0,4.6-2.1,4.6-4.6S182.9,32.8,180.4,32.8z"/>
	<path d="M170.2,59.2h-40.4c-2.6,0-4.6,2.1-4.6,4.6c0,2.6,2.1,4.6,4.6,4.6h40.4c2.6,0,4.6-2.1,4.6-4.6
		C174.8,61.3,172.8,59.2,170.2,59.2z"/>
	<path d="M91.8,103.1H62.9C36.4,103.1,15,124.7,15,151.2v11.5c0,8.9,7.3,16.2,16.2,16.2h92.4c8.9,0,16.2-7.2,16.2-16.2v-11.6
		c0,0,0,0,0-0.1C139.8,124.6,118.3,103.1,91.8,103.1z M130.5,162.7c0,3.8-3.1,6.9-6.9,6.9h-9.7c0-0.1,0-0.2,0-0.3v-26.6
		c0-2.6-2.1-4.6-4.6-4.6c-2.6,0-4.6,2.1-4.6,4.6v26.6c0,0.1,0,0.2,0,0.3H49.8c0-0.1,0-0.2,0-0.3v-26.6c0-2.6-2.1-4.6-4.6-4.6
		s-4.6,2.1-4.6,4.6v26.6c0,0.1,0,0.2,0,0.3h-9.4c-3.8,0-6.9-3.1-6.9-6.9v-11.6c0-21.4,17.3-38.7,38.6-38.8h28.9c0,0,0,0,0,0
		c21.4,0,38.7,17.4,38.7,38.8V162.7z"/>
</g>
</svg>
