<?xml version="1.0" encoding="utf-8"?>
<!-- Generator: Adobe Illustrator 21.0.0, SVG Export Plug-In . SVG Version: 6.00 Build 0)  -->
<svg version="1.1" id="图层_1" xmlns="http://www.w3.org/2000/svg" xmlns:xlink="http://www.w3.org/1999/xlink" x="0px" y="0px"
	 viewBox="0 0 200 200" style="enable-background:new 0 0 200 200;" xml:space="preserve">
<g id="页面-1">
	<g id="翱翔门户移动端账户登录" transform="translate(-47.000000, -203.000000)">
		<g id="账号登录" transform="translate(45.000000, 110.000000)">
			<g id="账户" transform="translate(0.000000, 93.000000)">
				<g id="用户" transform="translate(2.000000, 0.000000)">
					<path id="形状" d="M166.2,170.3l-132.1,0c-0.1,0-0.3-0.1-0.3-0.2v-27.3c0-1.3,1.4-3.4,2.8-4c0.2-0.1,16-7,34.5-11.6
						c9.5-2.4,19.7-4.2,29-4.2c8.4,0,17.6,1.5,26.4,3.6c12.7,3.1,25.2,7.2,37.2,12.3c1.2,0.5,2.6,2.6,2.6,3.9V170.3L166.2,170.3z
						 M74.5,53.4c0-13.1,10.6-23.7,23.7-23.7c13.1,0,23.7,10.6,23.7,23.7v28.3c0,13.1-10.7,23.7-23.7,23.7
						c-13.1,0-23.7-10.6-23.7-23.7V53.4L74.5,53.4z M169.4,125.4c-0.9-0.4-13.5-5.9-29.7-10.5c-5.5-1.6-11.1-2.9-16.7-4
						c8.3-7,13.7-17.4,13.7-29.1V53.4c0-21.2-17.2-38.4-38.4-38.4C77,15,59.8,32.2,59.8,53.4v28.3c0,12,5.7,22.7,14.4,29.7
						c-5.9,1.2-11.5,2.7-16.7,4.3c-9,2.7-17.9,5.9-26.6,9.6c-6.7,2.7-11.8,10.3-11.8,17.6v30.3l0.4,1.1c2.2,6.4,8.1,10.7,14.7,10.7
						h131.7c7.6,0,13.9-5.6,14.9-13.1l0.1-29.1C180.9,135.6,175.9,128,169.4,125.4z"/>
				</g>
			</g>
		</g>
	</g>
</g>
</svg>
