<?xml version="1.0" encoding="utf-8"?>
<!-- Generator: Adobe Illustrator 21.0.0, SVG Export Plug-In . SVG Version: 6.00 Build 0)  -->
<svg version="1.1" id="图层_1" xmlns="http://www.w3.org/2000/svg" xmlns:xlink="http://www.w3.org/1999/xlink" x="0px" y="0px"
	 viewBox="0 0 200 200" style="enable-background:new 0 0 200 200;" xml:space="preserve">
<path d="M152.3,73.3c0-31.3-25.4-56.7-56.7-56.7C64.4,16.6,39,42,39,73.3c-0.2,20.4,11,39.3,29,48.9c-24.5,9.5-42.3,31-47.2,56.8
	c-0.7,3.4,1.5,6.8,4.9,7.5c0,0,0.1,0,0.1,0H27c3,0.1,5.7-2,6.3-5c5.8-29.6,31.5-51.2,61.7-51.7h1.2
	C127.2,129.4,152.1,104.2,152.3,73.3z M51.6,73.3c0-24.3,19.7-44.1,44.1-44.1s44.1,19.7,44.1,44.1c0,24.1-19.3,43.8-43.4,44.1h-1.8
	C70.8,116.3,52,97,51.6,73.3L51.6,73.3z M139.1,129.9c-0.1,1.7,0.5,3.3,1.7,4.5c1.2,1.2,2.9,1.9,4.5,1.7h31.5c3.5,0,6.3-2.8,6.3-6.3
	c0-3.5-2.8-6.3-6.3-6.3l0,0h-31.5C141.9,123.7,139.1,126.5,139.1,129.9z M176.9,148.2h-50.4c-3.5-0.2-6.5,2.4-6.7,5.9
	c-0.2,3.5,2.4,6.5,5.9,6.7c0.3,0,0.6,0,0.9,0h50.4c3.5,0.2,6.5-2.4,6.7-5.9c0.2-3.5-2.4-6.5-5.9-6.7
	C177.5,148.2,177.2,148.2,176.9,148.2L176.9,148.2z M176.9,173.4h-49.7c-3.5-0.2-6.5,2.4-6.7,5.9c-0.2,3.5,2.4,6.5,5.9,6.7
	c0.3,0,0.6,0,0.9,0h49.7c1.7,0.1,3.3-0.5,4.5-1.7c1.2-1.2,1.8-2.9,1.7-4.5C183.2,176.2,180.4,173.4,176.9,173.4
	C176.9,173.4,176.9,173.4,176.9,173.4L176.9,173.4z"/>
</svg>
