<?xml version="1.0" encoding="utf-8"?>
<!-- Generator: Adobe Illustrator 21.0.0, SVG Export Plug-In . SVG Version: 6.00 Build 0)  -->
<svg version="1.1" id="图层_1" xmlns="http://www.w3.org/2000/svg" xmlns:xlink="http://www.w3.org/1999/xlink" x="0px" y="0px"
	 viewBox="0 0 200 200" style="enable-background:new 0 0 200 200;" xml:space="preserve">
<title>事务信息</title>
<desc>Created with Sketch.</desc>
<g id="学生">
	<g id="学生首页" transform="translate(-1564.000000, -782.000000)">
		<g id="事务信息" transform="translate(1564.000000, 782.000000)">
			<path id="形状结合" d="M159.7,15.3c5.4,0,9.8,4.4,9.8,9.9v37.4h3.2c6.8,0,12.3,5.5,12.3,12.2v97.3c0,6.8-5.5,12.3-12.3,12.3
				H27.2c-6.7,0-12.2-5.5-12.2-12.3V74.8c0-6.7,5.5-12.2,12.2-12.2l3.2,0l0-14.3c0-5.4,4.4-9.7,9.9-9.7l43.4,0l0-13.4
				c0-5.4,4.4-9.9,9.7-9.9H159.7z M172.7,74.8l-9.2,0.1H27.2l0.1,97.1l145.4,0L172.7,74.8z M74,105.6c5,0,9.9,2,13.4,5.5
				c2.1,2.1,3.7,4.6,4.6,7.4l21.9,0.8c2.3-8,9.8-13.7,18.2-13.7c5.1,0,9.8,2,13.4,5.5c3.6,3.6,5.6,8.5,5.6,13.5
				c0,10.5-8.6,19.1-19.1,19.1c-5,0-9.8-2-13.4-5.6c-2.2-2.3-3.7-4.7-4.6-7.2l-22.3,0c-2.7,7.6-9.9,12.9-17.9,12.9
				c-5.1,0-10-2.1-13.5-5.7c-3.7-3.9-5.5-8.7-5.5-13.5C55,114.1,63.5,105.6,74,105.6z M132.2,117.9c-2.9,0-5.6,2-6.4,4.7
				c-0.2,0.7-0.5,1.4-1,2c0.4,0.6,0.7,1.2,0.9,2c0.3,0.9,0.8,1.8,1.4,2.5c0.1,0.1,0.3,0.2,0.3,0.3c1.3,1.3,3,2,4.7,2
				c3.7,0,6.7-3.1,6.7-6.8c0-1.7-0.7-3.5-2-4.7C135.7,118.6,134,117.9,132.2,117.9z M74,117.9c-3.7,0-6.8,3-6.8,6.6
				c0,1.7,0.7,3.4,1.9,4.7c3.6,3.7,9.8,1.9,11.2-2.8c0.2-0.7,0.5-1.3,0.9-1.9c-0.4-0.6-0.7-1.2-0.9-1.9c-0.3-1.1-0.9-2.1-1.8-2.9
				C77.5,118.6,75.8,117.9,74,117.9z M112.1,50.9l-21.7,0c-0.2,0-0.4,0-0.5,0H42.7l0,11.7l69.4,0V50.9z M157.2,27.7H96v11h22.2
				c3.4,0,6.2,2.7,6.2,6.2v17.8h32.8V27.7z"/>
		</g>
	</g>
</g>
</svg>
