<?xml version="1.0" encoding="utf-8"?>
<!-- Generator: Adobe Illustrator 21.0.0, SVG Export Plug-In . SVG Version: 6.00 Build 0)  -->
<svg version="1.1" id="图层_1" xmlns="http://www.w3.org/2000/svg" xmlns:xlink="http://www.w3.org/1999/xlink" x="0px" y="0px"
	 viewBox="0 0 200 200" style="enable-background:new 0 0 200 200;" xml:space="preserve">
<g>
	<path d="M135.2,113.3c0,4.5,3.7,8.2,8.2,8.2s8.2-3.7,8.2-8.2c0-4.5-3.7-8.2-8.2-8.2S135.2,108.8,135.2,113.3z"/>
	<path d="M165.2,47.6H144v-9.3c0-5.7-2.6-10.9-7-14.4c-4.4-3.5-10.1-4.6-15.5-3.3L19.2,41.5l-0.3,0.1c-2.9,0.7-5,3.2-5.4,6.1h-0.1
		v0.9v11.3v100c0,10,8.2,18.2,18.2,18.2h133.6c10,0,18.2-8.2,18.2-18.2v-12.1V80.8v-15C183.4,55.8,175.3,47.6,165.2,47.6z
		 M123.9,32.5l0.3-0.1c1.8-0.5,3.7-0.1,5.2,1.1s2.4,2.9,2.4,4.8v9.3H49.7L123.9,32.5z M171.3,135.5h-27.9
		c-11.4,0-20.7-9.5-20.7-21.3c0-11.7,9.3-21.3,20.7-21.3h27.9V135.5z M143.4,80.8c-18.1,0-32.9,15-32.9,33.4
		c0,18.4,14.7,33.4,32.9,33.4h27.9v12.1c0,3.3-2.7,6.1-6.1,6.1H31.7c-3.3,0-6.1-2.7-6.1-6.1v-100H144h0h21.3c3.3,0,6.1,2.7,6.1,6.1
		v15H143.4z"/>
</g>
</svg>
