<?xml version="1.0" encoding="utf-8"?>
<!-- Generator: Adobe Illustrator 21.0.0, SVG Export Plug-In . SVG Version: 6.00 Build 0)  -->
<svg version="1.1" id="图层_1" xmlns="http://www.w3.org/2000/svg" xmlns:xlink="http://www.w3.org/1999/xlink" x="0px" y="0px"
	 viewBox="0 0 200 200" style="enable-background:new 0 0 200 200;" xml:space="preserve">
<path d="M153.6,157.4c2.2,2.7,1.7,6.7-1,8.8c0,0,0,0,0,0c-14.9,11.9-33.4,18.4-52.5,18.4c-19,0-37.5-6.4-52.4-18.3
	c-2.7-2.2-3.1-6.2-0.9-8.9c2.2-2.6,6-3.1,8.7-1c12.7,10.1,28.4,15.5,44.5,15.5c16.5,0,32.1-5.6,44.7-15.6
	C147.4,154.2,151.4,154.7,153.6,157.4C153.6,157.4,153.6,157.4,153.6,157.4z M29.9,123.7c6.5,0,11.7,5.2,11.7,11.7
	c0,6.5-5.2,11.7-11.7,11.7c-6.5,0-11.7-5.2-11.7-11.7C18.2,129,23.5,123.7,29.9,123.7L29.9,123.7z M170.2,123.7
	c6.5,0,11.7,5.2,11.7,11.7c0,6.5-5.2,11.7-11.7,11.7c-6.5,0-11.7-5.2-11.7-11.7C158.5,129,163.8,123.7,170.2,123.7L170.2,123.7z
	 M53.8,73.2c3.1-0.8,6.3,1.1,7.1,4.2l8.9,35.6L85,95.2c2.4-2.8,6.5-3.1,9.3-0.7c0.4,0.3,0.8,0.7,1.1,1.2l12.6,17.7l10.8-26.9
	c1.4-3.4,5.2-5,8.6-3.7c1.8,0.7,3.2,2.2,3.8,4l8,24l5-5c2.3-2.3,5.9-2.3,8.2,0c2.3,2.3,2.3,5.9,0,8.2c0,0,0,0,0,0l-10.7,10.7
	c-2.6,2.6-6.7,2.6-9.3,0c-0.7-0.7-1.3-1.6-1.6-2.6l-6.2-18.6l-9.1,22.7c-1.3,3.4-5.2,5-8.6,3.7c-1.2-0.5-2.2-1.3-2.9-2.3l-14.2-19.9
	L72.2,128c-2.4,2.8-6.5,3.1-9.3,0.7c-1-0.9-1.8-2.1-2.1-3.4L49.6,80.3C48.8,77.2,50.7,74,53.8,73.2L53.8,73.2z M73.1,26.9
	c1.5,3.2,0.1,6.9-3.1,8.4c-26.1,12.1-42.5,38.6-41.6,67.4c0.1,3.5-2.6,6.4-6.1,6.5c-3.5,0.1-6.4-2.6-6.5-6.1c0,0,0,0,0,0
	C14.7,69.3,34,38,64.7,23.9C67.9,22.4,71.6,23.8,73.1,26.9L73.1,26.9z M135.5,23.9c30.4,14.1,49.6,44.9,48.8,78.5
	c-0.1,3.5-3,6.2-6.4,6.1c-3.5-0.1-6.2-3-6.1-6.4c0.7-28.5-15.6-54.8-41.5-66.8c-3.2-1.5-4.5-5.2-3.1-8.4
	C128.6,23.8,132.3,22.4,135.5,23.9L135.5,23.9z M100.1,14.6c6.5,0,11.7,5.2,11.7,11.7c0,6.5-5.2,11.7-11.7,11.7c0,0,0,0,0,0
	c-6.5,0-11.7-5.2-11.7-11.7S93.6,14.6,100.1,14.6z"/>
</svg>
