<?xml version="1.0" encoding="utf-8"?>
<!-- Generator: Adobe Illustrator 21.0.0, SVG Export Plug-In . SVG Version: 6.00 Build 0)  -->
<svg version="1.1" id="图层_1" xmlns="http://www.w3.org/2000/svg" xmlns:xlink="http://www.w3.org/1999/xlink" x="0px" y="0px"
	 viewBox="0 0 200 200" style="enable-background:new 0 0 200 200;" xml:space="preserve">
<g>
	<path d="M130.1,71.2c2,0,3.9,0.2,5.8,0.4C130.7,46,104.8,27,75.2,27C42.1,27,15,50.8,15,81c0,17.4,9,31.7,24.1,42.8l-6,19.1
		l21-11.1c7.5,1.6,13.6,3.2,21.1,3.2c1.9,0,3.8-0.1,5.6-0.3c-1.2-4.2-1.9-8.7-1.9-13.3C78.9,93.7,101.5,71.2,130.1,71.2L130.1,71.2z
		 M97.7,54c4.5,0,7.5,3.1,7.5,7.9c0,4.8-3,7.9-7.5,7.9c-4.5,0-9-3.2-9-7.9C88.7,57.1,93.2,54,97.7,54L97.7,54z M55.6,69.8
		c-4.5,0-9.1-3.2-9.1-7.9c0-4.8,4.6-7.9,9.1-7.9c4.5,0,7.5,3.1,7.5,7.9C63.1,66.7,60.1,69.8,55.6,69.8L55.6,69.8z"/>
	<path d="M185,120.6c0-25.4-24.1-46-51.1-46c-28.6,0-51.2,20.7-51.2,46c0,25.4,22.5,46,51.2,46c6,0,12-1.6,18.1-3.2l16.5,9.5
		l-4.5-15.8C176,147.6,185,134.9,185,120.6z M117.3,112.7c-3,0-6-3.1-6-6.3c0-3.2,3-6.3,6-6.3c4.5,0,7.5,3.2,7.5,6.3
		C124.8,109.5,121.9,112.7,117.3,112.7z M150.4,112.7c-3,0-6-3.1-6-6.3c0-3.2,3-6.3,6-6.3c4.5,0,7.5,3.2,7.5,6.3
		C157.9,109.5,154.9,112.7,150.4,112.7z"/>
</g>
</svg>
