<?xml version="1.0" encoding="utf-8"?>
<!-- Generator: Adobe Illustrator 21.0.0, SVG Export Plug-In . SVG Version: 6.00 Build 0)  -->
<svg version="1.1" id="图层_1" xmlns="http://www.w3.org/2000/svg" xmlns:xlink="http://www.w3.org/1999/xlink" x="0px" y="0px"
	 viewBox="0 0 200 200" style="enable-background:new 0 0 200 200;" xml:space="preserve">
<path d="M142.7,95.4c9.8,3,20.6,10.3,20.6,23.2c0,21.3-30.8,48.2-77,48.2c-35.3,0-71.3-17.1-71.3-45.2c0-14.7,9.3-31.7,25.3-47.7
	c21.4-21.4,46.4-31.2,55.8-21.8c4.1,4.1,4.5,11.3,1.9,19.9c-1.4,4.3,4.1,1.9,4.1,1.9c17.3-7.2,32.4-7.7,37.9,0.2
	c2.9,4.2,2.7,10.1-0.1,16.9C138.7,94.2,140.3,94.7,142.7,95.4L142.7,95.4z M86.4,156.7c28.1-2.8,49.5-20,47.6-38.5
	c-1.8-18.5-26.1-31.2-54.3-28.4c-28.1,2.8-49.5,20-47.6,38.5C34,146.8,58.3,159.5,86.4,156.7z M54.9,119c5.8-11.8,21-18.5,34.4-15
	c13.9,3.6,20.9,16.6,15.3,29.4c-5.7,13-22.3,19.9-36.3,15.4C54.7,144.4,49,131.1,54.9,119z M66,139c4.4,2,10.2,0.1,12.9-4.2
	c2.7-4.4,1.3-9.4-3.1-11.3c-4.3-1.8-10,0.1-12.7,4.3C60.4,132,61.7,137,66,139z M83.1,125c1.7,0.7,3.9-0.1,4.9-1.8
	c1-1.7,0.3-3.6-1.4-4.2c-1.7-0.6-3.8,0.1-4.7,1.8C80.9,122.5,81.4,124.4,83.1,125z M160.8,80.9c-0.9,2.9-4.1,4.6-7,3.7
	c-2.9-0.9-4.6-4.1-3.7-7c0,0,0-0.1,0-0.1c1.2-3.6,0.3-7.6-2.2-10.5c-2.6-2.8-6.5-4.1-10.2-3.3c-3,0.6-6-1.3-6.6-4.3
	c-0.6-3,1.3-6,4.3-6.6c11.8-2.5,23.5,5,26,16.8C162.2,73.3,162,77.2,160.8,80.9z M130.6,30.1c15.7-3.4,32,1.9,42.8,13.9
	c10.8,12,14.4,28.8,9.4,44.1c-1.1,3.4-4.7,5.3-8.1,4.2c0,0,0,0,0,0c-3.4-1.1-5.3-4.8-4.2-8.2c5.4-16.8-3.8-34.9-20.6-40.3
	c-5.3-1.7-11-2-16.5-0.8c-3.6,0.6-6.9-1.9-7.5-5.4C125.3,34.1,127.4,30.9,130.6,30.1z"/>
</svg>
