<?xml version="1.0" encoding="utf-8"?>
<!-- Generator: Adobe Illustrator 21.0.0, SVG Export Plug-In . SVG Version: 6.00 Build 0)  -->
<svg version="1.1" id="图层_1" xmlns="http://www.w3.org/2000/svg" xmlns:xlink="http://www.w3.org/1999/xlink" x="0px" y="0px"
	 viewBox="0 0 200 200" style="enable-background:new 0 0 200 200;" xml:space="preserve">
<path d="M44.1,164c15.5,13.6,35.4,21.1,55.9,21c20.6,0,40.5-7.4,56-21c13.3-13.5-30.6-61.7-56-80.9C74.6,102.3,30.7,150.4,44.1,164z
	 M123.1,61.9c17.7,21,53,73.1,43,91.5c12.2-15.1,18.9-33.9,18.9-53.4c0-22.7-9.1-44.5-25.3-60.5c0,0-0.2-0.2-0.6-0.3
	c-0.6-0.2-1.3-0.3-2-0.3C152.9,38.9,143.1,42,123.1,61.9z M40.9,39.3c-0.4,0.1-0.6,0.3-0.6,0.3C24.1,55.5,15,77.3,15,100
	c0,20.2,7.1,38.8,18.9,53.4c-9.9-18.5,25.3-70.5,43.1-91.4c-20-19.9-29.9-23-34-23C42.2,38.9,41.5,39,40.9,39.3L40.9,39.3L40.9,39.3
	z M100,40.2c0,0-20.9-12.2-37.1-12.8c-6.4-0.2-10.3,2.1-10.8,2.4C67.3,19.6,83.4,15,99.9,15h0.1c16.5,0,32.6,4.6,47.9,14.8
	c-0.5-0.3-4.4-2.6-10.8-2.4C120.9,27.9,100,40.1,100,40.2L100,40.2z"/>
</svg>
