<?xml version="1.0" encoding="utf-8"?>
<!-- Generator: Adobe Illustrator 21.0.0, SVG Export Plug-In . SVG Version: 6.00 Build 0)  -->
<svg version="1.1" id="图层_1" xmlns="http://www.w3.org/2000/svg" xmlns:xlink="http://www.w3.org/1999/xlink" x="0px" y="0px"
	 viewBox="0 0 200 200" style="enable-background:new 0 0 200 200;" xml:space="preserve">
<path d="M181.1,53.2C185,68.4,185,100,185,100s0,31.6-3.9,46.8c-2.2,8.4-8.5,15-16.5,17.2c-14.5,4-64.6,4-64.6,4s-50.1,0-64.6-4
	c-8-2.3-14.3-8.8-16.5-17.2C15,131.6,15,100,15,100s0-31.6,3.9-46.8c2.2-8.4,8.5-15,16.5-17.2c14.6-4,64.6-4,64.6-4s50.1,0,64.6,4
	C172.7,38.3,179,44.9,181.1,53.2z M83,129.8l51-29.8L83,70.3V129.8z"/>
</svg>
