<?xml version="1.0" encoding="utf-8"?>
<!-- Generator: Adobe Illustrator 21.0.0, SVG Export Plug-In . SVG Version: 6.00 Build 0)  -->
<svg version="1.1" id="图层_1" xmlns="http://www.w3.org/2000/svg" xmlns:xlink="http://www.w3.org/1999/xlink" x="0px" y="0px"
	 viewBox="0 0 200 200" style="enable-background:new 0 0 200 200;" xml:space="preserve">
<path d="M82.2,184.2c-37.1,0-67.2-30.1-67.2-67.2v0c0-31,21-58.4,49.5-64.8c33.3-7.5,48.5-13.3,60.1-36.6c8.5,16.4,2.7,31.5,0,39.8
	c39.9-9.6,54.2-27.9,57.6-30.2c0,33.6-10.5,54.8-20.6,68.6c12.5-0.5,17.1-4.1,23.3-5c-2.8,12.3-12.8,29.7-36.8,40.8
	C142.2,161.3,114.5,184.2,82.2,184.2L82.2,184.2z M113.7,129.4c0,2.7-0.5,4.1-3.4,4.1l-26.8,0l25.2-27.6c7.3-7.3,7.3-11,7.3-20.3
	c0-2.8-0.4-6.1,0.4-8.9c0.4-1.2-0.4-1.6-1.6-1.2c-2.8,0.8-7.7,0.8-15.8,0.8H62.4c-2,0-2.8-1.2-2-2.8c0-0.4,0-1.6-0.8-1.6
	c-5.3,2.4-6.5,13.4-6.1,20.3c0,3.7,2,5.7,4.9,5.7h28.8l-29.6,31.7c-2,2.4-4.1,5.7-4.1,10.1v8.9c0,4.1,2.4,6.5,6.9,7.3h50.9
	c4.7,0,7.9-2,7.9-7.3V139C119.2,137.2,119.2,130.8,113.7,129.4z"/>
</svg>
