<?xml version="1.0" encoding="utf-8"?>
<!-- Generator: Adobe Illustrator 21.0.0, SVG Export Plug-In . SVG Version: 6.00 Build 0)  -->
<svg version="1.1" id="图层_1" xmlns="http://www.w3.org/2000/svg" xmlns:xlink="http://www.w3.org/1999/xlink" x="0px" y="0px"
	 viewBox="0 0 200 200" style="enable-background:new 0 0 200 200;" xml:space="preserve">
<path d="M113.8,164.3h13.6l4.5,15.3l24.4-15.3h28.7V38.1h-71.1C113.8,38.1,113.8,164.3,113.8,164.3z M128.2,51.8h42.2v98.9h-16.2
	l-16.2,10.2l-2.9-10.1l-6.9,0V51.8L128.2,51.8z M101.8,95.8H71.4c0.9-14.2,1.3-28.4,1.3-42.6h29.7c0,0,1.1-13.1-5-12.9H46.1
	c2-7.6,4.6-15.5,7.6-23.6c0,0-14,0-18.7,12.5c-2,5.2-7.7,25-17.8,45.3c3.4-0.4,14.7-0.7,21.4-12.9c1.2-3.4,1.5-3.9,3-8.4h16.7
	c0,6.1-0.7,38.8-1,42.6H27c-6.8,0-9,13.7-9,13.7h38c-2.6,29-16.2,53.4-41.1,72.6c11.9,3.4,23.7-0.5,29.6-5.7
	c0,0,13.3-12.1,20.6-40.2l31.3,37.7c0,0,4.6-15.6-0.7-23.2c-4.4-5.2-16.3-19.2-21.3-24.3l-8.5,6.7c2.5-8.1,4-16,4.6-23.6h35.7
	C106.2,109.5,106.1,95.8,101.8,95.8L101.8,95.8z"/>
</svg>
